<svg xmlns="http://www.w3.org/2000/svg" xmlns:xlink="http://www.w3.org/1999/xlink" width="189.16" height="194.619" viewBox="0 0 189.16 194.619">
  <defs>
    <clipPath id="clip-path">
      <rect id="Rectangle_141" data-name="Rectangle 141" width="189.16" height="194.619" fill="none"/>
    </clipPath>
  </defs>
  <g id="Group_17680" data-name="Group 17680" clip-path="url(#clip-path)">
    <path id="Path_4012" data-name="Path 4012" d="M171.723,262.823V243.759h-.106a18.974,18.974,0,0,0-18.958,18.97v.146a18.974,18.974,0,0,0,18.958,18.97h.106Z" transform="translate(-54.798 -87.5)" fill="#4db2e5"/>
    <path id="Path_4013" data-name="Path 4013" d="M142.041,262.875v-.146a18.974,18.974,0,0,0-18.958-18.97h-.106v38.086h.106a18.974,18.974,0,0,0,18.958-18.97" transform="translate(-44.144 -87.5)" fill="#fff"/>
    <path id="Path_4014" data-name="Path 4014" d="M48.926,81.913V62.849H48.82a18.974,18.974,0,0,0-18.958,18.97v.146a18.974,18.974,0,0,0,18.958,18.97h.106Z" transform="translate(-10.719 -22.56)" fill="#f3792d"/>
    <path id="Path_4015" data-name="Path 4015" d="M19.245,81.965v-.146A18.974,18.974,0,0,0,.287,62.849H.181v38.086H.287a18.974,18.974,0,0,0,18.958-18.97" transform="translate(-0.065 -22.56)" fill="#81ba41"/>
    <path id="Path_4016" data-name="Path 4016" d="M61.847,231.489a18.974,18.974,0,0,1,18.97-18.958,18.974,18.974,0,0,1-18.97,18.958" transform="translate(-22.201 -76.29)" fill="#f3792d"/>
    <path id="Path_4017" data-name="Path 4017" d="M110.638,231.489a18.974,18.974,0,0,0-18.97-18.958,18.974,18.974,0,0,0,18.97,18.958" transform="translate(-32.905 -76.29)" fill="#f3792d"/>
    <path id="Path_4018" data-name="Path 4018" d="M110.638,183.016a18.974,18.974,0,0,1-18.97,18.958,18.974,18.974,0,0,1,18.97-18.958" transform="translate(-32.905 -65.696)" fill="#f3792d"/>
    <path id="Path_4019" data-name="Path 4019" d="M61.847,183.016a18.974,18.974,0,0,0,18.97,18.958,18.974,18.974,0,0,0-18.97-18.958" transform="translate(-22.201 -65.696)" fill="#f3792d"/>
    <path id="Path_4020" data-name="Path 4020" d="M172.176,120.23a18.974,18.974,0,0,1-18.97,18.958,18.974,18.974,0,0,1,18.97-18.958" transform="translate(-54.995 -43.158)" fill="#4db2e5"/>
    <path id="Path_4021" data-name="Path 4021" d="M123.385,120.23a18.974,18.974,0,0,0,18.97,18.958,18.974,18.974,0,0,0-18.97-18.958" transform="translate(-44.29 -43.158)" fill="#4db2e5"/>
    <path id="Path_4022" data-name="Path 4022" d="M172.176,149.911a18.975,18.975,0,0,1-18.97,18.959,18.975,18.975,0,0,1,18.97-18.959" transform="translate(-54.995 -53.812)" fill="#f3792d"/>
    <path id="Path_4023" data-name="Path 4023" d="M123.385,149.911a18.975,18.975,0,0,0,18.97,18.959,18.975,18.975,0,0,0-18.97-18.959" transform="translate(-44.29 -53.812)" fill="#f3792d"/>
    <path id="Path_4024" data-name="Path 4024" d="M20.787,121.648a18.974,18.974,0,0,1-18.97,18.958,18.974,18.974,0,0,1,18.97-18.958" transform="translate(-0.652 -43.667)" fill="#f1ce35"/>
    <path id="Path_4025" data-name="Path 4025" d="M31.261,121.648a18.974,18.974,0,0,0,18.97,18.958,18.974,18.974,0,0,0-18.97-18.958" transform="translate(-11.221 -43.667)" fill="#f1ce35"/>
    <path id="Path_4026" data-name="Path 4026" d="M20.787,151.329a18.974,18.974,0,0,1-18.97,18.958,18.974,18.974,0,0,1,18.97-18.958" transform="translate(-0.652 -54.321)" fill="#fff"/>
    <path id="Path_4027" data-name="Path 4027" d="M31.261,151.329a18.974,18.974,0,0,0,18.97,18.958,18.974,18.974,0,0,0-18.97-18.958" transform="translate(-11.221 -54.321)" fill="#fff"/>
    <rect id="Rectangle_137" data-name="Rectangle 137" width="19.064" height="19.064" transform="translate(19.945 116.924)" fill="#4db2e5"/>
    <rect id="Rectangle_138" data-name="Rectangle 138" width="19.064" height="19.064" transform="translate(0.872 136.021)" fill="#81ba41"/>
    <rect id="Rectangle_139" data-name="Rectangle 139" width="19.064" height="19.064" transform="translate(57.502 0.001)" fill="#4db2e5"/>
    <rect id="Rectangle_140" data-name="Rectangle 140" width="19.064" height="19.064" transform="translate(38.43 19.098)" fill="#fff"/>
    <path id="Path_4028" data-name="Path 4028" d="M182.507,197.466a18.975,18.975,0,1,0,18.975-18.975,18.974,18.974,0,0,0-18.975,18.975" transform="translate(-65.513 -64.071)" fill="#f1ce35"/>
    <path id="Path_4029" data-name="Path 4029" d="M159.156,235.257l-13.481-13.48-13.48,13.48Z" transform="translate(-47.453 -79.609)" fill="#81ba41"/>
    <path id="Path_4030" data-name="Path 4030" d="M159.156,214.82l-13.481-13.481-13.48,13.481Z" transform="translate(-47.453 -72.273)" fill="#f1ce35"/>
    <path id="Path_4031" data-name="Path 4031" d="M159.183,193.152,145.7,179.671l-13.481,13.481Z" transform="translate(-47.463 -64.495)" fill="#fff"/>
    <path id="Path_4032" data-name="Path 4032" d="M216.958,292.388l-13.481-13.481L190,292.388Z" transform="translate(-68.202 -100.117)" fill="#e2a536"/>
    <path id="Path_4137" data-name="Path 4137" d="M216.958,292.388l-13.481-13.481L190,292.388Z" transform="translate(-146.668 -186.81)" fill="#e2a536"/>
    <path id="Path_4033" data-name="Path 4033" d="M216.958,271.952l-13.481-13.481L190,271.952Z" transform="translate(-68.202 -92.781)" fill="#f3792d"/>
    <path id="Path_4136" data-name="Path 4136" d="M216.958,271.952l-13.481-13.481L190,271.952Z" transform="translate(-146.668 -179.474)" fill="#f3792d"/>
    <path id="Path_4034" data-name="Path 4034" d="M216.986,250.284,203.5,236.8l-13.48,13.481Z" transform="translate(-68.212 -85.003)" fill="#fff"/>
    <path id="Path_4135" data-name="Path 4135" d="M216.986,250.284,203.5,236.8l-13.48,13.481Z" transform="translate(-146.678 -171.696)" fill="#fff"/>
    <path id="Path_4035" data-name="Path 4035" d="M61.954,262.763a18.975,18.975,0,1,0,18.975-18.975,18.974,18.974,0,0,0-18.975,18.975" transform="translate(-22.239 -87.51)" fill="#81ba41"/>
    <path id="Path_4036" data-name="Path 4036" d="M48.79,244.511a18.974,18.974,0,0,1-18.97,18.958,18.974,18.974,0,0,1,18.97-18.958" transform="translate(-10.704 -87.77)" fill="#e2a536"/>
    <path id="Path_4037" data-name="Path 4037" d="M0,244.511a18.974,18.974,0,0,0,18.97,18.958A18.974,18.974,0,0,0,0,244.511" transform="translate(0 -87.77)" fill="#e2a536"/>
    <path id="Path_4038" data-name="Path 4038" d="M0,292.984a18.974,18.974,0,0,1,18.97-18.958A18.974,18.974,0,0,1,0,292.984" transform="translate(0 -98.365)" fill="#e2a536"/>
    <path id="Path_4039" data-name="Path 4039" d="M48.79,292.984a18.974,18.974,0,0,0-18.97-18.958,18.974,18.974,0,0,0,18.97,18.958" transform="translate(-10.704 -98.365)" fill="#e2a536"/>
    <path id="Path_4040" data-name="Path 4040" d="M284.461,243.093a18.974,18.974,0,0,1-18.97,18.958,18.974,18.974,0,0,1,18.97-18.958" transform="translate(-95.301 -87.261)" fill="#81ba41"/>
    <path id="Path_4140" data-name="Path 4140" d="M284.461,243.093a18.974,18.974,0,0,1-18.97,18.958,18.974,18.974,0,0,1,18.97-18.958" transform="translate(-206.433 -204.259)" fill="#fff"/>
    <path id="Path_4041" data-name="Path 4041" d="M235.67,243.093a18.974,18.974,0,0,0,18.97,18.958,18.974,18.974,0,0,0-18.97-18.958" transform="translate(-84.596 -87.261)" fill="#81ba41"/>
    <path id="Path_4139" data-name="Path 4139" d="M235.67,243.093a18.974,18.974,0,0,0,18.97,18.958,18.974,18.974,0,0,0-18.97-18.958" transform="translate(-196.022 -203.701)" fill="#e2a537"/>
    <path id="Path_4042" data-name="Path 4042" d="M235.67,291.567a18.974,18.974,0,0,1,18.97-18.958,18.974,18.974,0,0,1-18.97,18.958" transform="translate(-84.596 -97.856)" fill="#81ba41"/>
    <path id="Path_4043" data-name="Path 4043" d="M284.461,291.567a18.974,18.974,0,0,0-18.97-18.958,18.974,18.974,0,0,0,18.97,18.958" transform="translate(-95.301 -97.856)" fill="#81ba41"/>
  </g>
</svg>
