<svg id="Group_18309" data-name="Group 18309" xmlns="http://www.w3.org/2000/svg" width="49.996" height="50.041" viewBox="0 0 49.996 50.041">
  <path id="Path_5424" data-name="Path 5424" d="M49.084,32.514a16.62,16.62,0,0,1-32.068,6.112,17.107,17.107,0,0,1-1.156-5.308c-.017-.312-.149-.327-.388-.343a16.163,16.163,0,0,1-9.026-3.392A15.855,15.855,0,0,1,.227,19.2,16.059,16.059,0,0,1,6.221,3.6,15.459,15.459,0,0,1,13.916.194,16.473,16.473,0,0,1,30.708,8.172a15.951,15.951,0,0,1,2.233,7.421c.012.245.093.3.322.309A16.6,16.6,0,0,1,49.084,32.514m-1.259-.025A15.354,15.354,0,1,0,32.366,47.84,15.378,15.378,0,0,0,47.825,32.489M13.62,17.636c1.3,0,2.591.02,3.886-.012.44-.01.441.2.445.522s-.017.511-.449.508c-2.438-.025-4.876-.012-7.315-.013-.713,0-.713,0-.466.665a8.44,8.44,0,0,0,7.656,5.608.434.434,0,0,0,.453-.29,16.595,16.595,0,0,1,13.778-8.716c.37-.018.338-.194.318-.433a15.671,15.671,0,0,0-1.385-5.439A15.485,15.485,0,1,0,15.573,31.962c.2.012.269-.025.28-.232a16.235,16.235,0,0,1,1.11-5.226c.124-.31.02-.365-.262-.37a5.586,5.586,0,0,1-1.43-.241,9.559,9.559,0,0,1-6.946-6.834c-.1-.322-.207-.453-.549-.425-.363.032-.731,0-1.1,0-.124,0-.221,0-.252-.176-.123-.68-.015-.824.655-.824a4.615,4.615,0,0,1,.5,0c.307.033.433-.051.408-.4-.036-.531,0-1.067-.008-1.6,0-.3.257-.665.041-.869s-.61-.056-.927-.066c-.758-.028-.647.143-.673-.683-.008-.264.083-.34.333-.332.426.015.854-.01,1.28.01.254.01.35-.066.438-.322A9.656,9.656,0,0,1,20.295,7.2c.794.232.783.219.509,1.015-.109.32-.214.421-.572.294A7.473,7.473,0,0,0,17.865,8.1,8.4,8.4,0,0,0,9.9,13.256c-.141.345-.136.453.289.451,2.422-.018,4.845-.007,7.268-.01.289,0,.556-.038.5.406-.045.315.081.627-.483.619-2.544-.035-5.089-.008-7.633-.022-.328,0-.446.095-.493.416a13.935,13.935,0,0,0-.088,2c0,.378.111.536.526.527,1.279-.027,2.559-.01,3.84-.01" transform="translate(0.456 0.456)" fill="#1471ce"/>
  <path id="Path_5424_-_Outline" data-name="Path 5424 - Outline" d="M32.434,49.541a16.919,16.919,0,0,1-5.016-.765A17.384,17.384,0,0,1,22.874,46.6a16.714,16.714,0,0,1-6.327-7.855,17.678,17.678,0,0,1-1.181-5.363A16.665,16.665,0,0,1,6.121,29.9,16.309,16.309,0,0,1-.268,19.226,16.511,16.511,0,0,1,5.885,3.21,15.909,15.909,0,0,1,13.8-.3,17.432,17.432,0,0,1,16.42-.5,16.9,16.9,0,0,1,31.057,7.9a16.459,16.459,0,0,1,2.289,7.51A16.8,16.8,0,0,1,42.9,18.97,17.2,17.2,0,0,1,46.435,22.7a16.9,16.9,0,0,1,2.291,4.672,17.083,17.083,0,0,1,.77,5.1,17.328,17.328,0,0,1-1.007,5.745A17,17,0,0,1,41.508,46.9a17.468,17.468,0,0,1-5.4,2.229A16.465,16.465,0,0,1,32.434,49.541ZM16.42.413A16.518,16.518,0,0,0,13.941.6,15.009,15.009,0,0,0,6.47,3.911a16.73,16.73,0,0,0-5.054,6.778,16.31,16.31,0,0,0-.781,8.4A15.425,15.425,0,0,0,6.682,29.18a15.772,15.772,0,0,0,8.777,3.3.75.75,0,0,1,.812.774A16.755,16.755,0,0,0,17.4,38.418a15.806,15.806,0,0,0,5.985,7.427,16.472,16.472,0,0,0,4.305,2.06,16.007,16.007,0,0,0,4.746.724,15.55,15.55,0,0,0,3.468-.391,16.557,16.557,0,0,0,5.122-2.113,16.084,16.084,0,0,0,6.607-8.216,16.414,16.414,0,0,0,.953-5.441A16.116,16.116,0,0,0,42.337,19.69,15.891,15.891,0,0,0,33.2,16.313a.7.7,0,0,1-.758-.743,15.555,15.555,0,0,0-2.17-7.211A15.988,15.988,0,0,0,16.42.413ZM32.4,48.253H32.32a15.481,15.481,0,0,1-6.1-1.285,15.957,15.957,0,0,1-5.043-3.456A15.765,15.765,0,0,1,32.432,16.655h.022a15.64,15.64,0,0,1,6.05,1.218,15.852,15.852,0,0,1,9.733,14.569v.006A15.871,15.871,0,0,1,32.4,48.253Zm.029-30.685a14.925,14.925,0,0,0-14.9,14.737,14.776,14.776,0,0,0,4.3,10.565,15.049,15.049,0,0,0,4.756,3.26,14.573,14.573,0,0,0,5.741,1.21H32.4A14.726,14.726,0,0,0,38.088,46.2a14.879,14.879,0,0,0,.064-27.488,14.732,14.732,0,0,0-5.7-1.147ZM15.587,32.376l-.085,0a15.616,15.616,0,0,1-4.971-1.11,16.133,16.133,0,0,1-7.6-6.348,15.853,15.853,0,0,1-2-4.715,15.62,15.62,0,0,1-.2-6.474A16.127,16.127,0,0,1,7.352,3.371,15.555,15.555,0,0,1,13.295.85,16.432,16.432,0,0,1,16.442.543a15.883,15.883,0,0,1,8.521,2.467,15.917,15.917,0,0,1,7.375,12.384l0,.027a.813.813,0,0,1-.153.65.834.834,0,0,1-.6.248,16.139,16.139,0,0,0-13.4,8.474.89.89,0,0,1-.822.533h-.055A8.88,8.88,0,0,1,9.249,19.42c-.161-.437-.267-.723-.074-1s.51-.278.947-.278H10.6l3.2,0c1,0,2.32,0,3.651.015,0-.02,0-.038,0-.049s0-.045,0-.068c-.5.012-1.039.017-1.7.017q-.543,0-1.087,0c-.717,0-1.434,0-2.151-.006l-1.065,0c-.665,0-1.2,0-1.7.015h-.04a.866.866,0,0,1-.952-.984v-.147a13.257,13.257,0,0,1,.093-1.92.842.842,0,0,1,.936-.808h.011c.532,0,1.113,0,1.827,0h2.348c1.025,0,2.239,0,3.462.019h.007c0-.034,0-.072.005-.113h-.03c-.813,0-1.618,0-2.426,0h-1.4c-.949,0-2.2,0-3.442.011h-.013a.812.812,0,0,1-.72-.287.822.822,0,0,1,.018-.793,8.649,8.649,0,0,1,3.257-3.952A8.939,8.939,0,0,1,17.831,7.6a7.971,7.971,0,0,1,2.5.432l0-.006.015-.043c.034-.1.071-.207.1-.29-.083-.027-.191-.059-.291-.088L20.123,7.6a9.1,9.1,0,0,0-2.557-.368,9.233,9.233,0,0,0-8.7,6.257.816.816,0,0,1-.828.63H7.977c-.115-.005-.237-.008-.388-.008-.181,0-.362,0-.543,0l-.2,0q0,.051,0,.1c.079,0,.155,0,.229,0h.015a2.214,2.214,0,0,0,.226-.018,2.889,2.889,0,0,1,.327-.024A.907.907,0,0,1,8.3,14.4a.917.917,0,0,1,.149.984A1.087,1.087,0,0,0,8.4,15.6c0,.195,0,.39,0,.578-.006.345-.011.671.012.994a.881.881,0,0,1-.189.67.735.735,0,0,1-.564.22,1.48,1.48,0,0,1-.16-.009,1.281,1.281,0,0,0-.141-.006l-.144,0c-.056,0-.113,0-.169,0a2.02,2.02,0,0,0-.242.011c0,.021,0,.046.007.078l.173,0c.122,0,.237.006.353.006.141,0,.256,0,.364-.014.044,0,.085-.005.124-.005a.91.91,0,0,1,.9.752,9.67,9.67,0,0,0,2.419,4.175,9.632,9.632,0,0,0,4.214,2.352,5.056,5.056,0,0,0,1.312.223.661.661,0,0,1,.679,1,15.655,15.655,0,0,0-1.077,5.08A.641.641,0,0,1,15.587,32.376Zm.855-30.92a15.517,15.517,0,0,0-2.972.29,14.647,14.647,0,0,0-5.6,2.373,15.215,15.215,0,0,0-6.246,9.768,14.713,14.713,0,0,0,.191,6.1A15.132,15.132,0,0,0,15.366,31.451,16.8,16.8,0,0,1,16.4,26.535a6.446,6.446,0,0,1-1.3-.247,10.024,10.024,0,0,1-7.26-7.141c-.015-.049-.027-.082-.036-.1l-.038,0c-.132.011-.273.017-.441.017-.127,0-.254,0-.376-.006s-.215-.005-.319-.006H6.622a.633.633,0,0,1-.688-.553,1.24,1.24,0,0,1,.135-1.045,1.187,1.187,0,0,1,.97-.315l.144,0c.106,0,.214,0,.306,0-.018-.33-.013-.657-.008-.975,0-.183.006-.372,0-.555a1.624,1.624,0,0,1,.083-.471l.015-.052c-.05,0-.107.01-.167.016a2.9,2.9,0,0,1-.328.024H7.041c-.064,0-.125,0-.192,0H6.657a.664.664,0,0,1-.622-.284,1.076,1.076,0,0,1-.1-.581c0-.072,0-.157-.005-.258a.8.8,0,0,1,.194-.6.76.76,0,0,1,.561-.208h.05c.094,0,.194,0,.316,0,.181,0,.362,0,.543,0,.157,0,.287,0,.408.008l0-.014a10.146,10.146,0,0,1,9.564-6.873,10.01,10.01,0,0,1,2.813.405l.026.008c.453.132.753.22.9.514s.05.59-.1,1.038l-.015.042a.817.817,0,0,1-.756.655,1.184,1.184,0,0,1-.4-.08,7.054,7.054,0,0,0-2.223-.385l-.174,0a8.03,8.03,0,0,0-4.445,1.335,7.746,7.746,0,0,0-2.84,3.357c1.175-.008,2.339-.009,3.236-.009h3.954a.831.831,0,0,1,.655.242.848.848,0,0,1,.161.683,1.378,1.378,0,0,0-.009.138.8.8,0,0,1-.9.876h-.028c-1.217-.017-2.426-.019-3.449-.019H11.621c-.716,0-1.3,0-1.832,0H9.755l0,.025a12.378,12.378,0,0,0-.083,1.789v.148c0,.029,0,.052,0,.071h.058c.5-.01,1.043-.015,1.715-.015l1.068,0c.717,0,1.435,0,2.152.006q.541,0,1.083,0c.668,0,1.21-.006,1.706-.018h.04c.862,0,.869.682.872.973a.977.977,0,0,1-.222.739.914.914,0,0,1-.672.231h-.015c-1.332-.014-2.653-.015-3.655-.015l-3.2,0h-.512l.017.047a7.984,7.984,0,0,0,7.249,5.314h0c.007-.011.016-.027.029-.05a17.052,17.052,0,0,1,14.04-8.951A15.011,15.011,0,0,0,16.442,1.456Z" transform="translate(0.499 0.5)" fill="#1471ce"/>
  <path id="Path_5425" data-name="Path 5425" d="M1.6,25.279c.139-1.884.274-3.714.42-5.683.212.43.37.746.524,1.065q.833,1.724,1.662,3.45c.294.609.294.609-.37.783a10.38,10.38,0,0,0,1.4,2.378,12.65,12.65,0,0,0,8.829,5c.181.02.362.046.542.07.265.035.675-.118.77.091a2.473,2.473,0,0,1,.05,1.032c-.007.249-.222.159-.352.158a13.177,13.177,0,0,1-4.958-1.033,13.887,13.887,0,0,1-7.467-7.2c-.1-.229-.2-.3-.445-.209a3.357,3.357,0,0,1-.609.1" transform="translate(1.507 13.363)" fill="#1471ce"/>
  <path id="Path_5425_-_Outline" data-name="Path 5425 - Outline" d="M15.214,33.931a1.227,1.227,0,0,1-.162-.013l-.035,0a13.671,13.671,0,0,1-5.125-1.069,14.376,14.376,0,0,1-7.677-7.371,2.384,2.384,0,0,1-.383.065c-.068.008-.139.016-.213.028l-.568.089.042-.574c.058-.779.114-1.548.171-2.322.081-1.1.163-2.206.248-3.361l.124-1.667L2.5,19.481c.156.315.279.563.4.818q.522,1.08,1.041,2.161l.621,1.29c.189.391.313.649.178.943a.632.632,0,0,1-.332.318,10.094,10.094,0,0,0,1.136,1.818A12.9,12.9,0,0,0,9.3,30.135a12.41,12.41,0,0,0,4.765,1.519c.124.014.249.031.371.047l.178.024.035,0c.047,0,.107-.006.17-.012.08-.007.162-.015.247-.015a.676.676,0,0,1,.674.381,2.039,2.039,0,0,1,.1,1c-.006.081-.011.158-.013.229A.6.6,0,0,1,15.214,33.931ZM2.331,24.518a.763.763,0,0,1,.686.514,13.726,13.726,0,0,0,2.938,4.186A14,14,0,0,0,10.246,32a12.756,12.756,0,0,0,4.692,1,2.858,2.858,0,0,0,.009-.38l-.039,0c-.078.007-.166.016-.256.016a1.162,1.162,0,0,1-.152-.009l-.182-.024c-.121-.016-.236-.032-.351-.044a13.145,13.145,0,0,1-9.138-5.17,10.891,10.891,0,0,1-1.465-2.483l-.2-.485.508-.133.127-.034-.053-.11-.621-1.291Q2.711,22,2.3,21.147l-.124,1.68-.128,1.741A.9.9,0,0,1,2.331,24.518Z" transform="translate(1.554 13.525)" fill="#1471ce"/>
  <path id="Path_5426" data-name="Path 5426" d="M33.245,15.083l-2.405-5c.7-.179.708-.184.362-.813A12.582,12.582,0,0,0,21.827,2.6a15.286,15.286,0,0,0-1.63-.163c-.231-.013-.309-.071-.312-.315-.013-1.038.013-1.027,1.068-.93a14.247,14.247,0,0,1,6.023,1.893A13.877,13.877,0,0,1,32.628,9.3c.129.275.234.4.567.305.522-.148.527-.106.486.421-.109,1.41-.2,2.821-.3,4.231a2.1,2.1,0,0,1-.139.823" transform="translate(13.551 1.215)" fill="#1471ce"/>
  <path id="Path_5426_-_Outline" data-name="Path 5426 - Outline" d="M33.216,16.122,31.791,13.16l-1.406-2.922-.241-.5.539-.138.138-.036-.063-.115A12.723,12.723,0,0,0,27.013,5.13a12.69,12.69,0,0,0-5.305-2.122,14.834,14.834,0,0,0-1.582-.157.705.705,0,0,1-.74-.764c-.007-.565-.012-.938.248-1.2a.909.909,0,0,1,.681-.232c.164,0,.36.018.609.041l.028,0a14.789,14.789,0,0,1,6.212,1.954A14.382,14.382,0,0,1,33,9.065c.011.024.021.044.029.06h0a1.8,1.8,0,0,1,.478-.091.58.58,0,0,1,.441.183.976.976,0,0,1,.147.8c-.085,1.1-.161,2.223-.234,3.307q-.031.46-.062.919c0,.04,0,.081-.006.123a2.169,2.169,0,0,1-.172.856Zm-1.779-5.8,1.176,2.445.323.671.011-.168c.072-1.062.146-2.158.229-3.239a1.054,1.054,0,0,1-.217.024.874.874,0,0,1-.788-.6A13.486,13.486,0,0,0,26.7,3.436,13.7,13.7,0,0,0,20.868,1.6l-.028,0c-.226-.021-.4-.037-.526-.037H20.3c-.008.1-.009.247-.008.382a14.758,14.758,0,0,1,1.564.161,13.065,13.065,0,0,1,9.7,6.9c.212.384.365.662.231.973A.638.638,0,0,1,31.437,10.319Z" transform="translate(13.595 1.258)" fill="#1471ce"/>
  <path id="Path_5427" data-name="Path 5427" d="M22.47,13.43a3.287,3.287,0,0,0,.036,1.307c.191.4.773.2,1.176.305a7.687,7.687,0,0,1,2.889,1.4c.217.174.239.274.036.488-.59.622-.571.62-1.284.179a5.15,5.15,0,0,0-4.954-.536,3.036,3.036,0,0,0-1.75,1.886,2.493,2.493,0,0,0,1.144,2.956,12.165,12.165,0,0,0,2.455,1.29,17.377,17.377,0,0,1,3.689,1.871,5.341,5.341,0,0,1,.74,8.112,5.7,5.7,0,0,1-3.83,1.7c-.284.018-.362.09-.357.36.015.761-.008,1.524.015,2.286.01.307-.086.435-.385.37-.259-.055-.69.217-.67-.377.022-.7-.038-1.4.022-2.1.041-.5-.189-.587-.584-.615a7.646,7.646,0,0,1-2.791-.753,7.544,7.544,0,0,1-1.954-1.41c-.194-.186-.171-.292.012-.469.635-.615.635-.632,1.314-.051a6.762,6.762,0,0,0,4.215,1.486,6.04,6.04,0,0,0,2.123-.177,4.036,4.036,0,0,0,3.007-3.064,3.957,3.957,0,0,0-1.541-4.2,12.913,12.913,0,0,0-2.934-1.543A18.016,18.016,0,0,1,18.953,22.4c-2.838-2.07-1.982-5.673.931-7.019a3.628,3.628,0,0,1,1.212-.367c.29-.023.338-.169.333-.421-.012-.761.012-1.524-.012-2.286-.01-.32.083-.418.4-.41.637.017.639,0,.644.617,0,.305,0,.609,0,.914Z" transform="translate(10.979 8.293)" fill="#1471ce"/>
  <path id="Path_5427_-_Outline" data-name="Path 5427 - Outline" d="M21.743,11.4h.1c.363.009.626.016.83.228a1.122,1.122,0,0,1,.205.84c0,.178,0,.355,0,.532l0,.386c0,.155-.014.309-.027.458a1.646,1.646,0,0,0,.013.637,1.571,1.571,0,0,0,.325.022,2.24,2.24,0,0,1,.562.053,8.105,8.105,0,0,1,3.057,1.482A.7.7,0,0,1,26.9,17.2l-.028.03c-.345.364-.573.6-.94.6a1.678,1.678,0,0,1-.858-.362l-.029-.018a5.279,5.279,0,0,0-2.77-.877,4.51,4.51,0,0,0-1.766.374,2.6,2.6,0,0,0-1.495,1.609A2.054,2.054,0,0,0,19.995,21a10.6,10.6,0,0,0,2.147,1.142l.219.1c.246.109.5.216.745.32a13.537,13.537,0,0,1,3.036,1.606,6.1,6.1,0,0,1,2.439,4.367,5.683,5.683,0,0,1-1.649,4.427,6.136,6.136,0,0,1-4.055,1.83c0,.316,0,.634,0,.942,0,.408,0,.829.01,1.24a.893.893,0,0,1-.205.656.675.675,0,0,1-.5.2,1.071,1.071,0,0,1-.219-.024c-.027,0-.066,0-.1.009a1.784,1.784,0,0,1-.206.015.7.7,0,0,1-.525-.206.857.857,0,0,1-.208-.658c.008-.272,0-.542,0-.829a12.719,12.719,0,0,1,.024-1.3.7.7,0,0,0,0-.1,1.2,1.2,0,0,0-.164-.02,8.128,8.128,0,0,1-2.956-.8,7.89,7.89,0,0,1-2.073-1.492.7.7,0,0,1,.01-1.126l.025-.024c.36-.349.6-.579.948-.579.333,0,.581.212.956.533a6.271,6.271,0,0,0,3.942,1.377c.233.012.424.018.6.018a4.563,4.563,0,0,0,1.363-.176,3.565,3.565,0,0,0,2.7-2.727,3.485,3.485,0,0,0-1.381-3.745,9.739,9.739,0,0,0-2.3-1.245c-.177-.077-.36-.156-.54-.237s-.38-.169-.571-.252a14.888,14.888,0,0,1-2.867-1.519,4.326,4.326,0,0,1-1.91-3.944,4.9,4.9,0,0,1,2.918-3.859,4.2,4.2,0,0,1,1.281-.4c0-.322,0-.644,0-.956,0-.424,0-.863-.009-1.29a.875.875,0,0,1,.206-.659A.846.846,0,0,1,21.743,11.4Zm.221.919-.132,0c.012.423.01.848.008,1.26,0,.319,0,.649,0,.971a.769.769,0,0,1-.753.883,3.24,3.24,0,0,0-1.058.326,3.988,3.988,0,0,0-2.392,3.12,3.393,3.393,0,0,0,1.54,3.116,13.983,13.983,0,0,0,2.7,1.42c.193.084.385.169.578.255.175.078.355.157.53.232a10.578,10.578,0,0,1,2.5,1.371,4.558,4.558,0,0,1-1.618,8.057,5.439,5.439,0,0,1-1.631.217c-.194,0-.4-.006-.65-.02A7.13,7.13,0,0,1,17.1,31.927c-.116-.1-.266-.228-.355-.289-.062.049-.156.138-.253.232a6.848,6.848,0,0,0,1.73,1.228,7.221,7.221,0,0,0,2.626.709,1.1,1.1,0,0,1,.805.326,1.018,1.018,0,0,1,.2.783,11.854,11.854,0,0,0-.02,1.2c0,.254.008.516,0,.778a1.352,1.352,0,0,1,.137-.006c-.01-.39-.009-.782-.007-1.162,0-.335,0-.682,0-1.02a.733.733,0,0,1,.784-.824,5.264,5.264,0,0,0,3.532-1.562A4.782,4.782,0,0,0,27.67,28.6a5.12,5.12,0,0,0-2.082-3.708A12.655,12.655,0,0,0,22.749,23.4c-.249-.105-.506-.214-.758-.326l-.217-.1a11.448,11.448,0,0,1-2.327-1.247,2.932,2.932,0,0,1-1.3-3.464,3.486,3.486,0,0,1,2-2.163,5.417,5.417,0,0,1,2.123-.446,6.172,6.172,0,0,1,3.251,1.014l.029.018c.136.084.275.17.355.209.056-.047.142-.136.233-.231a7.268,7.268,0,0,0-2.614-1.231,1.592,1.592,0,0,0-.336-.023,1.123,1.123,0,0,1-1.136-.526,2.121,2.121,0,0,1-.1-1.128c.009-.1.017-.188.021-.275v-.1q0-.153,0-.306c0-.2,0-.4,0-.606C21.966,12.423,21.966,12.367,21.965,12.317Z" transform="translate(11.023 8.336)" fill="#1471ce"/>
</svg>
