<svg id="Group_18331" data-name="Group 18331" xmlns="http://www.w3.org/2000/svg" width="48.815" height="45.347" viewBox="0 0 48.815 45.347">
  <path id="Path_5460" data-name="Path 5460" d="M21.368,25.918c.926.3,1.038.445,1.038,1.363q0,5.684,0,11.372v.5h4.036c.008-.1.029-.238.029-.375q0-10.465,0-20.932c0-.322-.124-.672.174-.933a2.69,2.69,0,0,1,.6-.385.992.992,0,0,1,.408-.042q3.028,0,6.057.01c.119,0,.24-.019.359-.029.06.071.118.14.176.211A1.714,1.714,0,0,1,34.6,18.06q.012,10.293,0,20.587v.485h4.067v-.419q0-15.074,0-30.148a3.453,3.453,0,0,1,.058-.9.887.887,0,0,1,.938-.63q2.987,0,5.976,0A1.018,1.018,0,0,1,46.6,7.5l-.06.055.061.008a2.959,2.959,0,0,1,.2.743q.017,8.21.008,16.422V39.143l1.411.151.01.01c.224.189.52.282.577.648a.991.991,0,0,1-.883,1.091c-.1,0-.193,0-.29,0q-23.211,0-46.42-.006a1.7,1.7,0,0,1-.8-.172.949.949,0,0,1-.361-1.091A1.269,1.269,0,0,1,1.1,39.119c.314-.006.63,0,.965,0,0-1.537,0-3.039,0-4.54,0-.611.213-.918.715-1.054a1.447,1.447,0,0,1,.364-.034c1.937,0,3.872,0,5.809,0a1.088,1.088,0,0,1,1.252,1.158c-.019,1.349-.006,2.7-.006,4.047v.441h4.067V38.7q0-5.82,0-11.641c0-.762.287-1.07,1.039-1.138ZM28.5,39.124h4.049V18.377H28.516c-.377.042-.253.317-.253.511q-.01,9.9,0,19.8a1,1,0,0,0,.023.342c.018.05.145.064.224.1M44.607,8.95H40.73V39.129h3.878c.314-.021.158-.25.158-.367q.012-14.728.008-29.455A1.764,1.764,0,0,0,44.763,9c0-.024-.1-.034-.156-.05M20.352,27.843H16.327V39.151h4.025ZM8.159,35.4H4.126v3.733H8.159Z" transform="translate(0 4.301)" fill="#1471ce"/>
  <path id="Path_5461" data-name="Path 5461" d="M35.115,7.571l.411-.329.171-.134.411-.329c.056-.045.113-.09.169-.134l.411-.329.171-.135.411-.329c.056-.044.113-.089.169-.134l.411-.329c.058-.044.114-.089.171-.134l.411-.329.171-.134.411-.329c.056-.045.113-.09.169-.134L39.593,4l.171-.134.411-.329.169-.135.411-.329c.058-.044.114-.089.171-.134l.411-.329.171-.134.411-.329.169-.134c-.071-.044-.142-.124-.214-.124-.885-.01-1.769,0-2.655-.008-.15,0-.3-.021-.45-.034-.047-.047-.092-.1-.139-.143l-.111.131-.166-.134L38.1,1.469a.683.683,0,0,1-.124-.92A1.008,1.008,0,0,1,38.984,0c1.669,0,3.338,0,5.008,0a5.118,5.118,0,0,1,1.252.1c.255.068.446.338.665.517.026.077.05.155.076.234a1.205,1.205,0,0,1,.044.222c0,1.808,0,3.614,0,5.422a1.09,1.09,0,0,1-1.563.97V7.117c-.14-.006-.258-.015-.374-.021A1.806,1.806,0,0,1,44,6.7c-.013-1.154-.014-2.307-.021-3.463l-.044-.148-.2.143c-.266.19-.543.366-.8.569-1.063.852-2.116,1.716-3.179,2.568-1.352,1.084-2.708,2.159-4.064,3.239l-4.1,3.263c-.951.757-1.9,1.518-2.855,2.27q-1.883,1.486-3.774,2.963l-1.308,1.03c-.053.048-.1.1-.158.147-.169.11-.337.221-.506.332-.018.016-.037.032-.055.05-.176.137-.351.274-.527.412l-.053.05-.527.412c-.019.016-.037.034-.055.05-.176.139-.351.276-.527.412-.018.018-.035.034-.055.05l-.525.412c-.019.018-.037.034-.055.052l-.527.411c-.018.018-.037.034-.055.052l-.525.411c-.019.018-.037.035-.056.052l-.525.412-.055.05c-.176.139-.351.276-.527.412l-.055.052-.525.411c-.019.018-.037.034-.055.052l-.527.411c-.018.018-.037.034-.055.052l-.525.411-.056.052-.525.411c-.018.018-.037.035-.055.052-.176.137-.351.274-.527.412-.018.016-.035.034-.055.05l-.525.412c-.019.016-.037.034-.055.052-.372.259-.752.512-1.113.786-.1.079-.134.248-.24.324-.293.213-.628.379-.914.6a7.829,7.829,0,0,0-.683.665.594.594,0,0,1-.06.052c-.325.221-.657.432-.97.665-.114.085-.163.25-.279.332-.3.211-.63.377-.915.6-.251.2-.44.461-.686.662-.314.255-.662.472-.988.715-.092.069-.137.192-.229.259-.317.229-.653.437-.965.67-.116.085-.164.247-.28.33-.3.211-.63.379-.915.6a8.042,8.042,0,0,0-.683.664.594.594,0,0,1-.06.052c-.324.221-.656.433-.97.667-.114.085-.16.279-.28.325-.321.121-.45.427-.714.582a3.453,3.453,0,0,1-.7.229c.021-.243-.161-.221-.329-.218-.029-.026-.058-.052-.085-.079-.085-.05-.171-.1-.256-.151a.765.765,0,0,1,.163-1.2c.762-.585,1.5-1.2,2.257-1.79.88-.691,1.769-1.37,2.644-2.066.662-.524,1.3-1.071,1.962-1.6.688-.549,1.394-1.08,2.082-1.629.229-.182.409-.412.636-.6,1.12-.906,2.248-1.8,3.372-2.705l.169-.134.411-.329.171-.134.411-.329c.056-.045.113-.09.169-.134l.412-.329c.056-.045.113-.09.169-.134l.411-.33.171-.134.411-.329c.056-.044.113-.089.169-.134l.411-.329.171-.134.411-.329.169-.134.412-.329c.056-.045.113-.09.169-.134l.411-.329c.056-.045.113-.09.171-.134.137-.111.274-.221.411-.33.056-.044.113-.089.169-.134L21,18.81l.171-.134.411-.329.169-.134.411-.329.171-.134.411-.329c.056-.045.113-.09.171-.134l.411-.329.169-.135.411-.329.171-.134.411-.329c.056-.044.113-.089.169-.134l.411-.329.171-.134.411-.329c.056-.045.113-.09.171-.134l.411-.329c.056-.045.113-.09.169-.134l.411-.329.171-.135.411-.329.169-.134.411-.329.171-.134.411-.329.169-.134.412-.329c.056-.045.113-.09.169-.134l.411-.329.171-.134.411-.33c.056-.044.113-.089.169-.134l.411-.329c.058-.044.114-.089.171-.134l.411-.329.169-.134.412-.329.169-.134.411-.329c.056-.045.113-.09.171-.134l.411-.329c.056-.045.113-.09.169-.134.137-.111.274-.221.411-.33l.171-.134.411-.329c.056-.044.113-.089.169-.134l.412-.329.169-.134" transform="translate(0.778 0)" fill="#1471ce"/>
  <path id="Path_5462" data-name="Path 5462" d="M27.85,4.4l.375.021v.348c-.126-.124-.25-.247-.375-.369" transform="translate(17.023 2.692)" fill="#1471ce"/>
  <path id="Path_5463" data-name="Path 5463" d="M1.631,22.163c.168,0,.35-.026.329.218l-.353-.011.024-.206" transform="translate(0.982 13.545)" fill="#1471ce"/>
  <path id="Path_5464" data-name="Path 5464" d="M24.127.912l.256.237L24.127.912" transform="translate(14.747 0.557)" fill="#1471ce"/>
  <path id="Path_5465" data-name="Path 5465" d="M1.712,22.192l-.024.206-.213-.209.151-.076c.029.026.056.053.085.079" transform="translate(0.902 13.516)" fill="#1471ce"/>
  <path id="Path_5466" data-name="Path 5466" d="M1.666,22.17l-.151.076c-.035-.076-.069-.151-.1-.227l.256.151" transform="translate(0.862 13.459)" fill="#1471ce"/>
  <path id="Path_5467" data-name="Path 5467" d="M29.052.615C29.026.538,29,.46,28.976.383c.026.077.05.155.076.232" transform="translate(17.711 0.234)" fill="#1471ce"/>
  <path id="Path_5468" data-name="Path 5468" d="M24.389,1.191c.037-.044.074-.087.111-.129.047.047.092.1.139.142-.084,0-.166-.008-.25-.013" transform="translate(14.907 0.649)" fill="#1471ce"/>
  <path id="Path_5469" data-name="Path 5469" d="M21.62,5.273l-.169.134.169-.134" transform="translate(13.112 3.223)" fill="#1471ce"/>
  <path id="Path_5470" data-name="Path 5470" d="M20.538,6.135l-.169.134.169-.134" transform="translate(12.45 3.75)" fill="#1471ce"/>
  <path id="Path_5471" data-name="Path 5471" d="M26.308,1.54l-.169.134.169-.134" transform="translate(15.977 0.941)" fill="#1471ce"/>
  <path id="Path_5472" data-name="Path 5472" d="M10.081,14.463l-.169.134.169-.134" transform="translate(6.059 8.84)" fill="#1471ce"/>
  <path id="Path_5473" data-name="Path 5473" d="M25.947,1.827l-.169.134.169-.134" transform="translate(15.756 1.117)" fill="#1471ce"/>
  <path id="Path_5474" data-name="Path 5474" d="M10.441,14.176c-.056.045-.113.089-.168.134.055-.045.111-.089.168-.134" transform="translate(6.279 8.665)" fill="#1471ce"/>
  <path id="Path_5475" data-name="Path 5475" d="M27.626,2.062c.068-.048.135-.1.2-.143.016.048.031.1.045.148l-.248,0" transform="translate(16.886 1.173)" fill="#1471ce"/>
  <path id="Path_5476" data-name="Path 5476" d="M10.8,13.888l-.169.134.169-.134" transform="translate(6.499 8.489)" fill="#1471ce"/>
  <path id="Path_5477" data-name="Path 5477" d="M25.586,2.114l-.169.134.169-.134" transform="translate(15.536 1.292)" fill="#1471ce"/>
  <path id="Path_5478" data-name="Path 5478" d="M25.226,2.4l-.169.134.169-.134" transform="translate(15.316 1.468)" fill="#1471ce"/>
  <path id="Path_5479" data-name="Path 5479" d="M11.163,13.6l-.169.134.169-.134" transform="translate(6.72 8.313)" fill="#1471ce"/>
  <path id="Path_5480" data-name="Path 5480" d="M24.865,2.689l-.169.134.169-.134" transform="translate(15.095 1.644)" fill="#1471ce"/>
  <path id="Path_5481" data-name="Path 5481" d="M11.523,13.314l-.169.134.169-.134" transform="translate(6.94 8.138)" fill="#1471ce"/>
  <path id="Path_5482" data-name="Path 5482" d="M24.505,2.976l-.169.134.169-.134" transform="translate(14.875 1.819)" fill="#1471ce"/>
  <path id="Path_5483" data-name="Path 5483" d="M26.668,1.253l-.169.134.169-.134" transform="translate(16.197 0.766)" fill="#1471ce"/>
  <path id="Path_5484" data-name="Path 5484" d="M21.319,13.1l-.176-.209.176.209" transform="translate(12.923 7.878)" fill="#1471ce"/>
  <path id="Path_5485" data-name="Path 5485" d="M24.144,3.263l-.169.134.169-.134" transform="translate(14.654 1.994)" fill="#1471ce"/>
  <path id="Path_5486" data-name="Path 5486" d="M12.245,12.74l-.169.134.169-.134" transform="translate(7.381 7.787)" fill="#1471ce"/>
  <path id="Path_5487" data-name="Path 5487" d="M23.783,3.55l-.169.134.169-.134" transform="translate(14.434 2.17)" fill="#1471ce"/>
  <path id="Path_5488" data-name="Path 5488" d="M12.605,12.453l-.169.134.169-.134" transform="translate(7.601 7.612)" fill="#1471ce"/>
  <path id="Path_5489" data-name="Path 5489" d="M23.423,3.837l-.169.134.169-.134" transform="translate(14.214 2.345)" fill="#1471ce"/>
  <path id="Path_5490" data-name="Path 5490" d="M12.966,12.165,12.8,12.3l.169-.134" transform="translate(7.822 7.436)" fill="#1471ce"/>
  <path id="Path_5491" data-name="Path 5491" d="M13.326,11.878l-.169.134.169-.134" transform="translate(8.042 7.26)" fill="#1471ce"/>
  <path id="Path_5492" data-name="Path 5492" d="M15.069,12.024c.053-.048.1-.1.158-.147-.053.048-.1.1-.158.147" transform="translate(9.211 7.26)" fill="#1471ce"/>
  <path id="Path_5493" data-name="Path 5493" d="M13.687,11.591l-.169.134.169-.134" transform="translate(8.263 7.085)" fill="#1471ce"/>
  <path id="Path_5494" data-name="Path 5494" d="M14.047,11.3l-.169.134.169-.134" transform="translate(8.483 6.909)" fill="#1471ce"/>
  <path id="Path_5495" data-name="Path 5495" d="M14.408,11.017l-.169.134.169-.134" transform="translate(8.703 6.734)" fill="#1471ce"/>
  <path id="Path_5496" data-name="Path 5496" d="M14.769,10.729l-.169.134.169-.134" transform="translate(8.924 6.558)" fill="#1471ce"/>
  <path id="Path_5497" data-name="Path 5497" d="M15.129,10.442l-.169.134.169-.134" transform="translate(9.144 6.383)" fill="#1471ce"/>
  <path id="Path_5498" data-name="Path 5498" d="M15.49,10.155l-.169.134.169-.134" transform="translate(9.365 6.207)" fill="#1471ce"/>
  <path id="Path_5499" data-name="Path 5499" d="M18.735,7.571l-.169.134.169-.134" transform="translate(11.348 4.628)" fill="#1471ce"/>
  <path id="Path_5500" data-name="Path 5500" d="M15.85,9.868,15.681,10l.169-.134" transform="translate(9.585 6.032)" fill="#1471ce"/>
  <path id="Path_5501" data-name="Path 5501" d="M23.062,4.124l-.169.134.169-.134" transform="translate(13.993 2.521)" fill="#1471ce"/>
  <path id="Path_5502" data-name="Path 5502" d="M16.211,9.581l-.169.134.169-.134" transform="translate(9.805 5.856)" fill="#1471ce"/>
  <path id="Path_5503" data-name="Path 5503" d="M16.572,9.294l-.169.134.169-.134" transform="translate(10.026 5.681)" fill="#1471ce"/>
  <path id="Path_5504" data-name="Path 5504" d="M16.932,9.006l-.169.134.169-.134" transform="translate(10.246 5.505)" fill="#1471ce"/>
  <path id="Path_5505" data-name="Path 5505" d="M17.293,8.719l-.169.134.169-.134" transform="translate(10.467 5.329)" fill="#1471ce"/>
  <path id="Path_5506" data-name="Path 5506" d="M17.653,8.432l-.169.134.169-.134" transform="translate(10.687 5.154)" fill="#1471ce"/>
  <path id="Path_5507" data-name="Path 5507" d="M18.014,8.145l-.169.134.169-.134" transform="translate(10.908 4.979)" fill="#1471ce"/>
  <path id="Path_5508" data-name="Path 5508" d="M18.374,7.858l-.169.134.169-.134" transform="translate(11.128 4.803)" fill="#1471ce"/>
  <path id="Path_5509" data-name="Path 5509" d="M21.259,5.56l-.169.134.169-.134" transform="translate(12.891 3.398)" fill="#1471ce"/>
  <path id="Path_5510" data-name="Path 5510" d="M22.7,4.412l-.169.134.169-.134" transform="translate(13.773 2.697)" fill="#1471ce"/>
  <path id="Path_5511" data-name="Path 5511" d="M19.1,7.283l-.169.134.169-.134" transform="translate(11.569 4.452)" fill="#1471ce"/>
  <path id="Path_5512" data-name="Path 5512" d="M19.456,7l-.169.134L19.456,7" transform="translate(11.789 4.276)" fill="#1471ce"/>
  <path id="Path_5513" data-name="Path 5513" d="M19.817,6.709l-.169.134.169-.134" transform="translate(12.01 4.101)" fill="#1471ce"/>
  <path id="Path_5514" data-name="Path 5514" d="M20.178,6.422l-.169.134.169-.134" transform="translate(12.23 3.925)" fill="#1471ce"/>
  <path id="Path_5515" data-name="Path 5515" d="M22.341,4.7l-.169.134.169-.134" transform="translate(13.552 2.872)" fill="#1471ce"/>
  <path id="Path_5516" data-name="Path 5516" d="M20.9,5.848l-.169.134.169-.134" transform="translate(12.671 3.575)" fill="#1471ce"/>
  <path id="Path_5517" data-name="Path 5517" d="M9.72,14.75l-.169.134.169-.134" transform="translate(5.838 9.016)" fill="#1471ce"/>
  <path id="Path_5518" data-name="Path 5518" d="M21.981,4.986l-.169.134.169-.134" transform="translate(13.332 3.048)" fill="#1471ce"/>
  <path id="Path_5519" data-name="Path 5519" d="M11.884,13.027l-.169.134.169-.134" transform="translate(7.161 7.963)" fill="#1471ce"/>
  <path id="Path_5520" data-name="Path 5520" d="M11.476,14.81c.018-.018.037-.034.055-.052a.069.069,0,0,1-.055.052" transform="translate(7.015 9.021)" fill="#1471ce"/>
  <path id="Path_5521" data-name="Path 5521" d="M28.945,7.384l-.061-.008c.019-.019.039-.037.06-.055,0,.021,0,.042,0,.063" transform="translate(17.655 4.475)" fill="#1471ce"/>
  <path id="Path_5522" data-name="Path 5522" d="M14.721,12.224c.018-.016.035-.034.055-.05a.081.081,0,0,1-.055.05" transform="translate(8.998 7.441)" fill="#1471ce"/>
  <path id="Path_5523" data-name="Path 5523" d="M14.361,12.511c.018-.016.035-.034.055-.05a.081.081,0,0,1-.055.05" transform="translate(8.778 7.617)" fill="#1471ce"/>
  <path id="Path_5524" data-name="Path 5524" d="M14,12.8c.018-.016.035-.034.055-.05A.081.081,0,0,1,14,12.8" transform="translate(8.557 7.792)" fill="#1471ce"/>
  <path id="Path_5525" data-name="Path 5525" d="M13.639,13.085c.018-.016.035-.034.056-.05a.087.087,0,0,1-.056.05" transform="translate(8.337 7.967)" fill="#1471ce"/>
  <path id="Path_5526" data-name="Path 5526" d="M13.279,13.372c.018-.016.035-.034.055-.05a.081.081,0,0,1-.055.05" transform="translate(8.117 8.143)" fill="#1471ce"/>
  <path id="Path_5527" data-name="Path 5527" d="M29.927,27.076l.048-.05-.039.06-.01-.01" transform="translate(18.292 16.519)" fill="#1471ce"/>
  <path id="Path_5528" data-name="Path 5528" d="M12.918,13.66c.018-.016.035-.034.055-.05a.081.081,0,0,1-.055.05" transform="translate(7.896 8.319)" fill="#1471ce"/>
  <path id="Path_5529" data-name="Path 5529" d="M12.557,13.948c.018-.018.037-.034.055-.052a.069.069,0,0,1-.055.052" transform="translate(7.675 8.494)" fill="#1471ce"/>
  <path id="Path_5530" data-name="Path 5530" d="M12.2,14.235c.018-.018.037-.034.055-.052a.069.069,0,0,1-.055.052" transform="translate(7.455 8.669)" fill="#1471ce"/>
  <path id="Path_5531" data-name="Path 5531" d="M9.673,16.245c.018-.018.037-.034.055-.052a.069.069,0,0,1-.055.052" transform="translate(5.912 9.898)" fill="#1471ce"/>
  <path id="Path_5532" data-name="Path 5532" d="M10.033,15.958c.018-.018.037-.034.055-.052a.069.069,0,0,1-.055.052" transform="translate(6.133 9.722)" fill="#1471ce"/>
  <path id="Path_5533" data-name="Path 5533" d="M11.836,14.522c.018-.018.037-.034.055-.052a.069.069,0,0,1-.055.052" transform="translate(7.235 8.845)" fill="#1471ce"/>
  <path id="Path_5534" data-name="Path 5534" d="M10.394,15.671c.018-.018.037-.034.055-.052a.069.069,0,0,1-.055.052" transform="translate(6.353 9.547)" fill="#1471ce"/>
  <path id="Path_5535" data-name="Path 5535" d="M11.115,15.1c.018-.018.037-.034.055-.052a.069.069,0,0,1-.055.052" transform="translate(6.794 9.196)" fill="#1471ce"/>
  <path id="Path_5536" data-name="Path 5536" d="M10.755,15.384c.018-.018.037-.034.055-.052a.069.069,0,0,1-.055.052" transform="translate(6.574 9.371)" fill="#1471ce"/>
  <path id="Path_5537" data-name="Path 5537" d="M17.8,14.074c0,1.052-.01,2.1-.01,3.156q0,8.795,0,17.591c-.079-.031-.206-.047-.224-.1a1.01,1.01,0,0,1-.023-.343q0-9.9,0-19.8c0-.192-.124-.467.255-.511" transform="translate(10.714 8.603)" fill="#1471ce"/>
</svg>
