<svg id="Group_18326" data-name="Group 18326" xmlns="http://www.w3.org/2000/svg" width="46.985" height="48.831" viewBox="0 0 46.985 48.831">
  <path id="Path_5538" data-name="Path 5538" d="M14.526,0a4.877,4.877,0,0,0,1.111.241,9.472,9.472,0,0,1,7.017,7.385A9.378,9.378,0,0,1,15.62,18.348,9.294,9.294,0,0,1,10.139.634,8.571,8.571,0,0,1,12.258.084c.093-.012.19,0,.26-.084ZM5.768,9.3a7.749,7.749,0,1,0,7.724-7.767A7.752,7.752,0,0,0,5.768,9.3" transform="translate(2.627 0.317)" fill="#1471ce"/>
  <path id="Path_5538_-_Outline" data-name="Path 5538 - Outline" d="M13.578,18.923A9.61,9.61,0,0,1,10.039.357a8.922,8.922,0,0,1,2.2-.571L12.3-.221l.022,0L12.39-.3h2.225l.065.031a2.13,2.13,0,0,0,.635.151c.132.018.269.036.407.067a9.44,9.44,0,0,1,4.745,2.758,9.711,9.711,0,0,1,2.515,4.881A9.7,9.7,0,0,1,15.71,18.674,9.223,9.223,0,0,1,13.578,18.923ZM12.642.334a.67.67,0,0,1-.285.077l-.04,0a8.293,8.293,0,0,0-2.044.531,8.976,8.976,0,0,0,3.3,17.342,8.587,8.587,0,0,0,1.985-.232A9.061,9.061,0,0,0,22.359,7.7a9.07,9.07,0,0,0-2.352-4.557A8.8,8.8,0,0,0,15.586.568c-.113-.025-.231-.041-.355-.058a2.836,2.836,0,0,1-.755-.176Zm.865,17.044H13.48a8.116,8.116,0,0,1-5.708-2.423,7.87,7.87,0,0,1-2.3-5.638,8.047,8.047,0,0,1,8.039-8.084h.056A8.06,8.06,0,0,1,21.6,9.363a8.075,8.075,0,0,1-8.092,8.015Zm.055-15.511h-.051A7.413,7.413,0,0,0,6.1,9.313v.008A7.24,7.24,0,0,0,8.223,14.51a7.478,7.478,0,0,0,5.258,2.234h.026a7.441,7.441,0,0,0,7.457-7.386,7.426,7.426,0,0,0-7.4-7.49Z" transform="translate(2.61 0.3)" fill="#1471ce"/>
  <path id="Path_5539" data-name="Path 5539" d="M26.159,40.736q-5.864,0-11.724,0c-.722,0-1-.269-1-.978q0-9.516,0-19.032c0-.664.292-.954.95-.954q6.966,0,13.932.008c.357,0,.475-.073.469-.455-.025-1.579-.011-3.159-.009-4.738,0-.645.282-.939.916-.942q1.907-.009,3.815,0c.64,0,.893.266.893.9,0,1.606.012,3.211-.009,4.817,0,.351.107.418.427.411,1.07-.019,2.141-.008,3.213-.006.729,0,.975.255.975,1q0,8.852,0,17.706c0,.455.011.911,0,1.366-.012.628-.288.894-.917.894q-5.963,0-11.925,0M26.2,33.59v0q5.439,0,10.881,0c.193,0,.388.06.387-.278q-.014-5.864,0-11.724c0-.234-.077-.294-.3-.291-.8.011-1.606.019-2.409,0-.317-.009-.373.11-.37.394.014,1.272.008,2.542.006,3.813,0,.642-.286.931-.924.933q-1.868,0-3.734,0c-.657,0-.962-.3-.964-.953,0-1.219,0-2.436,0-3.654,0-.545.118-.521-.5-.521-4.3,0-8.593,0-12.889-.012-.374,0-.432.122-.43.455q.019,5.683,0,11.364c0,.374.091.492.483.49,3.587-.017,7.175-.009,10.762-.009m.048,5.62v0c3.6,0,7.2,0,10.8.008.326,0,.433-.071.425-.415q-.032-1.666,0-3.331c.006-.314-.1-.37-.384-.367-1.847.012-3.692,0-5.539,0q-8.068,0-16.136-.009c-.365,0-.47.093-.463.463.026,1.069.025,2.141,0,3.21-.006.36.111.442.456.441,3.614-.012,7.226-.008,10.838-.008m6.624-19.157h0c0-1.511-.006-3.024,0-4.536,0-.258-.068-.35-.334-.342-.654.017-1.31.014-1.966,0-.21,0-.277.074-.277.282q.007,4.555,0,9.111c0,.282.118.331.362.325.6-.012,1.205-.02,1.807,0,.309.012.413-.063.408-.394-.019-1.485-.008-2.97-.008-4.455" transform="translate(7.664 7.777)" fill="#1471ce"/>
  <path id="Path_5539_-_Outline" data-name="Path 5539 - Outline" d="M34.126,41.071H14.452c-.9,0-1.319-.411-1.319-1.295q0-9.516,0-19.032A1.135,1.135,0,0,1,14.4,19.472h5.973c2.343,0,5.121,0,7.96.009a.99.99,0,0,0,.145-.008.786.786,0,0,0,.006-.125c-.019-1.2-.015-2.417-.012-3.6q0-.574,0-1.148A1.118,1.118,0,0,1,29.7,13.344c.538,0,1.1,0,1.674,0,.683,0,1.384,0,2.143.005a1.071,1.071,0,0,1,1.208,1.222q0,.642,0,1.284c0,1.159,0,2.357-.011,3.537a.822.822,0,0,0,0,.088c.023,0,.058,0,.1,0,.425-.007.883-.011,1.444-.011l1,0,.772,0c.905,0,1.291.395,1.291,1.313q0,8.852,0,17.706c0,.167,0,.333,0,.5,0,.285.005.58,0,.871A1.1,1.1,0,0,1,38.1,41.07Zm-7.95-.635H38.1c.457,0,.591-.131.6-.583,0-.282,0-.573,0-.854,0-.169,0-.337,0-.506q0-8.852,0-17.706c0-.564-.111-.678-.658-.679l-.773,0-1,0c-.557,0-1.012,0-1.432.011h-.043a.717.717,0,0,1-.533-.176.749.749,0,0,1-.173-.558c.016-1.175.013-2.371.011-3.528q0-.643,0-1.285c0-.465-.119-.586-.577-.588-.758,0-1.458-.005-2.14-.005-.572,0-1.135,0-1.671,0-.453,0-.6.154-.6.626q0,.574,0,1.149c0,1.175-.007,2.39.012,3.583a.791.791,0,0,1-.179.589.8.8,0,0,1-.606.188c-2.839-.008-5.617-.009-7.959-.009H14.4c-.485,0-.633.149-.633.637q0,9.516,0,19.032c0,.531.134.661.685.661H26.176Zm10.893-.88h-.011c-2.2-.008-4.353-.009-6.169-.009H25.944v0H21.622c-1.824,0-3.987,0-6.2.009h-.01a.779.779,0,0,1-.586-.188.769.769,0,0,1-.179-.575c.023-1.134.022-2.18,0-3.2a.8.8,0,0,1,.179-.6.787.787,0,0,1,.592-.191h.01c3.675.008,7.34.01,10.753.01h5.382l3.078,0c.963,0,1.745,0,2.46-.007h.024a.685.685,0,0,1,.517.169.693.693,0,0,1,.162.521c-.022,1.126-.023,2.243,0,3.318a.633.633,0,0,1-.733.738Zm-6.181-.643c1.816,0,3.97,0,6.172.009h.009c.044,0,.075,0,.1,0a.812.812,0,0,0,0-.086c-.021-1.085-.021-2.209,0-3.344,0-.016,0-.031,0-.043h-.063c-.718,0-1.5.007-2.465.007l-3.078,0H26.181c-3.413,0-7.079,0-10.755-.01h-.008a.809.809,0,0,0-.131.008.783.783,0,0,0-.006.131c.025,1.026.026,2.08,0,3.223a.7.7,0,0,0,.005.11.831.831,0,0,0,.125.007h.008c2.212-.008,4.375-.009,6.2-.009h4.957v0ZM15.444,33.934c-.548,0-.792-.249-.792-.808.011-3.687.009-7.51,0-11.363a.782.782,0,0,1,.178-.59.761.761,0,0,1,.562-.183H15.4C18.4,21,21.463,21,24.42,21h4a.725.725,0,0,1,.572.146.592.592,0,0,1,.12.48c0,.06,0,.128,0,.211,0,.657,0,1.324,0,1.97q0,.842,0,1.685c0,.475.164.635.647.637q1.865,0,3.733,0c.46,0,.607-.151.607-.616V24.8c0-1.014,0-2.062-.007-3.093a.728.728,0,0,1,.168-.546.674.674,0,0,1,.486-.169h.042c.349.01.722.015,1.141.015S36.776,21,37.178,21h.02a.608.608,0,0,1,.448.155.617.617,0,0,1,.154.455c-.009,4.6-.01,8.326,0,11.721a.608.608,0,0,1-.156.455.548.548,0,0,1-.4.146l-.085,0-.064,0q-5.441,0-10.881,0l-.317,0-4.806,0c-1.541,0-3.575,0-5.637.011Zm-.146-.646a.694.694,0,0,0,.146.011h.006c2.063-.01,4.1-.011,5.64-.011l5.123,0,.317,0,10.564,0,.07,0c-.008-3.38-.007-7.087,0-11.66-.4.005-.823.01-1.241.01s-.8,0-1.16-.015h-.042c0,.018,0,.043,0,.074.011,1.035.009,2.085.007,3.1v.716a1.115,1.115,0,0,1-1.24,1.25q-1.869,0-3.736,0a1.143,1.143,0,0,1-1.28-1.269q0-.844,0-1.687c0-.644,0-1.311,0-1.966,0-.08,0-.148,0-.205H24.42c-2.958,0-6.017,0-9.026-.011h-.006a.76.76,0,0,0-.1.005,1.123,1.123,0,0,0-.005.131c.013,3.854.014,7.678,0,11.366A.786.786,0,0,0,15.3,33.288Zm17.246-8.05-.071,0c-.262-.011-.541-.016-.854-.016-.328,0-.656.006-.934.012h-.043a.651.651,0,0,1-.479-.164.667.667,0,0,1-.164-.48c.008-3.154,0-6.356,0-9.109a.537.537,0,0,1,.588-.6h.009c.365.005.666.008.952.008.363,0,.691,0,1-.012h.038a.636.636,0,0,1,.459.161.672.672,0,0,1,.163.5c-.008,1.107-.007,2.234-.006,3.324q0,.6,0,1.209v.317h0q0,.442,0,.883c0,1.066,0,2.168.009,3.251a.732.732,0,0,1-.171.546A.671.671,0,0,1,32.543,25.238Zm-.925-.652c.321,0,.609.005.879.017.028,0,.057,0,.076,0,0-.018,0-.042,0-.073-.014-1.088-.011-2.192-.009-3.261q0-.6,0-1.2v-.317h0q0-.446,0-.892c0-1.091,0-2.219.006-3.329,0-.008,0-.016,0-.023h-.008c-.319.008-.653.012-1.021.012-.277,0-.568,0-.914-.007,0,2.745.008,5.934,0,9.076t0,.007h.037C30.952,24.592,31.285,24.587,31.618,24.587Z" transform="translate(7.646 7.76)" fill="#1471ce"/>
  <path id="Path_5540" data-name="Path 5540" d="M9.092,29.843H1.021c-.783,0-1.038-.3-1.021-1.083a15.737,15.737,0,0,1,2.607-8.446,16.119,16.119,0,0,1,15.152-7.24,15.6,15.6,0,0,1,5.2,1.474.764.764,0,0,1,.43,1.055.773.773,0,0,1-1.1.323A14.022,14.022,0,0,0,14.659,14.6,14.6,14.6,0,0,0,1.666,27.13c-.036.238-.037.481-.082.716-.065.348.012.483.415.481q7.669-.021,15.338,0c.5,0,.8.213.865.6a.761.761,0,0,1-.719.916c-.278.023-.562.008-.842.008H9.092Z" transform="translate(0.318 7.42)" fill="#1471ce"/>
  <path id="Path_5540_-_Outline" data-name="Path 5540 - Outline" d="M17.139,30.181l-.246,0-.235,0-15.619,0a1.407,1.407,0,0,1-1.026-.33A1.4,1.4,0,0,1-.3,28.771a16.112,16.112,0,0,1,2.659-8.614,16.455,16.455,0,0,1,13.732-7.469,16.939,16.939,0,0,1,1.717.088,15.97,15.97,0,0,1,5.308,1.5,1.2,1.2,0,0,1,.637.675,1.081,1.081,0,0,1-1.012,1.41,1.324,1.324,0,0,1-.566-.134,13.644,13.644,0,0,0-7.464-1.294A14.279,14.279,0,0,0,2,27.194c-.014.1-.023.193-.031.3a4.194,4.194,0,0,1-.053.433.916.916,0,0,0-.014.1.868.868,0,0,0,.11.006h.006c2.184-.006,4.514-.009,7.332-.009l5.965,0h2.041a1.063,1.063,0,0,1,1.178.863,1.077,1.077,0,0,1-1.008,1.281C17.412,30.177,17.289,30.181,17.139,30.181Zm-8.03-.639h7.549l.245,0,.236,0c.132,0,.238,0,.334-.012a.473.473,0,0,0,.348-.168.487.487,0,0,0,.084-.383c-.013-.081-.052-.328-.551-.328H15.312l-5.965,0c-2.818,0-5.147,0-7.33.009H2.009a.774.774,0,0,1-.617-.221.747.747,0,0,1-.1-.635,3.66,3.66,0,0,0,.044-.37c.009-.109.019-.221.036-.335A14.914,14.914,0,0,1,14.642,14.306a14.277,14.277,0,0,1,7.8,1.351.7.7,0,0,0,.295.074.41.41,0,0,0,.383-.25.4.4,0,0,0,.029-.319.576.576,0,0,0-.312-.31,15.338,15.338,0,0,0-5.1-1.445,16.3,16.3,0,0,0-1.652-.085,15.459,15.459,0,0,0-4.554.685,15.628,15.628,0,0,0-8.649,6.5A15.487,15.487,0,0,0,.335,28.785a.9.9,0,0,0,.131.619.822.822,0,0,0,.572.139Z" transform="translate(0.301 7.403)" fill="#1471ce"/>
  <path id="Path_5541" data-name="Path 5541" d="M17.529,24.758c-.882,0-1.279-.435-1.061-1.038.142-.393.486-.538,1.19-.5a.811.811,0,0,1,.8.611.768.768,0,0,1-.592.906,2.124,2.124,0,0,1-.331.022" transform="translate(9.292 13.013)" fill="#1471ce"/>
  <path id="Path_5541_-_Outline" data-name="Path 5541 - Outline" d="M17.546,25.092a1.436,1.436,0,0,1-1.271-.511,1.017,1.017,0,0,1-.088-.952,1.213,1.213,0,0,1,1.288-.716c.068,0,.141,0,.217.006a1.12,1.12,0,0,1,1.087.853,1.085,1.085,0,0,1-.846,1.294,2.165,2.165,0,0,1-.351.026h-.036Zm-.071-1.545c-.583,0-.648.179-.691.3a.4.4,0,0,0,.011.372.931.931,0,0,0,.748.24h.035a1.567,1.567,0,0,0,.246-.017.42.42,0,0,0,.27-.19.43.43,0,0,0,.068-.331.5.5,0,0,0-.5-.368C17.593,23.549,17.531,23.548,17.474,23.548Z" transform="translate(9.275 12.996)" fill="#1471ce"/>
  <path id="Path_5542" data-name="Path 5542" d="M17.469,20.908a2.2,2.2,0,0,1,.51.068.735.735,0,0,1,.473.6.722.722,0,0,1-.291.7,1.535,1.535,0,0,1-1.374.06.747.747,0,0,1-.339-.866.7.7,0,0,1,.7-.548c.107,0,.213,0,.32,0l0-.019" transform="translate(9.296 11.752)" fill="#1471ce"/>
  <path id="Path_5542_-_Outline" data-name="Path 5542 - Outline" d="M17.407,22.811a1.457,1.457,0,0,1-.783-.192,1.057,1.057,0,0,1-.462-1.212,1.01,1.01,0,0,1,.988-.779h.043l0-.053.326.038c.044.005.092.008.143.011a1.474,1.474,0,0,1,.443.075,1.053,1.053,0,0,1,.675.845,1.036,1.036,0,0,1-.4,1A1.7,1.7,0,0,1,17.407,22.811Zm-.135-1.55-.093,0a.384.384,0,0,0-.406.316.428.428,0,0,0,.215.521.851.851,0,0,0,.419.077,1.1,1.1,0,0,0,.572-.123.4.4,0,0,0,.179-.406.42.42,0,0,0-.271-.355.641.641,0,0,0-.164-.03h-.238Z" transform="translate(9.279 11.733)" fill="#1471ce"/>
  <path id="Path_5543" data-name="Path 5543" d="M21.073,22.456c-.719,0-1.123-.387-.993-.953a.686.686,0,0,1,.633-.572,4.2,4.2,0,0,1,.558-.011.772.772,0,0,1,.821.738.793.793,0,0,1-.82.8c-.067,0-.133,0-.2,0" transform="translate(11.287 11.756)" fill="#1471ce"/>
  <path id="Path_5543_-_Outline" data-name="Path 5543 - Outline" d="M21.093,22.79h0a1.392,1.392,0,0,1-1.124-.451,1.029,1.029,0,0,1-.178-.89,1.008,1.008,0,0,1,.906-.817,3.19,3.19,0,0,1,.352-.017c.084,0,.167,0,.25,0a1.082,1.082,0,0,1,1.131,1.048,1.114,1.114,0,0,1-1.123,1.12l-.088,0h-.122Zm-.048-1.54a2.577,2.577,0,0,0-.282.013.372.372,0,0,0-.358.329.4.4,0,0,0,.056.353.8.8,0,0,0,.625.211h.188a.478.478,0,0,0,.518-.472c-.006-.252-.207-.42-.514-.429C21.2,21.252,21.124,21.25,21.046,21.25Z" transform="translate(11.269 11.739)" fill="#1471ce"/>
  <path id="Path_5544" data-name="Path 5544" d="M21.163,24.754c-.854,0-1.236-.388-1.075-.964.122-.439.418-.589,1.132-.572a.818.818,0,0,1,.868.62.767.767,0,0,1-.6.9,2.027,2.027,0,0,1-.323.02" transform="translate(11.285 13.014)" fill="#1471ce"/>
  <path id="Path_5544_-_Outline" data-name="Path 5544 - Outline" d="M21.183,25.088h0a1.46,1.46,0,0,1-1.244-.476.977.977,0,0,1-.135-.89c.2-.71.785-.805,1.334-.805h.112a1.126,1.126,0,0,1,1.17.87,1.07,1.07,0,0,1-.168.823,1.054,1.054,0,0,1-.692.453,2.037,2.037,0,0,1-.343.024Zm-.05-1.538c-.628,0-.674.166-.723.341a.377.377,0,0,0,.03.338.962.962,0,0,0,.737.224h.033a1.483,1.483,0,0,0,.24-.015.419.419,0,0,0,.273-.184.433.433,0,0,0,.073-.331.523.523,0,0,0-.565-.371Z" transform="translate(11.267 12.997)" fill="#1471ce"/>
</svg>
