<svg id="Group_18317" data-name="Group 18317" xmlns="http://www.w3.org/2000/svg" width="46.893" height="51.091" viewBox="0 0 46.893 51.091">
  <path id="Path_5447" data-name="Path 5447" d="M12.707,27.923a3.142,3.142,0,0,1,.054-1.727,3.38,3.38,0,0,1,3.249-2.413c1.912,0,3.826-.008,5.738,0a2.051,2.051,0,0,0,.935-.231,12.879,12.879,0,0,1,11.663.061,1.6,1.6,0,0,0,.724.174q5.021-.01,10.044,0c.85,0,1.128.27,1.128,1.116q0,5.65,0,11.3c0,.783-.258,1.04-1.049,1.04q-14.841,0-29.682,0a5.852,5.852,0,0,1-2.67-.627Q7.419,33.9,1.992,31.2A3.68,3.68,0,0,1,.049,27.174,3.589,3.589,0,0,1,2.957,24.26a3.512,3.512,0,0,1,2.139.274c2.45,1.132,4.906,2.249,7.358,3.371a.218.218,0,0,0,.254.018M24.12,35.561v.014c3.019,0,6.038-.006,9.058.008.376,0,.477-.107.475-.478q-.017-4.8,0-9.6a.509.509,0,0,0-.346-.544,11.251,11.251,0,0,0-10.208.276,2.007,2.007,0,0,1-.978.244q-3.05-.014-6.1,0a1.681,1.681,0,1,0,.142,3.354c2.019,0,4.036-.008,6.054,0,.416,0,.954-.18,1.217.061.289.265.053.818.105,1.241.041.329-.1.391-.4.389q-4.349-.014-8.7,0a1.58,1.58,0,0,1-.687-.155q-2.375-1.1-4.756-2.18c-1.545-.706-3.086-1.424-4.641-2.11a1.854,1.854,0,0,0-2.384.73,2.032,2.032,0,0,0,.831,2.9c3.518,1.775,7.046,3.529,10.561,5.307a5.192,5.192,0,0,0,2.41.558c2.78-.01,5.561,0,8.341,0m20.46-5.049h0c0-1.523-.01-3.046.006-4.569,0-.351-.072-.477-.459-.475-2.733.019-5.465.008-8.2.013-.64,0-.6-.131-.606.585,0,2.987.011,5.974-.013,8.96,0,.48.163.557.59.553q4.119-.024,8.242,0c.367,0,.453-.108.45-.456-.018-1.537-.008-3.076-.008-4.614" transform="translate(0.325 13.522)" fill="#1471ce"/>
  <path id="Path_5447_-_Outline" data-name="Path 5447 - Outline" d="M15.535,37.594h0a6.136,6.136,0,0,1-2.816-.661q-2.5-1.253-5.011-2.5c-1.913-.955-3.892-1.943-5.836-2.917A4.01,4.01,0,0,1-.248,27.154a3.933,3.933,0,0,1,3.171-3.189,3.851,3.851,0,0,1,2.333.3c1.73.8,3.493,1.6,5.2,2.384l1.873.856a3.431,3.431,0,0,1,.149-1.382,3.7,3.7,0,0,1,3.558-2.639h.58q1.313,0,2.626,0c.946,0,1.775,0,2.535.006h.016a1.733,1.733,0,0,0,.777-.2,13.674,13.674,0,0,1,5.9-1.4,13.88,13.88,0,0,1,6.048,1.459,1.283,1.283,0,0,0,.583.142c2.288,0,4.57,0,6.7,0h3.348c1.032,0,1.453.418,1.453,1.442,0,3.75,0,7.551,0,11.3,0,.97-.4,1.365-1.375,1.365H35.323C28.837,37.59,22.131,37.591,15.535,37.594ZM3.63,24.551A3.293,3.293,0,0,0,.4,27.244,3.345,3.345,0,0,0,2.163,30.93C4.107,31.9,6.085,32.891,8,33.846q2.507,1.252,5.012,2.5a5.5,5.5,0,0,0,2.524.592c6.6,0,13.3,0,19.788,0h9.894c.609,0,.724-.113.724-.714,0-3.748,0-7.549,0-11.3,0-.665-.127-.791-.8-.791H41.791c-2.125,0-4.408,0-6.7,0a1.928,1.928,0,0,1-.866-.206,13.236,13.236,0,0,0-5.765-1.394,13.029,13.029,0,0,0-5.616,1.334,2.37,2.37,0,0,1-1.057.263H21.77c-.758,0-1.586-.006-2.53-.006q-1.312,0-2.625,0h-.579A3.057,3.057,0,0,0,13.1,26.32a2.827,2.827,0,0,0-.048,1.552l.059.242-.219.12a.539.539,0,0,1-.27.074.529.529,0,0,1-.262-.074l-.014-.007-2.16-.987c-1.705-.779-3.469-1.584-5.2-2.385A3.21,3.21,0,0,0,3.63,24.551ZM33.211,35.934H33.2c-1.751-.008-3.483-.009-4.8-.009H23.82v-.014h-3.84c-1.684,0-2.972,0-4.174.006h-.013a5.5,5.5,0,0,1-2.545-.593c-1.907-.965-3.851-1.939-5.73-2.881-1.584-.794-3.221-1.615-4.83-2.426a2.357,2.357,0,0,1-.961-3.36A2.187,2.187,0,0,1,3.584,25.6a2.3,2.3,0,0,1,.934.2c1.156.51,2.323,1.046,3.451,1.564l1.193.547.339.155c1.449.662,2.947,1.346,4.418,2.026a1.255,1.255,0,0,0,.54.125h4.034c1.826,0,3.312,0,4.677.007h.01l.069,0,0-.021a2.419,2.419,0,0,1,.016-.56c.02-.188.046-.423-.019-.482-.013-.012-.059-.04-.2-.04a3.218,3.218,0,0,0-.36.03,3.711,3.711,0,0,1-.434.035q-1.7,0-3.4,0l-2.175,0h-.475a1.955,1.955,0,0,1-2.1-1.482,1.976,1.976,0,0,1,1.959-2.523c.941,0,1.863,0,2.742,0,1.152,0,2.282,0,3.359.008h.009a1.681,1.681,0,0,0,.816-.207,11.7,11.7,0,0,1,5.459-1.4,12.527,12.527,0,0,1,5.03,1.117.83.83,0,0,1,.541.844c-.014,3.445-.015,6.583,0,9.594a.692.692,0,0,1-.793.805Zm-4.806-.66c1.314,0,3.048,0,4.8.009h.007a.739.739,0,0,0,.133-.009.787.787,0,0,0,.009-.143c-.011-3.013-.009-6.153,0-9.6,0-.162-.026-.189-.152-.245a11.881,11.881,0,0,0-4.769-1.062,11.058,11.058,0,0,0-5.158,1.328,2.331,2.331,0,0,1-1.118.281H22.15c-1.076-.005-2.205-.008-3.356-.008-.878,0-1.8,0-2.74,0a1.326,1.326,0,0,0-1.33,1.713,1.323,1.323,0,0,0,1.47.99h.475l2.174,0q1.7,0,3.406,0a3.2,3.2,0,0,0,.356-.03,3.73,3.73,0,0,1,.437-.035.909.909,0,0,1,.643.211,1.138,1.138,0,0,1,.226,1.032,1.935,1.935,0,0,0-.018.409.7.7,0,0,1-.129.554.73.73,0,0,1-.583.2h-.013c-1.363,0-2.849-.007-4.674-.007H14.461a1.909,1.909,0,0,1-.813-.185c-1.471-.68-2.968-1.364-4.416-2.025L8.893,28.5,7.7,27.955c-1.126-.517-2.29-1.052-3.442-1.56a1.653,1.653,0,0,0-.671-.147,1.521,1.521,0,0,0-1.3.751,1.681,1.681,0,0,0-.2,1.358,1.718,1.718,0,0,0,.9,1.078c1.608.811,3.246,1.632,4.829,2.426,1.88.942,3.824,1.917,5.732,2.882a4.868,4.868,0,0,0,2.251.523H15.8c1.2,0,2.49-.006,4.176-.006H24.47v.014Zm15.773.659H44.16c-1.477-.009-2.962-.014-4.414-.014-1.278,0-2.564,0-3.823.011H35.9a.759.759,0,0,1-.891-.881c.016-2.046.015-4.128.013-6.141q0-1.408,0-2.817v-.1a1.421,1.421,0,0,1,.052-.528.491.491,0,0,1,.5-.287c.04,0,.087,0,.142,0s.147.006.24.006h3.845c1.386,0,2.872,0,4.35-.012h.009a.8.8,0,0,1,.593.194.814.814,0,0,1,.184.611c-.012,1.1-.01,2.23-.008,3.318q0,.461,0,.921h0l0,.325q0,.6,0,1.2c0,1.117,0,2.272.009,3.406a.8.8,0,0,1-.184.6A.777.777,0,0,1,44.178,35.932Zm-4.432-.665c1.453,0,2.94,0,4.419.014h.013a.745.745,0,0,0,.1-.006.879.879,0,0,0,.006-.122c-.013-1.138-.011-2.295-.009-3.414q0-.443,0-.886l0-.317q0-.623,0-1.246c0-1.09,0-2.217.008-3.327a.927.927,0,0,0-.006-.138.734.734,0,0,0-.121-.008h-.006c-1.479.01-2.966.012-4.353.012H35.95c-.106,0-.195,0-.265-.006H35.67c0,.049,0,.105,0,.161v.106q0,1.407,0,2.815c0,2.014,0,4.1-.013,6.146a.626.626,0,0,0,.021.206.756.756,0,0,0,.219.02h.022C37.179,35.271,38.467,35.267,39.746,35.267Z" transform="translate(0.3 13.497)" fill="#1471ce"/>
  <path id="Path_5448" data-name="Path 5448" d="M18.52,11.6c2.257,0,4.513-.006,6.77,0a7.549,7.549,0,0,1,7.427,6.311,9.156,9.156,0,0,1,.1,1.517c.011,2.571,0,5.142.014,7.711,0,.322-.059.477-.413.429-.41-.056-.96.18-1.2-.1-.2-.239-.065-.77-.067-1.171,0-2.348.01-4.693,0-7.039a5.868,5.868,0,0,0-4.571-5.824,11.21,11.21,0,0,0-2.541-.14c-.222,0-.327.193-.459.325Q21.439,15.755,19.3,17.9c-.581.581-.947.587-1.521.016q-2.174-2.17-4.338-4.347a.887.887,0,0,0-.663-.285,7.027,7.027,0,0,0-3.577.6A5.806,5.806,0,0,0,5.926,19.33c-.018,3.437-.01,6.875,0,10.312,0,.336-.054.5-.427.448-.41-.057-.96.185-1.2-.1-.2-.246-.065-.772-.065-1.174,0-3.167.03-6.336-.008-9.5A7.616,7.616,0,0,1,9.9,11.839,6.739,6.739,0,0,1,11.57,11.6q3.473,0,6.95,0M21.5,13.325H15.556c.984.982,1.9,1.9,2.816,2.813.1.1.182.129.3.014.922-.927,1.848-1.848,2.829-2.828" transform="translate(2.821 7.224)" fill="#1471ce"/>
  <path id="Path_5448_-_Outline" data-name="Path 5448 - Outline" d="M4.725,30.482a.8.8,0,0,1-.645-.262,1.432,1.432,0,0,1-.16-1.044c.011-.121.021-.236.021-.337,0-1.024,0-2.064.005-3.071.006-2.108.012-4.287-.013-6.43a7.942,7.942,0,0,1,5.91-7.789A7,7,0,0,1,11.6,11.3q3.474,0,6.95,0l4.166,0c1,0,1.83,0,2.6,0a7.879,7.879,0,0,1,7.747,6.582,9.434,9.434,0,0,1,.1,1.57c.005,1.238.006,2.5.007,3.714,0,1.31,0,2.665.008,4a.8.8,0,0,1-.182.6.6.6,0,0,1-.442.165,1.176,1.176,0,0,1-.158-.011.756.756,0,0,0-.1-.006,2.9,2.9,0,0,0-.3.023,3.284,3.284,0,0,1-.355.026A.814.814,0,0,1,31,27.7a1.4,1.4,0,0,1-.164-1.04c.011-.123.021-.239.021-.339q0-1.283,0-2.562c0-1.468,0-2.985,0-4.477a5.551,5.551,0,0,0-5.722-5.644c-.132,0-.264,0-.4,0-.225,0-.45.005-.675,0a.537.537,0,0,0-.12.117c-.03.035-.065.075-.1.113-.909.906-1.831,1.83-2.723,2.723l-1.556,1.558a1.5,1.5,0,0,1-1,.535,1.467,1.467,0,0,1-.981-.519c-1.46-1.457-2.89-2.885-4.34-4.349a.562.562,0,0,0-.441-.189c-.2,0-.366-.007-.523-.007a6.059,6.059,0,0,0-2.892.572,5.507,5.507,0,0,0-3.1,5.159c-.018,3.5-.009,7.021,0,10.309a.827.827,0,0,1-.184.619.6.6,0,0,1-.446.166,1.2,1.2,0,0,1-.169-.013.726.726,0,0,0-.1-.006,2.816,2.816,0,0,0-.3.024A3.205,3.205,0,0,1,4.725,30.482ZM11.6,11.949A6.375,6.375,0,0,0,10,12.18a7.291,7.291,0,0,0-5.42,7.151c.026,2.148.02,4.33.013,6.44,0,1.006-.006,2.046-.005,3.069,0,.129-.012.264-.023.394a1.373,1.373,0,0,0,.015.574c.007.009.045.024.141.024a2.708,2.708,0,0,0,.284-.023,3.333,3.333,0,0,1,.375-.028,1.357,1.357,0,0,1,.19.012l.052.006c0-.028,0-.069,0-.13-.012-3.29-.021-6.816,0-10.315a6.118,6.118,0,0,1,3.45-5.73,6.649,6.649,0,0,1,3.2-.648c.162,0,.333,0,.539.007a1.213,1.213,0,0,1,.887.382c1.449,1.463,2.878,2.891,4.337,4.346.222.221.393.329.522.329s.308-.113.54-.344l1.556-1.557c.892-.893,1.814-1.817,2.724-2.724.02-.02.044-.048.069-.077a.8.8,0,0,1,.612-.343h.015c.217,0,.436,0,.654,0,.134,0,.269,0,.4,0a6.309,6.309,0,0,1,1.556.154A6.2,6.2,0,0,1,31.5,19.282c.007,1.494.005,3.012,0,4.481q0,1.28,0,2.56c0,.129-.011.266-.023.4a1.445,1.445,0,0,0,.013.563c.008.009.047.025.146.025a2.782,2.782,0,0,0,.284-.022,3.418,3.418,0,0,1,.373-.027,1.385,1.385,0,0,1,.188.012l.04,0c0-.025,0-.06,0-.109-.007-1.333-.007-2.688-.008-4,0-1.217,0-2.475-.007-3.712a8.878,8.878,0,0,0-.094-1.464,7.23,7.23,0,0,0-7.107-6.04c-.774,0-1.6,0-2.6,0l-4.166,0Q15.07,11.948,11.6,11.949Zm6.959,4.629h0a.56.56,0,0,1-.387-.184c-.671-.672-1.342-1.342-2.04-2.038l-1.333-1.331h7.517l-1.306,1.3c-.718.716-1.4,1.392-2.079,2.079A.524.524,0,0,1,18.555,16.578Zm-2.187-2.9.219.219c.672.671,1.32,1.317,1.966,1.965.653-.656,1.3-1.306,1.992-1.991l.192-.192Z" transform="translate(2.795 7.198)" fill="#1471ce"/>
  <path id="Path_5449" data-name="Path 5449" d="M8.967,8.48a13.05,13.05,0,0,1,.284-3.713,6.733,6.733,0,0,1,12.926.161,6.233,6.233,0,0,1,.246,1.716c-.006,1.209,0,2.419,0,3.63A6.728,6.728,0,0,1,9.106,11.441,17.935,17.935,0,0,1,8.967,8.48M20.73,8.6c0-.746.006-1.314,0-1.882A5.03,5.03,0,0,0,10.67,6.62q-.014,1.746,0,3.494a5.033,5.033,0,0,0,9.814,1.539A11.081,11.081,0,0,0,20.73,8.6" transform="translate(5.658 0.325)" fill="#1471ce"/>
  <path id="Path_5449_-_Outline" data-name="Path 5449 - Outline" d="M15.738,17.157a7.071,7.071,0,0,1-6.925-5.624,9.482,9.482,0,0,1-.137-2.092c0-.323.007-.628-.008-.92V8.5c0-.268,0-.535,0-.794a9.8,9.8,0,0,1,.3-3.01,7.093,7.093,0,0,1,6.69-5h.015a7.035,7.035,0,0,1,6.845,5.166,6.513,6.513,0,0,1,.258,1.805c0,.6,0,1.218,0,1.812s0,1.212,0,1.818a6.828,6.828,0,0,1-1.7,4.387,6.976,6.976,0,0,1-4.08,2.362A7.451,7.451,0,0,1,15.738,17.157ZM9.318,8.5c.015.308.012.619.009.949A8.981,8.981,0,0,0,9.45,11.4a6.42,6.42,0,0,0,6.288,5.107,6.8,6.8,0,0,0,1.141-.1,6.325,6.325,0,0,0,3.7-2.145A6.177,6.177,0,0,0,22.121,10.3c0-.6,0-1.219,0-1.813s0-1.211,0-1.816a5.873,5.873,0,0,0-.234-1.627A6.39,6.39,0,0,0,15.669.351h-.014A6.437,6.437,0,0,0,9.587,4.889,9.319,9.319,0,0,0,9.32,7.7C9.321,7.962,9.322,8.229,9.318,8.5Zm6.428,6.966h-.1a5.306,5.306,0,0,1-5.276-5.323c-.009-1.112-.009-2.257,0-3.5a5.314,5.314,0,0,1,5.3-5.249c.066,0,.133,0,.2,0a5.412,5.412,0,0,1,3.7,1.6A5.408,5.408,0,0,1,21.08,6.736c.005.385,0,.767,0,1.209,0,.211,0,.434,0,.677v.021c-.016.257-.014.534-.011.827a6.929,6.929,0,0,1-.252,2.313A5.355,5.355,0,0,1,15.746,15.466ZM15.672,2.044a4.661,4.661,0,0,0-4.651,4.6c-.01,1.239-.011,2.38,0,3.489a4.655,4.655,0,0,0,4.637,4.677h.089A4.7,4.7,0,0,0,20.2,11.576a6.324,6.324,0,0,0,.219-2.1c0-.3-.006-.586.012-.864,0-.239,0-.46,0-.668,0-.439,0-.818,0-1.2a4.643,4.643,0,0,0-4.581-4.7C15.789,2.045,15.73,2.044,15.672,2.044Z" transform="translate(5.633 0.3)" fill="#1471ce"/>
  <path id="Path_5450" data-name="Path 5450" d="M9.6,21.22c0,1.148-.01,2.3.006,3.446,0,.282-.081.364-.354.344-.343-.022-.687-.014-1.03,0-.222.008-.319-.053-.319-.3q.012-3.514,0-7.028c0-.182.048-.254.247-.271,1.45-.134,1.45-.139,1.45,1.3V21.22Z" transform="translate(5.025 10.647)" fill="#1471ce"/>
  <path id="Path_5450_-_Outline" data-name="Path 5450 - Outline" d="M9.347,25.364q-.043,0-.093,0c-.138-.009-.288-.013-.457-.013s-.367.005-.54.011H8.211a.619.619,0,0,1-.444-.157.647.647,0,0,1-.165-.468c.008-2.223.007-4.417,0-7.028a.538.538,0,0,1,.544-.6h.013c.339-.031.606-.056.818-.056a.836.836,0,0,1,.869.47,3.609,3.609,0,0,1,.1,1.214v2.833h0q0,.307,0,.615c0,.821,0,1.669.008,2.5a.7.7,0,0,1-.163.515A.611.611,0,0,1,9.347,25.364ZM8.8,24.7c.183,0,.346,0,.5.015h.008s0-.01,0-.015c-.012-.839-.01-1.69-.008-2.513q0-.47,0-.939V20.92h0V18.738a3.827,3.827,0,0,0-.058-.972c-.011-.027-.025-.062-.265-.062-.175,0-.418.022-.724.05,0,2.581,0,4.754,0,6.952C8.427,24.7,8.613,24.7,8.8,24.7Z" transform="translate(5 10.622)" fill="#1471ce"/>
  <path id="Path_5451" data-name="Path 5451" d="M19.1,20.346c0,.864-.014,1.73.008,2.595.008.3-.091.389-.38.367a6.816,6.816,0,0,0-.938,0c-.281.018-.392-.061-.391-.367q.022-2.617,0-5.233c0-.265.089-.33.333-.317a8.853,8.853,0,0,0,1.029,0c.287-.019.348.1.343.362-.014.864,0,1.73,0,2.595Z" transform="translate(10.674 10.668)" fill="#1471ce"/>
  <path id="Path_5451_-_Outline" data-name="Path 5451 - Outline" d="M18.846,17.088a.6.6,0,0,1,.447.164.709.709,0,0,1,.165.531c-.01.614-.008,1.241-.006,1.847q0,.371,0,.742l0,.325q0,.2,0,.405c0,.609-.006,1.239.01,1.855a.719.719,0,0,1-.165.536.625.625,0,0,1-.459.168c-.033,0-.068,0-.106,0a6.53,6.53,0,0,0-.891,0l-.091,0a.651.651,0,0,1-.472-.169.718.718,0,0,1-.175-.528c.013-1.613.014-3.323,0-5.229a.663.663,0,0,1,.163-.488.609.609,0,0,1,.443-.158l.07,0c.18.009.347.014.508.014s.329-.005.482-.015ZM18.8,20.046q0-.207,0-.415c0-.609,0-1.239.006-1.86,0-.012,0-.022,0-.032-.166.011-.341.016-.521.016s-.345,0-.533-.014c.012,1.9.012,3.615,0,5.227,0,.016,0,.029,0,.041l.044,0a7.177,7.177,0,0,1,.981,0l.031,0c0-.01,0-.022,0-.036-.016-.626-.013-1.261-.01-1.875q0-.364,0-.728Z" transform="translate(10.649 10.642)" fill="#1471ce"/>
  <path id="Path_5452" data-name="Path 5452" d="M24.9,29.349c0,.815,0,.815-.812.815-.884,0-.884,0-.885-.891,0-.8,0-.8.817-.8.88,0,.88,0,.88.879" transform="translate(14.123 17.259)" fill="#1471ce"/>
  <path id="Path_5452_-_Outline" data-name="Path 5452 - Outline" d="M24.11,30.515h0c-.514,0-.8,0-1-.209S22.9,29.815,22.9,29.3c0-.474,0-.736.194-.932s.483-.2.847-.2h.1c.512,0,.795,0,1,.206s.206.487.206,1c0,.481,0,.746-.2.943S24.589,30.515,24.11,30.515Zm-.537-.673a3.509,3.509,0,0,0,.538.022,3.861,3.861,0,0,0,.47-.015,3.887,3.887,0,0,0,.015-.474,3.564,3.564,0,0,0-.021-.532,3.58,3.58,0,0,0-.535-.022h-.1a3.135,3.135,0,0,0-.377.015,3.888,3.888,0,0,0-.014.461A3.544,3.544,0,0,0,23.573,29.841Z" transform="translate(14.098 17.234)" fill="#1471ce"/>
  <path id="Path_5453" data-name="Path 5453" d="M11.891,6.2c-.823,0-.828,0-.809-.82A3.338,3.338,0,0,1,12.91,2.369c.327-.183.477-.113.55.236a1.591,1.591,0,0,0,.126.333c.228.482.351.879-.279,1.226a1.474,1.474,0,0,0-.565,1.349c-.019.689-.016.689-.718.689h-.134" transform="translate(6.914 1.676)" fill="#1471ce"/>
  <path id="Path_5453_-_Outline" data-name="Path 5453 - Outline" d="M12.051,6.554h-.134c-.488,0-.757,0-.954-.2s-.191-.484-.18-.951a3.663,3.663,0,0,1,1.994-3.29.912.912,0,0,1,.445-.14c.209,0,.48.1.583.593a1.293,1.293,0,0,0,.1.26,1.086,1.086,0,0,1-.416,1.652c-.259.144-.378.465-.4,1.074v.008c-.011.4-.018.644-.205.822S12.472,6.554,12.051,6.554Zm-.612-.666a3.985,3.985,0,0,0,.478.015h.134c.145,0,.293,0,.374-.009.01-.077.014-.218.018-.354V5.53a1.769,1.769,0,0,1,.732-1.625c.374-.206.36-.345.143-.8a1.886,1.886,0,0,1-.15-.4c0-.021-.009-.039-.013-.054l-.06.031a3.013,3.013,0,0,0-1.661,2.738A3.887,3.887,0,0,0,11.438,5.887Z" transform="translate(6.889 1.65)" fill="#1471ce"/>
</svg>
