<svg xmlns="http://www.w3.org/2000/svg" xmlns:xlink="http://www.w3.org/1999/xlink" width="52.813" height="54.361" viewBox="0 0 52.813 54.361">
  <defs>
    <clipPath id="clip-path">
      <rect id="Rectangle_31972" data-name="Rectangle 31972" width="52.813" height="54.361" fill="#1471ce"/>
    </clipPath>
  </defs>
  <g id="Group_18318" data-name="Group 18318" clip-path="url(#clip-path)">
    <path id="Path_5454" data-name="Path 5454" d="M.01,33.772q0-4.282,0-8.564c0-1.165.138-1.271,1.3-1.315.621-.024,1.422.308,1.819-.158.349-.412.094-1.181.1-1.791,0-2.242-.109-2.019,1.882-2.535,1.62-.42,2.736-1.094,3.033-2.9a8.232,8.232,0,0,1,1.347-2.938.974.974,0,0,0,.015-1.1c-.456-.851-.874-1.722-1.332-2.571a1.06,1.06,0,0,1,.211-1.448c1.125-1.075,2.217-2.186,3.3-3.3a1,1,0,0,1,1.37-.233c.9.505,1.848.936,2.765,1.417a.736.736,0,0,0,.83-.009A17.359,17.359,0,0,1,21.252,4.4a.978.978,0,0,0,.772-.779c.271-.922.6-1.827.88-2.748A1.08,1.08,0,0,1,24.085,0c1.557.031,3.115.027,4.672,0a1.033,1.033,0,0,1,1.138.82c.313,1.009.67,2,.965,3.016a.688.688,0,0,0,.561.532,17.146,17.146,0,0,1,4.8,1.992.625.625,0,0,0,.711,0c.936-.5,1.9-.939,2.828-1.451a.978.978,0,0,1,1.325.177q1.692,1.71,3.4,3.4a1.015,1.015,0,0,1,.185,1.341c-.475.893-.905,1.812-1.385,2.7a.865.865,0,0,0,.02.973,17.6,17.6,0,0,1,1.919,4.607.8.8,0,0,0,.621.653c.946.277,1.871.628,2.817.9a1.133,1.133,0,0,1,.948,1.274c-.032.8.014,1.606-.017,2.406-.017.446.146.578.572.556.565-.029,1.133.012,1.7-.009.636-.026.907.318.936.893.026.471,0,.944,0,1.415q0,7.893.007,15.784c0,.213,0,.425-.005.638-.027.919-.225,1.118-1.142,1.119-3.988,0-7.976.01-11.963-.01a1.143,1.143,0,0,0-1.13.592,3.186,3.186,0,0,1-2.788,1.535c-.521,0-.6.189-.612.653a3.6,3.6,0,0,1-4.034,3.4c-.388-.056-.461-.009-.517.367a3.672,3.672,0,0,1-5.476,2.685c-.218-.126-.369-.216-.567.082-1.133,1.71-3.226,1.618-4.719.436q-5.823-4.609-11.579-9.3A1.835,1.835,0,0,0,7,43.743c-1.958.02-3.916.01-5.874.007C.215,43.748,0,43.541,0,42.62Q0,38.2,0,33.772Zm15.123-8.289c-1.888,0-3.775.014-5.664-.01-.464-.005-.648.071-.646.6Q8.856,34.042,8.828,42a1.071,1.071,0,0,0,.453.946c2.659,2.113,5.294,4.253,7.942,6.38,1.232.99,2.455,1.99,3.71,2.947a1.635,1.635,0,0,0,2.19.058c.386-.49.219-.987-.6-1.808l-5.752-5.752c-.652-.65-.774-1.1-.41-1.5s.9-.286,1.553.371q3.726,3.726,7.446,7.46a2.091,2.091,0,0,0,2.307.628,2.019,2.019,0,0,0,.733-3.394c-2.254-2.283-4.536-4.539-6.8-6.81a4.533,4.533,0,0,1-.6-.694.684.684,0,0,1,.174-.948.664.664,0,0,1,.9-.087,3.659,3.659,0,0,1,.429.366q3.705,3.7,7.406,7.409a2.124,2.124,0,0,0,3.084.184,2.054,2.054,0,0,0-.146-3.074q-2.294-2.3-4.6-4.6c-.8-.8-1.608-1.594-2.4-2.4a.807.807,0,1,1,1.145-1.13c.1.1.2.2.3.3Q30.642,40.2,34,43.556a2.035,2.035,0,0,0,3.066.116,2.1,2.1,0,0,0-.158-3.03c-2.314-2.324-4.646-4.629-6.948-6.965a.775.775,0,0,0-1.136-.145c-2.705,1.584-5.42,3.151-8.159,4.675a3.613,3.613,0,0,1-5.442-3.294A3.762,3.762,0,0,1,17.488,31.6q2.838-1.585,5.648-3.224c.846-.492.988-.322.111-1.147-.5-.468-1.021-.91-1.509-1.39a1.224,1.224,0,0,0-.943-.362c-1.887.017-3.775.009-5.662.007M43.9,23.9v0c1.157,0,2.312-.015,3.469.01.419.009.6-.092.575-.548a12.269,12.269,0,0,1,.014-1.7.592.592,0,0,0-.5-.7c-.92-.282-1.831-.6-2.751-.873a1.086,1.086,0,0,1-.868-.827,16.947,16.947,0,0,0-2.288-5.582,1.052,1.052,0,0,1-.032-1.182c.478-.866.895-1.766,1.361-2.637a.56.56,0,0,0-.087-.794c-.786-.749-1.55-1.519-2.305-2.3a.472.472,0,0,0-.669-.1c-.893.48-1.807.919-2.7,1.393a1.139,1.139,0,0,1-1.257-.048A16.4,16.4,0,0,0,30.485,5.8a1.171,1.171,0,0,1-.968-.9c-.265-.925-.587-1.834-.876-2.753-.1-.318-.225-.526-.624-.514-1.062.032-2.123.032-3.185.015a.576.576,0,0,0-.645.483c-.281.922-.616,1.827-.883,2.751a1.172,1.172,0,0,1-.96.905,16.375,16.375,0,0,0-5.385,2.23,1.164,1.164,0,0,1-1.317.032c-.868-.476-1.761-.9-2.637-1.361a.5.5,0,0,0-.721.107c-.725.776-1.482,1.519-2.251,2.251a.55.55,0,0,0-.107.789c.454.825.844,1.686,1.3,2.509a1.3,1.3,0,0,1-.054,1.5A15.92,15.92,0,0,0,9,19.1a1.21,1.21,0,0,1-.939,1c-.9.271-1.788.584-2.69.852-.361.109-.553.257-.519.682a13.148,13.148,0,0,1,.009,1.7c-.019.413.094.585.548.58q3.5-.028,7.008,0c.447,0,.568-.153.543-.577a11.713,11.713,0,0,1,.424-3.552,13.447,13.447,0,0,1,18.644-8.806,13,13,0,0,1,7.812,12.261c.009.531.134.694.665.675,1.131-.037,2.264-.01,3.4-.01m-9.876,0c1.5,0,2.511-.036,3.523.012.616.029.784-.219.752-.783a14.92,14.92,0,0,0-.522-3.333,11.878,11.878,0,0,0-23.248,3.125c-.032.956-.014.975.96.975,1.509,0,3.023.08,4.525-.02a3.573,3.573,0,0,1,3.36,1.3,9.484,9.484,0,0,0,1.147,1.046c.92.84.919.84,2.023.2.446-.262.922-.481,1.344-.776,2-1.4,4.131-2.235,6.136-1.742m9.944,9.93h.007c0-2.547-.014-5.094.012-7.639.005-.526-.09-.728-.682-.725-3.8.029-7.593.015-11.388.007a1.773,1.773,0,0,0-.934.245c-1.669.968-3.351,1.916-5.027,2.873q-3.989,2.276-7.972,4.561a2.086,2.086,0,0,0-1.152,2.285A2.052,2.052,0,0,0,20.1,36.7c2.846-1.615,5.684-3.248,8.525-4.871,1.079-.616,1.14-.606,1.992.248,2.414,2.419,4.82,4.849,7.253,7.251a4.121,4.121,0,0,1,1.354,2.406c.056.432.269.458.609.454,1.108-.014,2.218-.041,3.324.01.623.027.847-.107.835-.793-.046-2.523-.019-5.046-.019-7.569M1.611,33.765h0c0,2.594.01,5.187-.009,7.782,0,.463.085.663.611.65,1.461-.036,2.924-.026,4.386,0,.459.009.6-.126.6-.6q-.015-7.783.022-15.565c0-.436-.128-.567-.563-.56-1.461.024-2.924.032-4.386-.007-.527-.014-.679.129-.674.66.026,2.547.012,5.1.012,7.642m44,.075h.005c0,2.593.009,5.185-.009,7.778,0,.424.1.58.544.573,1.485-.026,2.97-.029,4.456,0,.475.009.587-.145.585-.6q-.023-7.778,0-15.556c0-.427-.1-.572-.544-.561-1.461.027-2.923.032-4.384,0-.521-.012-.677.117-.67.662.034,2.569.015,5.14.015,7.708" transform="translate(0 0.001)" fill="#1471ce"/>
    <path id="Path_5454_-_Outline" data-name="Path 5454 - Outline" d="M22.15,54.567a4.082,4.082,0,0,1-2.5-.925c-4.041-3.2-8.1-6.48-11.581-9.3a1.581,1.581,0,0,0-1.113-.388c-.812.008-1.683.012-2.742.012q-1.034,0-2.068,0l-1.068,0C.026,43.954-.3,43.631-.3,42.574c0-2.214,0-4.463,0-6.639V33.472h.01q0-1.3,0-2.6,0-2.855,0-5.71A1.751,1.751,0,0,1,0,23.9a1.831,1.831,0,0,1,1.251-.31,4.066,4.066,0,0,1,.65.047,4.2,4.2,0,0,0,.51.045.577.577,0,0,0,.476-.161c.174-.205.126-.622.081-1.025a5.319,5.319,0,0,1-.046-.6q0-.179,0-.338c0-.913,0-1.371.224-1.7s.653-.444,1.411-.634l.436-.111c2.083-.54,2.645-1.47,2.847-2.7a8.54,8.54,0,0,1,1.383-3.032.726.726,0,0,0,.006-.848c-.223-.417-.441-.844-.651-1.257-.22-.433-.448-.88-.681-1.313a1.311,1.311,0,0,1,.259-1.751c1.133-1.083,2.254-2.224,3.3-3.3a1.337,1.337,0,0,1,.97-.486,1.444,1.444,0,0,1,.7.208c.533.3,1.092.576,1.633.844.37.184.753.374,1.126.57a.651.651,0,0,0,.3.095.575.575,0,0,0,.287-.1,17.681,17.681,0,0,1,4.676-1.948.728.728,0,0,0,.591-.605c.152-.517.323-1.035.489-1.536.131-.4.267-.808.392-1.214A1.33,1.33,0,0,1,24-.3h.043c.738.015,1.51.022,2.3.022.754,0,1.551-.007,2.367-.02A1.286,1.286,0,0,1,30.09.7c.129.415.268.836.4,1.244.191.579.389,1.178.563,1.777a.44.44,0,0,0,.38.357A17.479,17.479,0,0,1,36.307,6.1a.4.4,0,0,0,.216.076.542.542,0,0,0,.245-.08c.405-.214.821-.422,1.224-.623.529-.264,1.076-.537,1.6-.826a1.488,1.488,0,0,1,.719-.211,1.258,1.258,0,0,1,.908.432c1.122,1.134,2.265,2.279,3.4,3.4a1.259,1.259,0,0,1,.231,1.639c-.224.422-.443.858-.654,1.279-.235.469-.478.954-.731,1.425a.615.615,0,0,0,.015.723,17.91,17.91,0,0,1,1.947,4.673.551.551,0,0,0,.447.474c.459.135.918.288,1.361.436.476.159.968.323,1.455.462a1.388,1.388,0,0,1,1.131,1.527c-.016.4-.012.809-.009,1.2s.007.8-.008,1.2c-.007.194.028.246.039.258s.048.038.2.038l.071,0c.148-.008.3-.011.492-.011.144,0,.289,0,.429,0s.282,0,.423,0,.251,0,.36-.006h.074a1.053,1.053,0,0,1,1.123,1.135c.018.326.012.654.007.972,0,.15-.005.305-.005.456v.072q0,7.857.007,15.712v.106c0,.176,0,.359-.005.54-.031,1.056-.344,1.363-1.394,1.365H49.335l-3.463,0c-2.49,0-4.408,0-6.22-.013h-.018a.888.888,0,0,0-.9.476,3.422,3.422,0,0,1-3,1.651h-.007c-.215,0-.278.038-.3.06a.819.819,0,0,0-.056.345,3.677,3.677,0,0,1-1.177,2.6,3.871,3.871,0,0,1-2.636,1.086,3.522,3.522,0,0,1-.511-.037,1.312,1.312,0,0,0-.176-.017h-.018a1,1,0,0,0-.036.171,3.986,3.986,0,0,1-3.891,3.407,3.861,3.861,0,0,1-1.963-.541l0,0a1.028,1.028,0,0,0-.155-.08.376.376,0,0,0-.07.084A3.035,3.035,0,0,1,22.15,54.567ZM6.991,43.443a2.088,2.088,0,0,1,1.4.5c3.483,2.824,7.538,6.1,11.576,9.3a3.575,3.575,0,0,0,2.184.816,2.507,2.507,0,0,0,2.167-1.193.607.607,0,0,1,.484-.313.836.836,0,0,1,.416.15l0,0a3.362,3.362,0,0,0,1.709.473,3.476,3.476,0,0,0,3.39-2.975c.031-.211.09-.6.555-.6a1.749,1.749,0,0,1,.249.022,3.014,3.014,0,0,0,.437.032,3.36,3.36,0,0,0,2.286-.946,3.175,3.175,0,0,0,1.021-2.241c.008-.437.082-.9.859-.9h.008a2.936,2.936,0,0,0,2.574-1.418,1.384,1.384,0,0,1,1.323-.709h.021c1.811.009,3.728.013,6.217.013l3.463,0h2.282c.408,0,.626-.044.727-.143s.149-.318.162-.731c.006-.174.005-.352.005-.524v-.106Q52.5,34.089,52.5,26.234v-.072c0-.156,0-.313.005-.465.005-.309.01-.628-.006-.937-.023-.466-.2-.655-.618-.655h-.055c-.116,0-.239.006-.379.006s-.289,0-.43,0-.282,0-.422,0c-.179,0-.327,0-.466.01l-.1,0a.75.75,0,0,1-.561-.193.841.841,0,0,1-.18-.628c.015-.389.011-.79.008-1.177s-.007-.818.009-1.229a.888.888,0,0,0-.764-1.021c-.5-.142-1-.308-1.476-.469-.439-.147-.893-.3-1.343-.43a1.048,1.048,0,0,1-.795-.833,17.4,17.4,0,0,0-1.891-4.54,1.119,1.119,0,0,1-.027-1.223c.25-.465.492-.947.725-1.413.213-.424.433-.863.66-1.29a.768.768,0,0,0-.14-1.042c-1.133-1.125-2.277-2.271-3.4-3.406a.774.774,0,0,0-.548-.281,1,1,0,0,0-.475.148c-.533.294-1.085.57-1.618.836-.4.2-.813.406-1.213.617a1,1,0,0,1-.482.139.911.911,0,0,1-.48-.15,16.973,16.973,0,0,0-4.731-1.963.94.94,0,0,1-.743-.706c-.171-.59-.368-1.185-.558-1.76-.135-.409-.275-.833-.406-1.253a.788.788,0,0,0-.892-.642c-.819.013-1.619.02-2.375.02-.789,0-1.565-.007-2.305-.022H24A.828.828,0,0,0,23.1.9c-.126.411-.263.824-.395,1.224-.164.5-.334,1.011-.484,1.52a1.223,1.223,0,0,1-.954.954,17.176,17.176,0,0,0-4.541,1.893,1.051,1.051,0,0,1-.544.168,1.114,1.114,0,0,1-.533-.153c-.368-.193-.748-.382-1.115-.564-.546-.271-1.111-.552-1.655-.856a.96.96,0,0,0-.458-.144.865.865,0,0,0-.606.332c-1.046,1.075-2.17,2.22-3.309,3.309a.817.817,0,0,0-.163,1.145c.236.438.465.888.686,1.323.209.411.425.836.646,1.248a1.225,1.225,0,0,1-.025,1.358A8.03,8.03,0,0,0,8.339,16.5c-.343,2.085-1.75,2.725-3.22,3.107l-.44.112c-.64.16-.992.248-1.118.431a3.211,3.211,0,0,0-.134,1.408q0,.16,0,.34a4.88,4.88,0,0,0,.042.545,1.806,1.806,0,0,1-.2,1.41,1.059,1.059,0,0,1-.862.34,4.633,4.633,0,0,1-.573-.049A3.592,3.592,0,0,0,1.27,24.1c-.5.019-.8.051-.913.164s-.139.429-.139.9q0,2.854,0,5.709,0,1.427,0,2.855v.253H.207v1.957c0,2.176,0,4.425,0,6.638,0,.4.046.63.147.731s.318.145.725.146l1.069,0q1.034,0,2.067,0c1.057,0,1.926,0,2.736-.012ZM22.144,52.93a2.363,2.363,0,0,1-1.411-.5c-1.013-.771-2.02-1.584-2.994-2.369l-.722-.581c-.882-.709-1.778-1.431-2.644-2.13-1.732-1.4-3.524-2.841-5.3-4.249a1.328,1.328,0,0,1-.548-1.144c.011-4.726.018-10.313-.005-15.926a.913.913,0,0,1,.2-.663.889.889,0,0,1,.66-.2h.043c.771.01,1.585.014,2.64.014l1.51,0q1.351,0,2.7,0l1.764,0c1.056,0,1.916,0,2.7-.01h.021a1.465,1.465,0,0,1,1.1.434c.286.281.589.554.883.818.205.185.417.375.623.568l.069.065c.462.434.635.6.6.839-.03.219-.221.319-.486.459-.1.052-.211.111-.341.187-1.947,1.134-3.849,2.219-5.652,3.226A3.488,3.488,0,0,0,16.4,37.415a3.277,3.277,0,0,0,2.355.988,3.538,3.538,0,0,0,1.734-.464c2.408-1.34,5-2.825,8.154-4.672a1.314,1.314,0,0,1,.659-.217,1.127,1.127,0,0,1,.785.4c1.428,1.449,2.892,2.911,4.308,4.324.866.864,1.761,1.758,2.639,2.64a2.647,2.647,0,0,1,.8,1.717A2.2,2.2,0,0,1,37.2,43.8a2.241,2.241,0,0,1-1.611.717,2.585,2.585,0,0,1-1.814-.831c-1.571-1.561-3.161-3.154-4.7-4.694l-2.009-2.011c-.047-.047-.093-.094-.138-.142s-.1-.108-.156-.159a.738.738,0,0,0-.465-.241.536.536,0,0,0-.366.18c-.1.095-.391.383.046.834.6.613,1.217,1.229,1.815,1.825l.579.576,1.416,1.414c1.046,1.043,2.127,2.121,3.186,3.186a2.653,2.653,0,0,1,.844,1.869,2.178,2.178,0,0,1-.7,1.565,2.226,2.226,0,0,1-1.569.651,2.67,2.67,0,0,1-1.87-.838c-2.134-2.138-4.417-4.423-7.406-7.409a3.407,3.407,0,0,0-.4-.34.4.4,0,0,0-.24-.091.547.547,0,0,0-.345.163c-.337.3-.18.54-.128.62a4.269,4.269,0,0,0,.564.654c.815.817,1.647,1.646,2.451,2.448,1.43,1.426,2.908,2.9,4.351,4.362a2.358,2.358,0,0,1,.654,2.193A2.262,2.262,0,0,1,27.7,51.921a2.426,2.426,0,0,1-.8.141,2.484,2.484,0,0,1-1.773-.83c-1.978-1.995-4-4.015-5.955-5.969l-1.491-1.491c-.44-.44-.721-.532-.879-.532a.4.4,0,0,0-.308.153c-.126.138-.359.395.4,1.154L22.652,50.3c.672.672,1.212,1.4.622,2.144A1.409,1.409,0,0,1,22.144,52.93ZM9.383,25.679c-.211,0-.28.025-.3.046s-.053.071-.052.3c.023,5.614.016,11.2.005,15.929a.819.819,0,0,0,.357.747c1.774,1.41,3.566,2.854,5.3,4.252.866.7,1.762,1.42,2.644,2.129l.722.582c.971.783,1.976,1.594,2.983,2.361a1.881,1.881,0,0,0,1.1.4.913.913,0,0,0,.732-.292c.207-.263.318-.573-.582-1.473l-5.752-5.752c-.3-.3-1.1-1.1-.418-1.853a.912.912,0,0,1,.683-.318,1.866,1.866,0,0,1,1.237.68l1.491,1.49c1.955,1.954,3.977,3.975,5.956,5.97a1.974,1.974,0,0,0,1.413.68,1.923,1.923,0,0,0,.631-.113,1.736,1.736,0,0,0,1.158-1.255,1.855,1.855,0,0,0-.521-1.722c-1.442-1.46-2.92-2.934-4.348-4.359-.8-.8-1.636-1.632-2.452-2.45a4.746,4.746,0,0,1-.63-.735.932.932,0,0,1,.218-1.275,1.029,1.029,0,0,1,.68-.29.9.9,0,0,1,.539.189,3.912,3.912,0,0,1,.458.391c2.988,2.986,5.272,5.271,7.406,7.409a2.169,2.169,0,0,0,1.512.689,1.729,1.729,0,0,0,1.218-.509,1.682,1.682,0,0,0,.546-1.206,2.155,2.155,0,0,0-.7-1.507c-1.059-1.064-2.14-2.142-3.185-3.184l-1.417-1.414-.578-.576c-.6-.6-1.22-1.214-1.821-1.831a1.082,1.082,0,0,1,.684-1.873,1.182,1.182,0,0,1,.819.385c.058.057.113.115.167.17s.087.09.131.135l2.009,2.011c1.538,1.54,3.128,3.133,4.7,4.693a2.093,2.093,0,0,0,1.457.684,1.747,1.747,0,0,0,1.25-.566,1.85,1.85,0,0,0-.157-2.674C35.8,39.892,34.905,39,34.04,38.135c-1.417-1.414-2.882-2.877-4.311-4.327-.219-.222-.338-.252-.425-.252a.857.857,0,0,0-.4.148c-3.159,1.85-5.753,3.336-8.164,4.678a4.039,4.039,0,0,1-1.98.528,3.78,3.78,0,0,1-2.716-1.14,3.991,3.991,0,0,1,1.276-6.438c1.8-1.006,3.7-2.089,5.644-3.222.14-.081.262-.146.36-.2.059-.031.123-.065.171-.093-.081-.091-.236-.236-.4-.388l-.07-.065c-.2-.189-.412-.378-.615-.561-.3-.268-.606-.545-.9-.833a.969.969,0,0,0-.746-.29H20.75c-.79.007-1.651.01-2.709.01l-1.764,0q-1.351,0-2.7,0l-1.511,0c-1.057,0-1.873,0-2.646-.014ZM43.243,42.4c-.044,0-.095,0-.148,0-.436-.02-.9-.03-1.449-.03-.456,0-.92.007-1.37.013l-.492.007h-.049a.7.7,0,0,1-.815-.675,3.829,3.829,0,0,0-1.281-2.258c-1.811-1.789-3.637-3.622-5.4-5.395l-1.851-1.857c-.429-.43-.622-.605-.8-.605a2.46,2.46,0,0,0-.886.4l-2.9,1.658c-1.843,1.056-3.749,2.147-5.628,3.213a2.966,2.966,0,0,1-1.467.422,2.227,2.227,0,0,1-2.167-1.836,2.34,2.34,0,0,1,1.271-2.566c2.366-1.358,4.9-2.807,7.973-4.562q.838-.479,1.678-.956c1.1-.625,2.236-1.272,3.347-1.916a2.027,2.027,0,0,1,1.05-.279l1.232,0c1.627,0,3.31.008,4.965.008,1.978,0,3.631-.006,5.2-.018h.017a.976.976,0,0,1,.711.218,1.029,1.029,0,0,1,.21.762c-.019,1.887-.016,3.807-.014,5.664q0,.986,0,1.972v.253h-.007c0,.6,0,1.21,0,1.8-.005,1.807-.011,3.675.023,5.511a1.133,1.133,0,0,1-.231.826A.977.977,0,0,1,43.243,42.4Zm-1.6-.539c.56,0,1.028.01,1.472.03l.125,0h0a.544.544,0,0,0,.359-.077.721.721,0,0,0,.086-.462c-.034-1.841-.028-3.712-.023-5.522,0-.673,0-1.368,0-2.052v-.253h.007q0-.859,0-1.718c0-1.858-.005-3.78.014-5.67a.753.753,0,0,0-.063-.4c-.025-.025-.1-.068-.352-.068h-.013c-1.571.012-3.225.018-5.2.018-1.656,0-3.338,0-4.966-.008l-1.231,0a1.519,1.519,0,0,0-.8.211c-1.112.645-2.25,1.292-3.35,1.918q-.839.477-1.678.956c-3.074,1.754-5.607,3.2-7.972,4.561a1.848,1.848,0,0,0-1.032,2,1.721,1.721,0,0,0,1.675,1.452,2.5,2.5,0,0,0,1.217-.356c1.878-1.065,3.783-2.156,5.626-3.212l2.9-1.659a2.53,2.53,0,0,1,1.138-.465c.407,0,.706.3,1.159.754L32.6,33.706c1.765,1.772,3.59,3.6,5.4,5.392a4.3,4.3,0,0,1,1.427,2.553c.03.227.054.234.312.234h.043l.49-.007C40.72,41.872,41.187,41.865,41.646,41.865ZM2.122,42.4a.846.846,0,0,1-.615-.2.952.952,0,0,1-.2-.706c.014-1.916.012-3.865.01-5.749q0-.889,0-1.778h0l0-.253q0-.986,0-1.972c0-1.858.005-3.779-.014-5.667a.963.963,0,0,1,.206-.711.9.9,0,0,1,.656-.206h.071c.677.018,1.382.027,2.157.027.669,0,1.374-.006,2.218-.02h.035a.809.809,0,0,1,.594.189.856.856,0,0,1,.191.625C7.4,32.078,7.4,37.023,7.406,41.547c0,.6-.243.855-.811.855H6.551c-.9-.015-1.646-.022-2.342-.022-.729,0-1.394.008-2.033.023Zm-.3-8.935,0,.25q0,1.015,0,2.03c0,1.885,0,3.835-.01,5.753a.61.61,0,0,0,.053.345c.015.015.07.05.256.05h.042c.644-.016,1.313-.023,2.046-.023.7,0,1.446.007,2.351.022H6.6c.261,0,.3-.01.3-.348-.009-4.524,0-9.471.022-15.566,0-.205-.033-.255-.043-.265s-.054-.04-.236-.04H6.616c-.847.014-1.554.02-2.226.02-.779,0-1.489-.009-2.17-.027H2.162c-.21,0-.276.035-.3.056s-.062.113-.06.349c.019,1.891.016,3.814.014,5.673Q1.818,32.608,1.818,33.468ZM50.6,42.4H50.56c-.7-.014-1.42-.02-2.154-.02s-1.505.007-2.293.02h-.032a.8.8,0,0,1-.582-.188.868.868,0,0,1-.188-.64c.013-1.943.011-3.92.01-5.831q0-.846,0-1.692h-.005v-.253q0-1.009,0-2.019c0-1.864.007-3.792-.018-5.686a.968.968,0,0,1,.2-.714.885.885,0,0,1,.658-.2h.067c.678.016,1.393.024,2.126.024.715,0,1.45-.007,2.248-.022h.047c.663,0,.755.392.755.815-.016,5.352-.016,10.585,0,15.556a.9.9,0,0,1-.2.664A.826.826,0,0,1,50.6,42.4Zm-2.195-.527c.738,0,1.465.007,2.164.02H50.6c.189,0,.238-.034.248-.044s.049-.074.048-.3c-.015-4.972-.014-10.206,0-15.558,0-.308-.019-.308-.249-.308h-.037c-.8.015-1.541.022-2.258.022-.737,0-1.456-.008-2.137-.024h-.056c-.2,0-.273.029-.3.054s-.061.1-.058.352c.025,1.9.021,3.827.018,5.693q0,.883,0,1.765h.005v.253q0,.972,0,1.944c0,1.912,0,3.89-.01,5.836,0,.22.031.27.041.28s.047.039.223.039H46.1C46.895,41.878,47.669,41.871,48.406,41.871ZM25.469,27.089h0c-.372,0-.636-.241-1.162-.721-.124-.113-.252-.218-.387-.329a4.953,4.953,0,0,1-.79-.75,3.134,3.134,0,0,0-2.7-1.219c-.14,0-.289.005-.443.015-.522.035-1.081.051-1.759.051-.466,0-.938-.008-1.4-.015s-.926-.015-1.388-.015c-.524,0-.84,0-1.041-.208s-.189-.516-.172-1.029a12.107,12.107,0,0,1,9.735-11.585,11.974,11.974,0,0,1,2.442-.253,12.165,12.165,0,0,1,7.178,2.377,11.889,11.889,0,0,1,4.388,6.273,15.062,15.062,0,0,1,.532,3.389,1.061,1.061,0,0,1-.209.81.916.916,0,0,1-.7.243l-.1,0c-.36-.017-.741-.024-1.235-.024-.3,0-.619,0-.957.006-.391,0-.834.007-1.319.007h-.031l-.03-.007a4.748,4.748,0,0,0-1.133-.135,8.651,8.651,0,0,0-4.8,1.839,8.94,8.94,0,0,1-.877.518c-.16.087-.326.176-.484.269A2.576,2.576,0,0,1,25.469,27.089Zm-5.04-3.525a3.644,3.644,0,0,1,3.1,1.412,4.509,4.509,0,0,0,.712.671c.135.11.274.224.406.344.461.421.654.591.823.591h0a2.59,2.59,0,0,0,.9-.425c.167-.1.337-.19.5-.279a8.432,8.432,0,0,0,.828-.488,9.131,9.131,0,0,1,5.088-1.93,5.261,5.261,0,0,1,1.224.142c.471,0,.9,0,1.285-.007.339,0,.659-.006.962-.006.5,0,.891.008,1.259.025l.081,0a.476.476,0,0,0,.335-.084A.634.634,0,0,0,38,23.1a14.575,14.575,0,0,0-.513-3.276,11.387,11.387,0,0,0-4.2-6.008,11.656,11.656,0,0,0-6.877-2.278,11.466,11.466,0,0,0-2.339.242,11.6,11.6,0,0,0-9.333,11.106,2.028,2.028,0,0,0,.03.66,2.1,2.1,0,0,0,.676.053c.466,0,.938.008,1.4.015s.926.015,1.387.015c.666,0,1.214-.016,1.725-.05C20.117,23.569,20.277,23.563,20.429,23.563Zm26.941.558h-.051c-.455-.01-.954-.015-1.571-.015l-.945,0-.947,0H43.6v0l-.756,0c-.33,0-.67,0-1,0-.533,0-.97.006-1.375.02l-.085,0c-.686,0-.833-.37-.842-.926a12.744,12.744,0,0,0-7.67-12.037A12.424,12.424,0,0,0,26.407,9.9a13.438,13.438,0,0,0-8.017,2.708,13.173,13.173,0,0,0-2.984,3.12A12.724,12.724,0,0,0,13.581,19.8a11.252,11.252,0,0,0-.416,3.476.834.834,0,0,1-.166.641.824.824,0,0,1-.615.2h-.016c-1.143-.008-2.293-.013-3.418-.013-1.2,0-2.405,0-3.585.014H5.342a.816.816,0,0,1-.606-.2.847.847,0,0,1-.175-.643,13.059,13.059,0,0,0-.008-1.666.825.825,0,0,1,.7-.945c.459-.137.923-.288,1.372-.434.431-.14.876-.285,1.318-.418a.963.963,0,0,0,.765-.815,16.243,16.243,0,0,1,2.208-5.335,1.05,1.05,0,0,0,.045-1.239c-.234-.423-.453-.86-.665-1.283-.2-.406-.414-.825-.635-1.227a.8.8,0,0,1,.155-1.095c.9-.86,1.616-1.572,2.24-2.24a.79.79,0,0,1,.573-.293.987.987,0,0,1,.451.134c.348.183.706.363,1.053.538.523.264,1.063.537,1.588.825a1.09,1.09,0,0,0,.524.157.981.981,0,0,0,.534-.18,16.7,16.7,0,0,1,5.467-2.265.921.921,0,0,0,.771-.728c.149-.515.321-1.031.488-1.53.134-.4.272-.815.4-1.224a.818.818,0,0,1,.868-.663h.022c.474.008.91.011,1.336.011.651,0,1.253-.009,1.838-.026H28a.825.825,0,0,1,.834.692c.105.334.217.674.325,1,.188.572.383,1.164.553,1.755a.919.919,0,0,0,.778.721,16.719,16.719,0,0,1,5.46,2.261.972.972,0,0,0,.522.174,1.027,1.027,0,0,0,.48-.137c.422-.224.854-.443,1.271-.654.471-.238.957-.485,1.429-.738a.9.9,0,0,1,.428-.126.758.758,0,0,1,.543.269c.885.912,1.615,1.641,2.3,2.291a.811.811,0,0,1,.136,1.1c-.208.389-.41.791-.605,1.18-.242.481-.492.979-.757,1.46a.8.8,0,0,0,.026.927,17.077,17.077,0,0,1,2.321,5.665c.067.323.267.507.693.635.495.149.994.311,1.477.467.418.135.849.275,1.276.406a.841.841,0,0,1,.677.967,12.024,12.024,0,0,0-.013,1.66.676.676,0,0,1-.782.817ZM45.747,23.6c.621,0,1.124,0,1.582.015h.04c.192,0,.237-.032.246-.042s.041-.049.03-.239a12.531,12.531,0,0,1,.014-1.73c.022-.267-.044-.358-.32-.442-.43-.132-.864-.273-1.283-.408-.48-.156-.977-.316-1.467-.464a1.368,1.368,0,0,1-1.043-1.018,16.582,16.582,0,0,0-2.255-5.5,1.3,1.3,0,0,1-.039-1.438c.261-.473.509-.966.748-1.443.2-.392.4-.8.611-1.191.135-.253.129-.332-.039-.492-.687-.654-1.422-1.387-2.312-2.305-.11-.115-.16-.115-.179-.115a.458.458,0,0,0-.189.066c-.476.256-.966.5-1.439.744-.416.211-.846.429-1.263.65a1.517,1.517,0,0,1-.717.2,1.46,1.46,0,0,1-.794-.253A16.215,16.215,0,0,0,30.385,6a1.415,1.415,0,0,1-1.158-1.076c-.167-.582-.36-1.169-.547-1.737-.109-.33-.221-.672-.327-1.01-.091-.293-.16-.337-.351-.337h-.025c-.59.018-1.2.027-1.853.027-.428,0-.867,0-1.343-.011h-.015c-.233,0-.309.06-.384.3-.126.415-.265.832-.4,1.236-.165.494-.335,1.005-.482,1.511a1.417,1.417,0,0,1-1.148,1.082,16.192,16.192,0,0,0-5.3,2.2,1.468,1.468,0,0,1-.808.261,1.577,1.577,0,0,1-.768-.22c-.516-.284-1.053-.554-1.572-.816-.348-.176-.708-.357-1.06-.542a.53.53,0,0,0-.216-.076c-.022,0-.08,0-.2.132-.631.676-1.35,1.394-2.262,2.262-.179.17-.189.247-.059.485.226.41.438.834.644,1.244s.426.851.655,1.264a1.544,1.544,0,0,1-.064,1.762A15.738,15.738,0,0,0,9.2,19.106a1.465,1.465,0,0,1-1.113,1.188c-.436.131-.879.275-1.307.415-.452.147-.919.3-1.383.438-.3.09-.359.165-.339.419a13.524,13.524,0,0,1,.009,1.73c-.009.2.022.255.035.269s.058.046.24.046h.017c1.182-.009,2.39-.014,3.59-.014,1.126,0,2.278,0,3.422.013h.012c.195,0,.239-.037.246-.044s.042-.061.029-.264a11.889,11.889,0,0,1,.431-3.629,13.229,13.229,0,0,1,1.9-4.224,13.678,13.678,0,0,1,3.1-3.24A13.948,13.948,0,0,1,26.407,9.4a12.926,12.926,0,0,1,5.683,1.3,14.049,14.049,0,0,1,5.873,5.012,14.08,14.08,0,0,1,2.082,7.472.718.718,0,0,0,.064.37c.039.048.169.058.271.058h.068c.411-.014.853-.02,1.393-.02.336,0,.678,0,1.008,0s.671,0,1.005,0h.253v0l.692,0Z" transform="translate(0.047 0.048)" fill="#1471ce"/>
    <path id="Path_5454_-_Outline-2" data-name="Path 5454 - Outline" d="M22.15,54.567a4.082,4.082,0,0,1-2.5-.925c-4.041-3.2-8.1-6.48-11.581-9.3a1.581,1.581,0,0,0-1.113-.388c-.812.008-1.683.012-2.742.012q-1.034,0-2.068,0l-1.068,0C.026,43.954-.3,43.631-.3,42.574c0-2.214,0-4.463,0-6.639V33.472h.01q0-1.3,0-2.6,0-2.855,0-5.71A1.751,1.751,0,0,1,0,23.9a1.831,1.831,0,0,1,1.251-.31,4.066,4.066,0,0,1,.65.047,4.2,4.2,0,0,0,.51.045.577.577,0,0,0,.476-.161c.174-.205.126-.622.081-1.025a5.319,5.319,0,0,1-.046-.6q0-.179,0-.338c0-.913,0-1.371.224-1.7s.653-.444,1.411-.634l.436-.111c2.083-.54,2.645-1.47,2.847-2.7a8.54,8.54,0,0,1,1.383-3.032.726.726,0,0,0,.006-.848c-.223-.417-.441-.844-.651-1.257-.22-.433-.448-.88-.681-1.313a1.311,1.311,0,0,1,.259-1.751c1.133-1.083,2.254-2.224,3.3-3.3a1.337,1.337,0,0,1,.97-.486,1.444,1.444,0,0,1,.7.208c.533.3,1.092.576,1.633.844.37.184.753.374,1.126.57a.651.651,0,0,0,.3.095.575.575,0,0,0,.287-.1,17.681,17.681,0,0,1,4.676-1.948.728.728,0,0,0,.591-.605c.152-.517.323-1.035.489-1.536.131-.4.267-.808.392-1.214A1.33,1.33,0,0,1,24-.3h.043c.738.015,1.51.022,2.3.022.754,0,1.551-.007,2.367-.02A1.286,1.286,0,0,1,30.09.7c.129.415.268.836.4,1.244.191.579.389,1.178.563,1.777a.44.44,0,0,0,.38.357A17.479,17.479,0,0,1,36.307,6.1a.4.4,0,0,0,.216.076.542.542,0,0,0,.245-.08c.405-.214.821-.422,1.224-.623.529-.264,1.076-.537,1.6-.826a1.488,1.488,0,0,1,.719-.211,1.258,1.258,0,0,1,.908.432c1.122,1.134,2.265,2.279,3.4,3.4a1.259,1.259,0,0,1,.231,1.639c-.224.422-.443.858-.654,1.279-.235.469-.478.954-.731,1.425a.615.615,0,0,0,.015.723,17.91,17.91,0,0,1,1.947,4.673.551.551,0,0,0,.447.474c.459.135.918.288,1.361.436.476.159.968.323,1.455.462a1.388,1.388,0,0,1,1.131,1.527c-.016.4-.012.809-.009,1.2s.007.8-.008,1.2c-.007.194.028.246.039.258s.048.038.2.038l.071,0c.148-.008.3-.011.492-.011.144,0,.289,0,.429,0s.282,0,.423,0,.251,0,.36-.006h.074a1.053,1.053,0,0,1,1.123,1.135c.018.326.012.654.007.972,0,.15-.005.305-.005.456v.072q0,7.857.007,15.712v.106c0,.176,0,.359-.005.54-.031,1.056-.344,1.363-1.394,1.365H49.335l-3.463,0c-2.49,0-4.408,0-6.22-.013h-.018a.888.888,0,0,0-.9.476,3.422,3.422,0,0,1-3,1.651h-.007c-.215,0-.278.038-.3.06a.819.819,0,0,0-.056.345,3.677,3.677,0,0,1-1.177,2.6,3.871,3.871,0,0,1-2.636,1.086,3.522,3.522,0,0,1-.511-.037,1.312,1.312,0,0,0-.176-.017h-.018a1,1,0,0,0-.036.171,3.986,3.986,0,0,1-3.891,3.407,3.861,3.861,0,0,1-1.963-.541l0,0a1.028,1.028,0,0,0-.155-.08.376.376,0,0,0-.07.084A3.035,3.035,0,0,1,22.15,54.567ZM6.991,43.443a2.088,2.088,0,0,1,1.4.5c3.483,2.824,7.538,6.1,11.576,9.3a3.575,3.575,0,0,0,2.184.816,2.507,2.507,0,0,0,2.167-1.193.607.607,0,0,1,.484-.313.836.836,0,0,1,.416.15l0,0a3.362,3.362,0,0,0,1.709.473,3.476,3.476,0,0,0,3.39-2.975c.031-.211.09-.6.555-.6a1.749,1.749,0,0,1,.249.022,3.014,3.014,0,0,0,.437.032,3.36,3.36,0,0,0,2.286-.946,3.175,3.175,0,0,0,1.021-2.241c.008-.437.082-.9.859-.9h.008a2.936,2.936,0,0,0,2.574-1.418,1.384,1.384,0,0,1,1.323-.709h.021c1.811.009,3.728.013,6.217.013l3.463,0h2.282c.408,0,.626-.044.727-.143s.149-.318.162-.731c.006-.174.005-.352.005-.524v-.106Q52.5,34.089,52.5,26.234v-.072c0-.156,0-.313.005-.465.005-.309.01-.628-.006-.937-.023-.466-.2-.655-.618-.655h-.055c-.116,0-.239.006-.379.006s-.289,0-.43,0-.282,0-.422,0c-.179,0-.327,0-.466.01l-.1,0a.75.75,0,0,1-.561-.193.841.841,0,0,1-.18-.628c.015-.389.011-.79.008-1.177s-.007-.818.009-1.229a.888.888,0,0,0-.764-1.021c-.5-.142-1-.308-1.476-.469-.439-.147-.893-.3-1.343-.43a1.048,1.048,0,0,1-.795-.833,17.4,17.4,0,0,0-1.891-4.54,1.119,1.119,0,0,1-.027-1.223c.25-.465.492-.947.725-1.413.213-.424.433-.863.66-1.29a.768.768,0,0,0-.14-1.042c-1.133-1.125-2.277-2.271-3.4-3.406a.774.774,0,0,0-.548-.281,1,1,0,0,0-.475.148c-.533.294-1.085.57-1.618.836-.4.2-.813.406-1.213.617a1,1,0,0,1-.482.139.911.911,0,0,1-.48-.15,16.973,16.973,0,0,0-4.731-1.963.94.94,0,0,1-.743-.706c-.171-.59-.368-1.185-.558-1.76-.135-.409-.275-.833-.406-1.253a.788.788,0,0,0-.892-.642c-.819.013-1.619.02-2.375.02-.789,0-1.565-.007-2.305-.022H24A.828.828,0,0,0,23.1.9c-.126.411-.263.824-.395,1.224-.164.5-.334,1.011-.484,1.52a1.223,1.223,0,0,1-.954.954,17.176,17.176,0,0,0-4.541,1.893,1.051,1.051,0,0,1-.544.168,1.114,1.114,0,0,1-.533-.153c-.368-.193-.748-.382-1.115-.564-.546-.271-1.111-.552-1.655-.856a.96.96,0,0,0-.458-.144.865.865,0,0,0-.606.332c-1.046,1.075-2.17,2.22-3.309,3.309a.817.817,0,0,0-.163,1.145c.236.438.465.888.686,1.323.209.411.425.836.646,1.248a1.225,1.225,0,0,1-.025,1.358A8.03,8.03,0,0,0,8.339,16.5c-.343,2.085-1.75,2.725-3.22,3.107l-.44.112c-.64.16-.992.248-1.118.431a3.211,3.211,0,0,0-.134,1.408q0,.16,0,.34a4.88,4.88,0,0,0,.042.545,1.806,1.806,0,0,1-.2,1.41,1.059,1.059,0,0,1-.862.34,4.633,4.633,0,0,1-.573-.049A3.592,3.592,0,0,0,1.27,24.1c-.5.019-.8.051-.913.164s-.139.429-.139.9q0,2.854,0,5.709,0,1.427,0,2.855v.253H.207v1.957c0,2.176,0,4.425,0,6.638,0,.4.046.63.147.731s.318.145.725.146l1.069,0q1.034,0,2.067,0c1.057,0,1.926,0,2.736-.012ZM22.144,52.93a2.363,2.363,0,0,1-1.411-.5c-1.013-.771-2.02-1.584-2.994-2.369l-.722-.581c-.882-.709-1.778-1.431-2.644-2.13-1.732-1.4-3.524-2.841-5.3-4.249a1.328,1.328,0,0,1-.548-1.144c.011-4.726.018-10.313-.005-15.926a.913.913,0,0,1,.2-.663.889.889,0,0,1,.66-.2h.043c.771.01,1.585.014,2.64.014l1.51,0q1.351,0,2.7,0l1.764,0c1.056,0,1.916,0,2.7-.01h.021a1.465,1.465,0,0,1,1.1.434c.286.281.589.554.883.818.205.185.417.375.623.568l.069.065c.462.434.635.6.6.839-.03.219-.221.319-.486.459-.1.052-.211.111-.341.187-1.947,1.134-3.849,2.219-5.652,3.226A3.488,3.488,0,0,0,16.4,37.415a3.277,3.277,0,0,0,2.355.988,3.538,3.538,0,0,0,1.734-.464c2.408-1.34,5-2.825,8.154-4.672a1.314,1.314,0,0,1,.659-.217,1.127,1.127,0,0,1,.785.4c1.428,1.449,2.892,2.911,4.308,4.324.866.864,1.761,1.758,2.639,2.64a2.647,2.647,0,0,1,.8,1.717A2.2,2.2,0,0,1,37.2,43.8a2.241,2.241,0,0,1-1.611.717,2.585,2.585,0,0,1-1.814-.831c-1.571-1.561-3.161-3.154-4.7-4.694l-2.009-2.011c-.047-.047-.093-.094-.138-.142s-.1-.108-.156-.159a.738.738,0,0,0-.465-.241.536.536,0,0,0-.366.18c-.1.095-.391.383.046.834.6.613,1.217,1.229,1.815,1.825l.579.576,1.416,1.414c1.046,1.043,2.127,2.121,3.186,3.186a2.653,2.653,0,0,1,.844,1.869,2.178,2.178,0,0,1-.7,1.565,2.226,2.226,0,0,1-1.569.651,2.67,2.67,0,0,1-1.87-.838c-2.134-2.138-4.417-4.423-7.406-7.409a3.407,3.407,0,0,0-.4-.34.4.4,0,0,0-.24-.091.547.547,0,0,0-.345.163c-.337.3-.18.54-.128.62a4.269,4.269,0,0,0,.564.654c.815.817,1.647,1.646,2.451,2.448,1.43,1.426,2.908,2.9,4.351,4.362a2.358,2.358,0,0,1,.654,2.193A2.262,2.262,0,0,1,27.7,51.921a2.426,2.426,0,0,1-.8.141,2.484,2.484,0,0,1-1.773-.83c-1.978-1.995-4-4.015-5.955-5.969l-1.491-1.491c-.44-.44-.721-.532-.879-.532a.4.4,0,0,0-.308.153c-.126.138-.359.395.4,1.154L22.652,50.3c.672.672,1.212,1.4.622,2.144A1.409,1.409,0,0,1,22.144,52.93ZM9.383,25.679c-.211,0-.28.025-.3.046s-.053.071-.052.3c.023,5.614.016,11.2.005,15.929a.819.819,0,0,0,.357.747c1.774,1.41,3.566,2.854,5.3,4.252.866.7,1.762,1.42,2.644,2.129l.722.582c.971.783,1.976,1.594,2.983,2.361a1.881,1.881,0,0,0,1.1.4.913.913,0,0,0,.732-.292c.207-.263.318-.573-.582-1.473l-5.752-5.752c-.3-.3-1.1-1.1-.418-1.853a.912.912,0,0,1,.683-.318,1.866,1.866,0,0,1,1.237.68l1.491,1.49c1.955,1.954,3.977,3.975,5.956,5.97a1.974,1.974,0,0,0,1.413.68,1.923,1.923,0,0,0,.631-.113,1.736,1.736,0,0,0,1.158-1.255,1.855,1.855,0,0,0-.521-1.722c-1.442-1.46-2.92-2.934-4.348-4.359-.8-.8-1.636-1.632-2.452-2.45a4.746,4.746,0,0,1-.63-.735.932.932,0,0,1,.218-1.275,1.029,1.029,0,0,1,.68-.29.9.9,0,0,1,.539.189,3.912,3.912,0,0,1,.458.391c2.988,2.986,5.272,5.271,7.406,7.409a2.169,2.169,0,0,0,1.512.689,1.729,1.729,0,0,0,1.218-.509,1.682,1.682,0,0,0,.546-1.206,2.155,2.155,0,0,0-.7-1.507c-1.059-1.064-2.14-2.142-3.185-3.184l-1.417-1.414-.578-.576c-.6-.6-1.22-1.214-1.821-1.831a1.082,1.082,0,0,1,.684-1.873,1.182,1.182,0,0,1,.819.385c.058.057.113.115.167.17s.087.09.131.135l2.009,2.011c1.538,1.54,3.128,3.133,4.7,4.693a2.093,2.093,0,0,0,1.457.684,1.747,1.747,0,0,0,1.25-.566,1.85,1.85,0,0,0-.157-2.674C35.8,39.892,34.905,39,34.04,38.135c-1.417-1.414-2.882-2.877-4.311-4.327-.219-.222-.338-.252-.425-.252a.857.857,0,0,0-.4.148c-3.159,1.85-5.753,3.336-8.164,4.678a4.039,4.039,0,0,1-1.98.528,3.78,3.78,0,0,1-2.716-1.14,3.991,3.991,0,0,1,1.276-6.438c1.8-1.006,3.7-2.089,5.644-3.222.14-.081.262-.146.36-.2.059-.031.123-.065.171-.093-.081-.091-.236-.236-.4-.388l-.07-.065c-.2-.189-.412-.378-.615-.561-.3-.268-.606-.545-.9-.833a.969.969,0,0,0-.746-.29H20.75c-.79.007-1.651.01-2.709.01l-1.764,0q-1.351,0-2.7,0l-1.511,0c-1.057,0-1.873,0-2.646-.014ZM43.243,42.4c-.044,0-.095,0-.148,0-.436-.02-.9-.03-1.449-.03-.456,0-.92.007-1.37.013l-.492.007h-.049a.7.7,0,0,1-.815-.675,3.829,3.829,0,0,0-1.281-2.258c-1.811-1.789-3.637-3.622-5.4-5.395l-1.851-1.857c-.429-.43-.622-.605-.8-.605a2.46,2.46,0,0,0-.886.4l-2.9,1.658c-1.843,1.056-3.749,2.147-5.628,3.213a2.966,2.966,0,0,1-1.467.422,2.227,2.227,0,0,1-2.167-1.836,2.34,2.34,0,0,1,1.271-2.566c2.366-1.358,4.9-2.807,7.973-4.562q.838-.479,1.678-.956c1.1-.625,2.236-1.272,3.347-1.916a2.027,2.027,0,0,1,1.05-.279l1.232,0c1.627,0,3.31.008,4.965.008,1.978,0,3.631-.006,5.2-.018h.017a.976.976,0,0,1,.711.218,1.029,1.029,0,0,1,.21.762c-.019,1.887-.016,3.807-.014,5.664q0,.986,0,1.972v.253h-.007c0,.6,0,1.21,0,1.8-.005,1.807-.011,3.675.023,5.511a1.133,1.133,0,0,1-.231.826A.977.977,0,0,1,43.243,42.4Zm-1.6-.539c.56,0,1.028.01,1.472.03l.125,0h0a.544.544,0,0,0,.359-.077.721.721,0,0,0,.086-.462c-.034-1.841-.028-3.712-.023-5.522,0-.673,0-1.368,0-2.052v-.253h.007q0-.859,0-1.718c0-1.858-.005-3.78.014-5.67a.753.753,0,0,0-.063-.4c-.025-.025-.1-.068-.352-.068h-.013c-1.571.012-3.225.018-5.2.018-1.656,0-3.338,0-4.966-.008l-1.231,0a1.519,1.519,0,0,0-.8.211c-1.112.645-2.25,1.292-3.35,1.918q-.839.477-1.678.956c-3.074,1.754-5.607,3.2-7.972,4.561a1.848,1.848,0,0,0-1.032,2,1.721,1.721,0,0,0,1.675,1.452,2.5,2.5,0,0,0,1.217-.356c1.878-1.065,3.783-2.156,5.626-3.212l2.9-1.659a2.53,2.53,0,0,1,1.138-.465c.407,0,.706.3,1.159.754L32.6,33.706c1.765,1.772,3.59,3.6,5.4,5.392a4.3,4.3,0,0,1,1.427,2.553c.03.227.054.234.312.234h.043l.49-.007C40.72,41.872,41.187,41.865,41.646,41.865ZM2.122,42.4a.846.846,0,0,1-.615-.2.952.952,0,0,1-.2-.706c.014-1.916.012-3.865.01-5.749q0-.889,0-1.778h0l0-.253q0-.986,0-1.972c0-1.858.005-3.779-.014-5.667a.963.963,0,0,1,.206-.711.9.9,0,0,1,.656-.206h.071c.677.018,1.382.027,2.157.027.669,0,1.374-.006,2.218-.02h.035a.809.809,0,0,1,.594.189.856.856,0,0,1,.191.625C7.4,32.078,7.4,37.023,7.406,41.547c0,.6-.243.855-.811.855H6.551c-.9-.015-1.646-.022-2.342-.022-.729,0-1.394.008-2.033.023Zm-.3-8.935,0,.25q0,1.015,0,2.03c0,1.885,0,3.835-.01,5.753a.61.61,0,0,0,.053.345c.015.015.07.05.256.05h.042c.644-.016,1.313-.023,2.046-.023.7,0,1.446.007,2.351.022H6.6c.261,0,.3-.01.3-.348-.009-4.524,0-9.471.022-15.566,0-.205-.033-.255-.043-.265s-.054-.04-.236-.04H6.616c-.847.014-1.554.02-2.226.02-.779,0-1.489-.009-2.17-.027H2.162c-.21,0-.276.035-.3.056s-.062.113-.06.349c.019,1.891.016,3.814.014,5.673Q1.818,32.608,1.818,33.468ZM50.6,42.4H50.56c-.7-.014-1.42-.02-2.154-.02s-1.505.007-2.293.02h-.032a.8.8,0,0,1-.582-.188.868.868,0,0,1-.188-.64c.013-1.943.011-3.92.01-5.831q0-.846,0-1.692h-.005v-.253q0-1.009,0-2.019c0-1.864.007-3.792-.018-5.686a.968.968,0,0,1,.2-.714.885.885,0,0,1,.658-.2h.067c.678.016,1.393.024,2.126.024.715,0,1.45-.007,2.248-.022h.047c.663,0,.755.392.755.815-.016,5.352-.016,10.585,0,15.556a.9.9,0,0,1-.2.664A.826.826,0,0,1,50.6,42.4Zm-2.195-.527c.738,0,1.465.007,2.164.02H50.6c.189,0,.238-.034.248-.044s.049-.074.048-.3c-.015-4.972-.014-10.206,0-15.558,0-.308-.019-.308-.249-.308h-.037c-.8.015-1.541.022-2.258.022-.737,0-1.456-.008-2.137-.024h-.056c-.2,0-.273.029-.3.054s-.061.1-.058.352c.025,1.9.021,3.827.018,5.693q0,.883,0,1.765h.005v.253q0,.972,0,1.944c0,1.912,0,3.89-.01,5.836,0,.22.031.27.041.28s.047.039.223.039H46.1C46.895,41.878,47.669,41.871,48.406,41.871ZM25.469,27.089h0c-.372,0-.636-.241-1.162-.721-.124-.113-.252-.218-.387-.329a4.953,4.953,0,0,1-.79-.75,3.134,3.134,0,0,0-2.7-1.219c-.14,0-.289.005-.443.015-.522.035-1.081.051-1.759.051-.466,0-.938-.008-1.4-.015s-.926-.015-1.388-.015c-.524,0-.84,0-1.041-.208s-.189-.516-.172-1.029a12.107,12.107,0,0,1,9.735-11.585,11.974,11.974,0,0,1,2.442-.253,12.165,12.165,0,0,1,7.178,2.377,11.889,11.889,0,0,1,4.388,6.273,15.062,15.062,0,0,1,.532,3.389,1.061,1.061,0,0,1-.209.81.916.916,0,0,1-.7.243l-.1,0c-.36-.017-.741-.024-1.235-.024-.3,0-.619,0-.957.006-.391,0-.834.007-1.319.007h-.031l-.03-.007a4.748,4.748,0,0,0-1.133-.135,8.651,8.651,0,0,0-4.8,1.839,8.94,8.94,0,0,1-.877.518c-.16.087-.326.176-.484.269A2.576,2.576,0,0,1,25.469,27.089Zm-5.04-3.525a3.644,3.644,0,0,1,3.1,1.412,4.509,4.509,0,0,0,.712.671c.135.11.274.224.406.344.461.421.654.591.823.591h0a2.59,2.59,0,0,0,.9-.425c.167-.1.337-.19.5-.279a8.432,8.432,0,0,0,.828-.488,9.131,9.131,0,0,1,5.088-1.93,5.261,5.261,0,0,1,1.224.142c.471,0,.9,0,1.285-.007.339,0,.659-.006.962-.006.5,0,.891.008,1.259.025l.081,0a.476.476,0,0,0,.335-.084A.634.634,0,0,0,38,23.1a14.575,14.575,0,0,0-.513-3.276,11.387,11.387,0,0,0-4.2-6.008,11.656,11.656,0,0,0-6.877-2.278,11.466,11.466,0,0,0-2.339.242,11.6,11.6,0,0,0-9.333,11.106,2.028,2.028,0,0,0,.03.66,2.1,2.1,0,0,0,.676.053c.466,0,.938.008,1.4.015s.926.015,1.387.015c.666,0,1.214-.016,1.725-.05C20.117,23.569,20.277,23.563,20.429,23.563Zm26.941.558h-.051c-.455-.01-.954-.015-1.571-.015l-.945,0-.947,0H43.6v0l-.756,0c-.33,0-.67,0-1,0-.533,0-.97.006-1.375.02l-.085,0c-.686,0-.833-.37-.842-.926a12.744,12.744,0,0,0-7.67-12.037A12.424,12.424,0,0,0,26.407,9.9a13.438,13.438,0,0,0-8.017,2.708,13.173,13.173,0,0,0-2.984,3.12A12.724,12.724,0,0,0,13.581,19.8a11.252,11.252,0,0,0-.416,3.476.834.834,0,0,1-.166.641.824.824,0,0,1-.615.2h-.016c-1.143-.008-2.293-.013-3.418-.013-1.2,0-2.405,0-3.585.014H5.342a.816.816,0,0,1-.606-.2.847.847,0,0,1-.175-.643,13.059,13.059,0,0,0-.008-1.666.825.825,0,0,1,.7-.945c.459-.137.923-.288,1.372-.434.431-.14.876-.285,1.318-.418a.963.963,0,0,0,.765-.815,16.243,16.243,0,0,1,2.208-5.335,1.05,1.05,0,0,0,.045-1.239c-.234-.423-.453-.86-.665-1.283-.2-.406-.414-.825-.635-1.227a.8.8,0,0,1,.155-1.095c.9-.86,1.616-1.572,2.24-2.24a.79.79,0,0,1,.573-.293.987.987,0,0,1,.451.134c.348.183.706.363,1.053.538.523.264,1.063.537,1.588.825a1.09,1.09,0,0,0,.524.157.981.981,0,0,0,.534-.18,16.7,16.7,0,0,1,5.467-2.265.921.921,0,0,0,.771-.728c.149-.515.321-1.031.488-1.53.134-.4.272-.815.4-1.224a.818.818,0,0,1,.868-.663h.022c.474.008.91.011,1.336.011.651,0,1.253-.009,1.838-.026H28a.825.825,0,0,1,.834.692c.105.334.217.674.325,1,.188.572.383,1.164.553,1.755a.919.919,0,0,0,.778.721,16.719,16.719,0,0,1,5.46,2.261.972.972,0,0,0,.522.174,1.027,1.027,0,0,0,.48-.137c.422-.224.854-.443,1.271-.654.471-.238.957-.485,1.429-.738a.9.9,0,0,1,.428-.126.758.758,0,0,1,.543.269c.885.912,1.615,1.641,2.3,2.291a.811.811,0,0,1,.136,1.1c-.208.389-.41.791-.605,1.18-.242.481-.492.979-.757,1.46a.8.8,0,0,0,.026.927,17.077,17.077,0,0,1,2.321,5.665c.067.323.267.507.693.635.495.149.994.311,1.477.467.418.135.849.275,1.276.406a.841.841,0,0,1,.677.967,12.024,12.024,0,0,0-.013,1.66.676.676,0,0,1-.782.817ZM45.747,23.6c.621,0,1.124,0,1.582.015h.04c.192,0,.237-.032.246-.042s.041-.049.03-.239a12.531,12.531,0,0,1,.014-1.73c.022-.267-.044-.358-.32-.442-.43-.132-.864-.273-1.283-.408-.48-.156-.977-.316-1.467-.464a1.368,1.368,0,0,1-1.043-1.018,16.582,16.582,0,0,0-2.255-5.5,1.3,1.3,0,0,1-.039-1.438c.261-.473.509-.966.748-1.443.2-.392.4-.8.611-1.191.135-.253.129-.332-.039-.492-.687-.654-1.422-1.387-2.312-2.305-.11-.115-.16-.115-.179-.115a.458.458,0,0,0-.189.066c-.476.256-.966.5-1.439.744-.416.211-.846.429-1.263.65a1.517,1.517,0,0,1-.717.2,1.46,1.46,0,0,1-.794-.253A16.215,16.215,0,0,0,30.385,6a1.415,1.415,0,0,1-1.158-1.076c-.167-.582-.36-1.169-.547-1.737-.109-.33-.221-.672-.327-1.01-.091-.293-.16-.337-.351-.337h-.025c-.59.018-1.2.027-1.853.027-.428,0-.867,0-1.343-.011h-.015c-.233,0-.309.06-.384.3-.126.415-.265.832-.4,1.236-.165.494-.335,1.005-.482,1.511a1.417,1.417,0,0,1-1.148,1.082,16.192,16.192,0,0,0-5.3,2.2,1.468,1.468,0,0,1-.808.261,1.577,1.577,0,0,1-.768-.22c-.516-.284-1.053-.554-1.572-.816-.348-.176-.708-.357-1.06-.542a.53.53,0,0,0-.216-.076c-.022,0-.08,0-.2.132-.631.676-1.35,1.394-2.262,2.262-.179.17-.189.247-.059.485.226.41.438.834.644,1.244s.426.851.655,1.264a1.544,1.544,0,0,1-.064,1.762A15.738,15.738,0,0,0,9.2,19.106a1.465,1.465,0,0,1-1.113,1.188c-.436.131-.879.275-1.307.415-.452.147-.919.3-1.383.438-.3.09-.359.165-.339.419a13.524,13.524,0,0,1,.009,1.73c-.009.2.022.255.035.269s.058.046.24.046h.017c1.182-.009,2.39-.014,3.59-.014,1.126,0,2.278,0,3.422.013h.012c.195,0,.239-.037.246-.044s.042-.061.029-.264a11.889,11.889,0,0,1,.431-3.629,13.229,13.229,0,0,1,1.9-4.224,13.678,13.678,0,0,1,3.1-3.24A13.948,13.948,0,0,1,26.407,9.4a12.926,12.926,0,0,1,5.683,1.3,14.049,14.049,0,0,1,5.873,5.012,14.08,14.08,0,0,1,2.082,7.472.718.718,0,0,0,.064.37c.039.048.169.058.271.058h.068c.411-.014.853-.02,1.393-.02.336,0,.678,0,1.008,0s.671,0,1.005,0h.253v0l.692,0Z" transform="translate(0.047 0.048)" fill="#1471ce"/>
    <path id="Path_5454_-_Outline_-_Outline" data-name="Path 5454 - Outline - Outline" d="M22.1,54.773a4.335,4.335,0,0,1-2.656-.98c-4.042-3.2-8.1-6.481-11.583-9.306a1.325,1.325,0,0,0-.92-.331h-.03c-.813.008-1.685.012-2.745.012q-1.035,0-2.069,0l-1.068,0a1.67,1.67,0,0,1-1.262-.37A1.683,1.683,0,0,1-.6,42.528c0-2.216,0-4.465,0-6.64V33.172h.01q0-1.174,0-2.348,0-2.855,0-5.71a1.923,1.923,0,0,1,.364-1.437,2.023,2.023,0,0,1,1.419-.384,4.324,4.324,0,0,1,.692.049,4.035,4.035,0,0,0,.478.043c.221,0,.266-.052.283-.072.1-.121.056-.532.022-.832a5.508,5.508,0,0,1-.047-.633q0-.178,0-.337c0-.966,0-1.45.269-1.841.289-.417.767-.537,1.558-.735l.434-.11c1.957-.508,2.469-1.331,2.661-2.494A8.736,8.736,0,0,1,8.961,13.2a.482.482,0,0,0,0-.593c-.225-.419-.442-.847-.653-1.262-.22-.432-.447-.878-.678-1.308a1.554,1.554,0,0,1,.306-2.054c1.13-1.081,2.249-2.22,3.289-3.289a1.571,1.571,0,0,1,1.151-.562,1.688,1.688,0,0,1,.828.24c.528.3,1.084.572,1.622.839.371.184.755.375,1.131.573a.443.443,0,0,0,.18.066.351.351,0,0,0,.158-.062,17.933,17.933,0,0,1,4.743-1.976c.229-.057.32-.128.41-.431.153-.52.324-1.04.491-1.543.132-.4.267-.808.39-1.21A1.577,1.577,0,0,1,23.953-.6H24c.737.014,1.507.022,2.291.022.752,0,1.548-.007,2.363-.02A1.534,1.534,0,0,1,30.285.579c.128.413.267.833.4,1.239.192.582.391,1.183.566,1.785.037.125.052.146.2.182a17.732,17.732,0,0,1,4.942,2.051.249.249,0,0,0,.084.038.348.348,0,0,0,.126-.05c.408-.216.826-.424,1.229-.626.527-.263,1.071-.535,1.59-.821a1.732,1.732,0,0,1,.842-.243,1.5,1.5,0,0,1,1.089.507c1.121,1.133,2.264,2.277,3.4,3.4a1.5,1.5,0,0,1,.276,1.938c-.223.419-.44.853-.651,1.273-.237.472-.48.958-.735,1.432a.374.374,0,0,0,.009.473A18.163,18.163,0,0,1,45.621,17.9c.055.213.1.246.272.3.464.136.925.29,1.371.439.473.158.963.321,1.445.459a1.633,1.633,0,0,1,1.314,1.781c-.016.393-.012.8-.009,1.191s.007.807-.008,1.214c0,.012,0,.023,0,.033h.04c.153-.008.313-.011.5-.011.145,0,.291,0,.432,0s.281,0,.42,0,.245,0,.351-.006l.083,0a1.307,1.307,0,0,1,1.376,1.375c.018.334.013.667.007.989,0,.15,0,.3,0,.452v.145q0,7.82.007,15.639V42c0,.178,0,.363-.005.549-.035,1.186-.466,1.607-1.647,1.61H49.288l-3.464,0c-2.49,0-4.409,0-6.221-.013h-.018a.644.644,0,0,0-.683.359,3.664,3.664,0,0,1-3.214,1.767H35.68c-.038,0-.068,0-.091,0,0,.034-.007.083-.008.153a3.928,3.928,0,0,1-1.256,2.777,4.126,4.126,0,0,1-2.811,1.156,3.779,3.779,0,0,1-.5-.033,4.24,4.24,0,0,1-4.131,3.557h0a4.1,4.1,0,0,1-2.049-.551A3.268,3.268,0,0,1,22.1,54.773ZM6.944,43.143A2.325,2.325,0,0,1,8.5,43.7c3.483,2.823,7.536,6.1,11.574,9.3a3.322,3.322,0,0,0,2.027.761,2.264,2.264,0,0,0,1.956-1.08.825.825,0,0,1,.695-.426,1.064,1.064,0,0,1,.543.184l0,0a3.113,3.113,0,0,0,1.583.439,3.222,3.222,0,0,0,3.14-2.76.816.816,0,0,1,.806-.819,1.983,1.983,0,0,1,.285.025,2.764,2.764,0,0,0,.4.029,3.1,3.1,0,0,0,2.111-.876,2.924,2.924,0,0,0,.942-2.062,1.009,1.009,0,0,1,1.112-1.151h.008a2.693,2.693,0,0,0,2.361-1.3,1.625,1.625,0,0,1,1.536-.825h.022c1.811.009,3.728.013,6.216.013l3.463,0h2.282c.452,0,.537-.059.549-.07s.073-.1.086-.558c.005-.17.005-.346,0-.516V41.9Q52.2,34.042,52.2,26.187v-.072c0-.158,0-.316.005-.469.005-.3.01-.619-.006-.919-.019-.376-.126-.416-.365-.416h-.045c-.12,0-.247.006-.389.006s-.291,0-.432,0-.282,0-.42,0c-.174,0-.318,0-.453.01l-.11,0a1.008,1.008,0,0,1-.743-.271,1.1,1.1,0,0,1-.25-.813c.015-.384.011-.781.008-1.165,0-.406-.007-.825.009-1.242.017-.45-.124-.636-.581-.767-.5-.144-1-.311-1.486-.472-.438-.146-.89-.3-1.334-.427a1.3,1.3,0,0,1-.969-1.012,17.148,17.148,0,0,0-1.863-4.474,1.363,1.363,0,0,1-.033-1.472c.249-.463.489-.942.722-1.406.214-.426.434-.866.663-1.3a.523.523,0,0,0-.095-.743c-1.134-1.126-2.279-2.272-3.4-3.408-.183-.185-.3-.206-.368-.206a.78.78,0,0,0-.353.117c-.537.3-1.091.573-1.627.841-.4.2-.811.4-1.208.615a1.242,1.242,0,0,1-.6.168,1.155,1.155,0,0,1-.612-.187A16.721,16.721,0,0,0,31.2,4.768a1.2,1.2,0,0,1-.924-.88c-.17-.587-.366-1.179-.555-1.752-.137-.413-.276-.836-.407-1.258A.537.537,0,0,0,28.7.414h-.029c-.821.013-1.621.02-2.38.02-.791,0-1.568-.007-2.31-.022h-.028c-.382,0-.536.121-.659.516-.127.413-.264.828-.4,1.229-.164.5-.333,1.007-.481,1.512A1.468,1.468,0,0,1,21.282,4.8a16.922,16.922,0,0,0-4.474,1.866,1.292,1.292,0,0,1-.673.2,1.351,1.351,0,0,1-.652-.183c-.364-.191-.743-.379-1.109-.561-.549-.273-1.117-.555-1.666-.862a.733.733,0,0,0-.334-.111c-.082,0-.2.029-.425.256C10.9,6.481,9.775,7.628,8.634,8.719a.576.576,0,0,0-.115.843c.237.44.467.891.689,1.328.208.41.424.833.643,1.243a1.472,1.472,0,0,1-.034,1.613,7.843,7.843,0,0,0-1.275,2.749,3.625,3.625,0,0,1-1.278,2.348,5.582,5.582,0,0,1-2.128.963l-.442.112a2.8,2.8,0,0,0-.972.329,3.906,3.906,0,0,0-.089,1.263c0,.107,0,.22,0,.341a4.71,4.71,0,0,0,.041.516,2.015,2.015,0,0,1-.256,1.6,1.313,1.313,0,0,1-1.055.43,4.822,4.822,0,0,1-.605-.051H1.751a3.349,3.349,0,0,0-.518-.041,2.817,2.817,0,0,0-.744.09,1.936,1.936,0,0,0-.066.72q0,2.854,0,5.709,0,1.427,0,2.855v.506H.413v1.7c0,2.175,0,4.423,0,6.638,0,.46.066.544.073.552s.094.071.546.072l1.069,0q1.033,0,2.067,0c1.057,0,1.925,0,2.733-.012Zm23.584,7.025,0,.027a3.75,3.75,0,0,1-3.1,3.15,3.75,3.75,0,0,0,3.1-3.15Zm-5.464,2.721a3.7,3.7,0,0,0,1.129.429A3.707,3.707,0,0,1,25.064,52.888Zm7.493-3.195a3.4,3.4,0,0,1-1.043.168A3.4,3.4,0,0,0,32.558,49.694Zm2.477-2.811a3.407,3.407,0,0,1-.708,1.58A3.407,3.407,0,0,0,35.035,46.883ZM8.183,44.094c1.212.983,2.493,2.02,3.819,3.091C10.676,46.114,9.4,45.076,8.183,44.094Zm-1.239-.444a1.809,1.809,0,0,1,1.172.392,1.809,1.809,0,0,0-1.172-.392Zm32.641,0a1.123,1.123,0,0,0-.931.355,1.123,1.123,0,0,1,.931-.355Zm3.284.011,2.956,0Zm-41.836,0,1.068,0Zm50.537,0h0ZM-.092,42.527a2.11,2.11,0,0,0,.08.676A2.125,2.125,0,0,1-.092,42.527ZM52.716,41.9v.1c0,.136,0,.275,0,.414,0-.139,0-.279,0-.414Zm0-7.755q0,3.631,0,7.263Q52.713,37.777,52.712,34.146ZM-.093,33.678v2.21c0,.722,0,1.452,0,2.187,0-.734,0-1.465,0-2.187v-2.21h0Zm.01-2.038q0,.892,0,1.785v.253Q-.083,32.659-.083,31.64Zm.045-7.24a3.892,3.892,0,0,0-.045.714q0,1.427,0,2.855,0-1.427,0-2.855A3.99,3.99,0,0,1-.038,24.4ZM1.2,23.8a4.315,4.315,0,0,0-.716.066A4.443,4.443,0,0,1,1.2,23.8Zm48.411-.092a.5.5,0,0,0,.372.11A.509.509,0,0,1,49.615,23.707Zm.775.1c-.115,0-.219,0-.319.01l-.054,0,.054,0C50.171,23.809,50.275,23.806,50.391,23.8Zm.16,0c.141,0,.285,0,.424,0h0C50.836,23.806,50.692,23.8,50.55,23.8ZM3.165,22.373l.006.05a1.644,1.644,0,0,1-.139,1.217h0a1.618,1.618,0,0,0,.139-1.217Zm46.352-1.688q0,.08,0,.167c-.016.405-.013.817-.009,1.216q0,.131,0,.263,0-.131,0-.261c0-.4-.007-.812.009-1.218Q49.521,20.766,49.517,20.685Zm-46.367-.2c-.025.251-.024.582-.024,1.027C3.126,21.065,3.126,20.735,3.151,20.483Zm45.1-1q.159.048.317.094.093.027.177.058-.084-.032-.177-.058Q48.411,19.533,48.252,19.484Zm-43.243-.17-.436.111-.024.006.023-.006Zm2.483-1.448a4.142,4.142,0,0,1-2.48,1.447A4.033,4.033,0,0,0,7.492,17.866Zm38.291.823c.444.131.889.28,1.32.423l.329.109-.329-.109C46.673,18.969,46.227,18.82,45.784,18.689ZM44.8,16.9q.183.555.334,1.128l.006.022-.006-.022Q44.981,17.454,44.8,16.9ZM9.4,12.372a.974.974,0,0,1-.015,1.1l-.052.083.052-.083A.974.974,0,0,0,9.4,12.372Zm-.359-.685c.118.229.238.459.359.685C9.283,12.145,9.164,11.915,9.046,11.686Zm35.118-1.144-.244.486-.035.07.035-.069ZM8.022,9.7q.023.05.051.1.1.177.19.357-.094-.179-.19-.357Q8.046,9.751,8.022,9.7ZM40.264,4.642A1.02,1.02,0,0,1,40.992,5c1.122,1.134,2.266,2.28,3.4,3.4a1.012,1.012,0,0,1,.2,1.312,1,1,0,0,0-.2-1.312c-1.133-1.124-2.276-2.27-3.4-3.4A1.007,1.007,0,0,0,40.264,4.642Zm-3.788,1.74a.76.76,0,0,0,.363-.109c.258-.137.522-.271.784-.4-.262.132-.525.266-.784.4A.77.77,0,0,1,36.476,6.382ZM15.762,6.257a.829.829,0,0,0,.373.1A.83.83,0,0,1,15.762,6.257Zm-.734-.375.4.2Zm16.29-1.607.009,0a17.36,17.36,0,0,1,4.39,1.749,17.36,17.36,0,0,0-4.39-1.749Zm-9.964-.032a1.411,1.411,0,0,1-.2.063,16.839,16.839,0,0,0-3.271,1.2,16.839,16.839,0,0,1,3.271-1.2A1.411,1.411,0,0,0,21.354,4.243Zm-8.4.574h0c.393.22.8.428,1.2.629-.4-.2-.807-.409-1.2-.629Zm-.581-.174a.94.94,0,0,0-.607.244A.974.974,0,0,1,12.372,4.642ZM29.854.9c.114.361.234.723.35,1.075l.144.438-.143-.433C30.089,1.624,29.969,1.26,29.854.9Zm-3.563-.97c.744,0,1.529-.007,2.334-.02C27.82-.078,27.035-.072,26.292-.072ZM23.953-.094h.038c.719.014,1.471.022,2.236.022-.765,0-1.517-.008-2.236-.022h-.038ZM22.1,53.136a2.617,2.617,0,0,1-1.565-.55c-1.016-.774-2.025-1.587-3-2.374l-.013-.01-.709-.571c-.882-.709-1.778-1.431-2.644-2.129l.155-.2-.159.2c-1.731-1.4-3.521-2.839-5.291-4.246a1.577,1.577,0,0,1-.644-1.342c.011-4.726.018-10.313-.005-15.925a1.156,1.156,0,0,1,.274-.843,1.123,1.123,0,0,1,.839-.27h.046c.771.01,1.584.014,2.637.014l1.5,0h.013q1.352,0,2.7,0l1.763,0c1.056,0,1.915,0,2.7-.01h.022A1.723,1.723,0,0,1,22,25.383c.283.278.584.549.876.811.206.185.418.377.626.572l.07.065c.5.47.73.685.679,1.058-.047.348-.325.494-.619.649-.1.051-.206.108-.332.182-1.949,1.134-3.852,2.221-5.656,3.228a3.236,3.236,0,0,0-1.1,5.243,3.026,3.026,0,0,0,2.174.913,3.288,3.288,0,0,0,1.611-.433c2.406-1.339,5-2.823,8.149-4.669a1.551,1.551,0,0,1,.787-.252,1.377,1.377,0,0,1,.966.478c1.428,1.449,2.891,2.91,4.307,4.323.866.864,1.761,1.758,2.64,2.64a2.9,2.9,0,0,1,.877,1.883,2.451,2.451,0,0,1-.717,1.86,2.488,2.488,0,0,1-1.791.793,2.832,2.832,0,0,1-1.992-.9c-1.568-1.559-3.156-3.149-4.692-4.687l-.008-.008-2.009-2.011c-.048-.048-.095-.1-.142-.145s-.1-.106-.151-.154a.508.508,0,0,0-.288-.168.314.314,0,0,0-.189.108c-.1.1-.211.206.051.477.595.61,1.213,1.225,1.81,1.819l.01.01.571.569,1.416,1.414c1.045,1.042,2.125,2.12,3.187,3.186a2.9,2.9,0,0,1,.917,2.05,2.426,2.426,0,0,1-.778,1.745,2.475,2.475,0,0,1-1.745.722,2.92,2.92,0,0,1-2.049-.912c-2.135-2.139-4.419-4.424-7.406-7.409a3.153,3.153,0,0,0-.369-.315.188.188,0,0,0-.091-.042.338.338,0,0,0-.178.1c-.173.153-.127.224-.083.292a4.073,4.073,0,0,0,.532.613c.815.817,1.646,1.646,2.45,2.448,1.43,1.426,2.909,2.9,4.353,4.363a2.61,2.61,0,0,1,.721,2.428,2.514,2.514,0,0,1-1.648,1.8,2.678,2.678,0,0,1-.88.155,2.726,2.726,0,0,1-1.953-.9c-1.978-1.995-4-4.015-5.954-5.968l-.043-.043-1.448-1.448c-.425-.425-.643-.458-.7-.458-.021,0-.057,0-.121.07s-.074.088-.067.143c.01.085.083.284.461.661l5.752,5.752a3.73,3.73,0,0,1,.84,1.127,1.281,1.281,0,0,1-.2,1.353A1.659,1.659,0,0,1,22.1,53.136Zm-1.258-.953a2.109,2.109,0,0,0,1.258.447A2.138,2.138,0,0,1,20.839,52.183Zm-4.563-9.019-.012.013c-.366.4-.244.852.41,1.5l5.752,5.752c.827.827.99,1.317.6,1.809a1.157,1.157,0,0,1-.922.389,1.157,1.157,0,0,0,.922-.389c.388-.492.225-.982-.6-1.809L16.674,44.68c-.645-.643-.771-1.107-.41-1.5ZM9.238,25.888c0,.024,0,.055,0,.094.023,5.615.016,11.2.005,15.93a.576.576,0,0,0,.261.548c1.774,1.41,3.567,2.855,5.3,4.252l.008.006c.864.7,1.757,1.417,2.637,2.124l.719.579,0,0c.971.783,1.973,1.592,2.977,2.356a1.623,1.623,0,0,0,.952.343.679.679,0,0,0,.533-.2c.107-.136.254-.322-.562-1.138l-5.752-5.752a3,3,0,0,1-.63-.831,1.18,1.18,0,0,1,.2-1.372,1.159,1.159,0,0,1,.87-.4,2.092,2.092,0,0,1,1.416.755l1.447,1.446.044.044c1.955,1.954,3.976,3.974,5.957,5.971a1.736,1.736,0,0,0,1.234.605,1.671,1.671,0,0,0,.547-.1,1.488,1.488,0,0,0,.994-1.073,1.6,1.6,0,0,0-.455-1.487c-1.441-1.459-2.917-2.932-4.346-4.357l-.01-.01c-.8-.8-1.631-1.627-2.445-2.442a4.96,4.96,0,0,1-.663-.776,1.182,1.182,0,0,1,.262-1.6,1.274,1.274,0,0,1,.848-.354,1.148,1.148,0,0,1,.689.238,4.16,4.16,0,0,1,.487.416c2.988,2.986,5.272,5.271,7.406,7.409a1.919,1.919,0,0,0,1.333.615,1.481,1.481,0,0,0,1.042-.437,1.435,1.435,0,0,0,.469-1.026,1.906,1.906,0,0,0-.622-1.326c-1.057-1.061-2.135-2.138-3.179-3.178l-.057-.057-1.365-1.362-.578-.575c-.6-.6-1.222-1.216-1.824-1.833a1.269,1.269,0,0,1-.032-1.906,1.636,1.636,0,0,1,.194-.163c-1.708.984-3.258,1.863-4.74,2.688a4.289,4.289,0,0,1-2.1.56,4.031,4.031,0,0,1-2.9-1.215,4.254,4.254,0,0,1-1.2-3.09,4.2,4.2,0,0,1,2.529-3.747c1.8-1,3.7-2.088,5.64-3.219.087-.051.167-.095.239-.133l-.15-.141-.07-.066c-.2-.187-.408-.375-.611-.557-.3-.27-.61-.549-.907-.841a.72.72,0,0,0-.569-.217H20.7c-.79.007-1.651.01-2.71.01l-1.765,0q-1.35,0-2.7,0l-1.511,0c-1.058,0-1.875,0-2.649-.014H9.334ZM27.571,51.635a2.175,2.175,0,0,1-.713.127A2.174,2.174,0,0,0,27.571,51.635Zm-9.663-1.771c.632.509,1.277,1.029,1.928,1.541C19.184,50.894,18.539,50.374,17.908,49.864Zm1.378-4.849.023.023c1.955,1.954,3.976,3.974,5.955,5.97l.02.02-.02-.02c-1.98-2-4-4.016-5.955-5.97Zm9.649,4.552a1.988,1.988,0,0,1-.043.632l-.006.023.006-.023A1.988,1.988,0,0,0,28.935,49.567Zm-5.185-5.89.2.2.008.008c1.43,1.427,2.908,2.9,4.35,4.361a2.326,2.326,0,0,1,.207.239,2.326,2.326,0,0,0-.207-.239c-1.443-1.461-2.921-2.935-4.35-4.361Zm9.708,3.067a2.014,2.014,0,0,1-.559.917,2.111,2.111,0,0,1-.57.4,2.111,2.111,0,0,0,.57-.4A2.014,2.014,0,0,0,33.458,46.744Zm-8.939-4.567c2.006,2.006,3.693,3.694,5.3,5.3q.087.087.177.164-.091-.077-.177-.164C28.213,45.872,26.525,44.183,24.519,42.177Zm5.523-.3c.9.894,1.811,1.808,2.711,2.711a2.4,2.4,0,0,1,.77,1.688,2.4,2.4,0,0,0-.77-1.688C31.852,43.682,30.937,42.769,30.042,41.876Zm-20.856.981c1.083.86,2.173,1.734,3.252,2.6C11.359,44.59,10.269,43.717,9.187,42.856Zm8.631.691.947.947Zm18.965.2a1.931,1.931,0,0,1-1.244.471A1.931,1.931,0,0,0,36.782,43.749ZM26.256,35.635a1.424,1.424,0,0,1,1,.457c.062.061.118.119.173.176s.085.089.128.131l2.01,2.011c1.539,1.541,3.129,3.133,4.7,4.692a1.848,1.848,0,0,0,1.278.61,1.5,1.5,0,0,0,1.07-.491,1.606,1.606,0,0,0-.156-2.318c-.878-.882-1.773-1.775-2.637-2.638l0,0c-1.416-1.413-2.88-2.875-4.309-4.325-.109-.11-.2-.176-.245-.176a.642.642,0,0,0-.276.113c-1.134.664-2.195,1.281-3.2,1.861A1.152,1.152,0,0,1,26.256,35.635Zm4.956,5.143c.895.895,1.8,1.795,2.691,2.684C33.008,42.573,32.107,41.673,31.212,40.778Zm-10.1-1.018-.035.03a.832.832,0,0,0-.283.443.861.861,0,0,1,.283-.443Zm.948,0a3.649,3.649,0,0,1,.3.263A3.645,3.645,0,0,0,22.061,39.763Zm-.47-.2a.634.634,0,0,1,.349.112A.634.634,0,0,0,21.591,39.563Zm7.961-6.227a1.38,1.38,0,0,1,.31.248c1.428,1.449,2.891,2.91,4.306,4.322l0,0,1.464,1.462-1.464-1.462c-1.416-1.414-2.88-2.875-4.31-4.326A1.359,1.359,0,0,0,29.553,33.335ZM26.42,38.261c.243.245.488.489.73.731Q26.786,38.629,26.42,38.261Zm2.322-4.831-.015.009c-3.157,1.849-5.75,3.334-8.159,4.675l-.115.062.115-.062c2.409-1.341,5-2.826,8.159-4.675Zm-1.547,3.327h0l1.163,1.164-1.163-1.163ZM15.125,34.784c0,.012,0,.024,0,.036A3.831,3.831,0,0,0,15.736,37a3.831,3.831,0,0,1-.611-2.181C15.125,34.808,15.125,34.8,15.125,34.784Zm11.131,1.357a.952.952,0,0,1,.642.313l.019.019-.019-.019A.94.94,0,0,0,26.256,36.141Zm0,0a.766.766,0,0,0-.542.251A.776.776,0,0,1,26.256,36.141ZM20.85,29.549q-.9.518-1.783,1.016Q19.947,30.067,20.85,29.549ZM22.792,26.8c.121.11.242.221.361.332l.025.023-.025-.023C23.034,27.024,22.912,26.913,22.792,26.8Zm-2.072-1.42a1.33,1.33,0,0,1,.565.109,1.328,1.328,0,0,0-.564-.109Zm-11.312,0c.764.009,1.57.014,2.611.014C10.978,25.394,10.17,25.389,9.407,25.38ZM43.2,42.611h0c-.047,0-.1,0-.157,0-.433-.02-.89-.029-1.438-.029-.454,0-.918.007-1.366.013h-.015l-.477.006h-.052a.94.94,0,0,1-1.066-.9,3.6,3.6,0,0,0-1.208-2.111c-1.811-1.788-3.635-3.62-5.4-5.392l0,0-1.851-1.857c-.211-.211-.53-.531-.622-.531a3.076,3.076,0,0,0-.761.365l-2.885,1.651-.013.007c-1.842,1.055-3.746,2.145-5.628,3.213a3.215,3.215,0,0,1-1.592.455,2.47,2.47,0,0,1-2.412-2.028,2.586,2.586,0,0,1,1.39-2.846c2.366-1.358,4.9-2.808,7.974-4.562q.836-.478,1.674-.953l.005,0c1.1-.625,2.234-1.271,3.345-1.915a2.273,2.273,0,0,1,1.177-.313l1.233,0c1.626,0,3.307.008,4.964.008,1.978,0,3.63-.006,5.2-.018h.018a1.221,1.221,0,0,1,.892.293,1.275,1.275,0,0,1,.283.943c-.019,1.884-.016,3.8-.014,5.657,0,.661,0,1.319,0,1.976v.506h-.007c0,.519,0,1.04,0,1.548-.005,1.8-.011,3.671.023,5.506a1.355,1.355,0,0,1-.3,1.008A1.223,1.223,0,0,1,43.2,42.611Zm-1.6-.539c.556,0,1.021.009,1.461.03C42.62,42.081,42.156,42.072,41.6,42.072ZM39.284,42a.622.622,0,0,0,.4.09A.64.64,0,0,1,39.284,42Zm2.315.07c-.458,0-.923.007-1.373.013C40.676,42.078,41.141,42.072,41.6,42.072Zm2.3-.746a1.576,1.576,0,0,1-.033.378A1.559,1.559,0,0,0,43.895,41.326Zm-2.3.239c.564,0,1.036.01,1.483.03l.114,0a.944.944,0,0,0,.174-.012,1.134,1.134,0,0,0,.018-.269c-.034-1.843-.028-3.716-.023-5.526v-.01c0-.669,0-1.361,0-2.042v-.506h.007q0-.732,0-1.465c0-1.859-.005-3.781.014-5.673a1.7,1.7,0,0,0-.008-.2,1.141,1.141,0,0,0-.154-.009h-.012c-1.571.012-3.226.018-5.205.018-1.658,0-3.34,0-4.967-.008l-1.231,0a1.261,1.261,0,0,0-.67.178c-1.112.645-2.25,1.292-3.351,1.918q-.839.477-1.677.956c-3.076,1.755-5.608,3.2-7.971,4.561a1.6,1.6,0,0,0-.913,1.723,1.465,1.465,0,0,0,1.43,1.26,2.252,2.252,0,0,0,1.092-.323c1.874-1.063,3.776-2.152,5.615-3.206l.01-.006,2.9-1.659a2.668,2.668,0,0,1,1.263-.5c.512,0,.859.347,1.339.828L32.7,33.455l.026.026c1.766,1.774,3.59,3.6,5.4,5.39a4.529,4.529,0,0,1,1.5,2.7l0,.013h.1l.488-.007C40.671,41.572,41.138,41.565,41.6,41.565Zm-3.112-1.506a3.656,3.656,0,0,1,.512,1A3.655,3.655,0,0,0,38.487,40.059Zm-6.23-6.335.114.114,0,0c1.764,1.771,3.588,3.6,5.4,5.389-1.81-1.787-3.634-3.619-5.4-5.391l-.028-.028Zm-6.984-.129c-1.731.992-3.513,2.011-5.27,3.008a2.755,2.755,0,0,1-1.342.389A2.718,2.718,0,0,0,20,36.6C21.762,35.6,23.542,34.585,25.272,33.595Zm18.6.145c0,.681,0,1.373,0,2.043v.009c0-.59,0-1.2,0-1.8V33.74Zm.006-1.258q0,.5,0,1.005v.106Q43.883,33.037,43.882,32.481ZM28.005,32.03l-2.376,1.36,0,0h0l.013-.007Zm1.51-.729a1.633,1.633,0,0,0-.659.246A1.633,1.633,0,0,1,29.515,31.3Zm1.463-5.721-.089.048c-1.112.645-2.249,1.292-3.348,1.917l-.005,0q-.837.476-1.673.953c-1.864,1.064-3.529,2.015-5.078,2.9,1.549-.887,3.214-1.838,5.078-2.9q.838-.479,1.678-.956c1.1-.625,2.237-1.272,3.348-1.917Zm12.91.3c.006.067.007.142.006.224-.014,1.4-.016,2.809-.015,4.2,0-1.393,0-2.806.015-4.2C43.9,26.027,43.895,25.951,43.888,25.877Zm-10.844-.491c1.626,0,3.308.008,4.965.008C36.352,25.394,34.67,25.39,33.044,25.386Zm10.174-.01h-.007c-1.526.012-3.131.017-5.038.018,1.906,0,3.511-.006,5.038-.018ZM2.075,42.61h0a1.106,1.106,0,0,1-.795-.275,1.185,1.185,0,0,1-.274-.886c.014-1.915.012-3.863.01-5.746q0-.89,0-1.778l0-.25c0-.661,0-1.318,0-1.976,0-1.858.005-3.778-.014-5.664a1.2,1.2,0,0,1,.279-.891,1.139,1.139,0,0,1,.836-.281h.078c.675.018,1.378.027,2.15.027.667,0,1.371-.006,2.214-.02H6.6a1.053,1.053,0,0,1,.774.264,1.1,1.1,0,0,1,.265.8C7.611,32.032,7.6,36.977,7.613,41.5c0,.736-.358,1.108-1.064,1.108H6.5c-.9-.015-1.643-.022-2.337-.022-.727,0-1.39.008-2.027.023Zm1.316-.527c-.414,0-.811.01-1.2.019C2.58,42.092,2.976,42.086,3.391,42.083ZM1.524,37.71c0,1.244,0,2.5-.011,3.743a1.921,1.921,0,0,0,.009.22,1.985,1.985,0,0,1-.009-.22C1.522,40.21,1.524,38.953,1.524,37.71Zm.5,3.886c.023,0,.054,0,.088,0,.646-.016,1.317-.023,2.052-.023.7,0,1.448.007,2.355.022H6.6c0-.023,0-.054,0-.094-.009-4.524,0-9.471.022-15.567,0-.019,0-.036,0-.051H6.573c-.848.014-1.557.02-2.23.02-.782,0-1.494-.009-2.177-.027H2.115c-.041,0-.073,0-.1,0a1.366,1.366,0,0,0-.005.146c.019,1.893.016,3.816.014,5.676q0,.861,0,1.721l0,.247c0,.68,0,1.357,0,2.033,0,1.886,0,3.836-.01,5.755C2.018,41.518,2.02,41.563,2.023,41.6Zm5.087-9.647c0,2-.007,3.882-.007,5.675C7.1,35.831,7.1,33.952,7.109,31.949Zm-5.591.508q0,.608,0,1.215l0,.25c0,.56,0,1.117,0,1.674q0-.962,0-1.924l0-.247Q1.518,32.94,1.518,32.457ZM1.506,26.03c.019,1.889.016,3.81.014,5.669v0C1.522,29.841,1.525,27.919,1.506,26.03Zm1.64-.641c.383.005.78.008,1.2.008.67,0,1.377-.006,2.222-.02h0c-.846.014-1.552.02-2.222.02C3.926,25.4,3.529,25.394,3.146,25.389Zm-.989-.02h.023l.574.013-.574-.013ZM50.554,42.6h-.045c-.694-.014-1.417-.02-2.149-.02s-1.5.007-2.288.02h-.036a1.061,1.061,0,0,1-.762-.263,1.105,1.105,0,0,1-.261-.821c.013-1.942.011-3.918.01-5.829q0-.719,0-1.439h-.005v-.506q0-1,0-1.993v-.026c0-1.863.007-3.789-.018-5.682a1.206,1.206,0,0,1,.277-.9,1.124,1.124,0,0,1,.838-.28h.073c.675.016,1.389.024,2.12.024.713,0,1.447-.007,2.243-.022H50.6a.926.926,0,0,1,1.008,1.068c-.016,5.351-.016,10.584,0,15.555a1.142,1.142,0,0,1-.269.843A1.07,1.07,0,0,1,50.554,42.6Zm-2.195-.527c.736,0,1.462.007,2.159.02h0C49.821,42.084,49.1,42.078,48.359,42.078Zm2.6-.075a.634.634,0,0,1-.4.1A.649.649,0,0,0,50.956,42Zm-2.668.075c-.714,0-1.462.007-2.225.02C46.825,42.085,47.574,42.078,48.288,42.078Zm2.805-6.017q0,2.762.01,5.436a1.773,1.773,0,0,1-.008.187A1.722,1.722,0,0,0,51.1,41.5Q51.095,38.825,51.093,36.06Zm-2.734,5.511c.739,0,1.469.007,2.168.021h.067c0-.025,0-.056,0-.094-.015-4.973-.014-10.208,0-15.56q0-.03,0-.054h-.026c-.8.015-1.545.022-2.264.022-.739,0-1.46-.008-2.143-.024h-.05c-.041,0-.073,0-.1,0a1.387,1.387,0,0,0,0,.147c.025,1.9.021,3.83.018,5.7q0,.756,0,1.511h0v.506q0,.972,0,1.944c0,1.913,0,3.891-.01,5.837,0,.024,0,.046,0,.064h.032C46.845,41.578,47.621,41.571,48.359,41.571Zm-2.831-3.958c0,1.3,0,2.612-.011,3.911C45.526,40.225,45.528,38.912,45.528,37.613Zm0-3.552q0,.813,0,1.627Q45.526,34.875,45.526,34.061Zm0-3.945q0,.811,0,1.611v.026q0,.925,0,1.85v-.111q0-.883,0-1.765Q45.525,30.929,45.526,30.116Zm.585-4.741a.784.784,0,0,0-.419.084A.774.774,0,0,1,46.111,25.375ZM25.422,27.3h0c-.47,0-.776-.28-1.332-.788-.119-.109-.244-.211-.377-.32a5.146,5.146,0,0,1-.829-.79,2.9,2.9,0,0,0-2.5-1.122c-.135,0-.278,0-.427.015-.528.035-1.092.052-1.776.052-.468,0-.941-.008-1.4-.015s-.924-.015-1.383-.015c-.57,0-.947,0-1.223-.285s-.261-.674-.243-1.213A12.36,12.36,0,0,1,23.867,10.99a12.228,12.228,0,0,1,2.494-.258,12.42,12.42,0,0,1,7.329,2.427,12.14,12.14,0,0,1,4.481,6.406,15.3,15.3,0,0,1,.542,3.445,1.307,1.307,0,0,1-.278,1,1.152,1.152,0,0,1-.887.322l-.116,0c-.356-.017-.733-.024-1.223-.024-.3,0-.618,0-.955.006-.392,0-.835.007-1.322.007h-.061l-.06-.015a4.5,4.5,0,0,0-1.073-.128,8.411,8.411,0,0,0-4.653,1.793,9.135,9.135,0,0,1-.9.533c-.158.086-.322.174-.476.264A2.694,2.694,0,0,1,25.422,27.3Zm-5.04-4.032a3.88,3.88,0,0,1,3.3,1.509,4.333,4.333,0,0,0,.674.632c.137.112.279.228.416.353a3.091,3.091,0,0,0,.652.525,3.325,3.325,0,0,0,.771-.391c.171-.1.342-.193.509-.283a8.256,8.256,0,0,0,.8-.473,9.372,9.372,0,0,1,5.233-1.975,5.522,5.522,0,0,1,1.253.142c.458,0,.88,0,1.253-.007.339,0,.659-.006.964-.006.507,0,.9.008,1.271.025l.069,0a.665.665,0,0,0,.146-.012.917.917,0,0,0,.008-.237,14.331,14.331,0,0,0-.5-3.22,11.136,11.136,0,0,0-4.111-5.875,11.4,11.4,0,0,0-6.727-2.228,11.212,11.212,0,0,0-2.287.237,11.348,11.348,0,0,0-9.131,10.867c0,.112-.011.313-.006.442.133.009.343.009.46.009.468,0,.942.008,1.4.015s.924.015,1.383.015c.661,0,1.2-.016,1.708-.049C20.059,23.269,20.225,23.263,20.382,23.263Zm12.313.4a8.94,8.94,0,0,0-4.9,1.884l-.026.018.026-.018A8.94,8.94,0,0,1,32.695,23.667Zm-15.154.165c.213,0,.427,0,.639,0C17.968,23.836,17.754,23.835,17.54,23.832Zm2.217-.036c-.447.026-.926.039-1.489.04C18.831,23.835,19.31,23.822,19.757,23.8Zm16.451,0c.473,0,.844.007,1.192.022C37.053,23.8,36.682,23.8,36.208,23.8ZM15.4,23.806c.239,0,.48,0,.72.005C15.876,23.808,15.635,23.806,15.4,23.806Zm19.125,0-.559,0h-.03Zm-19.639-.014c.131.012.3.013.515.013C15.169,23.806,15,23.8,14.882,23.793Zm21.291,0h0ZM37.9,20.575a16.848,16.848,0,0,1,.306,2.463,1.409,1.409,0,0,1-.019.376,1.4,1.4,0,0,0,.019-.376A16.848,16.848,0,0,0,37.9,20.575ZM21.6,12.228a11.752,11.752,0,0,0-4.391,3.256,11.907,11.907,0,0,0-2.776,7.347c-.007.211-.012.375,0,.5-.006-.12,0-.281,0-.5a11.907,11.907,0,0,1,2.776-7.347A11.752,11.752,0,0,1,21.6,12.228Zm11.785,1.337a11.638,11.638,0,0,1,4.3,6.14A11.638,11.638,0,0,0,33.389,13.565ZM47.323,24.328h-.056c-.453-.01-.951-.015-1.566-.015l-.944,0-.949,0H43.3v0l-.5,0c-.329,0-.669,0-1,0-.531,0-.965.006-1.367.019l-.094,0c-.964,0-1.087-.671-1.095-1.175a12.507,12.507,0,0,0-7.527-11.814,12.173,12.173,0,0,0-5.352-1.226A13.183,13.183,0,0,0,18.5,12.768a12.92,12.92,0,0,0-2.927,3.061,12.472,12.472,0,0,0-1.789,3.982,11.015,11.015,0,0,0-.409,3.4.931.931,0,0,1-1.034,1.112H12.32c-1.143-.008-2.293-.013-3.417-.013-1.2,0-2.4,0-3.583.014H5.3a1.076,1.076,0,0,1-.791-.28,1.09,1.09,0,0,1-.245-.829,12.831,12.831,0,0,0-.007-1.634,1.085,1.085,0,0,1,.877-1.208c.457-.136.92-.287,1.367-.433s.879-.286,1.323-.42a.714.714,0,0,0,.591-.628,16.5,16.5,0,0,1,2.243-5.419.8.8,0,0,0,.035-.977c-.237-.428-.457-.867-.67-1.292-.2-.4-.412-.821-.631-1.219a1.05,1.05,0,0,1,.2-1.4c.9-.857,1.609-1.565,2.23-2.229a1.047,1.047,0,0,1,.758-.373,1.221,1.221,0,0,1,.569.164c.346.181.7.362,1.049.536.525.265,1.068.539,1.6.829a.85.85,0,0,0,.4.126.74.74,0,0,0,.4-.14,16.95,16.95,0,0,1,5.55-2.3.675.675,0,0,0,.582-.551c.15-.52.323-1.039.491-1.54.133-.4.271-.812.394-1.218a1.065,1.065,0,0,1,1.111-.842h.024c.475.008.91.011,1.334.011.649,0,1.247-.009,1.83-.026h.048a1.071,1.071,0,0,1,1.076.871c.1.333.216.671.324,1,.189.575.385,1.169.555,1.765a.672.672,0,0,0,.589.543A16.97,16.97,0,0,1,36.041,7.5a.731.731,0,0,0,.386.135.786.786,0,0,0,.362-.107c.423-.224.856-.444,1.274-.656.471-.238.956-.484,1.425-.736a1.144,1.144,0,0,1,.548-.157,1.014,1.014,0,0,1,.725.347c.882.91,1.61,1.635,2.29,2.283a1.073,1.073,0,0,1,.184,1.4c-.206.386-.407.786-.6,1.173-.244.486-.495.985-.763,1.47a.55.55,0,0,0,.019.671,17.326,17.326,0,0,1,2.354,5.748c.04.194.138.329.517.443.5.15,1,.312,1.482.469.416.135.847.274,1.272.4a1.084,1.084,0,0,1,.855,1.23,11.764,11.764,0,0,0-.013,1.624,1.072,1.072,0,0,1-.237.806A1.057,1.057,0,0,1,47.323,24.328Zm-7.565-.975c.041.36.19.466.576.466h0a.564.564,0,0,1-.466-.149A.58.58,0,0,1,39.757,23.353Zm2.806.448.431,0Zm3.136-.5c.623,0,1.127,0,1.588.015h.059V23.3a12.777,12.777,0,0,1,.014-1.764.38.38,0,0,0,0-.122.446.446,0,0,0-.14-.058c-.434-.133-.868-.274-1.288-.41-.479-.155-.974-.316-1.462-.462a1.582,1.582,0,0,1-1.217-1.209,16.335,16.335,0,0,0-2.222-5.417,1.543,1.543,0,0,1-.046-1.694c.259-.47.506-.96.744-1.435.2-.394.4-.8.614-1.2A.828.828,0,0,0,42.4,9.4a.561.561,0,0,0-.052-.055c-.689-.657-1.426-1.391-2.319-2.312l-.023-.023-.044.022c-.479.257-.969.506-1.444.746-.415.21-.843.427-1.259.648a1.764,1.764,0,0,1-.836.225,1.7,1.7,0,0,1-.93-.293A15.964,15.964,0,0,0,30.284,6.2a1.666,1.666,0,0,1-1.347-1.253c-.166-.578-.358-1.162-.544-1.727-.109-.332-.222-.674-.329-1.014A.807.807,0,0,0,28,2.046a.53.53,0,0,0-.065,0c-.593.018-1.2.027-1.861.027-.43,0-.87,0-1.347-.011h-.012a.38.38,0,0,0-.093.008.475.475,0,0,0-.048.119c-.127.417-.267.836-.4,1.241-.164.492-.334,1-.478,1.5A1.668,1.668,0,0,1,22.36,6.187,15.94,15.94,0,0,0,17.14,8.349a1.712,1.712,0,0,1-.945.3,1.822,1.822,0,0,1-.89-.251c-.512-.281-1.046-.551-1.563-.812-.349-.176-.71-.359-1.064-.544-.033-.018-.058-.029-.075-.036-.01.009-.024.022-.04.04-.635.68-1.357,1.4-2.272,2.273a.642.642,0,0,0-.065.068.754.754,0,0,0,.053.112c.227.413.441.839.648,1.251s.424.846.65,1.255a1.793,1.793,0,0,1-.074,2.024,15.487,15.487,0,0,0-2.1,5.086A1.714,1.714,0,0,1,8.113,20.49c-.434.13-.875.274-1.3.413-.454.148-.922.3-1.39.44a.691.691,0,0,0-.16.062.469.469,0,0,0,0,.095,13.759,13.759,0,0,1,.01,1.763c0,.018,0,.035,0,.049h.039C6.493,23.3,7.7,23.3,8.9,23.3c1.126,0,2.278,0,3.424.013h.035c0-.012,0-.025,0-.04a12.132,12.132,0,0,1,.438-3.707,13.481,13.481,0,0,1,1.933-4.3,13.931,13.931,0,0,1,3.156-3.3A14.2,14.2,0,0,1,26.361,9.1a13.177,13.177,0,0,1,5.793,1.327,14.3,14.3,0,0,1,5.976,5.1,14.328,14.328,0,0,1,2.122,7.6,1.573,1.573,0,0,0,.011.176c.031,0,.078,0,.13,0,.414-.014.859-.02,1.4-.02.337,0,.678,0,1.008,0s.672,0,1.005,0h.506v0h.438ZM4.781,21.91c.02.481,0,.943-.013,1.313C4.785,22.852,4.8,22.391,4.781,21.91Zm43.084-.332q-.019.243-.028.49Q47.846,21.822,47.865,21.578ZM7.8,20.056c-.385.118-.771.244-1.146.366-.451.147-.916.3-1.379.436-.356.108-.546.246-.52.662-.026-.414.171-.557.52-.662.462-.138.928-.289,1.378-.436C7.03,20.3,7.416,20.174,7.8,20.056Zm39.566.817a.726.726,0,0,1,.411.257A.716.716,0,0,0,47.367,20.873ZM46.2,20.5c.268.087.54.175.814.261C46.741,20.677,46.469,20.589,46.2,20.5Zm-1.609-.51.024.007c.4.119.794.247,1.185.373-.391-.126-.79-.254-1.185-.373ZM41.884,14.3a16.627,16.627,0,0,1,1.74,4.314A16.626,16.626,0,0,0,41.884,14.3Zm-27.6,2.711a12.939,12.939,0,0,0-.53,1.2A12.939,12.939,0,0,1,14.283,17.016Zm1.537-2.373q-.117.144-.231.292Q15.7,14.788,15.821,14.643ZM11.2,12.382a1.253,1.253,0,0,1-.065,1.279A1.253,1.253,0,0,0,11.2,12.382Zm30.216.047a1.037,1.037,0,0,0,.043,1.163A1.049,1.049,0,0,1,41.417,12.429ZM42.8,9.75l-.012.022c-.209.391-.412.794-.608,1.184l-.072.143.07-.14c.2-.393.4-.8.609-1.188ZM9.777,9.627c.016.037.035.075.057.115.179.326.351.662.518.994-.167-.331-.339-.668-.518-.994Q9.8,9.682,9.777,9.627Zm1.26-1.739c-.334.332-.7.683-1.1,1.064-.029.027-.055.054-.078.08q.035-.04.078-.08C10.34,8.572,10.7,8.22,11.037,7.889Zm31.225.665q.224.218.44.423l.011.011L42.7,8.977Q42.485,8.771,42.262,8.554Zm-27.08-.8q.185.1.367.2a1.346,1.346,0,0,0,.629.188,1.347,1.347,0,0,1-.629-.188Q15.367,7.855,15.182,7.757Zm1.628.2a1.228,1.228,0,0,1-.534.182A1.228,1.228,0,0,0,16.81,7.958Zm21.109-.443c-.3.151-.6.306-.893.462C37.322,7.821,37.622,7.666,37.919,7.515ZM30.392,5.7a16.457,16.457,0,0,1,5.3,2.179A16.456,16.456,0,0,0,30.392,5.7Zm-17.669.81a1.114,1.114,0,0,1,.19.082c.35.184.709.365,1.056.54.4.2.8.4,1.2.615-.4-.212-.8-.416-1.2-.615-.348-.175-.707-.357-1.056-.54A1.1,1.1,0,0,0,12.723,6.512Zm26.739.213c-.345.182-.7.36-1.038.534C38.767,7.085,39.117,6.907,39.462,6.725ZM22.4,5.654q-.07.022-.147.039-.695.153-1.368.361.673-.208,1.368-.361Q22.328,5.676,22.4,5.654ZM23.55,3.7c-.118.359-.235.722-.34,1.085a1.722,1.722,0,0,1-.087.237,1.722,1.722,0,0,0,.087-.237C23.315,4.425,23.432,4.061,23.55,3.7Zm5.377-.483c.128.389.257.786.378,1.184C29.184,4.006,29.055,3.609,28.927,3.22Zm-4.893-.989c-.095.3-.195.605-.294.9C23.839,2.836,23.939,2.533,24.034,2.231Zm4.292-.58a.815.815,0,0,1,.221.4A.8.8,0,0,0,28.325,1.651Zm-3.607-.1a.546.546,0,0,0-.589.383.546.546,0,0,1,.591-.383Zm.018,0c.477.008.914.011,1.341.011h0c-.426,0-.865,0-1.34-.011Zm3.188-.015h0l-.471.012.471-.012Z" transform="translate(0.093 0.094)" fill="#1471ce"/>
  </g>
</svg>
