<svg xmlns="http://www.w3.org/2000/svg" width="46.027" height="48.733" viewBox="0 0 46.027 48.733">
  <g id="Group_18329" data-name="Group 18329" transform="translate(0.155 0.156)">
    <path id="Path_5433" data-name="Path 5433" d="M9.966,25.414l.269.231-.269-.231" transform="translate(6.868 17.513)" fill="#fff"/>
    <path id="Path_5433_-_Outline" data-name="Path 5433 - Outline" d="M9.579,26.4l-.131-.113-.138-.119,1.311-1.51.13.112.139.12Z" transform="translate(6.868 17.513)" fill="#1471ce"/>
    <path id="Path_5434" data-name="Path 5434" d="M10.621,24.659l.13.112.139.12L9.579,26.4l-.131-.113-.138-.119Z" transform="translate(6.868 17.513)" fill="#1471ce"/>
    <path id="Path_5435" data-name="Path 5435" d="M9.808,24.192c.025.022.051.044.076.068-.025-.024-.051-.046-.076-.068" transform="translate(6.759 16.671)" fill="#fff"/>
    <path id="Path_5435_-_Outline" data-name="Path 5435 - Outline" d="M9.2,24.991l-.049-.043,1.31-1.511c.034.03.069.06.1.092Z" transform="translate(6.759 16.671)" fill="#1471ce"/>
    <path id="Path_5436" data-name="Path 5436" d="M10.463,23.436c.034.03.069.06.1.092L9.2,24.991l-.049-.043Z" transform="translate(6.759 16.671)" fill="#1471ce"/>
    <path id="Path_5437" data-name="Path 5437" d="M25.611,24.259l.076-.066-.076.066" transform="translate(17.649 16.672)" fill="#fff"/>
    <path id="Path_5437_-_Outline" data-name="Path 5437 - Outline" d="M26.266,25.015,24.956,23.5l.076-.066,1.31,1.511Z" transform="translate(17.649 16.672)" fill="#1471ce"/>
    <path id="Path_5438" data-name="Path 5438" d="M26.266,25.015,24.956,23.5l.076-.066,1.31,1.511Z" transform="translate(17.649 16.672)" fill="#1471ce"/>
    <path id="Line_15" data-name="Line 15" d="M7.581,1H0V-1H7.581Z" transform="translate(8.309 16.138)" fill="#1471ce"/>
    <path id="Path_5439" data-name="Path 5439" d="M1.5,38.794h-2V3.924A4.429,4.429,0,0,1,3.924-.5H33.573L45.527,11.781v7.293h-2v-6.48L32.729,1.5H3.924A2.427,2.427,0,0,0,1.5,3.924Z" transform="translate(0.345 0.345)" fill="#1471ce"/>
    <path id="Path_5440" data-name="Path 5440" d="M31.206,13.523H24.838A6.015,6.015,0,0,1,18.83,7.515V.5h2V7.515a4.013,4.013,0,0,0,4.008,4.008h6.368Z" transform="translate(13.665 0.345)" fill="#1471ce"/>
    <path id="Path_5441" data-name="Path 5441" d="M23.481,9.25a16.132,16.132,0,1,1-11.409,4.724A16.028,16.028,0,0,1,23.481,9.25Zm0,30.264a14.133,14.133,0,1,0-9.995-4.139A14.04,14.04,0,0,0,23.481,39.514Z" transform="translate(5.751 7.064)" fill="#1471ce"/>
    <path id="Path_5442" data-name="Path 5442" d="M22.1,17.7A21.83,21.83,0,0,1,9.984,14.05l1.106-1.666A19.836,19.836,0,0,0,22.1,15.7Z" transform="translate(7.261 9.108)" fill="#1471ce"/>
    <path id="Path_5443" data-name="Path 5443" d="M28.292,27.056a19.836,19.836,0,0,0-11.007-3.314v-2A21.83,21.83,0,0,1,29.4,25.39Z" transform="translate(11.912 15.672)" fill="#1471ce"/>
    <path id="Path_5444" data-name="Path 5444" d="M20.062,9.25c2.256,0,4.311,1.782,5.784,5.017a27.551,27.551,0,0,1,2.109,11.114A27.556,27.556,0,0,1,25.846,36.5c-1.474,3.236-3.528,5.018-5.784,5.018S15.75,39.732,14.276,36.5a27.552,27.552,0,0,1-2.109-11.115,27.547,27.547,0,0,1,2.109-11.114C15.75,11.032,17.805,9.25,20.062,9.25Zm0,30.264c1.406,0,2.851-1.4,3.964-3.847a25.54,25.54,0,0,0,1.929-10.286A25.535,25.535,0,0,0,24.026,15.1c-1.114-2.444-2.558-3.846-3.964-3.846S17.21,12.652,16.1,15.1a25.531,25.531,0,0,0-1.929,10.285A25.536,25.536,0,0,0,16.1,35.667C17.21,38.112,18.655,39.514,20.062,39.514Z" transform="translate(9.074 7.064)" fill="#1471ce"/>
    <path id="Line_16" data-name="Line 16" d="M30.267,1H0V-1H30.267Z" transform="translate(14.097 32.446)" fill="#1471ce"/>
    <path id="Path_5445" data-name="Path 5445" d="M7.727,5.637v10.5L.612,10.888Zm-2,6.54V9.6L3.98,10.888Z" transform="translate(1.582 5.25)" fill="#1471ce"/>
    <path id="Line_17" data-name="Line 17" d="M7.581,1H0V-1H7.581Z" transform="translate(7.452 7.475)" fill="#1471ce"/>
    <path id="Path_5446" data-name="Path 5446" d="M7.9.508l7.115,5.251L7.9,11.01Zm3.747,5.251L9.9,4.47V7.048Z" transform="translate(6.133 1.715)" fill="#1471ce"/>
  </g>
</svg>
