<svg id="Group_18312" data-name="Group 18312" xmlns="http://www.w3.org/2000/svg" width="42.838" height="50.204" viewBox="0 0 42.838 50.204">
  <path id="Path_5428" data-name="Path 5428" d="M27.448,11.915H21.922a5.335,5.335,0,0,1-5.329-5.329V.5h1.969V6.586a3.364,3.364,0,0,0,3.36,3.36h5.525Z" transform="translate(14.406 0.485)" fill="#1471ce"/>
  <path id="Path_5429" data-name="Path 5429" d="M35.17,49.7H.974V5.642A6.148,6.148,0,0,1,7.114-.5H30.7L41.136,10.223V43.738A5.973,5.973,0,0,1,35.17,49.7ZM2.943,47.735H35.17a4,4,0,0,0,4-4V11.023l-9.3-9.554H7.114A4.176,4.176,0,0,0,2.943,5.642Z" transform="translate(1.702 0.5)" fill="#1471ce"/>
  <path id="Path_5430" data-name="Path 5430" d="M2.314,30.972,0,27.144a3.424,3.424,0,0,1,2.93-5.2h.228v1.969H2.928a1.455,1.455,0,0,0-1.245,2.208L4,29.953Z" transform="translate(0.503 18.757)" fill="#1471ce"/>
  <path id="Path_5431" data-name="Path 5431" d="M11.364,13.449l-4.144-4L8.587,8.029l2.728,2.636,4.439-4.6L17.17,7.437Z" transform="translate(6.529 5.59)" fill="#1471ce"/>
  <path id="Line_12" data-name="Line 12" d="M21.528.969H0V-1H21.528Z" transform="translate(12.043 29.449)" fill="#1471ce"/>
  <path id="Line_13" data-name="Line 13" d="M21.528.969H0V-1H21.528Z" transform="translate(12.043 35.576)" fill="#1471ce"/>
  <path id="Line_14" data-name="Line 14" d="M21.528.969H0V-1H21.528Z" transform="translate(11.941 41.704)" fill="#1471ce"/>
  <path id="Path_5432" data-name="Path 5432" d="M12.711,3.867a7.868,7.868,0,1,1-7.87,7.868A7.877,7.877,0,0,1,12.711,3.867Zm0,13.767a5.9,5.9,0,1,0-5.9-5.9A5.906,5.906,0,0,0,12.711,17.634Z" transform="translate(4.848 4.052)" fill="#1471ce"/>
</svg>
