<svg xmlns="http://www.w3.org/2000/svg" width="44.42" height="46.199" viewBox="0 0 44.42 46.199">
  <g id="Group_18330" data-name="Group 18330" transform="translate(0.5 0.499)">
    <path id="Path_5455" data-name="Path 5455" d="M30.7,19.191c0,1.93-.01,3.859.009,5.789a.841.841,0,0,1-.5.846q-5.626,2.99-11.243,6a.73.73,0,0,1-.764,0q-5.615-3-11.237-5.992a.843.843,0,0,1-.509-.842q.024-5.811,0-11.623a.79.79,0,0,1,.465-.816Q12.566,9.708,18.2,6.841a.793.793,0,0,1,.8.024Q24.594,9.708,30.2,12.527a.842.842,0,0,1,.515.877c-.016,1.93-.007,3.859-.007,5.787M29.621,14.1c-.111.046-.166.065-.217.092q-5.02,2.676-10.042,5.349c-.246.131-.237.322-.237.543q0,4.989,0,9.979c0,.113-.056.249.083.352q5.072-2.707,10.152-5.412a.456.456,0,0,0,.26-.479c-.009-1.349,0-2.7,0-4.048V14.1M18.008,30.443a1.576,1.576,0,0,0,.033-.193c0-3.42,0-6.839.009-10.258a.484.484,0,0,0-.327-.487q-4.9-2.6-9.79-5.22c-.3-.159-.395-.165-.393.233q.018,5.009,0,10.022a.447.447,0,0,0,.273.466c.741.381,1.472.785,2.207,1.177,2.646,1.413,5.293,2.823,7.985,4.26M8.343,13.1c.04.183.171.209.272.264q4.811,2.576,9.621,5.155a.644.644,0,0,0,.7-.006c3.1-1.668,6.2-3.32,9.3-4.984a1.7,1.7,0,0,0,.61-.384c-.076-.047-.125-.083-.177-.11q-4.858-2.469-9.714-4.948a.724.724,0,0,0-.75-.006q-3.275,1.681-6.562,3.338L8.343,13.1" transform="translate(3.126 3.266)" fill="#1471ce"/>
    <path id="Path_5455_-_Outline" data-name="Path 5455 - Outline" d="M18.582,32.431a1.286,1.286,0,0,1-.617-.167c-3.356-1.8-7.031-3.755-11.236-5.991a1.332,1.332,0,0,1-.774-1.285c.018-4.241.012-8.438,0-11.62A1.287,1.287,0,0,1,6.7,12.1C10.537,10.17,14.329,8.25,17.971,6.4a1.293,1.293,0,0,1,.6-.153,1.42,1.42,0,0,1,.66.177c3.079,1.565,7.134,3.624,11.191,5.661a1.338,1.338,0,0,1,.791,1.327c-.012,1.425-.01,2.873-.009,4.274q0,.755,0,1.51t0,1.5c0,1.4,0,2.855.01,4.282a1.343,1.343,0,0,1-.769,1.293c-3.6,1.912-7.38,3.929-11.241,6A1.286,1.286,0,0,1,18.582,32.431ZM18.569,7.243a.3.3,0,0,0-.143.044C14.782,9.141,10.988,11.063,7.149,13c-.132.066-.191.107-.19.368.007,3.185.013,7.384,0,11.627a.358.358,0,0,0,.244.4c4.2,2.236,7.881,4.2,11.238,5.992a.243.243,0,0,0,.291,0c3.864-2.067,7.647-4.085,11.246-6a.358.358,0,0,0,.238-.4c-.014-1.43-.012-2.885-.01-4.291q0-.75,0-1.5t0-1.509c0-1.4,0-2.854.009-4.283,0-.269-.046-.329-.239-.426-4.059-2.038-8.116-4.1-11.2-5.664A.5.5,0,0,0,18.569,7.243Zm-.185,23.968-.611-.326-3.4-1.812L9.788,26.625l-.734-.394c-.48-.259-.976-.527-1.467-.779a.935.935,0,0,1-.544-.911c.009-3.857.008-7.041,0-10.02a.877.877,0,0,1,.2-.662.594.594,0,0,1,.425-.174,1.068,1.068,0,0,1,.5.16c3.259,1.747,6.579,3.512,9.789,5.22A.976.976,0,0,1,18.55,20c-.008,2.563-.008,5.171-.008,7.693q0,1.281,0,2.562a.926.926,0,0,1-.024.2c0,.021-.01.047-.015.081ZM8.043,24.561h0c.5.256,1,.526,1.482.788l.73.392,4.589,2.448,2.694,1.437q0-.97,0-1.939c0-2.523,0-5.132.008-7.7t0-.009c-.013-.008-.032-.019-.06-.034-3.1-1.648-6.3-3.35-9.448-5.037.009,2.868.01,5.942,0,9.631C8.043,24.549,8.043,24.556,8.043,24.561ZM19.17,31.006l-.254-.186a.752.752,0,0,1-.29-.73c0-.009,0-.019,0-.028,0-2.215,0-4.467,0-6.645q0-1.665,0-3.33v-.022a.962.962,0,0,1,.5-.963c2.449-1.3,4.936-2.626,7.342-3.909l2.7-1.44a1.763,1.763,0,0,1,.178-.079l.083-.034.691-.286v7.124q0,.579,0,1.157c0,.947,0,1.925,0,2.887a.949.949,0,0,1-.524.924c-2.874,1.526-5.79,3.083-8.61,4.588Zm.456-11.037c0,.029,0,.065,0,.094v.023q0,1.665,0,3.33c0,2.036,0,4.137,0,6.211l.891-.476c2.818-1.5,5.732-3.06,8.6-4.585,0-.01,0-.022,0-.038-.006-.966-.005-1.946,0-2.9q0-.578,0-1.156V14.912L26.94,16.075C24.544,17.353,22.066,18.675,19.625,19.969Zm-1.046-.846h0A1.21,1.21,0,0,1,18,18.962c-2.288-1.233-4.619-2.479-6.873-3.685L8.379,13.808l-.032-.016a.807.807,0,0,1-.492-.582l-.083-.378.345-.175,1.63-.829,1.675-.852,1.359-.689c1.706-.865,3.471-1.76,5.2-2.648a1.208,1.208,0,0,1,1.206.006c2.643,1.356,5.335,2.724,7.939,4.047l1.773.9a1.672,1.672,0,0,1,.155.093l.061.039.478.3-.356.438a1.621,1.621,0,0,1-.629.445c-.048.022-.094.043-.132.064Q26.558,15,24.638,16.028c-1.792.958-3.644,1.949-5.464,2.928A1.229,1.229,0,0,1,18.579,19.123ZM9.31,13.172,11.6,14.4c2.255,1.206,4.586,2.452,6.876,3.686a.27.27,0,0,0,.107.041.312.312,0,0,0,.121-.047c1.82-.98,3.674-1.971,5.466-2.93q1.839-.983,3.678-1.969l-1.17-.595c-2.6-1.323-5.3-2.691-7.943-4.048a.387.387,0,0,0-.154-.052.342.342,0,0,0-.138.046c-1.733.889-3.5,1.785-5.206,2.65l-1.359.689-1.674.852Z" transform="translate(3.126 3.266)" fill="#1471ce"/>
    <path id="Path_5456" data-name="Path 5456" d="M6,35.095q-2.62,0-5.242,0c-.609,0-.755-.151-.755-.766q0-5.506,0-11.012c0-.3.033-.571.335-.7s.515.022.718.236c.69.723,1.407,1.42,2.071,2.168.306.346.472.261.739-.021,1.195-1.26,2.407-2.505,3.614-3.752.5-.515.66-.514,1.155,0q2.351,2.442,4.7,4.888c.463.482.466.7.007,1.173-1.241,1.282-2.476,2.569-3.73,3.835-.246.248-.246.377,0,.62.708.7,1.386,1.438,2.084,2.154.224.23.429.466.307.818-.128.368-.439.365-.753.365q-2.623-.007-5.244,0m4.048-1.127.049-.117c-.588-.606-1.178-1.207-1.765-1.814-.451-.468-.447-.695.012-1.171,1.238-1.284,2.47-2.575,3.722-3.843.249-.252.233-.377-.006-.62q-1.872-1.91-3.706-3.862c-.245-.26-.373-.235-.6.007-1.241,1.3-2.5,2.593-3.749,3.886-.405.419-.66.419-1.066-.012-.583-.62-1.156-1.251-1.747-1.891a.575.575,0,0,0-.1.45c0,2.841.006,5.68-.013,8.521,0,.413.132.478.487.475,2.684-.015,5.366-.009,8.049-.009h.438" transform="translate(0 10.102)" fill="#1471ce"/>
    <path id="Path_5456_-_Outline" data-name="Path 5456 - Outline" d="M11.261,35.6h-.015c-1.109,0-2.21,0-3.141,0H.76c-.892,0-1.255-.369-1.255-1.266q0-2.446,0-4.892c0-2.006,0-4.079,0-6.119a1.147,1.147,0,0,1,.637-1.162,1.034,1.034,0,0,1,.412-.089,1.212,1.212,0,0,1,.867.439c.227.238.463.479.691.712.458.468.931.951,1.377,1.453l.016-.017c.974-1.028,1.975-2.061,2.943-3.06l.674-.7a1.37,1.37,0,0,1,.938-.538,1.363,1.363,0,0,1,.935.537l3.121,3.245,1.58,1.644a1.139,1.139,0,0,1,.006,1.868l-.767.793c-.955.989-1.942,2.011-2.926,3,.421.42.838.856,1.241,1.279.262.275.534.559.8.835a1.251,1.251,0,0,1,.422,1.33A1.116,1.116,0,0,1,11.261,35.6Zm-3.156-1c.932,0,2.033,0,3.142,0h.014a1.449,1.449,0,0,0,.26-.014l.006-.014c.016-.046.027-.079-.193-.305-.272-.279-.546-.566-.81-.842-.413-.432-.84-.88-1.268-1.305a.833.833,0,0,1,0-1.328c.992-1,1.991-2.036,2.957-3.036l.768-.795a1.3,1.3,0,0,0,.193-.232,1.347,1.347,0,0,0-.2-.246l-1.58-1.643-3.12-3.244a2.345,2.345,0,0,0-.216-.2,2.352,2.352,0,0,0-.219.207l-.675.7c-.966,1-1.965,2.028-2.936,3.052a1.057,1.057,0,0,1-.746.4,1,1,0,0,1-.73-.4c-.434-.489-.9-.969-1.357-1.433-.23-.235-.468-.478-.7-.722a.642.642,0,0,0-.147-.127l-.011,0-.013.006a.766.766,0,0,0-.021.237c0,2.039,0,4.114,0,6.119q0,2.446,0,4.892a1.429,1.429,0,0,0,.016.25,1.393,1.393,0,0,0,.241.016H8.106Zm-6.565-.117a.958.958,0,0,1-.723-.241A1,1,0,0,1,.576,33.5c.014-2,.013-4.028.013-5.992q0-1.263,0-2.526c0-.01,0-.021,0-.032a1,1,0,0,1,.2-.71l.358-.5.415.449.574.624c.383.417.779.848,1.17,1.264a1.037,1.037,0,0,0,.173.155,1.025,1.025,0,0,0,.17-.149l.722-.744c.995-1.025,2.023-2.086,3.024-3.138a.948.948,0,0,1,.667-.347.928.928,0,0,1,.662.342c1.181,1.259,2.426,2.555,3.7,3.855a.829.829,0,0,1,0,1.322c-.961.973-1.928,1.977-2.862,2.949l-.856.89a1.247,1.247,0,0,0-.2.246,1.2,1.2,0,0,0,.188.231c.341.353.69.711,1.028,1.057l.736.756.23.237-.3.729H6.037c-1.234,0-2.857,0-4.471.01ZM1.589,25.7q0,.9,0,1.8c0,1.957,0,3.979-.013,5.971,1.612-.009,3.23-.01,4.46-.01H9.028l-.022-.023c-.338-.347-.688-.706-1.031-1.061a1.139,1.139,0,0,1,.011-1.865l.856-.889c.923-.959,1.876-1.951,2.828-2.914-1.243-1.268-2.457-2.533-3.611-3.762-.986,1.036-2,2.077-2.973,3.085l-.721.744a1.269,1.269,0,0,1-.888.465,1.271,1.271,0,0,1-.9-.482C2.245,26.414,1.913,26.055,1.589,25.7Z" transform="translate(0 10.102)" fill="#1471ce"/>
    <path id="Path_5457" data-name="Path 5457" d="M33.713,28.883q0,2.73,0,5.461c0,.58-.165.754-.727.754q-5.29,0-10.581,0c-.291,0-.554-.045-.68-.347-.138-.33.047-.557.264-.778.718-.738,1.42-1.495,2.145-2.226.217-.218.2-.343,0-.558-1.253-1.291-2.492-2.6-3.734-3.9-.472-.493-.471-.675,0-1.167q2.362-2.462,4.729-4.925c.442-.46.638-.46,1.088.009,1.244,1.3,2.492,2.6,3.724,3.909.214.229.338.251.56.01.7-.758,1.423-1.49,2.134-2.238.211-.221.427-.414.75-.266s.337.436.335.751c-.006,1.836,0,3.672,0,5.508m-1.085-4.249-.116-.082c-.583.626-1.162,1.256-1.751,1.876-.432.457-.653.451-1.088,0-1.244-1.3-2.494-2.593-3.725-3.907-.226-.242-.355-.232-.57,0q-1.872,1.977-3.771,3.927c-.235.239-.16.359.028.555,1.217,1.262,2.425,2.534,3.635,3.8.568.6.57.769.01,1.349q-.737.764-1.469,1.532c-.067.07-.19.119-.119.292q4.321,0,8.662,0c.224,0,.278-.1.278-.31q-.007-4.517,0-9.032" transform="translate(9.704 10.1)" fill="#1471ce"/>
    <path id="Path_5457_-_Outline" data-name="Path 5457 - Outline" d="M22.4,35.6h0a1.131,1.131,0,0,1-1.141-.655,1.165,1.165,0,0,1,.369-1.32c.3-.313.614-.637.913-.95.378-.4.768-.805,1.16-1.2-1.052-1.085-2.111-2.2-3.135-3.272l-.537-.563a1.394,1.394,0,0,1-.491-.931,1.4,1.4,0,0,1,.5-.928q2.361-2.461,4.728-4.924a1.289,1.289,0,0,1,.9-.5,1.307,1.307,0,0,1,.91.507l.719.752c.962,1,1.957,2.043,2.928,3.076.421-.454.853-.9,1.272-1.336.255-.264.519-.538.776-.808a1.253,1.253,0,0,1,.893-.473,1.02,1.02,0,0,1,.428.1,1.176,1.176,0,0,1,.626,1.207c0,1.376,0,2.776,0,4.13q0,.688,0,1.376,0,2.73,0,5.461c0,.855-.39,1.254-1.227,1.254H28.753Q25.578,35.6,22.4,35.6Zm-.21-1.022a.6.6,0,0,0,.209.022q3.175,0,6.351,0h4.231a1.018,1.018,0,0,0,.209-.016,1.1,1.1,0,0,0,.019-.238q0-2.73,0-5.461,0-.688,0-1.376c0-1.355,0-2.756,0-4.134a.763.763,0,0,0-.026-.286l-.019-.01,0,0a1.026,1.026,0,0,0-.174.159c-.259.273-.524.547-.78.813-.446.462-.907.941-1.349,1.419a.882.882,0,0,1-.641.332.912.912,0,0,1-.651-.34c-.992-1.057-2.013-2.123-3-3.154l-.719-.752a1.749,1.749,0,0,0-.187-.175,1.717,1.717,0,0,0-.179.167q-2.366,2.462-4.728,4.924a1.755,1.755,0,0,0-.2.238,1.732,1.732,0,0,0,.2.237l.538.564c1.044,1.1,2.124,2.229,3.195,3.333a.807.807,0,0,1,0,1.259c-.41.414-.822.846-1.22,1.264-.3.315-.611.641-.921.959-.136.139-.165.192-.17.211,0,0,0,.009.009.024A.145.145,0,0,0,22.194,34.578Zm10.16-.1c-1.834,0-3.656,0-5.2,0h-3.8l-.127-.31a.681.681,0,0,1,.215-.825l.01-.009c.484-.508.978-1.022,1.466-1.528a1.908,1.908,0,0,0,.269-.319,1.982,1.982,0,0,0-.282-.338l-.846-.887c-.912-.956-1.854-1.945-2.787-2.912a.983.983,0,0,1-.307-.534.853.853,0,0,1,.282-.719c1.111-1.135,2.307-2.381,3.765-3.921a.8.8,0,0,1,1.3.006c.913.973,1.853,1.953,2.762,2.9l.959,1a1.457,1.457,0,0,0,.186.17,1.4,1.4,0,0,0,.178-.165c.424-.446.849-.9,1.261-1.348l.488-.525.295-.317.356.246.063.044.053.037.215.149v2.063c0,2.369,0,4.819,0,7.23A.734.734,0,0,1,32.353,34.476Zm-5.2-1c1.478,0,3.216,0,4.974,0,0-2.349,0-4.733,0-7.04V25.7c-.33.356-.668.717-1,1.072a1.285,1.285,0,0,1-.9.5,1.306,1.306,0,0,1-.909-.5l-.959-1c-.885-.923-1.8-1.876-2.692-2.827-1.39,1.467-2.542,2.667-3.613,3.763.916.95,1.842,1.921,2.737,2.86l.846.887a1.576,1.576,0,0,1,.566,1.022,1.513,1.513,0,0,1-.558,1.019c-.312.323-.626.65-.939.977Z" transform="translate(9.704 10.1)" fill="#1471ce"/>
    <path id="Path_5458" data-name="Path 5458" d="M27.7,0q2.645,0,5.288,0c.557,0,.727.178.729.755q0,5.506,0,11.012c0,.3-.042.567-.335.7s-.512-.024-.715-.237c-.677-.714-1.385-1.4-2.035-2.14-.328-.376-.514-.3-.813.018C28.626,11.378,27.41,12.62,26.2,13.87c-.459.473-.643.476-1.089.013q-2.364-2.46-4.73-4.925c-.466-.485-.466-.686,0-1.167,1.26-1.3,2.514-2.614,3.786-3.905.209-.212.188-.313-.006-.508-.7-.709-1.388-1.438-2.079-2.16-.233-.242-.531-.463-.355-.874.162-.376.493-.346.815-.344,1.719,0,3.436,0,5.153,0M23.67,1.131c-.019.036-.039.071-.056.108q.83.85,1.659,1.7c.594.612.591.775.009,1.373-1.21,1.245-2.41,2.5-3.63,3.739-.235.237-.264.373-.012.629q1.823,1.859,3.608,3.76c.3.328.471.374.8.016,1.2-1.294,2.445-2.553,3.676-3.82.371-.381.635-.381,1.006,0,.334.338.652.7.991,1.03a6.852,6.852,0,0,0,.865.858.547.547,0,0,0,.042-.125c0-2.964-.007-5.928.007-8.892,0-.381-.163-.384-.433-.384-2.486.009-4.972.006-7.457.007H23.67" transform="translate(9.701 0.001)" fill="#1471ce"/>
    <path id="Path_5458_-_Outline" data-name="Path 5458 - Outline" d="M25.651,14.728a1.285,1.285,0,0,1-.9-.5l-.092-.1q-2.319-2.413-4.639-4.83a1.128,1.128,0,0,1,0-1.86l.854-.885c.926-.961,1.883-1.953,2.837-2.923-.483-.491-.963-.993-1.427-1.48l-.564-.59-.074-.074A1.137,1.137,0,0,1,21.269.148,1.11,1.11,0,0,1,22.4-.5h.15q1.838,0,3.678,0h6.762c.836,0,1.226.4,1.228,1.254V2.964c0,2.886,0,5.871,0,8.806a1.163,1.163,0,0,1-.625,1.158,1.013,1.013,0,0,1-.427.1,1.217,1.217,0,0,1-.861-.445c-.232-.244-.471-.49-.7-.727-.448-.458-.911-.933-1.345-1.428l-.021-.023-.054.055c-.881.934-1.789,1.872-2.667,2.778l-.95.981A1.323,1.323,0,0,1,25.651,14.728ZM20.545,8.374a1.523,1.523,0,0,0,.2.239q2.319,2.417,4.639,4.829l.091.1a1.84,1.84,0,0,0,.176.165,1.939,1.939,0,0,0,.193-.18l.95-.982c.876-.9,1.782-1.839,2.659-2.77a1.094,1.094,0,0,1,.785-.427,1.048,1.048,0,0,1,.768.423c.416.474.87.939,1.308,1.388.234.24.477.488.713.737a.851.851,0,0,0,.142.128h0a.09.09,0,0,0,.021-.012.6.6,0,0,0,.025-.238c0-2.935,0-5.92,0-8.806V.758A1.025,1.025,0,0,0,33.193.52.954.954,0,0,0,32.984.5H24.751q-1.1,0-2.209,0H22.4A.675.675,0,0,0,22.2.516a.175.175,0,0,0-.014.028.181.181,0,0,0-.012.036,1.163,1.163,0,0,0,.179.2l.089.09.567.593c.492.516,1,1.049,1.508,1.562a.77.77,0,0,1,.007,1.21c-.982,1-1.971,2.023-2.928,3.015l-.855.886A1.508,1.508,0,0,0,20.545,8.374Zm5.11,4.836a1.066,1.066,0,0,1-.774-.426c-1.062-1.137-2.205-2.329-3.6-3.749A.842.842,0,0,1,21.3,7.7c.8-.813,1.608-1.648,2.389-2.456q.619-.641,1.239-1.28a2.125,2.125,0,0,0,.285-.332,2.145,2.145,0,0,0-.294-.344c-.553-.571-1.115-1.146-1.658-1.7l-.244-.25.151-.315c.023-.048.046-.091.067-.129l.142-.262h3.409C28.558.63,30.4.63,32.2.623a.916.916,0,0,1,.709.223.92.92,0,0,1,.227.665c-.011,2.22-.01,4.48-.008,6.665q0,1.112,0,2.223a.642.642,0,0,1-.055.251c0,.01-.009.023-.015.038l-.215.617-.539-.368a3.7,3.7,0,0,1-.672-.633c-.09-.1-.174-.2-.261-.28-.2-.2-.391-.4-.576-.6-.138-.147-.281-.3-.423-.442a.834.834,0,0,0-.146-.126.826.826,0,0,0-.146.126l-.728.747c-.972,1-1.978,2.029-2.941,3.065A1.065,1.065,0,0,1,25.655,13.21ZM22.038,8.376c1.381,1.408,2.518,2.594,3.576,3.727l.044.046.027-.029c.971-1.044,1.981-2.08,2.957-3.082l.727-.747a1.068,1.068,0,0,1,1.722,0c.149.151.3.306.438.457.178.189.362.385.547.566l.056.056q0-.594,0-1.189c0-2.148,0-4.367.008-6.554-1.786.006-3.6.006-5.358.007H24.695c.312.32.626.643.938.964a1.566,1.566,0,0,1,.586,1.037,1.532,1.532,0,0,1-.578,1.032Q25.021,5.3,24.4,5.942C23.631,6.742,22.833,7.569,22.038,8.376Z" transform="translate(9.701 0.001)" fill="#1471ce"/>
    <path id="Path_5459" data-name="Path 5459" d="M0,6.241Q0,3.511,0,.782C0,.17.165,0,.748,0Q5.991,0,11.234,0c.313,0,.619,0,.757.362s-.091.582-.31.809c-.693.718-1.373,1.453-2.076,2.161-.227.229-.23.361,0,.6,1.245,1.276,2.471,2.572,3.7,3.862.5.518.493.68-.006,1.2q-2.349,2.447-4.7,4.891c-.468.487-.647.484-1.119-.01C6.253,12.583,5.014,11.3,3.794,10c-.232-.249-.355-.267-.592-.006-.684.751-1.4,1.466-2.1,2.2-.211.224-.427.42-.747.288S0,12.066,0,11.746C.009,9.91,0,8.075,0,6.241M1.11,10.582,2.939,8.675c.427-.447.675-.45,1.1-.009,1.244,1.3,2.492,2.6,3.727,3.907.22.235.346.232.57,0q1.855-1.961,3.742-3.889c.221-.226.239-.346.007-.585C10.838,6.818,9.612,5.521,8.38,4.23c-.473-.494-.479-.718,0-1.213.58-.6,1.174-1.181,1.815-1.824a1.638,1.638,0,0,0-.248-.062c-2.848,0-5.7.006-8.545-.012-.383,0-.318.226-.318.453q0,4.237,0,8.474c0,.137.01.275.022.537" transform="translate(0 0.001)" fill="#1471ce"/>
    <path id="Path_5459_-_Outline" data-name="Path 5459 - Outline" d="M8.05,14.746a1.344,1.344,0,0,1-.926-.528L6.1,13.145c-.855-.892-1.739-1.815-2.6-2.733-.4.44-.821.871-1.225,1.288-.266.275-.541.559-.807.84a1.27,1.27,0,0,1-.909.487,1.021,1.021,0,0,1-.392-.081,1.179,1.179,0,0,1-.662-1.2c.007-1.378.006-2.777.005-4.129q0-.688,0-1.376V4.421q0-1.82,0-3.64C-.5-.1-.112-.5.748-.5H11.29a1.108,1.108,0,0,1,1.168.685,1.188,1.188,0,0,1-.4,1.315l-.018.019c-.255.264-.513.536-.763.8-.411.433-.836.88-1.265,1.313.938.962,1.879,1.949,2.789,2.9l.868.91a1.416,1.416,0,0,1,.508.948,1.424,1.424,0,0,1-.515.944l-.017.018q-2.341,2.438-4.682,4.874A1.324,1.324,0,0,1,8.05,14.746ZM3.494,9.3a.94.94,0,0,1,.667.354c.878.936,1.783,1.881,2.658,2.795l1.028,1.074a2.07,2.07,0,0,0,.2.192,2.007,2.007,0,0,0,.194-.183q2.341-2.434,4.681-4.873l.016-.017a2.08,2.08,0,0,0,.221-.257,2.033,2.033,0,0,0-.215-.251l-.869-.911c-.924-.97-1.88-1.973-2.831-2.947a.829.829,0,0,1,0-1.3c.439-.442.878-.9,1.3-1.351.251-.264.511-.538.769-.8L11.341.8a1.074,1.074,0,0,0,.193-.233.287.287,0,0,0-.009-.03.21.21,0,0,0-.011-.025A.933.933,0,0,0,11.29.5H.748A1.115,1.115,0,0,0,.525.519,1.227,1.227,0,0,0,.5.782Q.5,2.6.5,4.421v1.82q0,.688,0,1.376c0,1.354,0,2.754-.005,4.132a.686.686,0,0,0,.028.266l.018.009h0a.968.968,0,0,0,.187-.17c.271-.287.549-.573.817-.85.425-.438.864-.892,1.28-1.348A.9.9,0,0,1,3.494,9.3Zm4.552,3.943a.911.911,0,0,1-.647-.333c-.936-.993-1.9-2-2.826-2.966l-.9-.937a1.11,1.11,0,0,0-.183-.163,1.15,1.15,0,0,0-.193.172L1.471,10.928l-.808.842L.611,10.6c0-.083-.007-.154-.011-.216-.007-.139-.012-.239-.012-.344q0-4.236,0-8.474c0-.023,0-.046,0-.069a.832.832,0,0,1,.2-.655A.823.823,0,0,1,1.4.619h.006c1.712.011,3.4.012,4.974.012H9.949a.818.818,0,0,1,.241.042l.131.036.845.219-.617.618L10,2.1c-.437.435-.849.847-1.256,1.265a1.269,1.269,0,0,0-.211.257,1.3,1.3,0,0,0,.212.261L9.61,4.8c.925.971,1.881,1.976,2.831,2.951a.817.817,0,0,1-.008,1.284c-1.292,1.321-2.549,2.628-3.736,3.882A.905.905,0,0,1,8.046,13.247ZM3.493,7.838a1.3,1.3,0,0,1,.9.482l.9.937c.9.944,1.839,1.919,2.753,2.888,1.15-1.216,2.367-2.48,3.618-3.76-.935-.96-1.873-1.946-2.781-2.9l-.867-.911a1.424,1.424,0,0,1-.5-.95,1.4,1.4,0,0,1,.5-.957c.337-.346.676-.686,1.028-1.038H6.38c-1.516,0-3.143,0-4.793-.011q0,3.871,0,7.742l.99-1.033A1.316,1.316,0,0,1,3.493,7.838Z" transform="translate(0 0.001)" fill="#1471ce"/>
  </g>
</svg>
