<svg xmlns="http://www.w3.org/2000/svg" width="67.015" height="63" viewBox="0 0 67.015 63">
  <g id="Group_18294" data-name="Group 18294" transform="translate(0.8 0.801)">
    <g id="Group_18296" data-name="Group 18296" transform="translate(0 0)">
      <ellipse id="Ellipse_218" data-name="Ellipse 218" cx="25.237" cy="25.237" rx="25.237" ry="25.237" transform="translate(7.346 10.923)" fill="#1471ce" stroke="#fcb525" stroke-width="1.6"/>
      <path id="Path_5390" data-name="Path 5390" d="M30.985,39.613A34.716,34.716,0,0,0,11.708,45.42" transform="translate(1.507 6.503)" fill="#1471ce" stroke="#fcb525" stroke-width="1.6"/>
      <path id="Path_5391" data-name="Path 5391" d="M28.087,39.613A34.716,34.716,0,0,1,47.364,45.42" transform="translate(4.439 6.503)" fill="#1471ce" stroke="#fcb525" stroke-width="1.6"/>
      <path id="Path_5392" data-name="Path 5392" d="M28.015,23.8a34.716,34.716,0,0,0,19.277-5.807" transform="translate(4.426 2.632)" fill="#1471ce" stroke="#fcb525" stroke-width="1.6"/>
      <path id="Path_5393" data-name="Path 5393" d="M30.913,23.8a34.716,34.716,0,0,1-19.277-5.807" transform="translate(1.494 2.632)" fill="#1471ce" stroke="#fcb525" stroke-width="1.6"/>
      <ellipse id="Ellipse_219" data-name="Ellipse 219" cx="11.497" cy="25.237" rx="11.497" ry="25.237" transform="translate(20.928 10.923)" fill="#1471ce" stroke="#fcb525" stroke-width="1.6"/>
      <line id="Line_11" data-name="Line 11" x2="50.475" transform="translate(7.346 36.161)" fill="none" stroke="#fcb525" stroke-width="1.6"/>
      <path id="Path_5394" data-name="Path 5394" d="M29.127,19.368c-.722-1.121-1.429-2.21-2.125-3.3q-1.1-1.73-2.177-3.472c-.466-.757-.9-1.533-1.368-2.29a5.89,5.89,0,0,1-.828-2.415,6.257,6.257,0,0,1,.409-3.235A6.5,6.5,0,0,1,27.856.644,6.094,6.094,0,0,1,31.478.96a6.427,6.427,0,0,1,3.647,3.506,6.271,6.271,0,0,1,.05,5.083,13.748,13.748,0,0,1-1.045,1.858c-.782,1.288-1.569,2.574-2.372,3.848-.857,1.359-1.734,2.706-2.6,4.057-.008.013-.014.027-.028.055M29.117,4.176a2.884,2.884,0,1,0,2.895,2.745,2.881,2.881,0,0,0-2.895-2.745" transform="translate(3.453 -0.5)" fill="#1471ce" stroke="#fcb525" stroke-width="1.6"/>
      <path id="Path_5395" data-name="Path 5395" d="M29.127,19.368c-.722-1.121-1.429-2.21-2.125-3.3q-1.1-1.73-2.177-3.472c-.466-.757-.9-1.533-1.368-2.29a5.89,5.89,0,0,1-.828-2.415,6.257,6.257,0,0,1,.409-3.235A6.5,6.5,0,0,1,27.856.644,6.094,6.094,0,0,1,31.478.96a6.427,6.427,0,0,1,3.647,3.506,6.271,6.271,0,0,1,.05,5.083,13.748,13.748,0,0,1-1.045,1.858c-.782,1.288-1.569,2.574-2.372,3.848-.857,1.359-1.734,2.706-2.6,4.057C29.147,19.326,29.141,19.34,29.127,19.368ZM29.117,4.176a2.884,2.884,0,1,0,2.895,2.745A2.881,2.881,0,0,0,29.117,4.176Z" transform="translate(3.453 -0.5)" fill="#1471ce" stroke="#fcb525" stroke-width="1.6"/>
      <path id="Path_5396" data-name="Path 5396" d="M16.932,48.309C16.21,47.188,15.5,46.1,14.807,45q-1.1-1.73-2.177-3.472c-.466-.757-.9-1.533-1.368-2.29a5.89,5.89,0,0,1-.828-2.415,6.257,6.257,0,0,1,.409-3.235,6.5,6.5,0,0,1,4.816-4.008,6.094,6.094,0,0,1,3.622.316,6.427,6.427,0,0,1,3.647,3.506,6.271,6.271,0,0,1,.05,5.083,13.748,13.748,0,0,1-1.045,1.858c-.782,1.288-1.569,2.574-2.372,3.848-.857,1.359-1.734,2.706-2.6,4.057-.008.013-.014.027-.028.055m-.009-15.192a2.884,2.884,0,1,0,2.895,2.745,2.881,2.881,0,0,0-2.895-2.745" transform="translate(1.269 4.682)" fill="#1471ce" stroke="#fcb525" stroke-width="1.6"/>
      <path id="Path_5397" data-name="Path 5397" d="M16.932,48.309C16.21,47.188,15.5,46.1,14.807,45q-1.1-1.73-2.177-3.472c-.466-.757-.9-1.533-1.368-2.29a5.89,5.89,0,0,1-.828-2.415,6.257,6.257,0,0,1,.409-3.235,6.5,6.5,0,0,1,4.816-4.008,6.094,6.094,0,0,1,3.622.316,6.427,6.427,0,0,1,3.647,3.506,6.271,6.271,0,0,1,.05,5.083,13.748,13.748,0,0,1-1.045,1.858c-.782,1.288-1.569,2.574-2.372,3.848-.857,1.359-1.734,2.706-2.6,4.057C16.952,48.267,16.946,48.281,16.932,48.309Zm-.009-15.192a2.884,2.884,0,1,0,2.895,2.745A2.881,2.881,0,0,0,16.922,33.117Z" transform="translate(1.269 4.682)" fill="#1471ce" stroke="#fcb525" stroke-width="1.6"/>
      <path id="Path_5398" data-name="Path 5398" d="M41.2,38.728c-.722-1.121-1.428-2.21-2.123-3.3q-1.1-1.73-2.177-3.472c-.466-.757-.9-1.533-1.368-2.29a5.873,5.873,0,0,1-.828-2.415,6.233,6.233,0,0,1,.409-3.235A6.494,6.494,0,0,1,39.927,20a6.091,6.091,0,0,1,3.621.316A6.426,6.426,0,0,1,47.2,23.826a6.271,6.271,0,0,1,.05,5.083A13.885,13.885,0,0,1,46.2,30.767c-.781,1.288-1.568,2.574-2.372,3.848-.856,1.359-1.733,2.706-2.6,4.057-.008.013-.014.027-.029.055m-.009-15.192a2.884,2.884,0,1,0,2.895,2.745,2.881,2.881,0,0,0-2.895-2.745" transform="translate(5.614 2.966)" fill="#1471ce" stroke="#fcb525" stroke-width="1.6"/>
      <path id="Path_5399" data-name="Path 5399" d="M41.2,38.728c-.722-1.121-1.428-2.21-2.123-3.3q-1.1-1.73-2.177-3.472c-.466-.757-.9-1.533-1.368-2.29a5.873,5.873,0,0,1-.828-2.415,6.233,6.233,0,0,1,.409-3.235A6.494,6.494,0,0,1,39.927,20a6.091,6.091,0,0,1,3.621.316A6.426,6.426,0,0,1,47.2,23.826a6.271,6.271,0,0,1,.05,5.083A13.885,13.885,0,0,1,46.2,30.767c-.781,1.288-1.568,2.574-2.372,3.848-.856,1.359-1.733,2.706-2.6,4.057C41.218,38.686,41.212,38.7,41.2,38.728Zm-.009-15.192a2.884,2.884,0,1,0,2.895,2.745A2.881,2.881,0,0,0,41.187,23.536Z" transform="translate(5.614 2.966)" fill="#1471ce" stroke="#fcb525" stroke-width="1.6"/>
      <path id="Path_5400" data-name="Path 5400" d="M46.877,16.741a7.576,7.576,0,0,1,10.734,6.883" transform="translate(7.804 2.284)" fill="#1471ce" stroke="#fcb525" stroke-width="1.6"/>
      <ellipse id="Ellipse_220" data-name="Ellipse 220" cx="3.774" cy="3.774" rx="3.774" ry="3.774" transform="translate(53.764 8.352)" fill="#1471ce" stroke="#fcb525" stroke-width="1.6"/>
      <path id="Path_5401" data-name="Path 5401" d="M11.234,16.741A7.576,7.576,0,0,0,.5,23.624" transform="translate(-0.5 2.284)" fill="#1471ce" stroke="#fcb525" stroke-width="1.6"/>
      <ellipse id="Ellipse_221" data-name="Ellipse 221" cx="3.774" cy="3.774" rx="3.774" ry="3.774" transform="translate(4.101 8.352)" fill="#1471ce" stroke="#fcb525" stroke-width="1.6"/>
    </g>
  </g>
</svg>
