<svg xmlns="http://www.w3.org/2000/svg" width="74.215" height="59.682" viewBox="0 0 74.215 59.682">
  <g id="Group_18292" data-name="Group 18292" transform="translate(0.8 0.8)">
    <g id="Group_18295" data-name="Group 18295" transform="translate(0 0)">
      <line id="Line_1" data-name="Line 1" x2="30.578" transform="translate(15.431 58.014)" fill="none" stroke="#ffb30b" stroke-linejoin="round" stroke-width="1.6"/>
      <line id="Line_2" data-name="Line 2" y1="6.092" x2="3.786" transform="translate(22.678 52.185)" fill="none" stroke="#ffb30b" stroke-linejoin="round" stroke-width="1.6"/>
      <line id="Line_3" data-name="Line 3" x1="3.786" y1="6.092" transform="translate(34.976 52.185)" fill="none" stroke="#ffb30b" stroke-linejoin="round" stroke-width="1.6"/>
      <path id="Path_5384" data-name="Path 5384" d="M46.541,49.806H5.737A5.236,5.236,0,0,1,.5,44.571V5.737A5.237,5.237,0,0,1,5.737.5H59.842a5.237,5.237,0,0,1,5.235,5.237V34.423" transform="translate(-0.5 -0.5)" fill="none" stroke="#ffb30b" stroke-linejoin="round" stroke-width="1.6"/>
      <path id="Path_5385" data-name="Path 5385" d="M16.669,8.483H14.288a1.6,1.6,0,1,1-3.2,0H5.818v3.551H8.706v5.821a1.422,1.422,0,0,0,1.422,1.422h5.118a1.422,1.422,0,0,0,1.423-1.422V12.034h2.888V8.483Z" transform="translate(0.833 1.501)" fill="none" stroke="#ffb30b" stroke-width="1.6"/>
      <line id="Line_4" data-name="Line 4" x2="15.497" transform="translate(24.574 11.648)" fill="none" stroke="#ffb30b" stroke-width="1.6"/>
      <line id="Line_5" data-name="Line 5" x2="15.497" transform="translate(24.574 15.216)" fill="none" stroke="#ffb30b" stroke-width="1.6"/>
      <line id="Line_6" data-name="Line 6" x2="9.634" transform="translate(24.574 18.784)" fill="none" stroke="#ffb30b" stroke-width="1.6"/>
      <path id="Path_5386" data-name="Path 5386" d="M63.629,28.1H60.117L57.338,46.394H41.528" transform="translate(9.786 6.42)" fill="none" stroke="#ffb30b" stroke-linejoin="round" stroke-width="1.6"/>
      <ellipse id="Ellipse_215" data-name="Ellipse 215" cx="2.488" cy="2.488" rx="2.488" ry="2.488" transform="translate(53.1 53.107)" fill="none" stroke="#ffb30b" stroke-linejoin="round" stroke-width="1.6"/>
      <ellipse id="Ellipse_216" data-name="Ellipse 216" cx="2.488" cy="2.488" rx="2.488" ry="2.488" transform="translate(60.634 53.107)" fill="none" stroke="#ffb30b" stroke-linejoin="round" stroke-width="1.6"/>
      <path id="Path_5387" data-name="Path 5387" d="M58.566,41.561H42.627L39.751,31.224h20.22" transform="translate(9.34 7.203)" fill="none" stroke="#ffb30b" stroke-linejoin="round" stroke-width="1.6"/>
      <line id="Line_7" data-name="Line 7" x2="17.964" transform="translate(50.55 43.67)" fill="none" stroke="#ffb30b" stroke-linejoin="round" stroke-width="1.6"/>
      <line id="Line_8" data-name="Line 8" y1="10.337" transform="translate(63.122 38.501)" fill="none" stroke="#ffb30b" stroke-linejoin="round" stroke-width="1.6"/>
      <line id="Line_9" data-name="Line 9" y1="10.337" transform="translate(57.352 38.427)" fill="none" stroke="#ffb30b" stroke-linejoin="round" stroke-width="1.6"/>
      <ellipse id="Ellipse_217" data-name="Ellipse 217" cx="2.36" cy="2.36" rx="2.36" ry="2.36" transform="translate(9.897 28.839)" fill="none" stroke="#ffb30b" stroke-width="1.6"/>
      <path id="Path_5388" data-name="Path 5388" d="M16.3,33.848v-2.6a2.345,2.345,0,0,0-2.345-2.345H8.649A2.344,2.344,0,0,0,6.3,31.253v2.6" transform="translate(0.955 6.622)" fill="none" stroke="#ffb30b" stroke-width="1.6"/>
      <line id="Line_10" data-name="Line 10" x2="49.387" transform="translate(0.412 40.47)" fill="none" stroke="#ffb30b" stroke-linejoin="round" stroke-width="1.6"/>
      <rect id="Rectangle_5063" data-name="Rectangle 5063" width="3.381" height="4.608" transform="translate(27.26 35.862)" fill="none" stroke="#ffb30b" stroke-width="1.6"/>
      <rect id="Rectangle_5064" data-name="Rectangle 5064" width="3.381" height="8.697" transform="translate(33.991 31.772)" fill="none" stroke="#ffb30b" stroke-width="1.6"/>
      <rect id="Rectangle_5065" data-name="Rectangle 5065" width="3.381" height="12.292" transform="translate(40.723 28.178)" fill="none" stroke="#ffb30b" stroke-width="1.6"/>
      <path id="Path_5389" data-name="Path 5389" d="M38.442,36.087V19.976h3.381v9.907" transform="translate(9.012 4.383)" fill="none" stroke="#ffb30b" stroke-width="1.6"/>
    </g>
  </g>
</svg>
