<svg xmlns="http://www.w3.org/2000/svg" id="Layer_1" data-name="Layer 1" viewBox="0 0 100 100"><defs><style>.cls-1,.cls-2{fill:none;stroke:#1471ce;stroke-width:2.2px;}.cls-1{stroke-miterlimit:10;}.cls-2{stroke-linejoin:round;}</style></defs><g id="Group_100" data-name="Group 100"><path id="Path_202" data-name="Path 202" class="cls-1" d="M57,84.9H78.47a5.6,5.6,0,0,0,5.6-5.6V37.51H76.65"></path><path id="Path_203" data-name="Path 203" class="cls-2" d="M50,82.93s6.33-10.05,26.21-8.74V28.55s-18.79-2.19-26.21,9Z"></path><path id="Path_204" data-name="Path 204" class="cls-1" d="M56.25,66.22s5.11-3.59,14.28-3.45"></path><path id="Path_205" data-name="Path 205" class="cls-1" d="M56,59.76s5.11-3.59,14.28-3.45"></path><path id="Path_206" data-name="Path 206" class="cls-1" d="M56.39,53.31s5.11-3.59,14.28-3.45"></path><path id="Path_207" data-name="Path 207" class="cls-1" d="M56.1,46.85s5.12-3.59,14.28-3.45"></path><g id="Group_99" data-name="Group 99"><path id="Path_208" data-name="Path 208" class="cls-2" d="M43,84.24H21.53a5.6,5.6,0,0,1-5.6-5.6V36.85h7.42"></path><path id="Path_209" data-name="Path 209" class="cls-2" d="M50,82.93s-6.34-10.7-26.21-9.39V27.89s18.78-2.19,26.21,9Z"></path><path id="Path_210" data-name="Path 210" class="cls-2" d="M43.75,65.56S38.64,62,29.47,62.11"></path><path id="Path_211" data-name="Path 211" class="cls-2" d="M44,59.11s-5.11-3.59-14.28-3.45"></path><path id="Path_212" data-name="Path 212" class="cls-2" d="M43.6,52.65s-5.11-3.59-14.27-3.45"></path><path id="Path_213" data-name="Path 213" class="cls-2" d="M43.89,46.19s-5.11-3.58-14.28-3.44"></path></g></g></svg>