<svg xmlns="http://www.w3.org/2000/svg" width="61.322" height="70.706" viewBox="0 0 61.322 70.706"><g id="Group_4614" data-name="Group 4614" transform="translate(0.29 0.162)"><g id="Group_4431" data-name="Group 4431"><line id="Line_278" data-name="Line 278" x2="16.364" transform="translate(21.146 59.755)" fill="none" stroke="#fff" stroke-width="2"></line><line id="Line_279" data-name="Line 279" x2="16.364" transform="translate(21.146 64.102)" fill="none" stroke="#fff" stroke-width="2"></line><path id="Path_5246" data-name="Path 5246" d="M1054.4,718.583a23.632,23.632,0,1,0-39.975,17.07l2.852,2.76" transform="translate(-1000.922 -686.784)" fill="none" stroke="#fff" stroke-width="2"></path><path id="Path_5247" data-name="Path 5247" d="M1072.562,730.143a23.564,23.564,0,0,1-7.289,17.07l-2.852,2.76" transform="translate(-1019.081 -698.343)" fill="none" stroke="#fff" stroke-width="2"></path><g id="Group_4276" data-name="Group 4276" transform="translate(14.582 15.488)"><g id="Group_4275" data-name="Group 4275"><path id="Path_5248" data-name="Path 5248" d="M1050.83,718.346h-3.207a12.426,12.426,0,0,0-.981-2.365l2.27-2.269a.893.893,0,0,0,0-1.262l-3.787-3.786a.892.892,0,0,0-1.262,0l-2.269,2.27a12.368,12.368,0,0,0-2.364-.982v-3.208a.893.893,0,0,0-.893-.893h-5.354a.893.893,0,0,0-.893.893v3.208a12.339,12.339,0,0,0-2.364.982l-2.269-2.27a.892.892,0,0,0-1.262,0l-3.788,3.786a.893.893,0,0,0,0,1.262l2.271,2.27a12.416,12.416,0,0,0-.982,2.364h-3.207a.892.892,0,0,0-.893.892v5.355a.893.893,0,0,0,.893.893h3.207a12.462,12.462,0,0,0,.981,2.364l-2.27,2.27a.893.893,0,0,0,0,1.262l3.788,3.787a.919.919,0,0,0,1.262,0l2.269-2.27a12.414,12.414,0,0,0,2.364.982v3.207a.893.893,0,0,0,.893.892h5.354a.893.893,0,0,0,.893-.892v-3.207a12.456,12.456,0,0,0,2.364-.981l2.269,2.27a.893.893,0,0,0,1.262,0l3.786-3.787a.892.892,0,0,0,0-1.262l-2.269-2.27a12.446,12.446,0,0,0,.982-2.364h3.207a.892.892,0,0,0,.892-.893v-5.355A.892.892,0,0,0,1050.83,718.346Z" transform="translate(-1019.595 -705.852)" fill="none" stroke="#fff" stroke-width="2"></path></g></g><ellipse id="Ellipse_327" data-name="Ellipse 327" cx="7.62" cy="7.62" rx="7.62" ry="7.62" transform="translate(23.025 23.931)" fill="none" stroke="#fff" stroke-width="2"></ellipse><path id="Rectangle_4676" data-name="Rectangle 4676" d="M0,0H16.364a0,0,0,0,1,0,0V8.052a5.236,5.236,0,0,1-5.236,5.236H5.236A5.236,5.236,0,0,1,0,8.052V0A0,0,0,0,1,0,0Z" transform="translate(21.146 56.256)" fill="none" stroke="#fff" stroke-width="2"></path><line id="Line_280" data-name="Line 280" y1="5.022" x2="0.825" transform="translate(34.633 0)" fill="none" stroke="#fff" stroke-width="2"></line><line id="Line_281" data-name="Line 281" y1="4.315" x2="2.699" transform="translate(44.561 4.301)" fill="none" stroke="#fff" stroke-width="2"></line><line id="Line_282" data-name="Line 282" y1="3.105" x2="4.032" transform="translate(51.678 11.793)" fill="none" stroke="#fff" stroke-width="2"></line><line id="Line_283" data-name="Line 283" y1="1.655" x2="4.813" transform="translate(55.894 20.829)" fill="none" stroke="#fff" stroke-width="2"></line><line id="Line_284" data-name="Line 284" x1="4.87" y1="1.478" transform="translate(0 22.633)" fill="none" stroke="#fff" stroke-width="2"></line><line id="Line_285" data-name="Line 285" x1="3.923" y1="3.243" transform="translate(5.815 11.499)" fill="none" stroke="#fff" stroke-width="2"></line><line id="Line_286" data-name="Line 286" x1="2.548" y1="4.406" transform="translate(14.353 4.106)" fill="none" stroke="#fff" stroke-width="2"></line><line id="Line_287" data-name="Line 287" x1="1.008" y1="4.988" transform="translate(23.968 0.341)" fill="none" stroke="#fff" stroke-width="2"></line></g></g></svg>