<svg id="Group_18286" data-name="Group 18286" xmlns="http://www.w3.org/2000/svg" width="392.825" height="45.238" viewBox="0 0 392.825 45.238">
  <g id="Group_18287" data-name="Group 18287">
    <path id="Path_5353" data-name="Path 5353" d="M185.445,15.228a1.94,1.94,0,0,0,2.052-1.265L188.56,2.126c0-1.173-1.372-2.126-3.1-2.126s-3.115.95-3.115,2.116l1.062,11.836a1.939,1.939,0,0,0,2.045,1.265Z" transform="translate(-17.558)" fill="#ffa91a"/>
    <path id="Path_5354" data-name="Path 5354" d="M177.229,19.935a1.933,1.933,0,0,0-.07-2.407L167.417,10.7c-1.01-.588-2.53.117-3.392,1.612s-.709,3.158.3,3.739L175.1,21.073a1.958,1.958,0,0,0,2.126-1.145Z" transform="translate(-15.74 -1.011)" fill="#ffa91a"/>
    <path id="Path_5355" data-name="Path 5355" d="M192.821,19.928a1.954,1.954,0,0,0,2.126,1.145l10.77-5.018c1.014-.581,1.159-2.25.3-3.739s-2.381-2.2-3.391-1.613l-9.738,6.826a1.941,1.941,0,0,0-.071,2.407Z" transform="translate(-18.53 -1.011)" fill="#ffa91a"/>
    <path id="Path_5356" data-name="Path 5356" d="M185.448,33.211a1.935,1.935,0,0,1,2.052,1.258l1.063,11.84c0,1.173-1.372,2.126-3.1,2.126s-3.091-.957-3.091-2.126l1.063-11.84a1.936,1.936,0,0,1,2.045-1.258Z" transform="translate(-17.561 -3.198)" fill="#ffa91a"/>
    <path id="Path_5357" data-name="Path 5357" d="M192.821,28.988a1.946,1.946,0,0,1,2.126-1.141l10.77,5.011c1.014.588,1.159,2.254.3,3.749s-2.381,2.193-3.391,1.609L192.889,31.4a1.948,1.948,0,0,1-.071-2.41Z" transform="translate(-18.53 -2.675)" fill="#ffa91a"/>
    <path id="Path_5358" data-name="Path 5358" d="M177.229,28.988a1.94,1.94,0,0,1-.07,2.41l-9.742,6.818c-1.01.585-2.53-.124-3.392-1.609s-.709-3.161.3-3.749L175.1,27.847a1.95,1.95,0,0,1,2.126,1.141Z" transform="translate(-15.74 -2.675)" fill="#ffa91a"/>
    <path id="Path_5359" data-name="Path 5359" d="M121.2,25.638c0-4.472-1.91-8.4-8.364-8.4a15.093,15.093,0,0,0-7.378,1.772l1.063,3.593a10.827,10.827,0,0,1,5.38-1.514c3.274,0,3.81,1.854,3.81,3.048v.28c-7.138,0-11.645,2.459-11.645,7.5a5.938,5.938,0,0,0,6.286,5.954,7.148,7.148,0,0,0,5.741-2.548h.12s.815,3.409,5.317,2.1a28.928,28.928,0,0,1-.312-4.752Zm-5.326,4.716a3.67,3.67,0,0,1-.135,1.063,3.741,3.741,0,0,1-3.6,2.52,2.435,2.435,0,0,1-2.651-2.609c0-2.711,2.984-3.459,6.379-3.44Z" transform="translate(-10.02 -1.66)" fill="#fff"/>
    <path id="Path_5360" data-name="Path 5360" d="M0,10.5S4.664,29.6,5.408,32.7c.868,3.621,2.431,4.961,6.942,4.054l2.914-11.847c.737-2.942,1.233-5.04,1.708-8.034h.081a77.686,77.686,0,0,0,1.418,8.044s1.183,5.38,1.789,8.2,2.3,4.607,6.734,3.633L33.922,10.5h-5.6L25.952,21.839c-.638,3.317-1.215,5.9-1.658,8.93h-.082c-.4-2.995-.917-5.476-1.566-8.694l-2.481-11.57H14.342L11.695,21.778c-.737,3.427-1.418,6.195-1.882,9.115H9.735c-.457-2.75-1.063-6.23-1.719-9.547,0,0-1.566-8.07-2.126-10.848Z" transform="translate(0 -1.011)" fill="#fff"/>
    <path id="Path_5361" data-name="Path 5361" d="M53.32,25.638c0-4.472-1.91-8.4-8.374-8.4a15.094,15.094,0,0,0-7.379,1.771l1.064,3.594a10.823,10.823,0,0,1,5.379-1.514c3.279,0,3.814,1.854,3.814,3.048v.28c-7.141,0-11.649,2.459-11.649,7.494a5.938,5.938,0,0,0,6.287,5.954,7.159,7.159,0,0,0,5.744-2.548h.121s.815,3.409,5.316,2.1a29.028,29.028,0,0,1-.312-4.752Zm-5.326,4.716a3.482,3.482,0,0,1-3.731,3.583,2.434,2.434,0,0,1-2.648-2.609c0-2.711,2.984-3.459,6.379-3.44Z" transform="translate(-3.483 -1.66)" fill="#fff"/>
    <path id="Path_5362" data-name="Path 5362" d="M64.418,31.183V10.5H59.084V36.757h5.334Z" transform="translate(-5.689 -1.011)" fill="#fff"/>
    <path id="Path_5363" data-name="Path 5363" d="M142.192,10.5V29.869c0,2.671.5,4.543,1.577,5.688a5.91,5.91,0,0,0,4.345,1.644,12.671,12.671,0,0,0,3.855-.57l-.067-4.168a8.068,8.068,0,0,1-2.027.241c-1.815,0-2.425-1.162-2.425-3.544V21.732h4.643V16.706h-4.643V10.5Z" transform="translate(-13.692 -1.011)" fill="#fff"/>
    <path id="Path_5364" data-name="Path 5364" d="M126.957,17.678V37.407h5.5v-10.1a7.639,7.639,0,0,1,.117-1.457,4.147,4.147,0,0,1,4.352-3.469,9.747,9.747,0,0,1,1.588.142V17.356a5.256,5.256,0,0,0-1.195-.113,5.8,5.8,0,0,0-5.369,4.163H131.8V17.678Z" transform="translate(-12.225 -1.66)" fill="#fff"/>
    <path id="Path_5365" data-name="Path 5365" d="M69.119,17.675V37.4h5.358V25.833a4.66,4.66,0,0,1,.252-1.612,3.633,3.633,0,0,1,3.26-2.53c2.162,0,3.19,1.832,3.19,4.469V37.4h5.354V25.709a5.5,5.5,0,0,1,.223-1.6A3.383,3.383,0,0,1,89.975,21.7c2.19,0,3.243,1.8,3.243,4.9V37.418h5.362V25.783c0-6.127-3.111-8.551-6.623-8.551a7.155,7.155,0,0,0-3.9,1.063,8.338,8.338,0,0,0-2.481,2.456H85.5a5.638,5.638,0,0,0-5.44-3.544,6.209,6.209,0,0,0-5.744,3.126h-.078V17.675Z" transform="translate(-6.655 -1.657)" fill="#fff"/>
    <path id="Path_5366" data-name="Path 5366" d="M223.586,11.231a.708.708,0,0,1,.67-.521h.581a.706.706,0,0,1,.627.408L232.8,31.53h.188l7.222-20.412a.706.706,0,0,1,.631-.408h.591a.709.709,0,0,1,.667.521l4.781,24.9c.109.518-.114.889-.667.889h-1.485a.764.764,0,0,1-.666-.521l-3.278-19.08h-.149L233.82,36.976a.751.751,0,0,1-.631.408h-.666a.751.751,0,0,1-.631-.408L225,17.415h-.167l-3.224,19.08a.708.708,0,0,1-.666.521h-1.482c-.556,0-.779-.354-.666-.889Z" transform="translate(-21.065 -1.031)" fill="#fff"/>
    <path id="Path_5367" data-name="Path 5367" d="M260.589,27.1a14.773,14.773,0,0,1,3.668.552c.039-3.147-1.481-4.7-3.927-4.7a10.407,10.407,0,0,0-3.965,1c-.443.184-.666-.035-.815-.443l-.354-1c-.149-.517.11-.74.518-.924a10.981,10.981,0,0,1,4.781-1.112c4.369,0,6.407,2.594,6.407,7.186v9.782a.622.622,0,0,1-.571.666.847.847,0,0,1-.1,0c-1.109,0-1.7-.85-1.814-2a7.443,7.443,0,0,1-5.387,2.261,5.213,5.213,0,0,1-5.316-5.6c.017-3.261,2.481-5.666,6.871-5.666m-1.063,8.778a5.929,5.929,0,0,0,4.707-2.3V30.1a8.826,8.826,0,0,0-3.633-.666c-2.37,0-4.15,1.148-4.15,3.335a2.947,2.947,0,0,0,3.065,3.111Z" transform="translate(-24.43 -1.971)" fill="#fff"/>
    <path id="Path_5368" data-name="Path 5368" d="M274.52,21.355a.62.62,0,0,1,.57-.666.565.565,0,0,1,.1,0c1.064,0,1.669.815,1.772,1.928a7.057,7.057,0,0,1,5.262-2.151c1.294,0,3.406.188,3,1.371l-.482,1.333a.647.647,0,0,1-1,.408,4.347,4.347,0,0,0-1.854-.479,5.405,5.405,0,0,0-4.629,2.183V37.139a.85.85,0,0,1-.815.815h-1.112a.826.826,0,0,1-.815-.815Z" transform="translate(-26.433 -1.97)" fill="#fff"/>
    <path id="Path_5369" data-name="Path 5369" d="M290.344,11.936a.85.85,0,0,1,.815-.815h1.112a.875.875,0,0,1,.815.815V26.42l7.113-5.964a1.606,1.606,0,0,1,1.035-.517h2.079a.591.591,0,0,1,.408,1.038l-7.9,6.556,8.484,8.445a.617.617,0,0,1-.443,1.064h-2.126a1.5,1.5,0,0,1-.854-.337l-7.8-8.246v7.8a.85.85,0,0,1-.815.815h-1.112a.825.825,0,0,1-.815-.815Z" transform="translate(-27.957 -1.071)" fill="#fff"/>
    <path id="Path_5370" data-name="Path 5370" d="M316.361,20.466a7.526,7.526,0,0,1,7.739,7.8,10.141,10.141,0,0,1-.07,1.035.8.8,0,0,1-.78.741H310.8c.07,2.835,2.481,5.854,5.592,5.854a7.943,7.943,0,0,0,4.632-1.417c.592-.408.851-.557,1.3.109l.443.631c.333.518.482.709-.149,1.184a10.5,10.5,0,0,1-6.251,1.964c-5.188,0-8.3-4.076-8.3-8.967-.007-4.816,3.1-8.93,8.3-8.93m4.993,7.364a5.008,5.008,0,0,0-4.993-4.88,5.6,5.6,0,0,0-5.529,4.88Z" transform="translate(-29.663 -1.971)" fill="#fff"/>
    <path id="Path_5371" data-name="Path 5371" d="M329.4,22.663a.808.808,0,0,1-.849-.765c0-.016,0-.033,0-.051v-.755a.786.786,0,0,1,.755-.817.676.676,0,0,1,.1,0h2.261V15.536a.875.875,0,0,1,.815-.815l1.148-.074a.765.765,0,0,1,.778.753c0,.021,0,.042,0,.062v4.816h5.039a.808.808,0,0,1,.853.76c0,.019,0,.037,0,.055v.74a.831.831,0,0,1-.849.815H334.4V32.763a2.276,2.276,0,0,0,2.3,2.555,5.234,5.234,0,0,0,2.63-.74c.666-.408.924-.074,1.063.333l.3.74c.22.557.146.854-.3,1.112a8.722,8.722,0,0,1-4.04,1.038c-3,0-4.7-2.374-4.7-5.039v-10.1Z" transform="translate(-31.636 -1.41)" fill="#fff"/>
    <path id="Path_5372" data-name="Path 5372" d="M349,45.958a.851.851,0,0,1-.815.815h-1.063a.826.826,0,0,1-.815-.815v-24.6a.619.619,0,0,1,.57-.666.565.565,0,0,1,.1,0,1.72,1.72,0,0,1,1.7,1.555,8.463,8.463,0,0,1,5.188-1.771c4.668,0,7.964,4.04,7.964,8.93,0,5-3.371,8.966-8.076,8.966a8.5,8.5,0,0,1-4.742-1.418Zm0-11.56a8.076,8.076,0,0,0,4.334,1.481c3.3,0,5.705-2.778,5.705-6.52,0-3.335-2.073-6.407-5.517-6.407A6.48,6.48,0,0,0,349,25.024Z" transform="translate(-33.346 -1.971)" fill="#fff"/>
    <path id="Path_5373" data-name="Path 5373" d="M368.886,11.936a.847.847,0,0,1,.815-.815h1.112a.872.872,0,0,1,.812.815v24.3a.847.847,0,0,1-.812.815H369.7a.821.821,0,0,1-.815-.815Z" transform="translate(-35.52 -1.071)" fill="#fff"/>
    <path id="Path_5374" data-name="Path 5374" d="M383.9,27.1a14.773,14.773,0,0,1,3.668.552c.035-3.147-1.481-4.7-3.927-4.7a10.407,10.407,0,0,0-3.965,1c-.443.184-.666-.035-.815-.443l-.354-1c-.149-.517.11-.74.518-.924a10.981,10.981,0,0,1,4.781-1.112c4.369,0,6.407,2.594,6.407,7.186v9.782a.622.622,0,0,1-.571.666.847.847,0,0,1-.1,0c-1.112,0-1.7-.85-1.814-2a7.442,7.442,0,0,1-5.373,2.261,5.213,5.213,0,0,1-5.317-5.6c0-3.261,2.449-5.666,6.857-5.666m-1.063,8.778a5.921,5.921,0,0,0,4.7-2.3V30.1a8.8,8.8,0,0,0-3.629-.666c-2.37,0-4.15,1.148-4.15,3.335a2.953,2.953,0,0,0,3.065,3.111Z" transform="translate(-36.305 -1.971)" fill="#fff"/>
    <path id="Path_5375" data-name="Path 5375" d="M405.263,20.466A7.98,7.98,0,0,1,411.49,23.3a.818.818,0,0,1-.064,1.156.675.675,0,0,1-.085.067l-.592.557c-.556.482-.889.109-1.223-.262a5.328,5.328,0,0,0-4.3-1.85c-3.261,0-5.854,2.888-5.854,6.446,0,3.628,2.558,6.481,5.744,6.481a5.561,5.561,0,0,0,4.668-2.445c.482-.556.963-.408,1.446.075l.22.223a.859.859,0,0,1,.223,1.183,7.861,7.861,0,0,1-6.446,3.449c-5.075,0-8.633-3.781-8.633-8.93a8.663,8.663,0,0,1,8.668-8.984" transform="translate(-38.188 -1.971)" fill="#fff"/>
    <path id="Path_5376" data-name="Path 5376" d="M425.228,20.466a7.529,7.529,0,0,1,7.743,7.8A10.154,10.154,0,0,1,432.9,29.3a.8.8,0,0,1-.78.741H419.671c.074,2.835,2.481,5.854,5.6,5.854a7.938,7.938,0,0,0,4.628-1.417c.6-.408.855-.557,1.3.109l.446.631c.333.518.478.709-.149,1.184a10.519,10.519,0,0,1-6.262,1.966c-5.185,0-8.3-4.075-8.3-8.966,0-4.819,3.119-8.934,8.3-8.934m5,7.364a5,5,0,0,0-5-4.891,5.606,5.606,0,0,0-5.535,4.891Z" transform="translate(-40.146 -1.971)" fill="#fff"/>
  </g>
</svg>
