<svg xmlns="http://www.w3.org/2000/svg" id="Layer_1" data-name="Layer 1" viewBox="0 0 100 100"><defs><style>.cls-1{fill:none;stroke:#1471ce;stroke-miterlimit:10;stroke-width:2px;}</style></defs><ellipse id="Ellipse_279" data-name="Ellipse 279" class="cls-1" cx="24.81" cy="32.21" rx="12.9" ry="12.88"></ellipse><path id="Path_620" data-name="Path 620" class="cls-1" d="M16,41.3a9.11,9.11,0,0,1,17.76.23"></path><circle id="Ellipse_280" data-name="Ellipse 280" class="cls-1" cx="24.84" cy="27.18" r="4.42"></circle><g id="Group_478" data-name="Group 478"><ellipse id="Ellipse_281" data-name="Ellipse 281" class="cls-1" cx="74.55" cy="38.89" rx="13.53" ry="13.52"></ellipse><path id="Path_621" data-name="Path 621" class="cls-1" d="M66.41,43.09l4.78-4.72,3.1,3.17,6.24-6.07"></path><path id="Path_622" data-name="Path 622" class="cls-1" d="M76.94,34.69H81v4.09"></path></g><path id="Ellipse_282" data-name="Ellipse 282" class="cls-1" d="M71,51.46a24.1,24.1,0,1,1-10.32-11.7"></path><path id="Path_623" data-name="Path 623" class="cls-1" d="M63.39,46.85a33.36,33.36,0,0,1-32.86-2.27"></path><path id="Path_624" data-name="Path 624" class="cls-1" d="M34.74,73.28a33.38,33.38,0,0,1,32.38,2.5"></path><path id="Path_625" data-name="Path 625" class="cls-1" d="M59.59,60.72c0,13.32-4.92,24.12-11,24.12s-11-10.8-11-24.12,4.92-24.12,11-24.12c3.25,0,6.16,3.08,8.17,8A43.62,43.62,0,0,1,59.59,60.72Z"></path><line id="Line_254" data-name="Line 254" class="cls-1" x1="24.63" y1="60.72" x2="72.87" y2="60.72"></line><path id="Path_5306" data-name="Path 5306" class="cls-1" d="M22.38,77.51l3.7,3.7-3.7,3.69"></path><path id="Path_5307" data-name="Path 5307" class="cls-1" d="M15.25,70V77.7a3.51,3.51,0,0,0,3.51,3.51h6.5"></path></svg>