<svg xmlns="http://www.w3.org/2000/svg" width="521.202" height="34" viewBox="0 0 521.202 34">
  <g id="Group_18241" data-name="Group 18241" transform="translate(-441 -1170)">
    <g id="Group_18239" data-name="Group 18239">
      <text id="February_13_2024" data-name="February 13, 2024" transform="translate(480.126 1196)" fill="#fff" font-size="24" font-family="Bogle-Regular, Bogle"><tspan x="0" y="0">February 13, 2024</tspan></text>
      <g id="Group_2" data-name="Group 2" transform="translate(441 1172)">
        <g id="Group_1" data-name="Group 1">
          <path id="Path_2" data-name="Path 2" d="M567.57,300.974c.257,2.93.765,3.786,2.212,3.769a1.893,1.893,0,0,0,1.912-1.278,14.087,14.087,0,0,0,.36-2.465H580.4c0,.546-.017,1.083,0,1.619a2.166,2.166,0,0,0,1.97,2.123,2.108,2.108,0,0,0,2.243-1.709,17.088,17.088,0,0,0,.164-2.057A28.919,28.919,0,0,1,588.1,301a2.609,2.609,0,0,1,2.31,2.717q.023,9.5,0,19a2.67,2.67,0,0,1-2.821,2.783q-11.453.011-22.9,0a2.67,2.67,0,0,1-2.861-2.828q-.02-9.453,0-18.905a2.693,2.693,0,0,1,2.531-2.808c.813-.067,1.635-.021,2.453-.02C567.047,300.937,567.284,300.959,567.57,300.974ZM588.2,306.45H564.11v16.5H588.2Z" transform="translate(-561.816 -296.57)" fill="#fcb525"/>
          <path id="Path_3" data-name="Path 3" d="M600.414,280.66c0,.817.017,1.635-.005,2.451-.022.856-.376,1.133-1.38,1.138-1.026.005-1.4-.256-1.417-1.1q-.041-2.5,0-4.994c.013-.893.38-1.15,1.468-1.137.965.012,1.315.31,1.333,1.186C600.427,279.025,600.414,279.843,600.414,280.66Z" transform="translate(-591.085 -277.018)" fill="#fcb525"/>
          <path id="Path_4" data-name="Path 4" d="M670.614,280.633c0,.848.025,1.7-.007,2.542-.031.808-.419,1.057-1.458,1.057-.755,0-1.331-.193-1.333-1.093,0-1.7-.018-3.39.008-5.085.012-.8.419-1.047,1.453-1.055.765-.006,1.327.2,1.335,1.092C670.621,278.938,670.614,279.785,670.614,280.633Z" transform="translate(-648.532 -276.998)" fill="#fcb525"/>
          <path id="Path_5" data-name="Path 5" d="M588.725,387.39h-5.331V382.4h5.331Z" transform="translate(-579.469 -363.232)" fill="#fcb525"/>
          <path id="Path_7" data-name="Path 7" d="M588.887,341v4.932h-5.31V341Z" transform="translate(-579.619 -329.362)" fill="#fcb525"/>
          <path id="Path_8" data-name="Path 8" d="M632.177,387.381h-5.258V382.39h5.258Z" transform="translate(-615.078 -363.221)" fill="#fcb525"/>
          <path id="Path_9" data-name="Path 9" d="M672.8,345.892h-5.293v-4.953H672.8Z" transform="translate(-648.285 -329.309)" fill="#fcb525"/>
          <path id="Path_10" data-name="Path 10" d="M626.92,345.824v-4.961h5.244v4.961Z" transform="translate(-615.079 -329.247)" fill="#fcb525"/>
        </g>
      </g>
    </g>
    <g id="Group_18240" data-name="Group 18240">
      <text id="_12:00_p.m._4:00_p.m." data-name="12:00 p.m. — 4:00 p.m." transform="translate(729.202 1196)" fill="#fff" font-size="24" font-family="Bogle-Regular, Bogle"><tspan x="0" y="0">12:00 p.m. — 4:00 p.m.</tspan></text>
      <g id="Group_5" data-name="Group 5" transform="translate(692 1173.083)">
        <g id="Group_3" data-name="Group 3">
          <path id="Path_11" data-name="Path 11" d="M813.153,307.155A14.153,14.153,0,1,1,827.307,293,14.169,14.169,0,0,1,813.153,307.155Zm0-26.083A11.929,11.929,0,1,0,825.083,293,11.943,11.943,0,0,0,813.153,281.072Z" transform="translate(-799 -278.848)" fill="#fcb525"/>
        </g>
        <g id="Group_4" data-name="Group 4" transform="translate(13.041 5.759)">
          <path id="Path_12" data-name="Path 12" d="M851.67,311.5l-5.76-2.857v-9.084h2.224v7.7l4.523,2.243Z" transform="translate(-845.91 -299.563)" fill="#fcb525"/>
        </g>
      </g>
    </g>
    <path id="Path_5348" data-name="Path 5348" d="M-1213,5001.726v24.6" transform="translate(1892 -3826)" fill="none" stroke="#fff" stroke-width="1" opacity="0.6"/>
  </g>
</svg>
