<svg xmlns="http://www.w3.org/2000/svg" xmlns:xlink="http://www.w3.org/1999/xlink" width="223.665" height="230.12" viewBox="0 0 223.665 230.12">
  <defs>
    <clipPath id="clip-path">
      <rect id="Rectangle_141" data-name="Rectangle 141" width="223.665" height="230.12" fill="#fff"/>
    </clipPath>
  </defs>
  <g id="Group_18226" data-name="Group 18226" opacity="0.2">
    <g id="Group_17680" data-name="Group 17680" clip-path="url(#clip-path)">
      <path id="Path_4012" data-name="Path 4012" d="M152.658,266.25v22.542h.126A22.435,22.435,0,0,0,175.2,266.362v-.172a22.435,22.435,0,0,0-22.416-22.431h-.126Z" transform="translate(-67.245 -243.435)" fill="#fff"/>
      <path id="Path_4013" data-name="Path 4013" d="M122.977,266.19v.172a22.435,22.435,0,0,0,22.416,22.431h.126V243.759h-.126a22.435,22.435,0,0,0-22.416,22.431" transform="translate(-15.067 -243.435)" fill="#fff"/>
      <path id="Path_4014" data-name="Path 4014" d="M29.862,85.34v22.542h.126A22.435,22.435,0,0,0,52.4,85.452V85.28A22.435,22.435,0,0,0,29.988,62.849h-.126Z" transform="translate(148.626 74.6)" fill="#fff"/>
      <path id="Path_4015" data-name="Path 4015" d="M.181,85.28v.172A22.436,22.436,0,0,0,22.6,107.882h.126V62.849H22.6A22.436,22.436,0,0,0,.181,85.28" transform="translate(200.805 74.6)" fill="#fff"/>
      <path id="Path_4016" data-name="Path 4016" d="M84.278,212.531a22.435,22.435,0,0,1-22.431,22.416,22.435,22.435,0,0,1,22.431-22.416" transform="translate(92.509 -165.92)" fill="#fff"/>
      <path id="Path_4017" data-name="Path 4017" d="M91.668,212.531A22.435,22.435,0,0,0,114.1,234.947a22.435,22.435,0,0,0-22.431-22.416" transform="translate(40.085 -165.92)" fill="#fff"/>
      <path id="Path_4018" data-name="Path 4018" d="M91.668,205.432A22.435,22.435,0,0,1,114.1,183.016a22.435,22.435,0,0,1-22.431,22.416" transform="translate(40.085 -114.033)" fill="#fff"/>
      <path id="Path_4019" data-name="Path 4019" d="M84.278,205.432a22.435,22.435,0,0,0-22.431-22.416,22.435,22.435,0,0,0,22.431,22.416" transform="translate(92.509 -114.033)" fill="#fff"/>
      <path id="Path_4020" data-name="Path 4020" d="M153.206,142.646a22.435,22.435,0,0,1,22.431-22.416,22.436,22.436,0,0,1-22.431,22.416" transform="translate(-68.097 -3.657)" fill="#fff"/>
      <path id="Path_4021" data-name="Path 4021" d="M145.816,142.646a22.435,22.435,0,0,0-22.431-22.416,22.436,22.436,0,0,0,22.431,22.416" transform="translate(-15.673 -3.657)" fill="#fff"/>
      <path id="Path_4022" data-name="Path 4022" d="M153.206,172.328a22.436,22.436,0,0,1,22.431-22.417,22.437,22.437,0,0,1-22.431,22.417" transform="translate(-68.097 -55.836)" fill="#fff"/>
      <path id="Path_4023" data-name="Path 4023" d="M145.816,172.328a22.436,22.436,0,0,0-22.431-22.417,22.437,22.437,0,0,0,22.431,22.417" transform="translate(-15.673 -55.836)" fill="#fff"/>
      <path id="Path_4024" data-name="Path 4024" d="M1.817,144.064a22.435,22.435,0,0,1,22.431-22.416A22.435,22.435,0,0,1,1.817,144.064" transform="translate(198.04 -6.15)" fill="#fff"/>
      <path id="Path_4025" data-name="Path 4025" d="M53.692,144.064a22.435,22.435,0,0,0-22.431-22.416,22.435,22.435,0,0,0,22.431,22.416" transform="translate(146.278 -6.15)" fill="#fff"/>
      <path id="Path_4026" data-name="Path 4026" d="M1.817,173.745a22.435,22.435,0,0,1,22.431-22.416A22.435,22.435,0,0,1,1.817,173.745" transform="translate(198.04 -58.328)" fill="#fff"/>
      <path id="Path_4027" data-name="Path 4027" d="M53.692,173.745a22.435,22.435,0,0,0-22.431-22.416,22.435,22.435,0,0,0,22.431,22.416" transform="translate(146.278 -58.328)" fill="#fff"/>
      <rect id="Rectangle_137" data-name="Rectangle 137" width="22.542" height="22.542" transform="translate(177.539 69.325)" fill="#fff"/>
      <rect id="Rectangle_138" data-name="Rectangle 138" width="22.542" height="22.542" transform="translate(200.091 46.745)" fill="#fff"/>
      <rect id="Rectangle_139" data-name="Rectangle 139" width="22.542" height="22.542" transform="translate(133.131 207.577)" fill="#fff"/>
      <rect id="Rectangle_140" data-name="Rectangle 140" width="22.542" height="22.542" transform="translate(155.683 184.996)" fill="#fff"/>
      <path id="Path_4028" data-name="Path 4028" d="M227.379,200.927a22.436,22.436,0,1,0-22.436,22.436,22.436,22.436,0,0,0,22.436-22.436" transform="translate(-142.049 -128.534)" fill="#fff"/>
      <path id="Path_4029" data-name="Path 4029" d="M132.194,221.776l15.94,15.939,15.939-15.939Z" transform="translate(-40.608 -175.695)" fill="#fff"/>
      <path id="Path_4030" data-name="Path 4030" d="M132.194,201.339l15.94,15.94,15.939-15.94Z" transform="translate(-40.608 -139.768)" fill="#fff"/>
      <path id="Path_4031" data-name="Path 4031" d="M132.222,179.671l15.939,15.94,15.94-15.94Z" transform="translate(-40.657 -101.677)" fill="#fff"/>
      <path id="Path_4032" data-name="Path 4032" d="M190,278.907l15.94,15.94,15.939-15.94Z" transform="translate(-142.224 -276.131)" fill="#fff"/>
      <path id="Path_4137" data-name="Path 4137" d="M190,278.907l15.94,15.94,15.939-15.94Z" transform="translate(-49.444 -173.624)" fill="#fff"/>
      <path id="Path_4033" data-name="Path 4033" d="M190,258.471l15.94,15.94,15.939-15.94Z" transform="translate(-142.224 -240.204)" fill="#fff"/>
      <path id="Path_4136" data-name="Path 4136" d="M190,258.471l15.94,15.94,15.939-15.94Z" transform="translate(-49.444 -137.698)" fill="#fff"/>
      <path id="Path_4034" data-name="Path 4034" d="M190.025,236.8l15.94,15.94L221.9,236.8Z" transform="translate(-142.272 -202.113)" fill="#fff"/>
      <path id="Path_4135" data-name="Path 4135" d="M190.025,236.8l15.94,15.94L221.9,236.8Z" transform="translate(-49.493 -99.607)" fill="#fff"/>
      <path id="Path_4035" data-name="Path 4035" d="M106.826,266.224A22.436,22.436,0,1,0,84.39,288.66a22.436,22.436,0,0,0,22.436-22.436" transform="translate(69.88 -243.324)" fill="#fff"/>
      <path id="Path_4036" data-name="Path 4036" d="M29.82,266.927a22.435,22.435,0,0,1,22.431-22.416A22.436,22.436,0,0,1,29.82,266.927" transform="translate(148.812 -222.139)" fill="#fff"/>
      <path id="Path_4037" data-name="Path 4037" d="M22.431,266.927A22.435,22.435,0,0,0,0,244.511a22.436,22.436,0,0,0,22.431,22.416" transform="translate(201.234 -222.139)" fill="#fff"/>
      <path id="Path_4038" data-name="Path 4038" d="M22.431,274.026A22.435,22.435,0,0,1,0,296.442a22.435,22.435,0,0,1,22.431-22.416" transform="translate(201.234 -274.026)" fill="#fff"/>
      <path id="Path_4039" data-name="Path 4039" d="M29.82,274.026a22.435,22.435,0,0,0,22.431,22.416A22.435,22.435,0,0,0,29.82,274.026" transform="translate(148.812 -274.026)" fill="#fff"/>
      <path id="Path_4040" data-name="Path 4040" d="M265.491,265.509a22.435,22.435,0,0,1,22.431-22.416,22.436,22.436,0,0,1-22.431,22.416" transform="translate(-265.491 -219.647)" fill="#fff"/>
      <path id="Path_4140" data-name="Path 4140" d="M265.491,265.509a22.435,22.435,0,0,1,22.431-22.416,22.436,22.436,0,0,1-22.431,22.416" transform="translate(-134.088 -81.307)" fill="#fff"/>
      <path id="Path_4041" data-name="Path 4041" d="M258.1,265.509a22.435,22.435,0,0,0-22.431-22.416A22.436,22.436,0,0,0,258.1,265.509" transform="translate(-213.067 -219.647)" fill="#fff"/>
      <path id="Path_4139" data-name="Path 4139" d="M258.1,265.509a22.435,22.435,0,0,0-22.431-22.416A22.436,22.436,0,0,0,258.1,265.509" transform="translate(-81.315 -81.967)" fill="#fff"/>
      <path id="Path_4042" data-name="Path 4042" d="M258.1,272.609a22.435,22.435,0,0,1-22.431,22.416A22.436,22.436,0,0,1,258.1,272.609" transform="translate(-213.067 -271.535)" fill="#fff"/>
      <path id="Path_4043" data-name="Path 4043" d="M265.491,272.609a22.435,22.435,0,0,0,22.431,22.416,22.436,22.436,0,0,0-22.431-22.416" transform="translate(-265.491 -271.535)" fill="#fff"/>
    </g>
  </g>
</svg>
