<svg xmlns="http://www.w3.org/2000/svg" xmlns:xlink="http://www.w3.org/1999/xlink" width="223.665" height="230.12" viewBox="0 0 223.665 230.12">
  <defs>
    <clipPath id="clip-path">
      <rect id="Rectangle_141" data-name="Rectangle 141" width="223.665" height="230.12" fill="#fff"/>
    </clipPath>
  </defs>
  <g id="Group_18225" data-name="Group 18225" transform="translate(0)" opacity="0.2">
    <g id="Group_17680" data-name="Group 17680" transform="translate(0)" clip-path="url(#clip-path)">
      <path id="Path_4012" data-name="Path 4012" d="M175.2,266.3V243.759h-.126a22.435,22.435,0,0,0-22.416,22.431v.172a22.435,22.435,0,0,0,22.416,22.431h.126Z" transform="translate(-36.948 -58.997)" fill="#fff"/>
      <path id="Path_4013" data-name="Path 4013" d="M145.519,266.362v-.172A22.435,22.435,0,0,0,123.1,243.759h-.126v45.033h.126a22.435,22.435,0,0,0,22.416-22.431" transform="translate(-29.764 -58.997)" fill="#fff"/>
      <path id="Path_4014" data-name="Path 4014" d="M52.4,85.391V62.849h-.126A22.435,22.435,0,0,0,29.862,85.28v.172a22.435,22.435,0,0,0,22.416,22.431H52.4Z" transform="translate(-7.227 -15.211)" fill="#fff"/>
      <path id="Path_4015" data-name="Path 4015" d="M22.723,85.452V85.28A22.436,22.436,0,0,0,.307,62.849H.181v45.033H.307A22.436,22.436,0,0,0,22.723,85.452" transform="translate(-0.044 -15.211)" fill="#fff"/>
      <path id="Path_4016" data-name="Path 4016" d="M61.847,234.947a22.435,22.435,0,0,1,22.431-22.416,22.435,22.435,0,0,1-22.431,22.416" transform="translate(-14.969 -51.439)" fill="#fff"/>
      <path id="Path_4017" data-name="Path 4017" d="M114.1,234.947a22.435,22.435,0,0,0-22.431-22.416A22.435,22.435,0,0,0,114.1,234.947" transform="translate(-22.186 -51.439)" fill="#fff"/>
      <path id="Path_4018" data-name="Path 4018" d="M114.1,183.016a22.435,22.435,0,0,1-22.431,22.416A22.435,22.435,0,0,1,114.1,183.016" transform="translate(-22.186 -44.295)" fill="#fff"/>
      <path id="Path_4019" data-name="Path 4019" d="M61.847,183.016a22.435,22.435,0,0,0,22.431,22.416,22.435,22.435,0,0,0-22.431-22.416" transform="translate(-14.969 -44.295)" fill="#fff"/>
      <path id="Path_4020" data-name="Path 4020" d="M175.637,120.23a22.435,22.435,0,0,1-22.431,22.416,22.436,22.436,0,0,1,22.431-22.416" transform="translate(-37.08 -29.099)" fill="#fff"/>
      <path id="Path_4021" data-name="Path 4021" d="M123.385,120.23a22.435,22.435,0,0,0,22.431,22.416,22.436,22.436,0,0,0-22.431-22.416" transform="translate(-29.863 -29.099)" fill="#fff"/>
      <path id="Path_4022" data-name="Path 4022" d="M175.637,149.911a22.436,22.436,0,0,1-22.431,22.417,22.437,22.437,0,0,1,22.431-22.417" transform="translate(-37.08 -36.283)" fill="#fff"/>
      <path id="Path_4023" data-name="Path 4023" d="M123.385,149.911a22.436,22.436,0,0,0,22.431,22.417,22.437,22.437,0,0,0-22.431-22.417" transform="translate(-29.863 -36.283)" fill="#fff"/>
      <path id="Path_4024" data-name="Path 4024" d="M24.248,121.648A22.435,22.435,0,0,1,1.817,144.064a22.435,22.435,0,0,1,22.431-22.416" transform="translate(-0.44 -29.442)" fill="#fff"/>
      <path id="Path_4025" data-name="Path 4025" d="M31.261,121.648a22.435,22.435,0,0,0,22.431,22.416,22.435,22.435,0,0,0-22.431-22.416" transform="translate(-7.566 -29.442)" fill="#fff"/>
      <path id="Path_4026" data-name="Path 4026" d="M24.248,151.329A22.435,22.435,0,0,1,1.817,173.745a22.435,22.435,0,0,1,22.431-22.416" transform="translate(-0.44 -36.626)" fill="#fff"/>
      <path id="Path_4027" data-name="Path 4027" d="M31.261,151.329a22.435,22.435,0,0,0,22.431,22.416,22.435,22.435,0,0,0-22.431-22.416" transform="translate(-7.566 -36.626)" fill="#fff"/>
      <rect id="Rectangle_137" data-name="Rectangle 137" width="22.542" height="22.542" transform="translate(23.583 138.252)" fill="#fff"/>
      <rect id="Rectangle_138" data-name="Rectangle 138" width="22.542" height="22.542" transform="translate(1.032 160.833)" fill="#fff"/>
      <rect id="Rectangle_139" data-name="Rectangle 139" width="22.542" height="22.542" transform="translate(67.991 0.001)" fill="#fff"/>
      <rect id="Rectangle_140" data-name="Rectangle 140" width="22.542" height="22.542" transform="translate(45.44 22.581)" fill="#fff"/>
      <path id="Path_4028" data-name="Path 4028" d="M182.507,200.927a22.436,22.436,0,1,0,22.436-22.436,22.436,22.436,0,0,0-22.436,22.436" transform="translate(-44.172 -43.2)" fill="#fff"/>
      <path id="Path_4029" data-name="Path 4029" d="M164.074,237.715l-15.94-15.939-15.939,15.939Z" transform="translate(-31.995 -53.676)" fill="#fff"/>
      <path id="Path_4030" data-name="Path 4030" d="M164.074,217.279l-15.94-15.94-15.939,15.94Z" transform="translate(-31.995 -48.73)" fill="#fff"/>
      <path id="Path_4031" data-name="Path 4031" d="M164.1,195.611l-15.939-15.94-15.94,15.94Z" transform="translate(-32.002 -43.486)" fill="#fff"/>
      <path id="Path_4032" data-name="Path 4032" d="M221.876,294.847l-15.94-15.94L190,294.847Z" transform="translate(-45.985 -67.504)" fill="#fff"/>
      <path id="Path_4137" data-name="Path 4137" d="M221.876,294.847l-15.94-15.94L190,294.847Z" transform="translate(-138.764 -170.011)" fill="#fff"/>
      <path id="Path_4033" data-name="Path 4033" d="M221.876,274.411l-15.94-15.94L190,274.411Z" transform="translate(-45.985 -62.558)" fill="#fff"/>
      <path id="Path_4136" data-name="Path 4136" d="M221.876,274.411l-15.94-15.94L190,274.411Z" transform="translate(-138.764 -165.065)" fill="#fff"/>
      <path id="Path_4034" data-name="Path 4034" d="M221.9,252.743l-15.94-15.94-15.939,15.94Z" transform="translate(-45.992 -57.313)" fill="#fff"/>
      <path id="Path_4135" data-name="Path 4135" d="M221.9,252.743l-15.94-15.94-15.939,15.94Z" transform="translate(-138.771 -159.82)" fill="#fff"/>
      <path id="Path_4035" data-name="Path 4035" d="M61.954,266.224A22.436,22.436,0,1,0,84.39,243.788a22.436,22.436,0,0,0-22.436,22.436" transform="translate(-14.995 -59.004)" fill="#fff"/>
      <path id="Path_4036" data-name="Path 4036" d="M52.251,244.511A22.435,22.435,0,0,1,29.82,266.927a22.436,22.436,0,0,1,22.431-22.416" transform="translate(-7.217 -59.179)" fill="#fff"/>
      <path id="Path_4037" data-name="Path 4037" d="M0,244.511a22.435,22.435,0,0,0,22.431,22.416A22.436,22.436,0,0,0,0,244.511" transform="translate(0 -59.179)" fill="#fff"/>
      <path id="Path_4038" data-name="Path 4038" d="M0,296.442a22.435,22.435,0,0,1,22.431-22.416A22.435,22.435,0,0,1,0,296.442" transform="translate(0 -66.322)" fill="#fff"/>
      <path id="Path_4039" data-name="Path 4039" d="M52.251,296.442A22.435,22.435,0,0,0,29.82,274.026a22.435,22.435,0,0,0,22.431,22.416" transform="translate(-7.217 -66.322)" fill="#fff"/>
      <path id="Path_4040" data-name="Path 4040" d="M287.922,243.093a22.435,22.435,0,0,1-22.431,22.416,22.436,22.436,0,0,1,22.431-22.416" transform="translate(-64.257 -58.836)" fill="#fff"/>
      <path id="Path_4140" data-name="Path 4140" d="M287.922,243.093a22.435,22.435,0,0,1-22.431,22.416,22.436,22.436,0,0,1,22.431-22.416" transform="translate(-195.66 -197.176)" fill="#fff"/>
      <path id="Path_4041" data-name="Path 4041" d="M235.67,243.093A22.435,22.435,0,0,0,258.1,265.509a22.436,22.436,0,0,0-22.431-22.416" transform="translate(-57.039 -58.836)" fill="#fff"/>
      <path id="Path_4139" data-name="Path 4139" d="M235.67,243.093A22.435,22.435,0,0,0,258.1,265.509a22.436,22.436,0,0,0-22.431-22.416" transform="translate(-188.79 -196.516)" fill="#fff"/>
      <path id="Path_4042" data-name="Path 4042" d="M235.67,295.025A22.435,22.435,0,0,1,258.1,272.609a22.436,22.436,0,0,1-22.431,22.416" transform="translate(-57.039 -65.979)" fill="#fff"/>
      <path id="Path_4043" data-name="Path 4043" d="M287.922,295.025a22.435,22.435,0,0,0-22.431-22.416,22.436,22.436,0,0,0,22.431,22.416" transform="translate(-64.257 -65.979)" fill="#fff"/>
    </g>
  </g>
</svg>
