<svg xmlns="http://www.w3.org/2000/svg" width="84" height="84" viewBox="0 0 84 84">
  <g id="Group_18337" data-name="Group 18337" transform="translate(-186 -2950)">
    <circle id="Ellipse_222" data-name="Ellipse 222" cx="42" cy="42" r="42" transform="translate(186 2950)" fill="#2b85de"/>
    <g id="Group_18336" data-name="Group 18336" transform="translate(7.329 -10.138)">
      <g id="Group_18334" data-name="Group 18334" transform="translate(196.671 2981.472)">
        <g id="Group_18335" data-name="Group 18335" transform="translate(0 0)">
          <path id="Path_5550" data-name="Path 5550" d="M28.261,15.316a7.666,7.666,0,0,1,7.491,7.827,7.666,7.666,0,0,1-7.491,7.827" transform="translate(6.394 -4.74)" fill="none" stroke="#fff" stroke-width="1.4"/>
          <path id="Path_5551" data-name="Path 5551" d="M43.626,46.237,8.97,38.7V16.282L43.626,9.429Z" transform="translate(-8.97 -9.429)" fill="none" stroke="#fff" stroke-width="1.4"/>
          <path id="Path_5552" data-name="Path 5552" d="M11.989,26.377l6.877,14.877a5.071,5.071,0,0,0,6.487,2.691,5.472,5.472,0,0,0,2.919-7.109l-3.018-7.572" transform="translate(-6.566 4.07)" fill="none" stroke="#fff" stroke-width="1.4"/>
          <line id="Line_18" data-name="Line 18" y1="20.87" transform="translate(3.848 9.236)" fill="none" stroke="#fff" stroke-width="1.4"/>
          <line id="Line_19" data-name="Line 19" x2="5.661" transform="translate(45.149 18.404)" fill="none" stroke="#fff" stroke-width="1.4"/>
          <line id="Line_20" data-name="Line 20" x2="4.599" y2="3.449" transform="translate(42.087 26.9)" fill="none" stroke="#fff" stroke-width="1.4"/>
          <line id="Line_21" data-name="Line 21" y1="3.485" x2="4.574" transform="translate(42.646 6.192)" fill="none" stroke="#fff" stroke-width="1.4"/>
          <line id="Line_22" data-name="Line 22" x2="2.763" y2="1.265" transform="translate(44.459 23.023)" fill="none" stroke="#fff" stroke-width="1.4"/>
          <line id="Line_23" data-name="Line 23" y1="0.986" x2="3.025" transform="translate(44.485 12.798)" fill="none" stroke="#fff" stroke-width="1.4"/>
        </g>
      </g>
    </g>
  </g>
</svg>
