<svg id="Group_18306" data-name="Group 18306" xmlns="http://www.w3.org/2000/svg" width="80" height="80" viewBox="0 0 80 80">
  <path id="Path_5402" data-name="Path 5402" d="M80,40A40,40,0,1,1,40,0,40,40,0,0,1,80,40" fill="#76b22e"/>
  <path id="Path_5403" data-name="Path 5403" d="M32.836,56.925a24.128,24.128,0,1,1,6.267-.832,24.175,24.175,0,0,1-6.267.832m.074-45.287a21.235,21.235,0,1,0,10.574,2.85,21.269,21.269,0,0,0-10.574-2.85" transform="translate(7.133 7.131)" fill="#fff"/>
  <path id="Path_5404" data-name="Path 5404" d="M20.784,27.907v2.012H19.91V27.925a6.58,6.58,0,0,1-4.186-1.594l.51-1A5.951,5.951,0,0,0,19.91,26.8V22.2c-1.928-.474-3.887-1.069-3.887-3.379,0-1.681,1.207-3.133,3.887-3.343V13.466h.874v2a6.86,6.86,0,0,1,3.555,1.085L23.9,17.58a6.488,6.488,0,0,0-3.115-1.015V21.2c1.979.472,4.059,1.033,4.059,3.379,0,1.7-1.277,3.167-4.059,3.325m-.874-6.932V16.6c-1.8.157-2.61,1.085-2.61,2.189,0,1.33,1.174,1.82,2.61,2.187m3.656,3.676c0-1.382-1.275-1.854-2.782-2.223V26.8c1.925-.139,2.782-1.033,2.782-2.153" transform="translate(19.721 17.778)" fill="#fff"/>
  <rect id="Rectangle_5068" data-name="Rectangle 5068" width="6.684" height="2.001" transform="matrix(0.602, -0.798, 0.798, 0.602, 46.292, 29.292)" fill="#fff"/>
  <rect id="Rectangle_5069" data-name="Rectangle 5069" width="6.684" height="1.999" transform="translate(27.276 54.348) rotate(-52.943)" fill="#fff"/>
</svg>
