<svg version="1.2" xmlns="http://www.w3.org/2000/svg" viewBox="0 0 522 34" width="522" height="34">
	<title>time-svg</title>
	<style>
		.s0 { fill: #ffffff } 
		.s1 { fill: #fcb525 } 
	</style>
	<g id="Group_18279">
		<g id="Group_18239">
			<path id="February 13, 2024" class="s0" aria-label="February 13, 2024"  d="m41.5 26v-17.5h10v2h-7.7v5.2h7v1.9h-7v8.4zm23.7-7.1v1.1h-9.9q0.1 2.2 1.3 3.4 1.2 1.1 3.3 1.1 1.3 0 2.4-0.3 1.2-0.3 2.4-0.9v2q-1.2 0.5-2.4 0.8-1.2 0.2-2.5 0.2-3.1 0-5-1.8-1.8-1.8-1.8-4.9 0-3.3 1.7-5.1 1.8-1.9 4.7-1.9 2.7 0 4.2 1.7 1.6 1.7 1.6 4.6zm-9.9-0.6h7.7q0-1.8-1-2.9-0.9-1-2.5-1-1.8 0-2.9 1-1.1 1-1.3 2.9zm22.8 1.1q0-2.3-0.9-3.7-1-1.3-2.7-1.3-1.7 0-2.7 1.3-1 1.4-1 3.7 0 2.4 1 3.8 1 1.3 2.7 1.3 1.7 0 2.7-1.3 0.9-1.4 0.9-3.8zm-7.3-11.6v7.1q0.7-1.2 1.7-1.8 1.1-0.5 2.5-0.5 2.4 0 3.9 1.9 1.5 1.9 1.5 4.9 0 3.1-1.5 5-1.5 1.9-3.9 1.9-1.4 0-2.5-0.5-1-0.6-1.7-1.8v2h-2.2v-18.2zm20.8 4.9v2.2q-0.4-0.2-0.8-0.3-0.4-0.1-0.9-0.1-1.9 0-2.9 1.2-0.9 1.2-0.9 3.4v6.9h-2.2v-13.1h2.2v2q0.6-1.2 1.7-1.8 1.1-0.5 2.7-0.5 0.2 0 0.5 0 0.2 0 0.6 0.1zm2 8.1v-7.9h2.2v7.8q0 1.9 0.7 2.8 0.7 1 2.2 1 1.7 0 2.7-1.1 1.1-1.2 1.1-3.1v-7.4h2.1v13.1h-2.1v-2q-0.8 1.2-1.9 1.8-1 0.5-2.4 0.5-2.2 0-3.4-1.4-1.2-1.4-1.2-4.1zm5.4-8.2zm18.2 6.8h-2.2q-2.6 0-3.6 0.6-1 0.6-1 2 0 1.2 0.7 1.9 0.8 0.6 2.1 0.6 1.8 0 2.9-1.2 1.1-1.3 1.1-3.4zm2.1-0.9v7.5h-2.1v-2q-0.8 1.2-1.9 1.8-1.1 0.5-2.7 0.5-2 0-3.2-1.1-1.2-1.1-1.2-3 0-2.3 1.5-3.4 1.5-1.1 4.4-1.1h3.1v-0.2q0-1.5-1-2.3-1-0.8-2.8-0.8-1.1 0-2.2 0.2-1 0.3-2 0.8v-1.9q1.2-0.5 2.3-0.7 1.1-0.3 2.2-0.3 2.8 0 4.2 1.5 1.4 1.5 1.4 4.5zm12.1-5.8v2.2q-0.4-0.2-0.8-0.3-0.4-0.1-1-0.1-1.8 0-2.8 1.2-0.9 1.1-0.9 3.4v6.9h-2.2v-13.1h2.2v2q0.6-1.2 1.7-1.8 1.1-0.6 2.7-0.6 0.2 0 0.5 0.1 0.2 0 0.6 0.1zm13.5 0.2l-5.8 14.3q-0.9 2.3-1.8 3.1-0.9 0.7-2.3 0.7h-1.7v-1.8h1.2q0.9 0 1.4-0.5 0.5-0.4 1.1-1.9l0.4-1-5.3-12.9h2.3l4.1 10.2 4.1-10.2zm11.3 13.1v-2h3.9v-13.4l-4.2 0.9v-2.2l4.1-0.8h2.4v15.5h3.9v2zm22-9.5q1.7 0.4 2.7 1.6 0.9 1.1 0.9 2.8 0 2.6-1.8 4-1.8 1.4-5 1.4-1.1 0-2.3-0.2-1.2-0.2-2.4-0.6v-2.3q1 0.5 2.1 0.8 1.2 0.3 2.5 0.3 2.2 0 3.4-0.9 1.2-0.8 1.2-2.5 0-1.6-1.1-2.4-1.1-0.9-3-0.9h-2.1v-1.9h2.1q1.8 0 2.7-0.7 0.9-0.7 0.9-2.1 0-1.3-0.9-2-1-0.7-2.7-0.7-1 0-2.1 0.2-1.1 0.2-2.5 0.6v-2.1q1.4-0.4 2.5-0.5 1.2-0.2 2.3-0.2 2.7 0 4.2 1.2 1.6 1.2 1.6 3.3 0 1.5-0.8 2.5-0.9 1-2.4 1.3zm8.3 8.5v-2h2.5v2l-1.9 3.8h-1.5zm17-1.1h8.3v2h-11.1v-2q1.3-1.4 3.7-3.7 2.3-2.4 2.9-3 1.1-1.3 1.6-2.2 0.4-0.9 0.4-1.7 0-1.4-1-2.3-0.9-0.9-2.5-0.9-1.1 0-2.4 0.4-1.2 0.4-2.6 1.2v-2.4q1.4-0.6 2.7-0.9 1.2-0.3 2.3-0.3 2.7 0 4.3 1.4 1.6 1.3 1.6 3.6 0 1.1-0.4 2.1-0.4 0.9-1.5 2.2-0.3 0.4-1.8 2-1.6 1.6-4.5 4.5zm18.3-13.9q-1.8 0-2.7 1.8-0.9 1.8-0.9 5.4 0 3.6 0.9 5.4 0.9 1.8 2.7 1.8 1.9 0 2.8-1.8 0.9-1.8 0.9-5.4 0-3.6-0.9-5.4-0.9-1.8-2.8-1.8zm0-1.9q3 0 4.5 2.3 1.6 2.4 1.6 6.8 0 4.4-1.6 6.7-1.5 2.4-4.5 2.4-2.9 0-4.5-2.4-1.5-2.3-1.5-6.7 0-4.4 1.5-6.8 1.6-2.3 4.5-2.3zm12.3 15.8h8.2v2h-11.1v-2q1.4-1.4 3.7-3.7 2.3-2.4 2.9-3 1.2-1.3 1.6-2.2 0.5-0.9 0.5-1.7 0-1.4-1-2.3-1-0.9-2.6-0.9-1.1 0-2.3 0.4-1.2 0.4-2.7 1.2v-2.4q1.5-0.6 2.7-0.9 1.3-0.3 2.3-0.3 2.7 0 4.3 1.4 1.6 1.3 1.6 3.6 0 1.1-0.4 2.1-0.4 0.9-1.4 2.2-0.3 0.4-1.9 2-1.6 1.6-4.4 4.5zm19.7-4.1v-9.3l-6 9.3zm-7.9-0.3l7.3-11.1h3v11.4h2.5v2h-2.5v4.1h-2.4v-4.1h-7.9z"/>
			<g id="Group_2">
				<g id="Group_1">
					<path id="Path_2" fill-rule="evenodd" class="s1" d="m5.8 6.4c0.2 2.9 0.7 3.8 2.2 3.8q0.3 0 0.6-0.1 0.3-0.1 0.5-0.2 0.3-0.2 0.5-0.5 0.2-0.2 0.3-0.5 0.1-0.3 0.1-0.6 0.1-0.3 0.1-0.6 0.1-0.3 0.1-0.6 0-0.4 0-0.7h8.4q0 0.8 0 1.6 0 0.4 0.1 0.8 0.2 0.4 0.5 0.7 0.2 0.3 0.6 0.5 0.4 0.1 0.8 0.2 0.3 0 0.7-0.1 0.4-0.1 0.7-0.4 0.3-0.2 0.5-0.5 0.2-0.4 0.3-0.7 0-0.3 0.1-0.5 0-0.3 0-0.6 0-0.2 0-0.5 0.1-0.2 0.1-0.5 0.4 0 0.8 0 0.4 0 0.8 0 0.4 0 0.9 0 0.4 0 0.8 0 0.5 0.1 0.9 0.3 0.5 0.3 0.8 0.6 0.3 0.4 0.5 0.9 0.1 0.5 0.1 0.9 0 9.5 0 19 0 0.6-0.2 1.1-0.2 0.6-0.6 1-0.4 0.4-0.9 0.6-0.6 0.2-1.1 0.1-11.5 0-22.9 0-0.6 0.1-1.1-0.1-0.6-0.2-1-0.6-0.4-0.4-0.6-1-0.2-0.5-0.2-1.1 0-9.5 0-18.9 0-0.5 0.2-1 0.1-0.5 0.5-0.9 0.4-0.4 0.8-0.6 0.5-0.3 1-0.3c0.9-0.1 1.7 0 2.5 0q0.3 0 0.8 0zm20.6 5.5h-24.1v16.5h24.1z"/>
					<path id="Path_3" class="s1" d="m9.3 5.6q0 1.3 0 2.5c0 0.8-0.4 1.1-1.4 1.1-1 0-1.4-0.2-1.4-1.1q0-2.5 0-5c0-0.9 0.4-1.1 1.5-1.1 1 0 1.3 0.3 1.3 1.2q0 1.2 0 2.4z"/>
					<path id="Path_4" class="s1" d="m22.1 5.6c0 0.9 0 1.7 0 2.6-0.1 0.8-0.4 1-1.5 1-0.7 0-1.3-0.2-1.3-1.1 0-1.7 0-3.3 0-5 0-0.8 0.4-1.1 1.4-1.1 0.8 0 1.4 0.2 1.4 1.1q0 1.3 0 2.5z"/>
					<path id="Path_5" class="s1" d="m9.3 26.2h-5.4v-5h5.4z"/>
					<path id="Path_7" class="s1" d="m9.3 13.6v5h-5.3v-5z"/>
					<path id="Path_8" class="s1" d="m17.1 26.2h-5.3v-5h5.3z"/>
					<path id="Path_9" class="s1" d="m24.5 18.6h-5.3v-5h5.3z"/>
					<path id="Path_10" class="s1" d="m11.8 18.6v-5h5.3v5z"/>
				</g>
			</g>
		</g>
		<g id="Group_18240">
			<path id="12:00 p.m. — 4:00 p.m." class="s0" aria-label="12:00 p.m. — 4:00 p.m."  d="m291.2 26v-2h3.8v-13.3l-4.2 0.8v-2.2l4.2-0.8h2.4v15.5h3.9v2zm16.9-2h8.2v2h-11.1v-2q1.4-1.4 3.7-3.7 2.3-2.4 2.9-3.1 1.1-1.2 1.6-2.1 0.4-0.9 0.4-1.8 0-1.4-0.9-2.2-1-0.9-2.6-0.9-1.1 0-2.3 0.4-1.3 0.4-2.7 1.1v-2.4q1.5-0.5 2.7-0.8 1.2-0.3 2.3-0.3 2.7 0 4.3 1.3 1.6 1.4 1.6 3.7 0 1.1-0.4 2-0.4 1-1.5 2.3-0.2 0.3-1.8 2-1.6 1.6-4.4 4.5zm13.4 2v-3h2.5v3zm0-9.4v-3h2.5v3zm12.9-6.5q-1.8 0-2.8 1.8-0.9 1.8-0.9 5.4 0 3.6 0.9 5.4 1 1.8 2.8 1.8 1.8 0 2.7-1.8 1-1.8 1-5.4 0-3.6-1-5.4-0.9-1.8-2.7-1.8zm0-1.9q2.9 0 4.5 2.3 1.5 2.3 1.5 6.8 0 4.4-1.5 6.7-1.6 2.3-4.5 2.3-3 0-4.5-2.3-1.6-2.3-1.6-6.7 0-4.5 1.6-6.8 1.5-2.3 4.5-2.3zm15.2 1.9q-1.8 0-2.7 1.8-0.9 1.8-0.9 5.4 0 3.6 0.9 5.4 0.9 1.8 2.7 1.8 1.9 0 2.8-1.8 0.9-1.8 0.9-5.4 0-3.6-0.9-5.4-0.9-1.8-2.8-1.8zm0-1.9q3 0 4.5 2.3 1.6 2.3 1.6 6.8 0 4.4-1.6 6.7-1.5 2.3-4.5 2.3-2.9 0-4.5-2.3-1.5-2.3-1.5-6.7 0-4.5 1.5-6.8 1.6-2.3 4.5-2.3zm19.7 15.8v7h-2.2v-18.1h2.2v2q0.6-1.2 1.7-1.8 1-0.5 2.5-0.5 2.4 0 3.8 1.9 1.5 1.9 1.5 4.9 0 3.1-1.5 5-1.4 1.9-3.8 1.9-1.5 0-2.5-0.5-1.1-0.6-1.7-1.8zm7.3-4.6q0-2.3-1-3.7-1-1.3-2.7-1.3-1.7 0-2.7 1.3-0.9 1.4-0.9 3.7 0 2.4 0.9 3.8 1 1.3 2.7 1.3 1.7 0 2.7-1.3 1-1.4 1-3.8zm6.1 6.6v-3h2.5v3zm17.5-10.6q0.8-1.5 2-2.1 1.1-0.7 2.6-0.7 2.1 0 3.2 1.4 1.1 1.4 1.1 4.1v7.9h-2.2v-7.9q0-1.8-0.6-2.8-0.7-0.9-2.1-0.9-1.7 0-2.6 1.1-1 1.2-1 3.1v7.4h-2.2v-7.9q0-1.8-0.6-2.8-0.7-0.9-2.1-0.9-1.7 0-2.6 1.2-1 1.1-1 3v7.4h-2.2v-13.1h2.2v2q0.7-1.2 1.8-1.8 1-0.5 2.4-0.5 1.5 0 2.4 0.7 1.1 0.7 1.5 2.1zm13.5 10.6v-3h2.5v3zm13.8-5.7v-1.7h21.7v1.7zm39.5-0.4v-9.3l-6 9.3zm-7.9-0.3l7.3-11.1h3v11.4h2.5v2h-2.5v4.1h-2.4v-4.1h-7.9zm17 6.4v-3h2.4v3zm0-9.4v-3h2.5v3zm12.9-6.6q-1.8 0-2.8 1.9-0.9 1.7-0.9 5.4 0 3.6 0.9 5.4 1 1.8 2.8 1.8 1.8-0.1 2.8-1.8 0.9-1.8 0.9-5.4 0-3.7-0.9-5.4-1-1.9-2.8-1.9zm0-1.8q2.9 0 4.5 2.3 1.5 2.3 1.5 6.8 0 4.4-1.5 6.7-1.6 2.3-4.5 2.3-2.9 0-4.5-2.3-1.5-2.3-1.5-6.7 0-4.5 1.5-6.8 1.6-2.3 4.5-2.3zm15.3 1.8q-1.9 0-2.8 1.9-0.9 1.7-0.9 5.4 0 3.6 0.9 5.4 0.9 1.8 2.8 1.8 1.8-0.1 2.7-1.8 1-1.8 1-5.4 0-3.7-1-5.4-0.9-1.9-2.7-1.9zm0-1.8q2.9 0 4.5 2.3 1.5 2.3 1.5 6.8 0 4.4-1.5 6.7-1.6 2.3-4.5 2.3-3 0-4.5-2.3-1.6-2.3-1.6-6.7 0-4.5 1.6-6.8 1.5-2.3 4.5-2.3zm19.6 15.8v7h-2.2v-18.1h2.2v2q0.7-1.2 1.7-1.8 1-0.6 2.5-0.6 2.4 0 3.9 1.9 1.5 1.9 1.5 5 0 3.1-1.5 5-1.5 1.9-3.9 1.9-1.5 0-2.5-0.5-1-0.6-1.7-1.8zm7.3-4.6q0-2.3-1-3.7-0.9-1.4-2.6-1.4-1.8 0-2.7 1.4-1 1.4-1 3.7 0 2.4 1 3.8 0.9 1.3 2.7 1.3 1.7 0 2.6-1.3 1-1.4 1-3.8zm6.1 6.6v-3h2.5v3zm17.6-10.6q0.8-1.5 1.9-2.2 1.1-0.7 2.6-0.7 2.1 0 3.2 1.5 1.1 1.4 1.1 4.1v7.9h-2.2v-7.9q0-1.9-0.6-2.8-0.7-0.9-2.1-0.9-1.6 0-2.6 1.1-1 1.1-1 3.1v7.4h-2.1v-7.9q0-1.9-0.7-2.8-0.7-0.9-2.1-0.9-1.6 0-2.6 1.1-1 1.2-1 3.1v7.4h-2.1v-13.1h2.1v2q0.8-1.2 1.8-1.8 1-0.6 2.4-0.6 1.5 0 2.5 0.8 1 0.7 1.5 2.1zm13.4 10.6v-3h2.5v3z"/>
			<g id="Group_5">
				<g id="Group_3">
					<path id="Path_11" fill-rule="evenodd" class="s1" d="m265.2 31.4c-5.8 0-10.9-3.5-13.1-8.7-2.2-5.3-1-11.4 3-15.5 4.1-4 10.2-5.2 15.5-3 5.3 2.2 8.7 7.3 8.7 13 0 1.9-0.4 3.7-1.1 5.4-0.7 1.8-1.7 3.3-3 4.6-1.4 1.4-2.9 2.4-4.6 3.1-1.7 0.7-3.6 1.1-5.4 1.1zm0-26.1c-4.9 0-9.2 2.9-11.1 7.4-1.8 4.4-0.8 9.6 2.6 13 3.4 3.4 8.6 4.4 13 2.6 4.5-1.9 7.4-6.2 7.4-11.1 0-1.5-0.3-3.1-0.9-4.5-0.6-1.5-1.5-2.8-2.6-3.9-1.1-1.1-2.4-2-3.9-2.6-1.4-0.6-3-0.9-4.5-0.9z"/>
				</g>
				<g id="Group_4">
					<path id="Path_12" class="s1" d="m269.8 20.8l-5.8-2.9v-9.1h2.3v7.7l4.5 2.3z"/>
				</g>
			</g>
		</g>
	</g>
</svg>