<svg id="Group_18304" data-name="Group 18304" xmlns="http://www.w3.org/2000/svg" width="78.05" height="78.048" viewBox="0 0 78.05 78.048">
  <path id="Path_5408" data-name="Path 5408" d="M78.05,39.024A39.025,39.025,0,1,1,39.026,0,39.023,39.023,0,0,1,78.05,39.024" fill="#76b22e"/>
  <path id="Path_5409" data-name="Path 5409" d="M21.527,23.672A5.868,5.868,0,1,1,27.395,17.8a5.876,5.876,0,0,1-5.868,5.868m0-9.939A4.071,4.071,0,1,0,25.6,17.8a4.075,4.075,0,0,0-4.071-4.071" transform="translate(17.839 13.598)" fill="#fff"/>
  <path id="Path_5410" data-name="Path 5410" d="M35.907,41h-1.8V23.548a4.046,4.046,0,0,0-4.041-4.041H18.9a4.046,4.046,0,0,0-4.041,4.041V41h-1.8V23.548A5.844,5.844,0,0,1,18.9,17.712H30.069a5.844,5.844,0,0,1,5.838,5.836Z" transform="translate(14.881 20.178)" fill="#fff"/>
  <rect id="Rectangle_5079" data-name="Rectangle 5079" width="1.797" height="11.404" transform="translate(31.646 49.775)" fill="#fff"/>
  <rect id="Rectangle_5080" data-name="Rectangle 5080" width="1.797" height="11.404" transform="translate(44.947 49.775)" fill="#fff"/>
  <rect id="Rectangle_5081" data-name="Rectangle 5081" width="1.797" height="11.404" transform="translate(55.207 49.775)" fill="#fff"/>
  <rect id="Rectangle_5082" data-name="Rectangle 5082" width="1.797" height="11.404" transform="translate(21.08 49.775)" fill="#fff"/>
  <path id="Path_5411" data-name="Path 5411" d="M27.007,23.672A5.868,5.868,0,1,1,32.875,17.8a5.876,5.876,0,0,1-5.868,5.868m0-9.939A4.071,4.071,0,1,0,31.078,17.8a4.075,4.075,0,0,0-4.071-4.071" transform="translate(24.082 13.598)" fill="#fff"/>
  <path id="Path_5412" data-name="Path 5412" d="M37.241,36.706H33.2v-1.8h3.145V23.548A4.044,4.044,0,0,0,32.3,19.509H20.072v-1.8H32.3a5.844,5.844,0,0,1,5.838,5.836v12.26a.9.9,0,0,1-.9.9" transform="translate(22.867 20.178)" fill="#fff"/>
  <path id="Path_5413" data-name="Path 5413" d="M15.727,23.672A5.868,5.868,0,1,1,21.595,17.8a5.876,5.876,0,0,1-5.868,5.868m0-9.939A4.071,4.071,0,1,0,19.8,17.8a4.075,4.075,0,0,0-4.071-4.071" transform="translate(11.232 13.598)" fill="#fff"/>
  <path id="Path_5414" data-name="Path 5414" d="M24.427,18.783a5.867,5.867,0,1,1,5.868-5.866,5.874,5.874,0,0,1-5.868,5.866m0-9.937A4.07,4.07,0,1,0,28.5,12.917a4.075,4.075,0,0,0-4.071-4.071" transform="translate(21.143 8.03)" fill="#fff"/>
  <path id="Path_5415" data-name="Path 5415" d="M18.627,18.783a5.867,5.867,0,1,1,5.868-5.866,5.874,5.874,0,0,1-5.868,5.866m0-9.937A4.07,4.07,0,1,0,22.7,12.917a4.075,4.075,0,0,0-4.071-4.071" transform="translate(14.535 8.03)" fill="#fff"/>
  <path id="Path_5416" data-name="Path 5416" d="M12.908,36.706H8.864a.9.9,0,0,1-.9-.9V23.548A5.845,5.845,0,0,1,13.8,17.712h12.23v1.8H13.8a4.045,4.045,0,0,0-4.041,4.039V34.909h3.145Z" transform="translate(9.075 20.178)" fill="#fff"/>
  <path id="Path_5417" data-name="Path 5417" d="M20.773,22.583a4.457,4.457,0,0,1-4.452-4.452h1.8a2.654,2.654,0,1,0,5.307,0h1.8a4.455,4.455,0,0,1-4.45,4.452" transform="translate(18.593 20.655)" fill="#fff"/>
</svg>
