<svg id="Group_18305" data-name="Group 18305" xmlns="http://www.w3.org/2000/svg" width="79.542" height="79.54" viewBox="0 0 79.542 79.54">
  <path id="Path_5405" data-name="Path 5405" d="M79.542,39.77A39.771,39.771,0,1,1,39.772,0a39.769,39.769,0,0,1,39.77,39.77" fill="#76b22e"/>
  <path id="Path_5406" data-name="Path 5406" d="M47.82,43.72H12.566a4.456,4.456,0,0,1-4.45-4.45v-25.3a4.454,4.454,0,0,1,4.45-4.45H47.82a4.453,4.453,0,0,1,4.45,4.45v25.3a4.454,4.454,0,0,1-4.45,4.45M12.566,11.591a2.377,2.377,0,0,0-2.374,2.374v25.3a2.378,2.378,0,0,0,2.374,2.374H47.82a2.377,2.377,0,0,0,2.374-2.374v-25.3a2.375,2.375,0,0,0-2.374-2.374Z" transform="translate(9.578 11.23)" fill="#fff"/>
  <rect id="Rectangle_5071" data-name="Rectangle 5071" width="19.924" height="2.075" transform="translate(29.809 58.594)" fill="#fff"/>
  <rect id="Rectangle_5072" data-name="Rectangle 5072" width="4.112" height="2.075" transform="matrix(0.6, -0.8, 0.8, 0.6, 33.701, 58.67)" fill="#fff"/>
  <rect id="Rectangle_5073" data-name="Rectangle 5073" width="2.076" height="4.113" transform="matrix(0.8, -0.6, 0.6, 0.8, 41.713, 56.625)" fill="#fff"/>
  <path id="Path_5407" data-name="Path 5407" d="M24.241,29.885H13.512V22.017H10.373V16.083h7.8v1.038a.7.7,0,0,0,1.4,0V16.083h7.8v5.934H24.241ZM15.588,27.81h6.575V19.942H25.3V18.158H21.452a2.778,2.778,0,0,1-5.154,0H12.451v1.783h3.137Z" transform="translate(12.241 18.98)" fill="#fff"/>
  <rect id="Rectangle_5074" data-name="Rectangle 5074" width="13.283" height="2.075" transform="translate(43.219 35.062)" fill="#fff"/>
  <rect id="Rectangle_5075" data-name="Rectangle 5075" width="13.283" height="2.075" transform="translate(43.219 38.858)" fill="#fff"/>
  <rect id="Rectangle_5076" data-name="Rectangle 5076" width="5.945" height="2.075" transform="translate(43.219 42.653)" fill="#fff"/>
  <rect id="Rectangle_5077" data-name="Rectangle 5077" width="42.079" height="2.075" transform="translate(18.732 26.904)" fill="#fff"/>
</svg>
