<svg xmlns="http://www.w3.org/2000/svg" xmlns:xlink="http://www.w3.org/1999/xlink" width="189.977" height="185.176" viewBox="0 0 189.977 185.176">
  <defs>
    <clipPath id="clip-path">
      <rect id="Rectangle_146" data-name="Rectangle 146" width="189.977" height="185.176" fill="none"/>
    </clipPath>
  </defs>
  <g id="Group_17683" data-name="Group 17683" transform="translate(0 0)">
    <g id="Group_17682" data-name="Group 17682" transform="translate(0 0)" clip-path="url(#clip-path)">
      <path id="Path_4044" data-name="Path 4044" d="M322.5,137.489V120.657h-.094a16.752,16.752,0,0,0-16.738,16.749v.128a16.752,16.752,0,0,0,16.738,16.749h.094Z" transform="translate(-132.669 -52.368)" fill="#f3792d"/>
      <path id="Path_4045" data-name="Path 4045" d="M292.822,137.534v-.128a16.753,16.753,0,0,0-16.738-16.749h-.094v33.626h.094a16.753,16.753,0,0,0,16.738-16.749" transform="translate(-119.787 -52.368)" fill="#fff"/>
      <path id="Path_4046" data-name="Path 4046" d="M107.534,18.171V1.339h-.094A16.752,16.752,0,0,0,90.7,18.088v.128A16.752,16.752,0,0,0,107.44,34.965h.094Z" transform="translate(-39.367 -0.581)" fill="#fff"/>
      <path id="Path_4047" data-name="Path 4047" d="M77.853,18.216v-.128A16.753,16.753,0,0,0,61.115,1.339h-.094V34.965h.094A16.753,16.753,0,0,0,77.853,18.216" transform="translate(-26.485 -0.581)" fill="#81ba41"/>
      <path id="Path_4048" data-name="Path 4048" d="M216.65,106.168A16.751,16.751,0,0,1,233.4,89.43a16.751,16.751,0,0,1-16.748,16.738" transform="translate(-94.032 -38.815)" fill="#4db2e5"/>
      <path id="Path_4049" data-name="Path 4049" d="M263.219,106.168A16.752,16.752,0,0,0,246.47,89.43a16.752,16.752,0,0,0,16.749,16.738" transform="translate(-106.974 -38.815)" fill="#4db2e5"/>
      <path id="Path_4050" data-name="Path 4050" d="M263.219,59.914A16.752,16.752,0,0,1,246.47,76.652a16.753,16.753,0,0,1,16.749-16.738" transform="translate(-106.974 -26.004)" fill="#4db2e5"/>
      <path id="Path_4051" data-name="Path 4051" d="M216.65,59.914A16.751,16.751,0,0,0,233.4,76.652,16.752,16.752,0,0,0,216.65,59.914" transform="translate(-94.032 -26.004)" fill="#4db2e5"/>
      <path id="Path_4052" data-name="Path 4052" d="M60.708,107.972A16.752,16.752,0,0,1,77.457,91.234a16.752,16.752,0,0,1-16.749,16.738" transform="translate(-26.349 -39.598)" fill="#f1ce35"/>
      <path id="Path_4053" data-name="Path 4053" d="M107.278,107.972A16.752,16.752,0,0,0,90.529,91.234a16.752,16.752,0,0,0,16.749,16.738" transform="translate(-39.292 -39.598)" fill="#f3792d"/>
      <path id="Path_4054" data-name="Path 4054" d="M107.278,61.719A16.752,16.752,0,0,1,90.529,78.457a16.753,16.753,0,0,1,16.749-16.738" transform="translate(-39.292 -26.788)" fill="#f3792d"/>
      <path id="Path_4055" data-name="Path 4055" d="M60.708,61.719A16.752,16.752,0,0,0,77.457,78.457,16.753,16.753,0,0,0,60.708,61.719" transform="translate(-26.349 -26.788)" fill="#f1ce35"/>
      <path id="Path_4056" data-name="Path 4056" d="M234.353,227.952H217.521v-.094A16.752,16.752,0,0,1,234.27,211.12h.128a16.752,16.752,0,0,1,16.749,16.738v.094Z" transform="translate(-94.41 -91.631)" fill="#e2a536"/>
      <path id="Path_4057" data-name="Path 4057" d="M234.4,198.27h-.128a16.752,16.752,0,0,1-16.749-16.738v-.094h33.626v.094A16.752,16.752,0,0,1,234.4,198.27" transform="translate(-94.41 -78.749)" fill="#f1ce35"/>
      <path id="Path_4058" data-name="Path 4058" d="M16.832,46.938H0v-.094A16.752,16.752,0,0,1,16.749,30.106h.128A16.752,16.752,0,0,1,33.626,46.844v.094Z" transform="translate(0 -13.067)" fill="#fff"/>
      <path id="Path_4059" data-name="Path 4059" d="M16.877,17.257h-.128A16.753,16.753,0,0,1,0,.519V.425H33.626V.519A16.753,16.753,0,0,1,16.877,17.257" transform="translate(0 -0.184)" fill="#81ba41"/>
      <path id="Path_4060" data-name="Path 4060" d="M157.346,165.715a16.752,16.752,0,0,1,16.749-16.738,16.752,16.752,0,0,1-16.749,16.738" transform="translate(-68.292 -64.66)" fill="#81ba41"/>
      <path id="Path_4061" data-name="Path 4061" d="M203.916,165.715a16.752,16.752,0,0,0-16.749-16.738,16.752,16.752,0,0,0,16.749,16.738" transform="translate(-81.235 -64.66)" fill="#81ba41"/>
      <path id="Path_4062" data-name="Path 4062" d="M157.346,136.034A16.752,16.752,0,0,1,174.095,119.3a16.752,16.752,0,0,1-16.749,16.738" transform="translate(-68.292 -51.777)" fill="#f1ce35"/>
      <path id="Path_4063" data-name="Path 4063" d="M203.916,136.034A16.752,16.752,0,0,0,187.167,119.3a16.752,16.752,0,0,0,16.749,16.738" transform="translate(-81.235 -51.777)" fill="#f1ce35"/>
      <path id="Path_4064" data-name="Path 4064" d="M157.346,228.081a16.752,16.752,0,0,1,16.749-16.738,16.753,16.753,0,0,1-16.749,16.738" transform="translate(-68.292 -91.728)" fill="#f3792d"/>
      <path id="Path_4065" data-name="Path 4065" d="M203.916,228.081a16.752,16.752,0,0,0-16.749-16.738,16.753,16.753,0,0,0,16.749,16.738" transform="translate(-81.235 -91.728)" fill="#f3792d"/>
      <path id="Path_4066" data-name="Path 4066" d="M157.346,198.4a16.752,16.752,0,0,1,16.749-16.738A16.752,16.752,0,0,1,157.346,198.4" transform="translate(-68.292 -78.846)" fill="#fff"/>
      <path id="Path_4067" data-name="Path 4067" d="M203.916,198.4a16.752,16.752,0,0,0-16.749-16.738A16.752,16.752,0,0,0,203.916,198.4" transform="translate(-81.235 -78.846)" fill="#fff"/>
      <path id="Path_4068" data-name="Path 4068" d="M309.863,76.606A16.753,16.753,0,1,0,293.11,93.359a16.753,16.753,0,0,0,16.753-16.753" transform="translate(-119.946 -25.978)" fill="#f1ce35"/>
      <path id="Path_4069" data-name="Path 4069" d="M263.706,122.072,247.629,138.7l16.625,16.078Z" transform="translate(-107.477 -52.982)" fill="#f1ce35"/>
      <path id="Path_4070" data-name="Path 4070" d="M218.193,123l.547,32.7,16.078-16.625Z" transform="translate(-94.701 -53.386)" fill="#4db2e5"/>
      <path id="Path_4071" data-name="Path 4071" d="M202.963,59.526,186.6,75.873l16.348,16.36Z" transform="translate(-80.991 -25.836)" fill="#81ba41"/>
      <path id="Path_4072" data-name="Path 4072" d="M157.649,59.466l-.012,32.707L174,75.826Z" transform="translate(-68.419 -25.81)" fill="#fff"/>
      <path id="Path_4073" data-name="Path 4073" d="M250.262,17.365a16.753,16.753,0,1,0-16.753,16.753,16.753,16.753,0,0,0,16.753-16.753" transform="translate(-94.078 -0.266)" fill="#f3792d"/>
      <path id="Path_4074" data-name="Path 4074" d="M276.25,46.254A16.752,16.752,0,0,1,293,29.516,16.752,16.752,0,0,1,276.25,46.254" transform="translate(-119.899 -12.811)" fill="#f1ce35"/>
      <path id="Path_4075" data-name="Path 4075" d="M322.819,46.254A16.752,16.752,0,0,0,306.07,29.516a16.752,16.752,0,0,0,16.749,16.738" transform="translate(-132.842 -12.811)" fill="#f1ce35"/>
      <path id="Path_4076" data-name="Path 4076" d="M322.819,0A16.752,16.752,0,0,1,306.07,16.738,16.752,16.752,0,0,1,322.819,0" transform="translate(-132.842)" fill="#f1ce35"/>
      <path id="Path_4077" data-name="Path 4077" d="M276.25,0A16.752,16.752,0,0,0,293,16.738,16.752,16.752,0,0,0,276.25,0" transform="translate(-119.899)" fill="#f1ce35"/>
      <path id="Path_4078" data-name="Path 4078" d="M137.7,1.484a16.753,16.753,0,0,1-16.749,16.739A16.753,16.753,0,0,1,137.7,1.484" transform="translate(-52.496 -0.644)" fill="#4db2e5"/>
      <path id="Path_4079" data-name="Path 4079" d="M150.394,1.484a16.752,16.752,0,0,0,16.749,16.739A16.753,16.753,0,0,0,150.394,1.484" transform="translate(-65.275 -0.644)" fill="#4db2e5"/>
      <path id="Path_4080" data-name="Path 4080" d="M137.7,31.166A16.753,16.753,0,0,1,120.951,47.9,16.752,16.752,0,0,1,137.7,31.166" transform="translate(-52.496 -13.527)" fill="#4db2e5"/>
      <path id="Path_4081" data-name="Path 4081" d="M150.394,31.166A16.752,16.752,0,0,0,167.143,47.9a16.753,16.753,0,0,0-16.749-16.738" transform="translate(-65.275 -13.527)" fill="#4db2e5"/>
      <rect id="Rectangle_142" data-name="Rectangle 142" width="16.832" height="16.832" transform="translate(172.85 102.968)" fill="#e2a536"/>
      <rect id="Rectangle_143" data-name="Rectangle 143" width="16.832" height="16.832" transform="translate(156.01 119.83)" fill="#4db2e5"/>
      <rect id="Rectangle_144" data-name="Rectangle 144" width="16.832" height="16.832" transform="translate(71.706 66.513)" fill="#f3792d"/>
      <rect id="Rectangle_145" data-name="Rectangle 145" width="16.832" height="16.832" transform="translate(54.867 83.375)" fill="#f1ce35"/>
      <path id="Path_4082" data-name="Path 4082" d="M226.163,264.047l11.9,11.9,11.9-11.9Z" transform="translate(-98.16 -114.603)" fill="#81ba41"/>
      <path id="Path_4083" data-name="Path 4083" d="M226.163,284.483l11.9,11.9,11.9-11.9Z" transform="translate(-98.16 -123.473)" fill="#f1ce35"/>
      <path id="Path_4084" data-name="Path 4084" d="M226.135,306.15l11.9,11.9,11.9-11.9Z" transform="translate(-98.148 -132.877)" fill="#fff"/>
      <path id="Path_4085" data-name="Path 4085" d="M165.345,243.422l11.9,11.9,11.9-11.9Z" transform="translate(-71.764 -105.651)" fill="#fff"/>
      <path id="Path_4086" data-name="Path 4086" d="M165.345,263.858l11.9,11.9,11.9-11.9Z" transform="translate(-71.764 -114.521)" fill="#4db2e5"/>
      <path id="Path_4087" data-name="Path 4087" d="M165.318,285.525l11.9,11.9,11.9-11.9Z" transform="translate(-71.752 -123.925)" fill="#e2a536"/>
    </g>
  </g>
</svg>
