<svg xmlns="http://www.w3.org/2000/svg" width="60.124" height="60.368" viewBox="0 0 60.124 60.368"><g id="Group_4616" data-name="Group 4616" transform="translate(0 1)"><g id="Group_4609" data-name="Group 4609"><g id="Group_4608" data-name="Group 4608" transform="translate(0 0)"><g id="Group_4607" data-name="Group 4607"><path id="Path_5392" data-name="Path 5392" d="M916.7,1171.987l-2.551,2.552a13.9,13.9,0,0,0-2.659-1.1v-3.607a1,1,0,0,0-1-1h-6.02a1,1,0,0,0-1,1v3.607a13.888,13.888,0,0,0-2.658,1.1l-2.552-2.552a1,1,0,0,0-1.419,0l-4.259,4.259a1,1,0,0,0,0,1.418l2.552,2.552a13.966,13.966,0,0,0-1.1,2.658h-3.607" transform="translate(-890.421 -1168.826)" fill="none" stroke="#fff" stroke-miterlimit="10" stroke-width="2"></path></g></g><ellipse id="Ellipse_328" data-name="Ellipse 328" cx="8.732" cy="8.732" rx="8.732" ry="8.732" transform="translate(31.9 0.163)" fill="none" stroke="#fff" stroke-miterlimit="10" stroke-width="2"></ellipse><path id="Path_5393" data-name="Path 5393" d="M950.5,1229.273V1203.5a8.678,8.678,0,0,0-8.678-8.678H922.2a8.679,8.679,0,0,0-8.679,8.678v25.775" transform="translate(-891.38 -1169.906)" fill="none" stroke="#fff" stroke-miterlimit="10" stroke-width="2"></path><ellipse id="Ellipse_329" data-name="Ellipse 329" cx="6.294" cy="6.294" rx="6.294" ry="6.294" transform="translate(9.975 11.769)" fill="none" stroke="#fff" stroke-miterlimit="10" stroke-width="2"></ellipse><path id="Path_5394" data-name="Path 5394" d="M893.488,1229.477v-23.5a6.255,6.255,0,0,1,6.255-6.255h14.148" transform="translate(-890.548 -1170.109)" fill="none" stroke="#fff" stroke-miterlimit="10" stroke-width="2"></path><path id="Path_5395" data-name="Path 5395" d="M927.6,1213.747l4.135,4.135,5.85-5.85" transform="translate(-891.965 -1170.62)" fill="none" stroke="#fff" stroke-miterlimit="10" stroke-width="2"></path><line id="Line_329" data-name="Line 329" y1="10.429" transform="translate(11.986 48.939)" fill="none" stroke="#fff" stroke-miterlimit="10" stroke-width="2"></line></g></g></svg>