<svg xmlns="http://www.w3.org/2000/svg" xmlns:xlink="http://www.w3.org/1999/xlink" id="Layer_1" x="0px" y="0px" viewBox="0 0 140 70" style="enable-background:new 0 0 140 70;" xml:space="preserve"><style type="text/css">	.st0{clip-path:url(#SVGID_00000101081649538616667700000003308709282553751223_);}	.st1{fill:#1A73BA;}	.st2{fill:#77BD43;}	.st3{fill:#35B050;}	.st4{fill:#9ECE67;}	.st5{fill:#FAB320;}	.st6{fill:#FAA326;}	.st7{fill:#FDC66D;}	.st8{fill:#FCCA59;}</style><g>	<defs>		<rect id="SVGID_1_" width="140" height="70"></rect>	</defs>	<clipPath id="SVGID_00000014615144565632484300000009394320680381494678_">		<use xlink:href="#SVGID_1_" style="overflow:visible;"></use>	</clipPath>	<g style="clip-path:url(#SVGID_00000014615144565632484300000009394320680381494678_);">		<path class="st1" d="M9.8,25.6c0.2-1.2,0.4-2.3,0.7-3.5c0.7-2.9,1.3-5.9,2-8.8c0.1-0.6,0.3-1.1,0.4-1.7c0-0.2,0.1-0.2,0.3-0.2   c1.2,0,2.4,0,3.6,0c0.2,0,0.3,0,0.3,0.2c0.8,3.6,1.6,7.3,2.3,10.9c0.2,0.9,0.3,1.7,0.4,2.6c0,0.1,0,0.2,0.1,0.3   c0.1-0.1,0.1-0.2,0.1-0.4c0.4-2.3,0.9-4.6,1.3-7c0.4-2,0.8-4.1,1.3-6.1c0-0.2,0.1-0.3,0.1-0.5c0-0.2,0.1-0.2,0.3-0.2   c1.2,0,2.3,0,3.5,0c0.3,0,0.3,0,0.2,0.3c-0.4,1.5-0.8,3-1.2,4.5c-1.1,4.1-2.1,8.1-3.2,12.2c-0.1,0.4-0.2,0.8-0.3,1.3   c0,0.1-0.1,0.2-0.2,0.2c-0.8,0.1-1.5,0.2-2.3,0.1c-0.9-0.2-1.6-0.8-1.9-1.6c-0.2-0.5-0.3-1-0.4-1.5c-0.5-2.1-0.9-4.3-1.4-6.4   c-0.3-1.4-0.6-2.8-0.7-4.3c0,0,0-0.1,0-0.2c-0.1,0.4-0.1,0.7-0.2,1c-0.3,1.6-0.7,3.2-1.1,4.9c-0.6,2.6-1.3,5.2-1.9,7.8   c0,0.2-0.1,0.3-0.3,0.3c-0.5,0.1-1,0.1-1.6,0.1c-1.3,0-2.2-0.6-2.7-1.8c-0.3-0.7-0.4-1.4-0.6-2C5.6,22.6,4.7,19,3.8,15.4   c-0.3-1.2-0.6-2.5-0.9-3.7c-0.1-0.2-0.1-0.2,0.2-0.2c1.2,0,2.4,0,3.6,0c0.3,0,0.3,0,0.3,0.3c0.2,1.1,0.4,2.2,0.7,3.3   c0.3,1.7,0.7,3.4,1,5.1c0.3,1.5,0.5,3,0.8,4.5C9.6,25,9.7,25.3,9.8,25.6C9.8,25.6,9.8,25.6,9.8,25.6z"></path>		<path class="st2" d="M95.9,63.6C95.9,63.6,95.9,63.7,95.9,63.6c0.1,0.3,0.2,0.4,0.3,0.6c0,0.1,0.1,0.2,0,0.3   c-0.1,0.1-0.2,0.2-0.3,0.1c-0.1,0-0.2,0-0.3,0c-0.3,0-0.6-0.1-0.8-0.2c-0.5-0.2-1-0.5-1.5-0.8c-0.1,0-0.1-0.1-0.2-0.1c0,0,0,0,0,0   c0-0.1-0.1-0.1-0.2-0.1c0,0,0,0,0,0c0,0,0,0-0.1-0.1c0,0,0,0,0,0c0,0,0,0-0.1-0.1c0,0,0,0,0,0c0,0,0,0-0.1-0.1c0,0,0,0,0,0   c0,0-0.1,0-0.1-0.1c0,0,0,0,0,0c0-0.1-0.1-0.1-0.1-0.1c-0.1,0-0.2-0.2-0.2-0.2c0-0.2-0.1-0.2-0.2-0.3c0,0,0,0,0,0   c0-0.2-0.1-0.3-0.2-0.4c-0.6-0.8-0.9-1.7-1.2-2.7c-0.2-0.8-0.4-1.6-0.4-2.4c0-0.5-0.1-1-0.1-1.5c0-0.8,0-1.6,0.1-2.5   c0.1-0.7,0.2-1.4,0.3-2.2c0.1-0.3,0.1-0.6,0.1-0.9c-0.1,0.1-0.1,0.2-0.3,0.2c0-0.1,0-0.2,0-0.3c0.1,0,0.1-0.1,0-0.2   c-0.1-0.1-0.1,0-0.2,0c0,0-0.1,0.1-0.1,0.1c0-0.2,0-0.3,0-0.5c-0.1,0-0.1,0-0.1,0c-0.3,0.5-0.6,1-0.8,1.6   c-0.3,0.8-0.6,1.6-0.9,2.4c-0.5,1.6-1.2,3.1-1.8,4.7c-0.2,0.5-0.5,1.1-0.9,1.5c-0.3,0.3-0.7,0.4-1.1,0.3c-0.1,0-0.2,0-0.3,0   c0,0,0,0-0.1-0.1c0.1,0,0.1-0.1,0-0.2c-0.4-1-0.6-1.9-0.7-3c0-0.3,0-0.6-0.1-0.9c-0.1-0.7,0-1.4-0.1-2.1c-0.1-0.4,0-0.8,0-1.2   c-0.1,0.1-0.1,0.3-0.3,0.3c0-0.1,0-0.3,0-0.4c0,0,0-0.1,0-0.1c-0.1,0-0.1,0-0.1,0.1c0,0.1,0,0.1-0.1,0.2c-0.1-0.2,0-0.5-0.1-0.7   c0,0-0.1,0.1-0.1,0.1c-0.3,0.8-0.7,1.7-1.1,2.5c-0.5,0.9-1,1.8-1.6,2.6c-0.3,0.5-0.7,0.9-1.2,1.3c-0.8,0.6-1.6,0.7-2.5,0.4   c-0.2,0-0.3-0.2-0.4-0.2c0,0,0,0,0,0c0-0.1,0-0.1,0-0.2c-0.4-0.5-0.4-1.2-0.4-1.8c0-0.5,0.1-0.9,0.1-1.4c-0.1,0-0.2,0-0.2,0   c0-0.1,0-0.1-0.1-0.1c0,0,0-0.1,0-0.1c0,0,0.1-0.1,0-0.1c-0.1,0-0.1,0-0.1,0.1c-0.1,0.1-0.1,0.1-0.2,0.2c0-0.2,0-0.3,0-0.5   c-0.1,0-0.2,0.1-0.2,0.1c-0.2,0.3-0.5,0.6-0.8,0.9c-0.5,0.5-1,0.9-1.7,1.1c-0.5,0.1-0.9,0.3-1.4,0.1c-0.2-0.1-0.3-0.2-0.5-0.2   c-0.3-0.3-0.4-0.6-0.5-1c0-0.1,0-0.2-0.2-0.2c-0.1,0-0.1-0.1-0.1-0.2c0-0.1-0.1-0.2-0.2-0.2c0-0.1,0-0.2,0.1-0.2   c0.2-0.3,0.3-0.7,0.5-1c0.1-0.2,0.2-0.4,0.2-0.6c0.1-0.5,0.3-1,0.5-1.5c0.4-0.8,0.8-1.6,1.5-2.3c0.5-0.6,1-1.1,1.7-1.4   c0.8-0.4,1.6-0.5,2.4,0c0.1,0,0.1,0.1,0.2,0c0.1,0.1,0.2,0.2,0.4,0.4c0,0,0,0.1,0,0.1c0.1,0.1,0.1,0.2,0.2,0.2   c0.1,0,0.1-0.1,0.1-0.2c0.3-0.9,0.6-1.8,0.9-2.6c0-0.1,0.1-0.2-0.1-0.3c-0.1,0-0.1-0.1-0.1-0.1c0-0.1-0.2-0.1-0.2-0.1   c0-0.2-0.1-0.3-0.3-0.3c-0.6,0-1.3-0.2-1.9-0.3c-1-0.3-1.9-0.6-2.7-1.2c-0.1-0.1-0.1-0.1-0.3-0.1c0,0,0,0,0,0c0,0,0,0-0.1-0.1   c0,0,0,0,0,0c0-0.1-0.1-0.1-0.1-0.1c-0.1,0-0.2-0.1-0.2-0.2c0-0.1-0.1-0.2-0.2-0.2c0,0,0,0,0,0c0-0.1,0-0.2-0.1-0.3   c-0.6-1.1-1-2.2-0.8-3.4c0-0.4,0.1-0.9,0.3-1.3c0.2-0.5,0.6-0.9,1-1.2c0.1-0.1,0.3-0.2,0.5-0.2c0,0.1,0,0.2,0,0.3   c-0.1,0.3-0.1,0.6-0.2,0.9c-0.1,1.1,0.1,2.2,0.7,3.2c0.1,0.2,0.2,0.4,0.4,0.5c0,0,0,0,0,0c0,0.2,0.1,0.2,0.2,0.3c0,0,0,0,0,0   c0,0.1,0,0.1,0.1,0.1c0,0,0,0,0,0c0,0,0,0.1,0.1,0.1c0.2,0.2,0.4,0.4,0.6,0.5c0,0.1,0.1,0.1,0.1,0.1c0,0,0.1,0,0.1,0.1   c0,0.1,0.1,0.2,0.2,0.3c0.8,0.5,1.6,0.9,2.5,1c0.3,0.1,0.6,0.2,1,0.1c0.1,0,0.2,0,0.3-0.2c0-0.2,0.1-0.3,0.2-0.5   c0.5-1.3,1-2.6,1.7-3.9c0.2-0.4,0.4-0.8,0.7-1.1c0.2-0.2,0.3-0.5,0.7-0.5c0,0.6-0.2,1.1-0.4,1.6c-0.4,1.1-0.9,2.1-1.3,3.1   c-0.1,0.3-0.2,0.6-0.3,0.9c0.1,0.1,0.2,0,0.3,0c0,0.2,0.1,0.2,0.2,0.2c0,0.3,0.1,0.3,0.3,0.3c0,0,0.1,0,0.1,0   c0.5-0.1,1-0.1,1.5-0.2c0.4-0.1,0.8-0.1,1.1-0.2c0.1,0,0.3-0.1,0.3-0.2c0-0.2,0.1-0.5,0.1-0.7c0.2-1.1,0.5-2.2,0.8-3.2   c0.4-1.2,0.8-2.3,1.5-3.3c0.4-0.6,0.7-1.2,1.3-1.8c0.6-0.6,1.9-0.9,2.8-0.4c0.1,0,0.1,0.1,0.2,0c0,0,0,0,0,0c0,0,0,0,0.1,0.1   c0,0,0,0,0,0c0,0.1,0,0.2,0.1,0.3c0.1,0.2,0.2,0.5,0.3,0.7c0,0.3,0.1,0.6,0,0.8c-0.1-0.1-0.1-0.2-0.1-0.3c0-0.2-0.1-0.5-0.4-0.6   c-0.1-0.1-0.2-0.2-0.3-0.3c-0.1-0.3-0.3-0.4-0.6-0.3c-0.2,0.1-0.4,0.2-0.6,0.4c-0.3,0.3-0.5,0.7-0.8,1.1c-0.4,0.6-0.6,1.2-0.9,1.8   c-0.3,0.6-0.5,1.1-0.7,1.8c-0.2,0.6-0.3,1.3-0.5,2c-0.1,0.4-0.1,0.4,0.3,0.3c0,0.1,0,0.1,0,0.2c0,0.2,0.1,0.1,0.2,0.1   c0.1,0.1,0,0.3,0.1,0.3c-0.1,0.1-0.2,0.2-0.4,0.3c-0.4,0.2-0.6,0.5-0.6,0.9c0,0.1,0,0.2,0,0.3c-0.1,0.9-0.2,1.8-0.3,2.7   c0,0.3,0,0.6-0.1,0.9c-0.1,0.5-0.1,1-0.1,1.5c0,1.6-0.1,3.2,0,4.9c0,0.7,0.1,1.4,0.1,2.1c0,0.3,0.1,0.6,0.2,0.9   c0.1,0,0.1-0.1,0.2-0.1c0,0.1,0.1,0.1,0.1,0.2c0,0.1,0,0.1,0.1,0.1c0.3,0.3,0.3,0.3,0.5-0.1c0-0.1,0.1-0.1,0.1-0.2   c0.3-0.6,0.6-1.2,0.8-1.8c0.4-1.1,0.8-2.2,1.3-3.3c0.5-1.2,1-2.4,1.8-3.4c0.4-0.5,0.9-0.9,1.6-1c0.2,0,0.3,0.1,0.5,0   c0.2,0.4,0.3,0.9,0.3,1.4c0,0.6-0.1,1.2-0.2,1.7c-0.1,0.6-0.3,1.2-0.3,1.8c0,0.3,0,0.5-0.1,0.8c-0.1,0.4-0.1,0.9-0.1,1.3   c0,1.1,0,2.1,0.1,3.2c0.1,0.6,0.2,1.2,0.4,1.9c0.4,1.2,0.9,2.2,1.7,3.2c0.1,0.1,0.1,0.2,0.2,0.2c0,0,0,0,0,0   c0,0.1,0.1,0.2,0.2,0.3c0,0,0,0,0,0c0,0,0.1,0.1,0.1,0.1C95.3,63.1,95.6,63.3,95.9,63.6C95.8,63.6,95.9,63.6,95.9,63.6z    M76.1,49.4L76.1,49.4c-0.2-0.4-0.8-0.6-1.3-0.4c-0.4,0.2-0.7,0.4-0.9,0.7c-0.4,0.6-0.7,1.3-1,1.9c-0.3,0.6-0.4,1.3-0.4,2   c0,0.2,0,0.4,0.1,0.7c0,0.1,0.1,0.3,0.3,0.3c0.1,0.1,0.1,0.2,0.2,0.3c0.2,0.3,0.3,0.4,0.6,0.2c0.2-0.1,0.4-0.2,0.6-0.4   c0.5-0.5,1.1-1,1.5-1.6c0.1-0.2,0.3-0.4,0.4-0.6c0.2-0.7,0.4-1.5,0.6-2.2c0.1-0.2,0-0.3-0.2-0.4c0-0.2-0.2-0.2-0.3-0.3   C76.2,49.5,76.2,49.4,76.1,49.4z M83.7,44.7c0-0.2,0-0.2-0.2-0.2c0,0,0,0,0-0.1c0-0.3,0-0.3-0.3-0.2c-0.4,0.2-0.8,0.3-1.1,0.4   c-0.6,0.2-1.2,0.3-1.8,0.3c-0.4,0-0.4,0-0.5,0.4c-0.3,0.9-0.6,1.9-0.8,2.9c-0.2,0.8-0.3,1.5-0.5,2.3c-0.1,0.7-0.2,1.3-0.3,2   c-0.1,0.5-0.1,1-0.1,1.5c0,0.1,0,0.3,0,0.4c0,0.1,0,0.3,0,0.4c0.1,0.2,0.1,0.4,0,0.6c0,0.2,0,0.5,0.1,0.7c0,0.2,0.1,0.4,0.3,0.4   c0.1,0.1,0.1,0.2,0.3,0.3c0.2,0.3,0.3,0.4,0.6,0.2c0.3-0.1,0.5-0.3,0.7-0.6c0.4-0.5,0.7-0.9,1-1.5c0.8-1.3,1.4-2.6,1.9-4   c0.2-0.5,0.3-1.1,0.4-1.6c0.2-0.9,0.3-1.8,0.4-2.7c0.1-0.5,0.1-1.1,0.2-1.6c0-0.1,0-0.2,0-0.2c0-0.1,0-0.2-0.2-0.1   C83.8,44.7,83.7,44.7,83.7,44.7z"></path>		<path class="st1" d="M50.4,17.8c0.2-0.2,0.3-0.4,0.5-0.6c0.8-0.9,1.7-1.4,2.9-1.5c0.6-0.1,1.1-0.1,1.7,0.1c1.2,0.3,2.1,1,2.6,2.1   c0,0.1,0,0.2,0.1,0.2c0.1,0,0.1-0.1,0.2-0.2C59.2,17,60,16.4,61,16c1.1-0.4,2.3-0.5,3.4-0.1c1.3,0.4,2.1,1.4,2.6,2.7   c0.3,0.9,0.5,1.7,0.5,2.7c0,2.8,0,5.6,0,8.3c0,0.3,0,0.3-0.3,0.3c-1.1,0-2.1,0-3.2,0c-0.3,0-0.3,0-0.3-0.3c0-2.4,0-4.7,0-7.1   c0-0.5,0-0.9-0.1-1.4c-0.1-0.3-0.1-0.6-0.2-0.9c-0.6-1.4-2.1-1.8-3.3-0.9c-0.7,0.5-1,1.2-1,2c0,0.2,0,0.4,0,0.6c0,2.5,0,5,0,7.5   c0,0.1,0,0.2,0,0.2c0,0.2-0.1,0.2-0.2,0.2c0,0-0.1,0-0.1,0c-1.1,0-2.1,0-3.2,0c-0.3,0-0.3,0-0.3-0.3c0-2.5,0-4.9,0-7.4   c0-0.4,0-0.8-0.1-1.3c0-0.2-0.1-0.5-0.2-0.7c-0.6-1.7-2.5-1.7-3.4-0.8c-0.6,0.6-1,1.2-1,2.1c0,0.4,0,0.8,0,1.3c0,2.2,0,4.5,0,6.7   c0,0.1,0,0.1,0,0.2c0,0.2-0.1,0.2-0.2,0.2c0,0-0.1,0-0.1,0c-1,0-2.1,0-3.1,0c-0.3,0-0.3,0-0.3-0.4c0-4.4,0-8.8,0-13.2   c0,0,0,0,0-0.1c0-0.3,0-0.3,0.3-0.3c0.4,0,0.8,0,1.3,0c0.6,0,1.1,0,1.7,0c0.3,0,0.3,0,0.3,0.3c0,0.4,0,0.8,0,1.3   C50.4,17.6,50.4,17.7,50.4,17.8z"></path>		<path class="st1" d="M34.4,28.4c-0.2,0.2-0.3,0.3-0.4,0.4c-0.9,0.9-2,1.3-3.2,1.3c-0.9,0.1-1.9-0.1-2.7-0.5   c-1.5-0.9-2.2-2.2-2.1-3.9c0.1-1.9,1.1-3.2,2.7-4c1.1-0.5,2.3-0.8,3.5-0.9c0.6-0.1,1.2-0.1,1.7-0.1c0.2,0,0.3,0,0.2-0.3   c0-1.1-0.7-1.8-1.8-2c-1.2-0.2-2.4,0-3.5,0.4c-0.4,0.1-0.8,0.3-1.1,0.5c-0.1,0-0.1-0.1-0.1-0.1c-0.2-0.7-0.4-1.4-0.6-2.2   c-0.1-0.2,0-0.2,0.2-0.3c0.7-0.4,1.5-0.6,2.3-0.8c1.2-0.3,2.3-0.3,3.5-0.3c0.8,0.1,1.6,0.2,2.3,0.6c1.2,0.6,1.9,1.5,2.3,2.8   c0.3,0.8,0.4,1.6,0.4,2.5c0,1.7,0,3.5,0,5.2c0,1,0,1.9,0.2,2.9c0,0.1,0,0.2-0.1,0.2c-0.7,0.2-1.4,0.2-2,0   c-0.7-0.2-1.1-0.6-1.4-1.2C34.5,28.6,34.4,28.5,34.4,28.4z M34.2,24.3c0-0.3,0-0.6,0-0.8c0-0.3,0-0.3-0.3-0.3   c-0.4,0-0.9,0-1.3,0.1c-0.7,0.1-1.3,0.2-1.9,0.6c-0.7,0.4-1.1,1.1-1,1.9c0,0.9,0.5,1.5,1.4,1.7c0.4,0.1,0.8,0.1,1.2-0.1   c1.1-0.3,1.9-1.2,1.9-2.4C34.2,24.7,34.2,24.5,34.2,24.3z"></path>		<path class="st1" d="M77.5,28.4c0,0-0.1,0.1-0.1,0.1c-1.2,1.3-2.8,1.8-4.5,1.6c-0.6,0-1.2-0.2-1.7-0.5c-1.4-0.8-2.1-2-2.2-3.5   c0-0.9,0.1-1.7,0.5-2.4c0.5-0.9,1.2-1.5,2.1-1.9c1-0.5,2-0.8,3.1-0.9c0.7-0.1,1.4-0.1,2.2-0.2c0.3,0,0.3,0,0.3-0.3   c0-0.9-0.5-1.6-1.3-1.9c-0.7-0.2-1.4-0.2-2.1-0.2c-1,0.1-2,0.4-2.9,0.9c0,0-0.1,0-0.1,0c-0.1-0.1-0.1-0.2-0.1-0.2   c-0.2-0.7-0.4-1.4-0.6-2c-0.1-0.2-0.1-0.2,0.1-0.3c0.9-0.5,1.9-0.8,2.9-0.9c1.2-0.2,2.3-0.2,3.5-0.1c1.3,0.2,2.4,0.7,3.3,1.7   c0.6,0.7,0.9,1.6,1.1,2.5c0.1,0.5,0.1,1,0.1,1.5c0,2,0,3.9,0,5.9c0,0.7,0.1,1.5,0.2,2.2c0,0.3,0,0.3-0.3,0.4   c-0.5,0.1-1.1,0.2-1.6,0.1c-0.8-0.1-1.4-0.6-1.8-1.4C77.6,28.6,77.6,28.5,77.5,28.4z M77.3,24.4c0-0.4,0-0.7,0-1   c0-0.2,0-0.2-0.2-0.2c-0.5,0-0.9,0-1.4,0.1c-0.6,0.1-1.2,0.2-1.8,0.5c-0.9,0.5-1.3,1.4-1,2.4c0.1,0.5,0.5,0.9,1,1.1   c0.6,0.2,1.1,0.2,1.7,0c0.9-0.3,1.5-0.9,1.7-1.9C77.3,25,77.3,24.7,77.3,24.4z"></path>		<path class="st2" d="M53.4,38.9C53.4,38.9,53.4,39,53.4,38.9c0.1,0.2,0.1,0.2,0.1,0.3c0.3,0.6,0.3,1.2,0.2,1.9   c-0.2,1.1-0.8,1.9-1.7,2.5c-0.8,0.6-1.7,0.8-2.6,0.8c-0.7,0-1.4,0-2.1-0.1c-0.9-0.1-1.8-0.4-2.6-0.8c-0.5-0.2-0.9-0.5-1.4-0.8   c-0.2-0.1-0.2-0.1-0.2,0.1c-0.1,0.5-0.1,1-0.2,1.5c-0.1,0.9-0.2,1.7-0.4,2.5c-0.3,1.4-0.6,2.8-1.1,4.1c-0.6,1.9-1.3,3.7-2.2,5.4   c-0.5,0.9-1,1.7-1.8,2.3c-0.7,0.5-1.4,0.8-2.3,0.6c-0.4-0.1-0.7-0.3-1-0.5c-0.1-0.1-0.2-0.1-0.3-0.1c-0.3-0.2-0.5-0.4-0.7-0.7   c0-0.1,0-0.1-0.1-0.1l0,0c0-0.1,0-0.1-0.1-0.2c-0.3-0.4-0.5-0.9-0.7-1.3c-0.5-1-0.8-2-1.1-3.1c-0.3-1.3-0.5-2.6-0.6-4   c0-0.3,0-0.7-0.1-1c-0.1-0.5,0-0.9-0.1-1.4c-0.1-0.5,0-1-0.1-1.4c0-1-0.1-2,0-3.1c0.1-0.7,0.1-1.3,0.3-2c0.1-0.4,0.2-0.9,0.4-1.3   c0.3-0.5,0.6-0.9,1.2-0.8c0.1,0.1,0.1,0.3,0.2,0.4c0.1,0.4,0.2,0.8,0.2,1.2c0,0.7,0.1,1.5,0.2,2.2c0,0.7,0.1,1.3,0.1,2   c0,0.6,0.1,1.2,0.1,1.8c0.1,0.6,0.1,1.3,0.2,1.9c0.1,0.8,0.2,1.6,0.3,2.4c0.2,0.9,0.3,1.7,0.6,2.6c0.2,0.7,0.6,1.3,1,1.9   c0.1,0.1,0.1,0.1,0.2,0.1c0.1,0.1,0.3,0.3,0.4,0.4c0.2,0.3,0.5,0.4,0.8,0.5c0.7,0.1,1.3-0.3,1.8-0.8c0.6-0.7,1.1-1.5,1.4-2.4   c0.5-1.3,1-2.7,1.3-4.1c0.1-0.5,0.2-1,0.3-1.5c0.1-0.5,0.2-1,0.2-1.6c0.1-0.4,0.1-0.8,0.2-1.2c0.1-0.4,0.1-0.8,0.2-1.2   c0-0.4,0.1-0.7,0.1-1.1c0-0.3-0.1-0.5-0.4-0.6c0,0-0.1-0.1-0.1-0.1c0-0.1,0-0.1-0.1-0.2c-0.9-1.2-1.5-2.5-1.8-3.9   c-0.1-0.3-0.2-0.7-0.2-1c0.1,0,0.1,0.1,0.1,0.1c0.2,1.1,0.7,2.2,1.2,3.2c0.1,0.2,0.2,0.5,0.5,0.6l0,0c0,0.2,0.1,0.2,0.2,0.3   c0.1,0.1,0.1,0.1,0.2,0.2c0.1,0.2,0.2,0.3,0.4,0.4c0-0.2,0-0.4,0-0.6c0-0.7,0-1.3-0.1-2c-0.1-0.7-0.2-1.3-0.4-1.9   c-0.1-0.4-0.2-0.8-0.5-1.2c-0.1-0.1-0.1-0.3-0.3-0.3c-0.1-0.2-0.2-0.3-0.4-0.4c0-0.1,0-0.2-0.1-0.2c0-0.1,0-0.1,0.1-0.1   c0.5-0.2,1-0.3,1.5,0c0.1,0.1,0.2,0.1,0.3,0.1c0,0,0,0,0,0c0,0.1,0,0.2,0.1,0.2c0.1,0.2,0.1,0.3,0.2,0.5c0.6,1.5,0.7,3,0.8,4.5   c0,0.6-0.1,1.2-0.1,1.7c0,0.1,0,0.1,0,0.2c-0.1,0.3-0.1,0.3,0.3,0.5c0,0.1,0.1,0.2,0.2,0.2c0,0.1,0.1,0.2,0.2,0.2   c0.6,0.3,1.2,0.6,1.8,0.8c0.6,0.2,1.2,0.3,1.8,0.5c0.8,0.1,1.7,0.2,2.5,0c1-0.2,1.8-0.8,2.3-1.7c0.4-0.7,0.6-1.4,0.6-2.1   c0-0.2,0-0.4,0-0.5c0-0.2,0.1-0.2,0.3-0.2C53.2,38.9,53.3,38.9,53.4,38.9z"></path>		<path class="st2" d="M67,57c0.1,0.1,0.1,0.3,0.3,0.3c0.2,0.3,0.3,0.3,0.6,0.2c0.2-0.2,0.5-0.3,0.6-0.5c0.3-0.5,0.7-1,1-1.6   c0-0.1,0.1-0.2,0.2-0.2c0,0,0,0,0,0.1c-0.5,1-1,1.9-1.8,2.8c-0.2,0.2-0.4,0.5-0.7,0.6c-0.6,0.3-1.2,0.5-1.8,0.3   c-0.1,0-0.2-0.2-0.4-0.1c0,0,0,0,0,0c0-0.2-0.1-0.3-0.1-0.4c-0.2-0.6-0.1-1.2-0.1-1.9c0-0.1,0-0.2,0-0.4c-0.1,0.1-0.2,0.2-0.3,0   c0,0,0-0.1,0-0.1c0,0,0-0.1,0-0.1c-0.1,0-0.1,0-0.1,0.1c0,0.1,0,0.1-0.1,0.2c0-0.1,0-0.3,0-0.4c0,0,0-0.1,0-0.1c0,0-0.1,0-0.1,0   c0,0-0.1,0.1-0.1,0.1c-0.4,0.4-0.8,0.9-1.2,1.1c-0.4,0.3-0.9,0.5-1.5,0.4c-0.2,0-0.5-0.1-0.7-0.1c-0.2-0.2-0.3-0.4-0.4-0.6   c0-0.1,0-0.2-0.1-0.2c-0.2,0-0.1-0.2-0.2-0.3c-0.1,0-0.2,0.1-0.2,0.2c-0.3,0.2-0.5,0.5-0.7,0.7c-0.7,0.6-1.5,1.1-2.4,1.3   c-0.2,0.1-0.5,0.1-0.7,0.1c-0.4-0.1-0.8-0.1-1.1-0.3c-0.1-0.1-0.2-0.1-0.3-0.1c0,0,0,0,0,0c0-0.1-0.1-0.1-0.1-0.1   c-0.3-0.3-0.5-0.6-0.7-1c0-0.1,0-0.2-0.2-0.2c-0.1-0.1-0.1-0.2-0.2-0.3c-0.2,0.3-0.3,0.6-0.5,0.9c-0.4,0.8-0.9,1.6-1.7,2.2   c-0.6,0.5-1.5,0.7-2.2,0.3c-0.1,0-0.2-0.1-0.3-0.1c-0.1,0-0.1-0.1-0.1-0.1c0-0.1,0-0.2-0.1-0.3c-0.4-1-0.5-2-0.4-3   c0.1-0.4,0.1-0.9,0.2-1.3c0.1-0.3,0-0.7,0.1-1c0.1-0.3,0-0.6-0.1-0.9c0-0.2-0.1-0.2-0.3-0.2c0-0.1,0-0.2-0.2-0.3   c-0.2,0-0.1-0.3-0.2-0.3c-0.1,0-0.1,0.1-0.1,0.2c-0.3,0.7-0.6,1.4-1,2c-0.2,0.3-0.5,0.6-0.7,0.8c-0.5,0.6-1,1.1-1.7,1.5   c-0.3,0.2-0.6,0.3-1,0.2c0-0.2,0.2-0.2,0.3-0.3c0.5-0.3,0.9-0.8,1.2-1.2c0.6-0.8,1.1-1.6,1.5-2.5c0.2-0.5,0.4-1,0.6-1.6   c0.1-0.3,0-0.3-0.2-0.4c-0.1-0.2-0.2-0.2-0.3-0.3c-0.2-0.2-0.4-0.3-0.5-0.5c0-0.1,0-0.1-0.1-0.1c0,0,0,0,0,0   c0-0.2-0.1-0.4-0.2-0.5c-0.2-0.7-0.4-1.4-0.3-2.1c0-0.3,0.1-0.6,0.2-0.9c0.2-0.3,0.4-0.5,0.8-0.6c0.4-0.1,0.9-0.1,1.3,0.1   c0.1,0,0.1,0,0.2,0c0,0,0,0,0,0c0,0.1,0,0.1,0.1,0.1c0,0,0,0,0,0c0,0.1,0,0.1,0.1,0.2c0.2,0.3,0.3,0.5,0.4,0.9   c0.2,0.9,0.2,1.9,0,2.8c0,0.3,0,0.3,0.3,0.4c0,0.1,0,0.2,0.1,0.2c0.2,0.1,0.4,0.2,0.6,0.2c0.4,0.2,0.9,0.4,1.2,0.8   c0,0.1,0,0.2,0.1,0.3c0.1,0.3,0.1,0.5,0.1,0.8c0,0.4,0,0.8-0.1,1.2c-0.1,0.5-0.1,0.9-0.1,1.4c-0.1,0.6-0.1,1.1-0.1,1.7   c0,0.2,0.1,0.5,0.2,0.7c0.1,0.1,0.1,0.2,0.2,0.2c0.1,0.1,0.2,0.3,0.4,0.3c0.2,0.3,0.4,0.4,0.7,0.2c0.1-0.1,0.2-0.2,0.3-0.3   c0.4-0.8,0.9-1.5,1.2-2.3c0.2-0.5,0.5-0.9,0.5-1.4c0.1-0.9,0.3-1.9,0.7-2.8c0.4-1.1,0.8-2.2,1.5-3.1c0.2-0.3,0.4-0.6,0.8-0.7   c0.1,0.1,0.1,0.2,0,0.3c0,0.2-0.1,0.4-0.1,0.7c-0.2,1-0.6,1.9-0.8,3c-0.1,0.7-0.3,1.4-0.3,2.2c0,0.6-0.1,1.1,0.1,1.7   c0.1,0.4,0.2,0.8,0.6,1c0.1,0.1,0.3,0.3,0.4,0.4c0.1,0.3,0.4,0.4,0.7,0.4c0.6,0,1.2-0.2,1.6-0.5c0.6-0.4,1-1,1.4-1.5   c0.1-0.1,0.2-0.3,0.2-0.5c0.2-0.9,0.6-1.7,1.1-2.4c0.4-0.6,0.9-1.1,1.5-1.5c0.6-0.4,1.3-0.6,2-0.2c0.1,0,0.2,0,0.3,0   c0.1,0.1,0.2,0.1,0.2,0.2c0.1,0.2,0.2,0.2,0.4,0.4c0-0.1,0.1-0.1,0.1-0.2c0.6-1.8,1.2-3.5,1.9-5.2c0.4-1,0.9-2,1.5-2.9   c0.1-0.2,0.2-0.4,0.5-0.4c0,0.2,0,0.3-0.1,0.5c-0.3,0.9-0.6,1.7-1,2.5c-0.6,1.4-1,2.9-1.4,4.3c-0.2,0.9-0.5,1.9-0.6,2.8   c-0.1,0.5-0.1,0.9-0.2,1.4c0,0.5-0.1,0.9-0.1,1.4c0,0.3,0,0.7,0,1c0,0.2,0,0.4,0.1,0.6C66.7,56.9,66.8,57,67,57z M45.9,48.4   C45.9,48.4,45.9,48.4,45.9,48.4c0.2,0.1,0.3,0.3,0.4,0.3c0.2,0.1,0.3,0.3,0.5,0.4c0,0.1,0,0.2,0.1,0.2c0,0,0.1,0.1,0.1,0   c0.1,0,0.1-0.1,0-0.1c-0.1-0.2,0-0.3,0-0.5c0-0.4-0.1-0.7-0.2-1.1c0-0.1-0.1-0.3-0.3-0.3c-0.1-0.1-0.1-0.3-0.3-0.3   c-0.1-0.2-0.1-0.3-0.3-0.3c-0.3,0-0.4,0.1-0.5,0.3c-0.2,0.4,0.1,0.9,0.5,1.1l0,0C45.8,48.3,45.8,48.4,45.9,48.4L45.9,48.4z    M62.4,55.6c0.1,0.1,0.1,0.2,0.3,0.3c0.2,0.3,0.2,0.4,0.5,0.2c0.2-0.1,0.5-0.3,0.7-0.5c0.4-0.3,0.7-0.7,1-1.1   c0.1-0.2,0.3-0.3,0.3-0.6c0.1-0.5,0.3-1.1,0.4-1.6c0.1-0.3,0.1-0.3-0.2-0.5c-0.1-0.1-0.2-0.2-0.3-0.3c0-0.2-0.2-0.3-0.4-0.4   c-0.4-0.2-0.8-0.2-1.1,0.1c-0.2,0.2-0.4,0.4-0.6,0.7c-0.2,0.3-0.3,0.6-0.5,0.9c-0.3,0.7-0.5,1.5-0.5,2.2   C62.1,55.3,62.1,55.5,62.4,55.6z"></path>		<path class="st1" d="M100.1,26.9c0,0.2,0,0.4,0,0.5c0,0.7,0,1.4,0.1,2.1c0,0.2-0.1,0.3-0.2,0.3c-0.9,0.2-1.8,0.3-2.7,0.3   c-0.4,0-0.9-0.1-1.3-0.2c-1.1-0.4-1.9-1.1-2.3-2.2c-0.3-0.8-0.4-1.7-0.4-2.5c0-4.5,0-9,0-13.5c0-0.1,0-0.1,0-0.2   c0-0.1,0-0.2,0.2-0.2c0.1,0,0.1,0,0.2,0c1,0,2,0,3,0c0.4,0,0.3,0,0.3,0.4c0,1.2,0,2.3,0,3.5c0,0.1,0,0.1,0,0.2   c0,0.3,0,0.3,0.3,0.3c0.9,0,1.8,0,2.7,0c0.3,0,0.3,0,0.3,0.3c0,1,0,2,0,3c0,0.3,0,0.3-0.3,0.3c-0.9,0-1.8,0-2.7,0   c-0.3,0-0.3,0-0.3,0.3c0,1.8,0,3.5,0,5.3c0,0.4,0,0.7,0.2,1.1c0.2,0.7,0.7,1,1.4,1.1c0.4,0,0.8,0,1.3-0.1   C99.8,26.9,99.9,26.9,100.1,26.9z"></path>		<path class="st1" d="M87,18.6c0.1-0.2,0.1-0.3,0.2-0.4c0.5-1.2,1.4-2,2.6-2.4c0.5-0.2,1.1-0.2,1.6-0.1c0.2,0,0.2,0.1,0.2,0.3   c0,1.1,0,2.1,0,3.2c0,0.2,0,0.2-0.2,0.2c-0.3,0-0.5-0.1-0.8-0.1c-1.1,0-2,0.3-2.7,1.2c-0.4,0.6-0.6,1.3-0.6,2c0,2.3,0,4.6,0,6.9   c0,0.5,0,0.4-0.4,0.4c-1.1,0-2.1,0-3.2,0c-0.3,0-0.3,0-0.3-0.3c0-4.4,0-8.9,0-13.3c0-0.3,0-0.3,0.3-0.3c0.9,0,1.9,0,2.8,0   c0.3,0,0.3,0,0.3,0.3c0,0.6,0,1.3,0,1.9C87,18.3,86.9,18.4,87,18.6z"></path>		<path class="st1" d="M40.4,20.7c0-2.9,0-5.8,0-8.8c0,0,0-0.1,0-0.1c0-0.4,0-0.4,0.4-0.4c1,0,2,0,3,0c0.1,0,0.1,0,0.2,0   c0.1,0,0.2,0,0.2,0.2c0,0.1,0,0.2,0,0.2c0,5.9,0,11.8,0,17.7c0,0.1,0,0.1,0,0.2c0,0.2-0.1,0.2-0.2,0.2c-1.1,0-2.2,0-3.3,0   c-0.2,0-0.2,0-0.2-0.2c0-0.3,0-0.6,0-1C40.4,26,40.4,23.3,40.4,20.7z"></path>		<path class="st2" d="M96.9,54.8c0.1,0.1,0.3,0.2,0.4,0.3c0,0.1,0.1,0.2,0.2,0.3c0.3,0.1,0.5,0.2,0.9,0.1c0.7-0.1,1.3-0.4,1.8-0.9   c0.7-0.7,1.2-1.6,1.7-2.5c0.2-0.5,0.4-1,0.6-1.5c0-0.1,0.1-0.2,0.2-0.3c0,0.2-0.1,0.5-0.1,0.7c-0.1,0.7-0.4,1.3-0.7,1.9   c-0.6,1.1-1.3,2.1-2.3,2.9c-0.5,0.4-1,0.7-1.5,0.9c-0.4,0.2-0.9,0.2-1.3,0.3c-0.5,0-1-0.1-1.4-0.4c-0.1-0.1-0.2-0.1-0.3-0.1   c-0.1,0-0.1-0.1-0.1-0.1c0-0.1,0-0.2-0.1-0.3c-0.4-0.7-0.4-1.4-0.5-2.1c0-0.6,0-1.1,0.1-1.7c0.1-1,0.4-1.9,0.8-2.8   c0.2-0.5,0.5-1,0.7-1.5c0.2-0.4,0.4-0.9,0.7-1.3c0.2-0.2,0.4-0.5,0.7-0.5c0.1,0.6,0,1.2-0.2,1.7c-0.2,0.6-0.3,1.2-0.5,1.8   c-0.2,0.7-0.3,1.4-0.3,2.2c-0.1,0.6-0.1,1.2,0,1.9C96.4,54.2,96.5,54.6,96.9,54.8z"></path>		<path class="st3" d="M33.8,58.7c0.1,0,0.2,0.1,0.3,0.1c0.3,0.2,0.6,0.4,1,0.5c0.9,0.2,1.6,0,2.3-0.6c0.8-0.6,1.3-1.4,1.8-2.3   c0.9-1.7,1.7-3.5,2.2-5.4c0.4-1.4,0.8-2.7,1.1-4.1c0.2-0.8,0.3-1.7,0.4-2.5c0.1-0.5,0.1-1,0.2-1.5c0-0.2,0.1-0.2,0.2-0.1   c0.4,0.3,0.9,0.6,1.4,0.8c0.8,0.4,1.7,0.7,2.6,0.8c0.7,0.1,1.4,0.2,2.1,0.1c0.9-0.1,1.8-0.3,2.6-0.8c0.9-0.6,1.5-1.5,1.7-2.5   c0.1-0.6,0.1-1.3-0.2-1.9c0-0.1-0.1-0.1-0.1-0.2c0.4,0.4,0.6,0.9,0.6,1.5c0,1.6-1,3.2-2.5,3.9c-0.6,0.3-1.3,0.4-2,0.4   c-1.6,0.1-3.2-0.2-4.6-0.9c-0.4-0.2-0.8-0.4-1.2-0.7c-0.1-0.1-0.2-0.1-0.3-0.2c0,0.3-0.1,0.6-0.1,0.8c-0.2,1.8-0.5,3.6-1,5.4   c-0.6,2.4-1.4,4.7-2.5,6.8c-0.4,0.9-0.9,1.7-1.6,2.5c-0.5,0.6-1.2,1-2,1.1c-0.3,0-0.5,0-0.7,0C34.9,59.4,34.3,59.1,33.8,58.7z"></path>		<path class="st3" d="M86,56.5c-0.1,0-0.1,0.1-0.2,0.1c-0.1-0.3-0.1-0.6-0.2-0.9c-0.1-0.7-0.1-1.4-0.1-2.1c-0.1-1.6-0.1-3.2,0-4.9   c0-0.5,0-1,0.1-1.5c0.1-0.3,0-0.6,0.1-0.9c0.1-0.9,0.2-1.8,0.3-2.7c0-0.1,0-0.2,0-0.3c0-0.4,0.2-0.7,0.6-0.9   c0.1-0.1,0.2-0.2,0.4-0.3c0.4-0.3,0.7-0.6,1-0.9c0.9-0.9,1.6-1.8,2.3-2.9c0.4-0.6,0.7-1.2,0.9-1.9c0.1,0,0.1-0.1,0.1-0.1   c0-0.1,0-0.2,0-0.2c0,0,0-0.1,0.1-0.1c0.1-0.1,0.1-0.3,0.1-0.4c0.1-0.3,0.1-0.6,0-0.8c0-0.3-0.1-0.5-0.3-0.7   c0-0.1-0.1-0.2-0.1-0.3c0.5,0.4,0.7,1,0.7,1.6c0,0.6-0.1,1.2-0.3,1.7c-0.4,0.9-0.9,1.8-1.5,2.6c-0.9,1.2-2,2.3-3.2,3.2   c-0.1,0.1-0.2,0.2-0.2,0.4c-0.2,1.1-0.3,2.3-0.4,3.5c-0.1,1.5-0.2,2.9-0.2,4.4c0,1.4,0,2.8,0.1,4.2C85.9,55.7,86,56.1,86,56.5z"></path>		<path class="st4" d="M41.6,41.3c0.2,0.1,0.4,0.3,0.4,0.6c0,0.4-0.1,0.7-0.1,1.1c0,0.4-0.1,0.8-0.2,1.2c-0.1,0.4-0.1,0.8-0.2,1.2   c-0.1,0.5-0.2,1-0.2,1.6c-0.1,0.5-0.2,1-0.3,1.5c-0.3,1.4-0.7,2.8-1.3,4.1c-0.3,0.9-0.7,1.7-1.4,2.4c-0.5,0.5-1,0.9-1.8,0.8   c-0.3,0-0.6-0.1-0.8-0.5c0.8,0.3,1.4,0.1,2-0.4c0.6-0.5,1-1.2,1.3-2c0.8-1.7,1.3-3.4,1.6-5.3c0.2-0.9,0.3-1.8,0.4-2.7   c0.1-0.7,0.2-1.4,0.3-2.1c0.1-0.4,0.1-0.8,0.1-1.2C41.7,41.5,41.6,41.4,41.6,41.3z"></path>		<path class="st4" d="M90.9,33.8c-0.1,0-0.1,0-0.2,0c-0.9-0.6-2.2-0.2-2.8,0.4c-0.5,0.5-0.9,1.1-1.3,1.8c-0.6,1-1.1,2.2-1.5,3.3   c-0.3,1.1-0.6,2.1-0.8,3.2c0,0.2-0.1,0.5-0.1,0.7c0,0.2-0.2,0.2-0.3,0.2c-0.4,0.1-0.8,0.1-1.1,0.2c-0.5,0.1-1,0.1-1.5,0.2   c0,0-0.1,0-0.1,0c-0.2,0-0.3,0-0.3-0.3c0.1-0.1,0.2-0.1,0.3-0.1c0.8-0.1,1.6-0.2,2.4-0.4c0.1,0,0.2-0.1,0.2-0.2   c0.3-1.4,0.6-2.9,1.1-4.3c0.6-1.6,1.3-3.1,2.3-4.4c0.7-0.8,1.6-1.2,2.6-0.9C90.3,33.3,90.6,33.5,90.9,33.8z"></path>		<path class="st4" d="M32.2,38.3c-0.7-0.1-1,0.3-1.2,0.8c-0.2,0.4-0.3,0.8-0.4,1.3c-0.1,0.7-0.2,1.3-0.3,2c-0.1,1-0.1,2,0,3.1   c0,0.5,0,1,0.1,1.4c0.1,0.5,0,0.9,0.1,1.4c0.1,0.3,0,0.7,0.1,1c0.1,1.3,0.2,2.7,0.6,4c0.3,1.1,0.6,2.1,1.1,3.1   c0.2,0.4,0.4,0.9,0.7,1.3c0,0.1,0.1,0.1,0.1,0.2c-0.1,0-0.2-0.2-0.2-0.3c-0.7-1-1.2-2.2-1.6-3.3c-0.3-0.9-0.5-1.8-0.7-2.7   c-0.1-0.6-0.2-1.3-0.2-1.9c-0.1-0.6-0.1-1.3-0.2-1.9c0-0.4,0-0.8-0.1-1.3C30,45.2,29.9,44,30,42.7c0.1-1.1,0.2-2.2,0.5-3.3   c0.1-0.4,0.3-0.7,0.5-1c0.3-0.4,0.8-0.6,1.2-0.3C32.2,38.1,32.2,38.2,32.2,38.3z"></path>		<path class="st4" d="M69.6,55.2c-0.1,0-0.2,0.1-0.2,0.2c-0.3,0.6-0.7,1.1-1,1.6c-0.1,0.2-0.4,0.4-0.6,0.5   c-0.3,0.2-0.4,0.1-0.6-0.2c0.5-0.2,0.8-0.6,1.1-1c0.7-1,1.2-2,1.7-3.1c0.1-0.2,0.1-0.5,0.2-0.7c0.5-1.7,1.4-3.2,2.8-4.3   c0.5-0.4,1.1-0.7,1.8-0.7c0.7-0.1,1.3,0.1,1.8,0.6c-0.1,0-0.1,0-0.2,0c-0.8-0.4-1.6-0.3-2.4,0c-0.7,0.3-1.2,0.8-1.7,1.4   c-0.6,0.7-1.1,1.5-1.5,2.3c-0.2,0.5-0.4,1-0.5,1.5c0,0.2-0.1,0.4-0.2,0.6c-0.2,0.3-0.3,0.7-0.5,1C69.6,54.9,69.6,55,69.6,55.2   C69.6,55.1,69.6,55.1,69.6,55.2z"></path>		<path class="st3" d="M67,57c-0.2-0.1-0.3-0.2-0.3-0.3c0-0.2-0.1-0.4-0.1-0.6c0-0.3,0-0.7,0-1c0-0.5,0.1-0.9,0.1-1.4   c0-0.5,0.1-0.9,0.2-1.4c0.1-1,0.4-1.9,0.6-2.8c0.4-1.5,0.9-2.9,1.4-4.3c0.3-0.8,0.7-1.6,1-2.5c0.1-0.2,0.1-0.3,0.1-0.5   c0.1-0.1,0-0.3,0.1-0.3c0.2,0.1,0.2,0.3,0.2,0.4c0,0.3-0.1,0.5-0.1,0.8c-0.2,0.6-0.4,1.2-0.6,1.7c-0.8,1.9-1.4,3.8-1.9,5.7   c-0.3,1.4-0.6,2.8-0.7,4.2c-0.1,0.7-0.1,1.3,0,2C66.9,56.7,66.9,56.9,67,57z"></path>		<path class="st4" d="M92.8,47c-0.2,0-0.3,0-0.5,0c-0.7,0.1-1.2,0.5-1.6,1c-0.8,1-1.3,2.2-1.8,3.4c-0.5,1.1-0.9,2.2-1.3,3.3   c-0.2,0.6-0.5,1.2-0.8,1.8c0,0.1-0.1,0.1-0.1,0.2c-0.2,0.4-0.2,0.4-0.5,0.1c0.9-1.7,1.5-3.5,2.2-5.2c0.5-1.1,1-2.2,1.6-3.2   c0.3-0.5,0.7-0.9,1.1-1.3c0.4-0.3,0.8-0.4,1.3-0.3C92.5,46.7,92.7,46.8,92.8,47C92.8,47,92.8,47,92.8,47z"></path>		<path class="st3" d="M84.4,60c0.1,0,0.2,0,0.3,0c0.4,0.1,0.8,0,1.1-0.3c0.4-0.4,0.7-0.9,0.9-1.5c0.6-1.5,1.2-3.1,1.8-4.7   c0.3-0.8,0.6-1.6,0.9-2.4c0.2-0.5,0.5-1.1,0.8-1.6c0,0,0-0.1,0.1,0c0,0.1,0,0.3,0,0.5c0,0,0,0.1,0,0.1c0,0,0,0,0,0c0,0,0,0,0,0.1   c-0.1,0.2-0.2,0.4-0.3,0.6c-0.5,1-0.8,2.1-1.2,3.2c-0.5,1.5-1.1,2.9-1.7,4.4c-0.2,0.5-0.4,0.9-0.7,1.3c-0.2,0.3-0.5,0.6-0.9,0.6   C85,60.4,84.6,60.3,84.4,60z"></path>		<path class="st4" d="M56.7,47.3c-0.4,0.1-0.6,0.4-0.8,0.7c-0.7,0.9-1.1,2-1.5,3.1c-0.4,0.9-0.6,1.8-0.7,2.8   c-0.1,0.5-0.3,1-0.5,1.4c-0.4,0.8-0.8,1.5-1.2,2.3c-0.1,0.1-0.2,0.2-0.3,0.3c-0.3,0.2-0.5,0.2-0.7-0.2c0.3,0,0.5-0.2,0.6-0.4   c0.6-1.1,1.2-2.1,1.7-3.3c0.1-0.2,0.1-0.3,0.1-0.5c0.1-1.2,0.5-2.3,1-3.4c0.3-0.8,0.7-1.6,1.2-2.3c0.2-0.2,0.4-0.5,0.6-0.7   c0.2-0.2,0.4-0.3,0.6-0.1C56.7,47.2,56.7,47.3,56.7,47.3z"></path>		<path class="st3" d="M32.2,38.3c0-0.1,0-0.2-0.1-0.2c0.4,0.2,0.5,0.6,0.6,0.9c0.1,0.4,0.1,0.7,0.2,1.1c0.1,1.9,0.3,3.7,0.4,5.6   c0.2,2.2,0.4,4.3,0.9,6.4c0.2,1,0.6,2,1.2,2.8c-0.1,0-0.2-0.1-0.2-0.1c-0.4-0.6-0.8-1.2-1-1.9c-0.3-0.8-0.5-1.7-0.6-2.6   c-0.1-0.8-0.2-1.6-0.3-2.4c-0.1-0.6-0.1-1.3-0.2-1.9c-0.1-0.6-0.1-1.2-0.1-1.8c0-0.7-0.1-1.3-0.1-2c-0.1-0.7-0.1-1.5-0.2-2.2   c0-0.4-0.1-0.8-0.2-1.2C32.4,38.6,32.3,38.4,32.2,38.3z"></path>		<path class="st3" d="M92.8,47C92.8,47,92.8,47,92.8,47c0.4,0.3,0.6,0.8,0.6,1.4c0.1,0.8-0.1,1.5-0.3,2.3c-0.2,1-0.3,2-0.4,2.9   c-0.1,0.8-0.1,1.6-0.1,2.5c0.1,2.3,0.6,4.4,2,6.2c0,0.1,0.1,0.1,0.1,0.2c-0.1,0-0.2-0.1-0.2-0.2c-0.7-1-1.3-2-1.7-3.2   c-0.2-0.6-0.3-1.2-0.4-1.9c-0.2-1.1-0.1-2.1-0.1-3.2c0-0.4,0-0.9,0.1-1.3c0-0.3,0.1-0.5,0.1-0.8c0-0.6,0.2-1.2,0.3-1.8   c0.1-0.6,0.2-1.2,0.2-1.7C93.1,47.9,93,47.4,92.8,47z"></path>		<path class="st4" d="M65.5,50.3c-0.1,0-0.2,0-0.3,0c-0.7-0.3-1.4-0.1-2,0.2c-0.6,0.4-1.1,0.9-1.5,1.5c-0.5,0.7-0.9,1.5-1.1,2.4   c0,0.2-0.1,0.3-0.2,0.5c-0.4,0.6-0.8,1.1-1.4,1.5c-0.5,0.3-1,0.6-1.6,0.5c-0.3,0-0.6-0.1-0.7-0.4c1,0.2,1.7-0.2,2.4-0.8   c0.4-0.4,0.8-0.9,1.1-1.3c0.1-0.1,0.1-0.2,0.1-0.4c0.3-1.4,1-2.5,2.1-3.5c0.5-0.5,1.1-0.8,1.8-0.8C64.6,49.7,65.1,49.8,65.5,50.3z   "></path>		<path class="st3" d="M95,56.5c0.1,0,0.2,0,0.3,0.1c0.4,0.3,0.9,0.4,1.4,0.4c0.4,0,0.9-0.1,1.3-0.3c0.5-0.2,1.1-0.5,1.5-0.9   c1-0.8,1.7-1.8,2.3-2.9c0.3-0.6,0.6-1.2,0.7-1.9c0-0.2,0.1-0.5,0.1-0.7c0-0.1,0-0.3,0-0.4c0.3,0.1,0.3,0.2,0.3,0.5   c0,0.3-0.1,0.7-0.1,1c-0.3,1.2-0.9,2.2-1.6,3.2c-0.6,0.8-1.3,1.5-2.1,1.9c-0.8,0.4-1.5,0.7-2.4,0.6C96,57.1,95.5,56.9,95,56.5z"></path>		<path class="st4" d="M53.4,38.9c-0.1,0-0.2,0-0.3,0c-0.2,0-0.3,0-0.3,0.2c0,0.2,0,0.4,0,0.5c0,0.8-0.2,1.5-0.6,2.1   c-0.5,0.9-1.3,1.4-2.3,1.7c-0.8,0.2-1.7,0.2-2.5,0c-0.6-0.1-1.2-0.3-1.8-0.5c-0.6-0.2-1.2-0.5-1.8-0.8c-0.1-0.1-0.2-0.1-0.2-0.2   c0.5,0.1,0.9,0.4,1.3,0.6c1.1,0.4,2.3,0.7,3.5,0.7c0.7,0,1.4-0.1,2.1-0.5c0.9-0.5,1.4-1.2,1.7-2.1c0.2-0.6,0.3-1.2,0.2-1.7   c0-0.1,0-0.1,0-0.2c0-0.2,0.1-0.3,0.3-0.2C53,38.7,53.2,38.8,53.4,38.9z"></path>		<path class="st4" d="M97.4,46.2c-0.4,0-0.6,0.2-0.7,0.5c-0.3,0.4-0.5,0.8-0.7,1.3c-0.2,0.5-0.5,1-0.7,1.5   c-0.4,0.9-0.6,1.9-0.8,2.8c-0.1,0.6-0.2,1.1-0.1,1.7c0,0.7,0.1,1.5,0.5,2.1c0.1,0.1,0.1,0.2,0.1,0.3c-0.3-0.3-0.5-0.7-0.7-1.1   c-0.2-0.5-0.2-1-0.2-1.5c-0.1-1.7,0.4-3.3,1-4.9c0.3-0.7,0.6-1.4,1-2.1c0.1-0.2,0.3-0.4,0.4-0.6c0.3-0.3,0.6-0.4,0.9-0.3   C97.4,46,97.4,46.1,97.4,46.2z"></path>		<path class="st3" d="M76,58.6c0.2,0,0.3,0.1,0.4,0.2c0.9,0.3,1.7,0.2,2.5-0.4c0.5-0.3,0.8-0.8,1.2-1.3c0.6-0.8,1.1-1.7,1.6-2.6   c0.4-0.8,0.8-1.6,1.1-2.5c0,0,0,0,0.1-0.1c0.1,0.2,0,0.5,0.1,0.7c-0.2,0.6-0.4,1.1-0.7,1.6c-0.5,1.1-1.1,2.2-1.8,3.1   c-0.2,0.3-0.5,0.7-0.8,1c-0.5,0.5-1,0.8-1.7,0.9C77.2,59.3,76.5,59.2,76,58.6z"></path>		<path class="st4" d="M70.1,41.7c-0.1,0.1-0.1,0.2-0.1,0.3c-0.2,0.1-0.3,0.2-0.5,0.4c-0.6,0.9-1.1,1.9-1.5,2.9   c-0.7,1.7-1.3,3.5-1.9,5.2c0,0.1-0.1,0.1-0.1,0.2c-0.1-0.1-0.3-0.2-0.4-0.4c0.2,0,0.2-0.2,0.2-0.3c0.2-0.7,0.5-1.4,0.7-2.1   c0.5-1.4,1-2.8,1.6-4.1c0.2-0.5,0.5-1,0.8-1.5c0.1-0.2,0.3-0.4,0.5-0.6C69.7,41.7,69.9,41.6,70.1,41.7z"></path>		<path class="st4" d="M82.3,37.7c-0.3,0-0.5,0.3-0.7,0.5c-0.3,0.3-0.5,0.7-0.7,1.1c-0.7,1.2-1.2,2.5-1.7,3.9   c-0.1,0.2-0.1,0.3-0.2,0.5c0,0.2-0.1,0.2-0.3,0.2c-0.3,0-0.6-0.1-1-0.1c-0.9-0.2-1.7-0.5-2.5-1c-0.1-0.1-0.2-0.1-0.2-0.3   c0.4,0.2,0.8,0.5,1.3,0.6c0.7,0.2,1.3,0.4,2,0.5c0.2,0,0.3,0,0.4-0.3c0.5-1.3,1-2.7,1.7-3.9c0.3-0.5,0.5-1.1,0.9-1.5   c0.1-0.2,0.3-0.3,0.4-0.4c0.2-0.1,0.3-0.1,0.5-0.1C82.3,37.5,82.3,37.6,82.3,37.7z"></path>		<path class="st4" d="M90.5,50.3c0.1,0,0.2-0.2,0.3-0.2c0.1,0.3,0,0.6-0.1,0.9c-0.1,0.7-0.3,1.4-0.3,2.2c-0.1,0.8-0.1,1.6-0.1,2.5   c0,0.5,0.1,1,0.1,1.5c0.1,0.8,0.2,1.6,0.4,2.4c0.3,1,0.6,1.8,1.2,2.7c0.1,0.1,0.2,0.2,0.2,0.4c-0.2-0.2-0.4-0.4-0.5-0.7   c-0.7-1-1.1-2.2-1.3-3.4C90.1,57.7,90,56.9,90,56c-0.1-0.9,0-1.7,0-2.6c0-0.8,0.1-1.6,0.3-2.4C90.4,50.8,90.4,50.5,90.5,50.3z"></path>		<path class="st3" d="M56.7,47.3c0-0.1,0-0.1,0-0.2c0.3,0.1,0.3,0.4,0.4,0.6c0,0.3,0,0.7-0.1,1c-0.2,0.6-0.4,1.2-0.5,1.8   c-0.3,1.3-0.6,2.6-0.6,3.9c0,0.6,0.1,1.1,0.4,1.7c-0.4-0.2-0.5-0.6-0.6-1c-0.1-0.6-0.1-1.1-0.1-1.7c0.1-0.7,0.2-1.4,0.3-2.2   c0.2-1,0.5-2,0.8-3c0-0.2,0.1-0.4,0.1-0.7C56.7,47.6,56.8,47.4,56.7,47.3z"></path>		<path class="st4" d="M102.6,49.9c0,0.1,0,0.3,0,0.4c-0.1,0.1-0.1,0.2-0.2,0.3c-0.2,0.5-0.3,1-0.6,1.5c-0.4,0.9-0.9,1.8-1.7,2.5   c-0.5,0.5-1.1,0.8-1.8,0.9c-0.3,0-0.6,0-0.9-0.1c-0.1-0.1-0.2-0.1-0.2-0.3c0.9,0.3,1.6,0,2.3-0.6c0.6-0.5,1-1.1,1.4-1.7   c0.4-0.7,0.8-1.5,1.1-2.4c0.1-0.2,0.1-0.3,0.2-0.5C102.4,49.9,102.5,49.8,102.6,49.9z"></path>		<path class="st3" d="M97.4,46.2c0-0.1,0-0.2,0-0.3c0.3,0.1,0.3,0.3,0.3,0.5c0,0.5,0,1-0.2,1.4c-0.3,1-0.6,2.1-0.8,3.2   c-0.1,0.9-0.2,1.7-0.2,2.6c0,0.4,0.2,0.8,0.3,1.1c-0.4-0.2-0.5-0.6-0.6-1c-0.1-0.6-0.1-1.2,0-1.9c0.1-0.7,0.2-1.5,0.3-2.2   c0.1-0.6,0.3-1.2,0.5-1.8C97.3,47.3,97.4,46.8,97.4,46.2z"></path>		<path class="st4" d="M46.5,50.8c0.3,0.1,0.3,0.2,0.2,0.4c-0.1,0.6-0.3,1.1-0.6,1.6c-0.4,0.9-0.9,1.7-1.5,2.5   c-0.4,0.5-0.8,0.9-1.2,1.2c-0.1,0.1-0.3,0.1-0.3,0.3c-0.1,0-0.2,0-0.3,0c-0.1-0.2-0.1-0.3,0.1-0.5c0.3-0.2,0.5-0.4,0.7-0.6   c1.1-1,1.8-2.3,2.4-3.7c0.2-0.4,0.3-0.8,0.4-1.2C46.4,50.8,46.4,50.8,46.5,50.8z"></path>		<path class="st3" d="M42.8,56.8c0.1,0,0.2,0,0.3,0c0.4,0.1,0.7,0,1-0.2c0.7-0.4,1.2-0.9,1.7-1.5c0.2-0.3,0.5-0.5,0.7-0.8   c0.4-0.6,0.7-1.3,1-2c0-0.1,0-0.1,0.1-0.2c0.2,0,0.1,0.3,0.2,0.3c-0.3,0.9-0.7,1.8-1.3,2.5c-0.5,0.6-1,1.2-1.6,1.6   c-0.3,0.3-0.7,0.5-1.2,0.5C43.3,57.2,43,57.1,42.8,56.8z"></path>		<path class="st4" d="M42.3,34.1c-0.1,0-0.2-0.1-0.3-0.1c-0.5-0.3-1-0.3-1.5,0c-0.1,0-0.1,0.1-0.1,0.1c-0.1,0-0.2,0-0.3,0.1   c-0.3,0.3-0.5,0.6-0.5,0.9c-0.1,0.3,0,0.6,0,1c-0.1,0.4,0.1,0.7,0.2,1c0.4,1.4,1,2.7,1.8,3.9c0,0.1,0.1,0.1,0.1,0.2   c-0.2-0.1-0.3-0.3-0.4-0.5c-0.9-1.3-1.6-2.7-1.9-4.2c-0.1-0.5-0.2-1.1,0-1.6c0.2-0.9,0.9-1.4,1.7-1.4   C41.5,33.4,41.9,33.6,42.3,34.1z"></path>		<path class="st3" d="M69.6,55.2C69.6,55.1,69.6,55.1,69.6,55.2c0.1-0.1,0.1,0,0.2,0.1c0,0.1,0,0.1,0.1,0.2   c-0.1,0.4-0.4,0.8-0.6,1.1c-0.4,0.8-0.9,1.5-1.5,2.1c-0.6,0.6-1.3,0.8-2.2,0.5c-0.3-0.1-0.5-0.2-0.7-0.5c0.2,0,0.3,0.1,0.4,0.1   c0.7,0.2,1.2,0.1,1.8-0.3c0.3-0.2,0.5-0.4,0.7-0.6C68.6,57.2,69.1,56.2,69.6,55.2C69.6,55.2,69.6,55.2,69.6,55.2z"></path>		<path class="st4" d="M73,36.3c-0.2,0-0.3,0.1-0.5,0.2c-0.5,0.3-0.8,0.7-1,1.2c-0.2,0.4-0.2,0.8-0.3,1.3c-0.1,1.2,0.2,2.4,0.8,3.4   c0,0.1,0.1,0.2,0.1,0.3c-0.2-0.2-0.4-0.4-0.5-0.7c-0.8-1.4-1.1-2.9-0.5-4.5c0.3-0.9,1-1.4,1.9-1.6c0,0,0.1,0,0.1,0   C73.1,36,73.1,36.2,73,36.3z"></path>		<path class="st3" d="M48.6,59.5c0.1,0,0.2,0,0.3,0.1c0.7,0.4,1.6,0.3,2.2-0.3c0.7-0.6,1.2-1.4,1.7-2.2c0.1-0.3,0.3-0.6,0.5-0.9   c0.1,0.1,0.1,0.3,0.2,0.3c0,0.1,0,0.2-0.1,0.2c-0.3,0.6-0.6,1.1-0.9,1.6c-0.4,0.5-0.8,1-1.3,1.3C50.2,60.4,49.3,60.2,48.6,59.5z"></path>		<path class="st3" d="M82.3,37.7c0-0.1,0-0.2,0-0.3c0.3,0,0.3,0.2,0.3,0.5c0,0.4-0.1,0.8-0.2,1.2c-0.2,0.7-0.5,1.4-0.8,2.1   c-0.3,0.6-0.5,1.2-0.7,1.8c0,0.1-0.1,0.3-0.2,0.4c-0.1,0-0.2,0-0.3,0c0-0.3,0.2-0.6,0.3-0.9c0.4-1.1,0.9-2.1,1.3-3.1   C82.1,38.8,82.3,38.3,82.3,37.7z"></path>		<path class="st3" d="M54.4,57.9c0.1,0,0.2,0.1,0.3,0.1c0.4,0.2,0.7,0.3,1.1,0.3c0.2,0,0.5,0,0.7-0.1c0.9-0.2,1.7-0.7,2.4-1.3   c0.3-0.2,0.5-0.5,0.7-0.7c0.1-0.1,0.1-0.1,0.2-0.2c0.1,0.1,0,0.3,0.2,0.3c-0.1,0.2-0.2,0.3-0.3,0.4c-0.7,0.8-1.6,1.4-2.6,1.7   c-0.9,0.3-1.8,0.2-2.6-0.4C54.5,58.1,54.4,58,54.4,57.9z"></path>		<path class="st3" d="M43.5,41.8c-0.3-0.1-0.3-0.1-0.3-0.5c0-0.1,0-0.1,0-0.2c0-0.6,0.1-1.2,0.1-1.7c-0.1-1.5-0.2-3.1-0.8-4.5   c-0.1-0.2-0.1-0.3-0.2-0.5c0-0.1-0.1-0.2-0.1-0.2c0.2,0.2,0.4,0.4,0.5,0.7c0.3,0.8,0.5,1.6,0.7,2.4c0.2,1.5,0.2,2.9,0.1,4.4   C43.5,41.7,43.5,41.7,43.5,41.8z"></path>		<path class="st3" d="M50.5,57.5c-0.1,0-0.2-0.1-0.2-0.2c-0.1-0.2-0.2-0.4-0.2-0.7c0-0.6,0-1.1,0.1-1.7c0.1-0.5,0.1-0.9,0.1-1.4   c0.1-0.4,0-0.8,0.1-1.2c0-0.3,0-0.6-0.1-0.8c0-0.1-0.1-0.2-0.1-0.3c0.3,0.2,0.4,0.5,0.5,0.9c0.1,0.4,0.1,0.8,0,1.2   c-0.1,0.8-0.2,1.6-0.3,2.5C50.5,56.4,50.4,56.9,50.5,57.5z"></path>		<path class="st4" d="M83.2,52.9c0.1-0.1,0.1-0.2,0.3-0.3c0,0.4,0,0.8,0,1.2c0.1,0.7,0,1.4,0.1,2.1c0,0.3,0,0.6,0.1,0.9   c0.1,1,0.3,2,0.7,3c0,0.1,0.1,0.1,0,0.2c-0.3-0.4-0.5-0.9-0.6-1.4c-0.3-1-0.4-2-0.5-3c0-0.7,0-1.4-0.1-2.1   C83.1,53.2,83.1,53,83.2,52.9z"></path>		<path class="st3" d="M70.6,56.7c0.2,0,0.3,0.1,0.5,0.2c0.5,0.2,0.9,0,1.4-0.1c0.6-0.2,1.2-0.6,1.7-1.1c0.3-0.3,0.6-0.5,0.8-0.9   c0-0.1,0.1-0.1,0.2-0.1c0,0.2,0,0.4,0,0.5c-0.4,0.6-1,1.1-1.6,1.5c-0.4,0.3-0.9,0.5-1.4,0.5C71.5,57.3,71,57.1,70.6,56.7z"></path>		<path class="st4" d="M47.5,45.7c-0.1,0-0.1,0-0.2,0c-0.4-0.2-0.8-0.2-1.3-0.1c-0.4,0.1-0.6,0.3-0.8,0.6c-0.2,0.3-0.2,0.6-0.2,0.9   c0,0.7,0.1,1.4,0.3,2.1c0.1,0.2,0.2,0.3,0.2,0.5c-0.3-0.3-0.4-0.6-0.6-1c-0.2-0.7-0.3-1.3-0.3-2c0-0.4,0.1-0.7,0.4-1   c0.2-0.3,0.5-0.4,0.9-0.5C46.5,45.1,47.1,45.3,47.5,45.7z"></path>		<path class="st4" d="M47.9,52.7c0.1,0,0.3,0,0.3,0.2c0,0.3,0.1,0.6,0.1,0.9c-0.1,0.3,0,0.7-0.1,1c-0.1,0.4-0.1,0.9-0.2,1.3   c-0.2,1-0.1,2,0.4,3c0,0.1,0.1,0.2,0.1,0.3c-0.2-0.2-0.4-0.4-0.5-0.7c-0.2-0.5-0.3-1-0.3-1.5c0-0.8,0.1-1.5,0.2-2.2   c0.1-0.5,0.1-0.9,0.1-1.4C48,53.2,48,53,47.9,52.7z"></path>		<path class="st3" d="M60.6,57.2c0.2,0,0.4,0.1,0.7,0.1c0.5,0,1-0.2,1.5-0.4c0.5-0.3,0.9-0.7,1.2-1.1c0,0,0.1-0.1,0.1-0.1   c0,0,0.1-0.1,0.1,0c0,0,0,0.1,0,0.1c0,0.1-0.1,0.3,0,0.4c-0.6,0.8-1.4,1.4-2.4,1.5C61.3,57.7,60.9,57.6,60.6,57.2z"></path>		<path class="st3" d="M73,36.3c0.1-0.1,0.1-0.3,0.2-0.5c0.3,0,0.4,0.1,0.3,0.4c-0.3,0.8-0.4,1.7-0.3,2.5c0.1,0.8,0.3,1.5,0.7,2.2   c0,0.1,0.1,0.1,0.1,0.2c-0.2-0.1-0.3-0.3-0.4-0.5c-0.6-1-0.8-2-0.7-3.2c0-0.3,0-0.6,0.2-0.9C73,36.5,73,36.4,73,36.3z"></path>		<path class="st3" d="M48.4,50.1c-0.3-0.1-0.3-0.1-0.3-0.4c0.1-0.9,0.2-1.9,0-2.8c-0.1-0.3-0.2-0.6-0.4-0.9c0-0.1-0.1-0.1-0.1-0.2   c0.4,0.3,0.6,0.8,0.7,1.3c0.2,0.8,0.2,1.6,0.1,2.4C48.4,49.7,48.5,49.9,48.4,50.1z"></path>		<path class="st3" d="M72.6,43.3c0.1,0,0.2,0.1,0.3,0.1c0.8,0.6,1.8,0.9,2.7,1.2c0.6,0.2,1.2,0.3,1.9,0.3c0.3,0,0.3,0.1,0.3,0.3   c-0.3,0-0.6,0-0.9-0.1c-1.1-0.2-2.2-0.4-3.2-1C73.4,43.9,73,43.6,72.6,43.3z"></path>		<path class="st4" d="M78.1,45.3c0,0.1,0,0.1,0.1,0.1c0.2,0,0.2,0.1,0.1,0.3c-0.3,0.9-0.6,1.8-0.9,2.6c0,0.1,0,0.2-0.1,0.2   c-0.1,0-0.2-0.1-0.2-0.2c0,0,0-0.1,0-0.1c0.3-0.9,0.6-1.8,0.9-2.6C77.9,45.5,78,45.4,78.1,45.3z"></path>		<path class="st3" d="M93.2,63.7c0.1,0,0.1,0,0.2,0.1c0.4,0.3,0.9,0.6,1.5,0.8c0.3,0.1,0.5,0.2,0.8,0.2c0.1,0,0.2,0,0.3,0   c0.2,0.1,0.2,0,0.3-0.1c0.1-0.1,0-0.2,0-0.3c-0.1-0.2-0.2-0.4-0.3-0.6c0.3,0.2,0.5,0.6,0.6,0.9c0.1,0.1,0,0.3-0.1,0.4   c-0.1,0.1-0.2,0.1-0.3,0.1c0,0-0.1,0-0.2,0c-0.6,0-1.2-0.2-1.7-0.5c-0.3-0.2-0.6-0.4-0.9-0.6C93.4,63.8,93.2,63.8,93.2,63.7z"></path>		<path class="st4" d="M75.4,55.3c0.1,0,0.1,0,0.2,0c0,0.5-0.1,0.9-0.1,1.4c0,0.6,0,1.2,0.4,1.8c0,0,0,0.1,0,0.2   c-0.4-0.4-0.6-0.9-0.7-1.5c-0.1-0.5-0.1-1,0-1.5c0-0.1,0-0.1,0-0.2C75.4,55.4,75.4,55.4,75.4,55.3C75.4,55.3,75.4,55.3,75.4,55.3z   "></path>		<path class="st4" d="M64.4,56.1c0.1,0.2,0.2,0.1,0.3,0c0,0.1,0,0.3,0,0.4c0,0.6-0.1,1.3,0.1,1.9c0,0.1,0.1,0.2,0.1,0.4   c-0.3-0.3-0.5-0.7-0.5-1.1c-0.1-0.5,0-0.9,0-1.4C64.4,56.2,64.4,56.1,64.4,56.1z"></path>		<path class="st4" d="M90.3,50.1c0,0,0-0.1,0-0.1c0,0,0.1-0.1,0.1-0.1c0,0,0.1-0.1,0.2,0c0.1,0.1,0,0.1,0,0.2   C90.3,49.9,90.4,50.1,90.3,50.1z"></path>		<path class="st4" d="M92.2,62.7c0.1,0,0.2,0.1,0.2,0.3C92.3,62.9,92.2,62.8,92.2,62.7z"></path>		<path class="st3" d="M95,62.7c-0.1,0-0.2-0.1-0.2-0.3C94.9,62.5,95,62.6,95,62.7z"></path>		<path class="st3" d="M74.1,41.4c-0.1,0-0.2-0.1-0.2-0.3C74,41.2,74.1,41.3,74.1,41.4z"></path>		<path class="st4" d="M72.1,42.7c0.1,0,0.2,0.1,0.2,0.2C72.2,42.9,72.1,42.8,72.1,42.7z"></path>		<path class="st3" d="M93,63.5c0.1,0,0.2,0,0.2,0.1C93.1,63.7,93.1,63.6,93,63.5z"></path>		<path class="st4" d="M64.3,55.9c0-0.1,0.1-0.1,0.1-0.1c0,0,0,0.1,0,0.1C64.4,55.9,64.4,55.9,64.3,55.9z"></path>		<path class="st4" d="M75,42.3c-0.1,0-0.1,0-0.1-0.1C74.9,42.2,75,42.2,75,42.3z"></path>		<path class="st4" d="M33,57.8c0.1,0,0.1,0.1,0.1,0.1C33,57.9,33,57.9,33,57.8z"></path>		<path class="st4" d="M45.5,49.7c0.1,0,0.1,0.1,0.1,0.1C45.6,49.9,45.5,49.8,45.5,49.7z"></path>		<path class="st4" d="M83.1,52.5C83.1,52.4,83.1,52.3,83.1,52.5c0.1-0.1,0.1,0,0.1,0C83.1,52.5,83.1,52.5,83.1,52.5z"></path>		<path class="st4" d="M75.3,55c0-0.1,0-0.1,0.1-0.1C75.4,55,75.4,55,75.3,55C75.3,55,75.3,55,75.3,55z"></path>		<path class="st4" d="M75.4,55.2c0.1,0,0.1,0.1,0.1,0.1c0,0,0,0,0,0c0,0,0,0-0.1,0C75.3,55.3,75.3,55.2,75.4,55.2z"></path>		<path class="st3" d="M72.5,43.1c0,0,0.1,0,0.1,0.1C72.5,43.2,72.5,43.2,72.5,43.1z"></path>		<path class="st2" d="M75.4,55.3C75.4,55.3,75.4,55.3,75.4,55.3c0.1,0.1,0.1,0.1,0,0.1C75.3,55.4,75.4,55.3,75.4,55.3z"></path>		<path class="st3" d="M47.6,45.8c-0.1,0-0.1-0.1-0.1-0.1C47.6,45.7,47.6,45.8,47.6,45.8z"></path>		<path class="st3" d="M74.2,41.5C74.1,41.5,74.1,41.5,74.2,41.5C74.1,41.4,74.2,41.5,74.2,41.5z"></path>		<path class="st3" d="M54.3,57.8c0.1,0,0.1,0,0.1,0.1C54.3,57.9,54.3,57.9,54.3,57.8z"></path>		<path class="st3" d="M92.7,63.2c0,0,0.1,0,0.1,0.1C92.7,63.3,92.7,63.2,92.7,63.2z"></path>		<path class="st3" d="M72.6,43.2C72.6,43.2,72.6,43.2,72.6,43.2C72.6,43.3,72.6,43.2,72.6,43.2z"></path>		<path class="st3" d="M91,33.9C90.9,33.9,90.9,33.8,91,33.9C90.9,33.8,91,33.8,91,33.9z"></path>		<path class="st3" d="M95.1,62.8C95,62.8,95,62.8,95.1,62.8C95,62.7,95,62.8,95.1,62.8z"></path>		<path class="st3" d="M92.8,63.3C92.8,63.3,92.8,63.3,92.8,63.3C92.8,63.3,92.8,63.3,92.8,63.3z"></path>		<path class="st3" d="M92.8,63.3C92.8,63.3,92.9,63.4,92.8,63.3C92.9,63.4,92.8,63.4,92.8,63.3z"></path>		<path class="st3" d="M92.9,63.4C92.9,63.4,92.9,63.4,92.9,63.4C92.9,63.5,92.9,63.4,92.9,63.4z"></path>		<path class="st3" d="M93,63.5C93,63.5,93,63.5,93,63.5C93,63.5,93,63.5,93,63.5z"></path>		<path class="st4" d="M90.2,50.3C90.2,50.2,90.2,50.2,90.2,50.3C90.2,50.2,90.2,50.2,90.2,50.3z"></path>		<path class="st3" d="M95.9,63.6C95.9,63.6,95.8,63.6,95.9,63.6C95.8,63.6,95.9,63.6,95.9,63.6z"></path>		<path class="st3" d="M74.3,41.6C74.2,41.6,74.2,41.6,74.3,41.6C74.2,41.6,74.3,41.6,74.3,41.6z"></path>		<path class="st3" d="M83.5,44.5c-0.1,0.1-0.2,0.1-0.3,0.1c-0.9,0.3-1.8,0.5-2.8,0.6c-0.2,0-0.3,0.1-0.4,0.3   c-0.6,1.9-1.1,3.8-1.3,5.8c-0.2,1.2-0.3,2.4-0.3,3.7c0,0.5,0,1,0.1,1.5c-0.3,0-0.3-0.2-0.3-0.4c-0.1-0.2-0.1-0.4-0.1-0.7   c0-0.2,0-0.4,0-0.6c0-0.1,0-0.3,0-0.4c0-0.1,0-0.3,0-0.4c0-0.5,0.1-1,0.1-1.5c0.1-0.7,0.2-1.3,0.3-2c0.1-0.8,0.3-1.6,0.5-2.3   c0.2-1,0.5-1.9,0.8-2.9c0.1-0.4,0.1-0.4,0.5-0.4c0.6,0,1.2-0.2,1.8-0.3c0.4-0.1,0.8-0.2,1.1-0.4C83.4,44.1,83.4,44.1,83.5,44.5   C83.5,44.4,83.5,44.4,83.5,44.5z"></path>		<path class="st4" d="M78.8,56.8c0.5-0.2,0.9-0.5,1.2-1c1.1-1.4,1.9-3,2.5-4.6c0.3-0.7,0.5-1.4,0.6-2.1c0.1-0.8,0.3-1.7,0.4-2.5   c0.1-0.6,0.1-1.2,0.2-1.9c0,0,0.1,0,0.1,0c0.1-0.1,0.2,0,0.2,0.1c0,0.1,0,0.2,0,0.2c-0.1,0.5-0.1,1.1-0.2,1.6   c-0.1,0.9-0.2,1.8-0.4,2.7c-0.1,0.5-0.2,1.1-0.4,1.6c-0.5,1.4-1.1,2.7-1.9,4c-0.3,0.5-0.7,1-1,1.5c-0.2,0.2-0.4,0.4-0.7,0.6   C79,57.1,79,57.1,78.8,56.8z"></path>		<path class="st3" d="M90.4,34.5c-0.3,0-0.5,0.1-0.7,0.3c-0.3,0.2-0.5,0.5-0.7,0.8c-1.1,1.7-1.9,3.5-2.4,5.5c0,0.1,0,0.3-0.1,0.4   c-0.4,0.1-0.4,0.1-0.3-0.3c0.2-0.7,0.3-1.3,0.5-2c0.2-0.6,0.4-1.2,0.7-1.8c0.3-0.6,0.6-1.2,0.9-1.8c0.2-0.4,0.5-0.7,0.8-1.1   c0.2-0.2,0.4-0.3,0.6-0.4C90.1,34.1,90.3,34.2,90.4,34.5z"></path>		<path class="st4" d="M86.7,41.8c0.1-0.2,0.3-0.3,0.5-0.4c1.2-1.1,2.1-2.3,2.9-3.7c0.2-0.4,0.4-0.7,0.5-1.1   c0.2-0.6,0.3-1.1,0.1-1.7c0.3,0.1,0.3,0.3,0.4,0.6c0,0.1,0,0.2,0.1,0.3c0,0.1,0,0.3-0.1,0.4c0,0-0.1,0-0.1,0.1c0,0.1,0,0.2,0,0.2   c0,0-0.1,0.1-0.1,0.1c-0.2,0.7-0.5,1.3-0.9,1.9c-0.6,1.1-1.4,2-2.3,2.9c-0.3,0.3-0.7,0.6-1,0.9C86.8,42.1,86.9,41.9,86.7,41.8z"></path>		<path class="st3" d="M76.1,49.4c0,0-0.1,0-0.1,0c-0.5-0.3-1-0.1-1.4,0.2c-0.2,0.1-0.3,0.3-0.4,0.5c-0.7,1-1.2,2.1-1.3,3.3   c-0.1,0.4,0,0.8,0,1.2c-0.2,0-0.3-0.1-0.3-0.3c0-0.2-0.1-0.4-0.1-0.7c0.1-0.7,0.2-1.4,0.4-2c0.3-0.7,0.6-1.3,1-1.9   c0.2-0.3,0.5-0.6,0.9-0.7C75.2,48.8,75.8,49,76.1,49.4z"></path>		<path class="st4" d="M73.1,54.9c0.3,0,0.5-0.1,0.7-0.3c0.6-0.5,1.1-1.1,1.6-1.7c0-0.1,0.1-0.1,0.1-0.2c0.2-0.2,0.3-0.5,0.4-0.8   c0.1-0.6,0.3-1.2,0.5-1.9c0-0.1,0-0.1,0.1-0.1c0.2,0.1,0.3,0.2,0.2,0.4c-0.2,0.7-0.4,1.5-0.6,2.2c-0.1,0.2-0.3,0.4-0.4,0.6   c-0.4,0.6-1,1.1-1.5,1.6c-0.2,0.2-0.4,0.3-0.6,0.4C73.4,55.3,73.3,55.2,73.1,54.9z"></path>		<path class="st3" d="M76.3,49.6c-0.1,0-0.2-0.1-0.2-0.2C76.2,49.4,76.2,49.5,76.3,49.6z"></path>		<path class="st4" d="M41.7,40.4C41.7,40.4,41.8,40.4,41.7,40.4c0.1-0.5,0.1-1,0.1-1.5c-0.1-0.9-0.2-1.8-0.4-2.7   c-0.1-0.5-0.3-1.1-0.5-1.6c0.2,0,0.2,0.2,0.3,0.3c0.2,0.4,0.4,0.8,0.5,1.2c0.2,0.6,0.3,1.3,0.4,1.9c0.1,0.6,0.1,1.3,0.1,2   c0,0.2,0,0.4,0,0.6C41.9,40.7,41.8,40.6,41.7,40.4z"></path>		<path class="st3" d="M40.4,34.3c-0.2,0-0.4,0.1-0.4,0.3c-0.2,0.4-0.2,0.8-0.2,1.3c0.1,0.9,0.4,1.8,0.8,2.7   c0.2,0.4,0.4,0.8,0.6,1.1c0,0.1,0.1,0.1,0.1,0.3c-0.3-0.1-0.4-0.4-0.5-0.6c-0.5-1-1-2-1.2-3.2c0-0.1,0-0.1-0.1-0.1   c0-0.3,0-0.6,0-1c0.1-0.4,0.3-0.7,0.5-0.9c0.1-0.1,0.2-0.1,0.3-0.1C40.4,34.1,40.4,34.2,40.4,34.3z"></path>		<path class="st3" d="M41.3,39.9c0.1,0.1,0.2,0.2,0.2,0.3C41.4,40.2,41.3,40.1,41.3,39.9z"></path>		<path class="st3" d="M65.1,51.5c-0.1,0-0.1-0.1-0.2-0.1c-0.3-0.2-0.7-0.1-1,0.1c-0.2,0.1-0.3,0.3-0.4,0.5   c-0.5,0.8-0.9,1.6-1.1,2.5c-0.1,0.4,0,0.7,0,1.1c-0.3-0.1-0.3-0.3-0.3-0.5c-0.1-0.8,0.1-1.5,0.5-2.2c0.1-0.3,0.3-0.6,0.5-0.9   c0.2-0.3,0.4-0.5,0.6-0.7c0.3-0.3,0.7-0.3,1.1-0.1C64.8,51.2,65,51.3,65.1,51.5z"></path>		<path class="st4" d="M62.7,55.8c0.2-0.1,0.4-0.2,0.6-0.4c0.6-0.5,1-1,1.4-1.6c0.1-0.1,0.1-0.2,0.1-0.3c0.2-0.6,0.3-1.2,0.5-1.9   c0.3,0.2,0.3,0.2,0.2,0.5c-0.1,0.5-0.3,1.1-0.4,1.6c-0.1,0.2-0.2,0.4-0.3,0.6c-0.3,0.4-0.6,0.8-1,1.1c-0.2,0.2-0.4,0.3-0.7,0.5   C62.9,56.2,62.9,56.2,62.7,55.8z"></path>		<path class="st3" d="M46.2,47.1c-0.5,0-0.7,0.4-0.5,0.8c0,0.1,0.1,0.2,0.1,0.3c-0.4-0.2-0.6-0.8-0.5-1.1c0.1-0.2,0.3-0.3,0.5-0.3   C46.1,46.8,46.1,46.9,46.2,47.1z"></path>		<path class="st4" d="M46.7,49.1c0-0.4,0-0.7-0.1-1.1c0-0.2-0.2-0.4-0.1-0.7c0.2,0,0.2,0.1,0.3,0.3c0.1,0.3,0.2,0.7,0.2,1.1   c0,0.2,0,0.3,0,0.5c0,0,0,0.1,0,0.1c-0.1,0-0.1,0-0.1,0C46.7,49.3,46.7,49.2,46.7,49.1z"></path>		<path class="st3" d="M45.8,48.2c0.1,0,0.1,0.1,0.1,0.1C45.8,48.4,45.8,48.3,45.8,48.2z"></path>		<path class="st3" d="M45.9,48.4C45.9,48.4,45.9,48.4,45.9,48.4C45.9,48.4,45.9,48.4,45.9,48.4z"></path>		<path class="st2" d="M91.1,36.5c0-0.1,0-0.1,0.1-0.1C91.2,36.5,91.1,36.5,91.1,36.5z"></path>		<path class="st2" d="M91.2,36.2C91.2,36.1,91.2,36.1,91.2,36.2C91.2,36.1,91.2,36.1,91.2,36.2z"></path>		<g>			<path class="st5" d="M122.7,34.8c0.1,0.6-0.3,1-0.8,1.3c-1,0.5-2.5,0.4-3.1-0.4c-0.3-0.3-0.4-0.6-0.4-1c0.2-1.7,0.3-3.5,0.5-5.2    c0.1-0.9,0.1-1.9,0.3-2.8c0.1-0.4,0.3-0.7,0.7-0.8c0.5-0.2,1-0.2,1.4,0c0.4,0.1,0.7,0.4,0.7,0.9c0.1,0.9,0.2,1.9,0.3,2.8    c0.1,1.5,0.3,3.1,0.4,4.6C122.7,34.4,122.7,34.6,122.7,34.8z"></path>			<path class="st5" d="M120.5,5c0.5-0.1,0.9,0.1,1.3,0.3c0.7,0.4,1,1,0.8,2c-0.1,0.4-0.1,0.8-0.1,1.1c-0.1,1.5-0.3,3.1-0.4,4.6    c0,0.4-0.1,0.9-0.1,1.3c-0.1,0.8-0.5,1.2-1.3,1.2c-0.3,0-0.6,0-0.9-0.1c-0.4-0.2-0.6-0.5-0.7-1c-0.1-0.6-0.1-1.2-0.1-1.8    c-0.1-1.6-0.3-3.3-0.5-4.9c0-0.4-0.1-0.8-0.1-1.2c0-0.6,0.5-1.2,1.3-1.4C119.9,5,120.2,4.9,120.5,5z"></path>			<path class="st5" d="M134.6,27.2c0,1.1-0.7,2.2-1.7,2.6c-0.4,0.2-0.8,0.1-1.2-0.1c-1.9-1.4-3.9-2.7-5.8-4.1    c-0.2-0.1-0.3-0.2-0.5-0.3c-0.9-0.5-0.7-1.5-0.3-2.1c0.4-0.6,1-0.9,1.8-0.5c2.1,1,4.2,1.9,6.2,2.9c0.2,0.1,0.4,0.2,0.7,0.3    C134.4,26.1,134.5,26.6,134.6,27.2z"></path>			<path class="st5" d="M108.7,11.6c0.4-0.1,0.6,0.2,0.9,0.4c2.1,1.5,4.2,2.9,6.3,4.4c0.3,0.2,0.4,0.6,0.4,1c0,0.7-0.6,1.4-1.3,1.6    c-0.2,0-0.4,0-0.5,0c-1.6-0.7-3.1-1.4-4.7-2.2c-0.8-0.4-1.6-0.8-2.5-1.2c-0.7-0.3-0.9-0.8-0.8-1.4c0.1-1.1,0.6-2,1.6-2.5    C108.3,11.6,108.5,11.6,108.7,11.6z"></path>			<path class="st5" d="M116.3,24.2c0,0.4-0.2,0.6-0.5,0.8c-2,1.4-4.1,2.8-6.1,4.3c-0.5,0.4-1,0.7-1.7,0.3c-1-0.5-1.8-1.9-1.5-3    c0.1-0.5,0.5-0.7,0.9-0.9c2.2-1,4.5-2.1,6.7-3.1C115.2,22.2,116.3,22.9,116.3,24.2z"></path>			<path class="st5" d="M132.4,11.6c0.5,0,0.9,0.2,1.2,0.4c0.6,0.5,1,1.2,1,1.9c0.1,0.8-0.3,1.4-1,1.7c-1.3,0.6-2.6,1.2-4,1.8    c-1,0.5-2,0.9-2.9,1.4c-0.5,0.3-1,0.1-1.4-0.3c-0.3-0.3-0.5-0.7-0.6-1.1c-0.1-0.5,0-0.9,0.5-1.2c1.8-1.2,3.5-2.4,5.3-3.6    c0.4-0.3,0.8-0.6,1.2-0.9C131.9,11.6,132.1,11.5,132.4,11.6z"></path>		</g>		<g>			<g>				<path class="st5" d="M136.2,30.6c-0.5,0-0.8-0.4-0.8-0.8s0.4-0.8,0.8-0.8s0.8,0.4,0.8,0.8S136.7,30.6,136.2,30.6z M136.2,29.1     c-0.4,0-0.7,0.3-0.7,0.7s0.3,0.7,0.7,0.7s0.7-0.3,0.7-0.7S136.6,29.1,136.2,29.1z"></path>			</g>			<g>				<path class="st5" d="M136.4,30.1l-0.2-0.3h-0.1v0.3H136v-0.7h0.3c0.1,0,0.2,0.1,0.2,0.2c0,0.1-0.1,0.2-0.2,0.2l0.2,0.3H136.4z      M136.3,29.5h-0.2v0.2h0.2c0.1,0,0.1,0,0.1-0.1C136.4,29.5,136.4,29.5,136.3,29.5z"></path>			</g>		</g>		<g>			<path class="st5" d="M98.8,41.8c-0.1-0.1-0.2-0.2-0.4-0.3c-0.6-0.3-0.9-0.1-1.2,0.3c-0.3,0.4-0.4,0.9-0.5,1.3    c-0.1,0.4,0,0.8,0.2,1.2c0.1,0.1,0.2,0.3,0.4,0.3c0.5,0.4,1.1,0.4,1.5-0.2c0.3-0.5,0.5-1,0.6-1.6C99.4,42.5,99.2,42.1,98.8,41.8z    "></path>			<path class="st6" d="M99,42c0.2,0.2,0.3,0.5,0.3,0.9c0,0.6-0.2,1.1-0.6,1.6c-0.3,0.5-0.9,0.6-1.4,0.3c0.5,0.5,1.2,0.4,1.5-0.1    c0.3-0.5,0.5-1,0.6-1.6C99.5,42.6,99.3,42.2,99,42z"></path>			<path class="st7" d="M97.1,44.6c-0.3-0.4-0.3-0.8-0.2-1.2c0.1-0.5,0.2-0.9,0.5-1.3c0.3-0.4,0.6-0.6,1.2-0.3    c0.1,0,0.2,0.1,0.2,0.1c-0.1-0.1-0.3-0.2-0.4-0.3c-0.6-0.3-0.9-0.1-1.2,0.3c-0.3,0.4-0.4,0.9-0.5,1.3c-0.1,0.4,0,0.8,0.2,1.2    c0.1,0.1,0.2,0.2,0.3,0.3C97.2,44.7,97.2,44.6,97.1,44.6z"></path>		</g>		<g>			<path class="st5" d="M56.1,45.3c0-0.4,0.2-0.8,0.5-1.1c0.1-0.1,0.2-0.2,0.2-0.3c0.4-0.4,1-0.4,1.4,0.1c0.4,0.4,0.4,0.8,0.2,1.3    c-0.1,0.3-0.3,0.6-0.5,0.8c-0.5,0.5-1.3,0.4-1.7-0.2C56.2,45.7,56.1,45.5,56.1,45.3z"></path>			<path class="st8" d="M56.2,45.5c0-0.4,0.2-0.8,0.5-1.1c0.1-0.1,0.2-0.2,0.2-0.3c0.4-0.4,1-0.4,1.4,0.1c0,0,0.1,0.1,0.1,0.1    c-0.1-0.1-0.1-0.2-0.2-0.3c-0.4-0.4-1-0.5-1.4-0.1c-0.1,0.1-0.2,0.2-0.2,0.3c-0.3,0.3-0.4,0.7-0.5,1.1c0,0.2,0.1,0.4,0.2,0.6    c0,0,0,0,0,0C56.3,45.8,56.2,45.7,56.2,45.5z"></path>			<path class="st6" d="M58.3,44c0.2,0.3,0.2,0.7,0,1c-0.1,0.3-0.3,0.6-0.5,0.8c-0.4,0.4-1.1,0.4-1.5,0c0,0,0,0,0,0    c0.4,0.6,1.2,0.6,1.7,0.2c0.2-0.2,0.4-0.5,0.5-0.8C58.7,44.8,58.7,44.4,58.3,44z"></path>		</g>	</g></g></svg>