<svg xmlns="http://www.w3.org/2000/svg" id="Layer_1" data-name="Layer 1" viewBox="0 0 140 140"><defs><style>.cls-1{fill:none;stroke:#78be20;stroke-miterlimit:10;stroke-width:3px;}</style></defs><path id="Path_62" data-name="Path 62" class="cls-1" d="M110.81,92l19.41,12.85a5.46,5.46,0,0,1,2,7.45l-2.73,4.73a5.46,5.46,0,0,1-7.45,2l-19.42-12.85"></path><circle id="Ellipse_140" data-name="Ellipse 140" class="cls-1" cx="80.2" cy="82.71" r="31.6"></circle><circle id="Ellipse_141" data-name="Ellipse 141" class="cls-1" cx="17.89" cy="89.04" r="11.93"></circle><circle id="Ellipse_142" data-name="Ellipse 142" class="cls-1" cx="38.27" cy="55.09" r="11.93"></circle><circle id="Ellipse_143" data-name="Ellipse 143" class="cls-1" cx="79.61" cy="81.96" r="11.93"></circle><line id="Line_22" data-name="Line 22" class="cls-1" x1="113.51" y1="112.33" x2="122.04" y2="98.35"></line><path id="Path_63" data-name="Path 63" class="cls-1" d="M71.62,103.41a14.77,14.77,0,0,1-9.1-6.15"></path><line id="Line_23" data-name="Line 23" class="cls-1" x1="24.47" y1="78.72" x2="32.31" y2="65.42"></line><line id="Line_24" data-name="Line 24" class="cls-1" x1="86" y1="73.38" x2="108.77" y2="36.58"></line><line id="Line_25" data-name="Line 25" class="cls-1" x1="48.6" y1="61.05" x2="69.7" y2="75.32"></line><path id="Path_64" data-name="Path 64" class="cls-1" d="M97.75,37.93l11.63-2.42,2.42,11.62"></path></svg>