<svg xmlns="http://www.w3.org/2000/svg" id="Layer_1" data-name="Layer 1" viewBox="0 0 100 100"><defs><style>.cls-1,.cls-2{fill:none;stroke:#1471ce;stroke-width:2px;}.cls-1{stroke-linejoin:round;}.cls-2{stroke-miterlimit:10;}</style></defs><g id="Group_331" data-name="Group 331"><circle id="Ellipse_187" data-name="Ellipse 187" class="cls-1" cx="47.27" cy="63.81" r="21.08"></circle><path id="Path_461" data-name="Path 461" class="cls-1" d="M30.9,75.66a21.07,21.07,0,0,1,33,.32"></path><circle id="Ellipse_188" data-name="Ellipse 188" class="cls-1" cx="47.27" cy="55.88" r="6.1"></circle></g><g id="Group_355" data-name="Group 355"><path id="Path_463" data-name="Path 463" class="cls-2" d="M16.46,17.1H31.88A10.61,10.61,0,0,1,42.5,27.72h0a10.61,10.61,0,0,1-9.81,10.57v2.65a1.9,1.9,0,0,1-3.25,1.35l-4-4h-9A10.61,10.61,0,0,1,5.85,27.72h0A10.61,10.61,0,0,1,16.46,17.1Z"></path><g id="Group_333" data-name="Group 333"><circle id="Ellipse_189" data-name="Ellipse 189" class="cls-2" cx="16.2" cy="27.61" r="1.55"></circle><circle id="Ellipse_190" data-name="Ellipse 190" class="cls-2" cx="23.61" cy="27.61" r="1.55"></circle><circle id="Ellipse_191" data-name="Ellipse 191" class="cls-2" cx="31.15" cy="27.61" r="1.55"></circle></g></g><g id="Group_4308" data-name="Group 4308"><g id="Group_4307" data-name="Group 4307"><path id="Path_463-2" data-name="Path 463-2" class="cls-2" d="M83.54,24.5H69.12A10.61,10.61,0,0,0,58.5,35.11h0a10.61,10.61,0,0,0,9.81,10.58v3.1A1.71,1.71,0,0,0,71.24,50l4.28-4.27h8A10.61,10.61,0,0,0,94.15,35.11h0A10.61,10.61,0,0,0,83.54,24.5Z"></path><g id="Group_333-2" data-name="Group 333-2"><circle id="Ellipse_189-2" data-name="Ellipse 189-2" class="cls-2" cx="84.8" cy="35" r="1.55"></circle><circle id="Ellipse_190-2" data-name="Ellipse 190-2" class="cls-2" cx="77.39" cy="35" r="1.55"></circle><circle id="Ellipse_191-2" data-name="Ellipse 191-2" class="cls-2" cx="69.85" cy="35" r="1.55"></circle></g></g></g></svg>